<svg xmlns="http://www.w3.org/2000/svg" width="47.79" height="47.9" viewBox="0 0 47.79 47.9">
  <title>santa-hand</title>
  <g style="isolation: isolate">
    <g id="Layer_1" data-name="Layer 1">
      <g>
        <path d="M47.33,41a6.64,6.64,0,0,1-6.86,6.4H10.7A6.64,6.64,0,0,1,3.84,41h0a6.64,6.64,0,0,1,6.86-6.39H40.47A6.64,6.64,0,0,1,47.33,41Z" transform="translate(-0.21 -0.1)" fill="#fcfcfc" stroke="snow" stroke-miterlimit="10"/>
        <path d="M10.07,34.59S-.36,23.78,1,20s7.15-9.54,12.56,0V7.92S15.68.72,23.22.72h9.67s8.89,2.88,8.89,8.47v25.4Z" transform="translate(-0.21 -0.1)" fill="#e92f47"/>
        <g opacity="0.5" style="mix-blend-mode: multiply">
          <path d="M33.54,34.59V9.19c0-5.59-8.89-8.47-8.89-8.47h8.24s8.89,2.88,8.89,8.47v25.4Z" transform="translate(-0.21 -0.1)" fill="#be1e2d"/>
        </g>
        <g opacity="0.5" style="mix-blend-mode: multiply">
          <path d="M40.47,47.38H28.12A6.64,6.64,0,0,0,35,41a6.64,6.64,0,0,0-6.86-6.39H40.47A6.64,6.64,0,0,1,47.33,41,6.64,6.64,0,0,1,40.47,47.38Z" transform="translate(-0.21 -0.1)" fill="#b8b7b5"/>
        </g>
        <path d="M33.1.13c.39.13,9.34,3.1,9.34,9.06v25.4a.64.64,0,0,1-.66.62H10.07A.71.71,0,0,1,9.58,35C8.48,33.87-1.08,23.81.36,19.8c.76-2.12,3.08-5.37,6.37-5.63C9,14,11,15.2,12.89,17.75V7.92a.88.88,0,0,1,0-.16C12.93,7.68,15.26.1,23.22.1h9.67ZM14.22,20a.64.64,0,0,1-.5.61.69.69,0,0,1-.76-.32c-1.89-3.34-4-5-6.12-4.87C4.5,15.59,2.4,18,1.62,20.19.74,22.65,6.44,29.85,10.37,34H41.11V9.19c0-4.77-7.39-7.51-8.34-7.85H23.22c-6.61,0-8.74,5.89-9,6.67Z" transform="translate(-0.21 -0.1)" fill="#4f142a"/>
        <path d="M48,41a7.3,7.3,0,0,1-7.53,7H10.7a7.3,7.3,0,0,1-7.53-7,7.3,7.3,0,0,1,7.53-7H40.47A7.3,7.3,0,0,1,48,41Zm-7.53,5.78A6,6,0,0,0,46.66,41a6,6,0,0,0-6.19-5.77H10.7A6,6,0,0,0,4.51,41a6,6,0,0,0,6.19,5.78Z" transform="translate(-0.21 -0.1)" fill="#4f142a"/>
      </g>
    </g>
  </g>
</svg>
