<?xml version="1.0" encoding="utf-8"?>
<!-- Generator: Adobe Illustrator 24.0.3, SVG Export Plug-In . SVG Version: 6.00 Build 0)  -->
<svg version="1.1" id="Layer_1" xmlns="http://www.w3.org/2000/svg" xmlns:xlink="http://www.w3.org/1999/xlink" x="0px" y="0px"
	 viewBox="0 0 20 20" style="enable-background:new 0 0 20 20;" xml:space="preserve">
<style type="text/css">
	.st0{fill-rule:evenodd;clip-rule:evenodd;}
	.st1{fill-rule:evenodd;clip-rule:evenodd;fill:#FFFFFF;}
	.st2{fill:none;stroke:#000000;stroke-width:0.5;stroke-miterlimit:10;}
	.st3{fill:none;stroke:#000000;stroke-width:0.25;stroke-miterlimit:10;}
	.st4{stroke:#000000;stroke-width:0.25;stroke-miterlimit:10;}
</style>
<circle class="st0" cx="11.2" cy="9.4" r="5.2"/>
<circle class="st1" cx="9" cy="8.9" r="1"/>
<circle class="st1" cx="13.2" cy="7.5" r="0.6"/>
<circle class="st1" cx="12.6" cy="11.5" r="0.4"/>
<line class="st2" x1="11.5" y1="4.4" x2="11.9" y2="2.4"/>
<line class="st2" x1="4.6" y1="3.7" x2="7.3" y2="6"/>
<line class="st2" x1="3.5" y1="12" x2="6.7" y2="10.9"/>
<line class="st3" x1="9" y1="13.8" x2="7.5" y2="15.7"/>
<line class="st3" x1="14.6" y1="12.8" x2="17.6" y2="16.4"/>
<line class="st3" x1="14.8" y1="6.3" x2="18.4" y2="3.4"/>
<line class="st3" x1="15.7" y1="9.7" x2="18.7" y2="10.2"/>
<line class="st4" x1="7.6" y1="8.5" x2="2.5" y2="7.8"/>
<circle class="st4" cx="12" cy="1.8" r="0.9"/>
<circle class="st4" cx="4.1" cy="3" r="1.2"/>
<circle class="st4" cx="1.9" cy="7.9" r="1"/>
<circle class="st4" cx="3.4" cy="12.2" r="0.7"/>
<circle class="st4" cx="7.7" cy="15.9" r="1"/>
<circle class="st4" cx="17.5" cy="16.5" r="0.9"/>
<circle class="st4" cx="18.8" cy="10.1" r="0.7"/>
<circle class="st4" cx="18.5" cy="3.3" r="0.8"/>
</svg>
