<?xml version="1.0" encoding="utf-8"?>
<!-- Generator: Adobe Illustrator 23.0.4, SVG Export Plug-In . SVG Version: 6.00 Build 0)  -->
<svg version="1.1" id="Layer_1" xmlns="http://www.w3.org/2000/svg" xmlns:xlink="http://www.w3.org/1999/xlink" x="0px" y="0px"
	 viewBox="0 0 20 20" style="enable-background:new 0 0 20 20;" xml:space="preserve">
<style type="text/css">
	.st0{fill-rule:evenodd;clip-rule:evenodd;fill:#0F1D4F;}
	.st1{fill-rule:evenodd;clip-rule:evenodd;fill:#FFFFFF;fill-opacity:0.43;}
	.st2{fill-rule:evenodd;clip-rule:evenodd;fill:#C80BC7;}
</style>
<path class="st0" d="M6.1,10.5V8.7c0-0.7,0.3-1.3,0.9-1.6L8.8,6c0.6-0.4,0.9-1,0.9-1.6V2.2c0-1.1-0.9-1.9-1.9-1.9
	c-0.2,0-0.4,0-0.5,0.1C5,1,3.2,2.4,1.9,4.5C0.5,6.8,0,9.3,0.6,11.9c0.2,1,1.3,1.7,2.3,1.5c0.2,0,0.4-0.1,0.5-0.2l1.7-0.9
	C5.7,11.8,6.1,11.2,6.1,10.5L6.1,10.5z M13.9,10.5V8.7c0-0.7-0.3-1.3-0.9-1.6L11.2,6c-0.6-0.4-0.9-1-0.9-1.6V2.2
	c0-1.1,0.9-1.9,1.9-1.9c0.2,0,0.4,0,0.5,0.1c2.2,0.7,4,2.1,5.3,4.2c1.4,2.3,1.8,4.7,1.3,7.3c-0.2,1-1.3,1.7-2.3,1.5
	c-0.2,0-0.4-0.1-0.5-0.2l-1.7-0.9C14.3,11.8,13.9,11.2,13.9,10.5L13.9,10.5z M12.4,12.6L11,13.4c-0.6,0.4-1.3,0.4-1.9,0l-1.7-0.9
	c-0.6-0.3-1.3-0.3-1.9,0l-1.7,1c-0.9,0.5-1.2,1.7-0.7,2.6c0.1,0.1,0.2,0.3,0.3,0.4C5,18.2,7.1,19,9.5,19.2c2.6,0.1,4.8-0.7,6.7-2.5
	c0.8-0.7,0.8-2,0.1-2.7c-0.1-0.1-0.2-0.2-0.4-0.3l-1.6-1C13.7,12.2,13,12.2,12.4,12.6z"/>
<path class="st1" d="M6.8,2.9L6.8,2.9l0.3,0.1l0.1,0.3l-0.1,0l0.1,0.3l0.4,0.1l0.2-0.1L7.8,4l0.3-0.1L7.9,3.5L8,3.3H7.8L7.7,3.1
	l-0.1,0L7.6,3L7.4,2.5H7.2L6.8,2.9L6.8,2.9z M7.6,2.4l0,0.1l0.3,0L7.7,2.7L7.9,3h0.5l0.1-0.1L8.3,2.8L8.2,2.8L8,2.6l0.2-0.2L8.1,2.4
	L7.6,2.4L7.6,2.4z M8.6,2.4l-0.2,0l0,0.1l0.3,0L8.6,2.4L8.6,2.4z M9,2.5L8.9,2.7l0.3,0.2l0-0.1C9.2,2.8,9,2.5,9,2.5z M9.3,2.5
	L9.2,2.8l0.2,0l0,0l0-0.1C9.5,2.7,9.3,2.5,9.3,2.5z M9.6,2.3L9.5,2.7l0,0l0.3,0.3L9.7,3.1L9.3,3.1l-0.1,0l0.3,0.1L9.3,3.4l0.2,0.1
	L9.2,3.9l0.3,0.3h0l0.3,0.1l0,0L10,4.2l0.4,0.3l-0.2,0.1l0,0.1l0.2,0l0,0.1l-0.2,0.3l-0.3,0L9.8,5.3L10,5.4h0l0.2-0.1l0.3,0.4l0.3,0
	l0-0.1l-0.3-0.2L11,5.5l0-0.1l-0.2-0.3l0-0.1l0.3,0.3l0.2-0.3l-0.2,0l-0.4-0.3l0.2-0.2l-0.4-0.3l-0.1-0.2l-0.2-0.1l0-0.2l-0.3,0
	L9.6,3.5l0.4-0.1L10,3.4L9.7,3.3l0-0.1l0.3,0l0.3,0.1l0.1-0.1V3.1l0.3-0.2l0.3-0.1l0.4-0.3l-0.4-0.3l-0.1,0.1l-0.2-0.1l-0.2,0.1
	l-0.1-0.1h0l-0.3,0l0.1,0.2l-0.2,0L9.8,2.4C9.8,2.4,9.6,2.3,9.6,2.3z M8.8,2.9L8.8,2.9l0.2,0.4l0.3,0l0-0.2H9l0-0.3L9,2.9L8.9,2.9
	C8.9,2.9,8.8,2.9,8.8,2.9z M11.2,3L11.2,3l-0.4,0l-0.1,0.1l0.2,0.1l-0.2,0v0.2l0.4,0.2l0.3-0.1l0.5,0.4l0,0.2l0,0.2h0.2l0.1,0.2
	l-0.2,0l-0.1,0.2l0.3,0.1l0.1-0.2l0.1,0.3L12.1,5l0,0.2l0.3,0.4l0,0.2L13,6.2l0.3,0l0.1-0.5l-0.1-0.3l0.1-0.1l0.1,0l0,0l0.2-0.3V4.8
	l0.2,0l0.3-0.3l0-0.2L14.1,4l-0.2,0l-0.1-0.1l0.1,0l0-0.2l-0.2-0.1l0-0.2l-0.1-0.1l-0.1-0.2l-0.2-0.1l0-0.4l-0.1,0l-0.2,0.1
	l-0.2-0.1l-0.3,0.1l0-0.1L13,2.4l-0.2-0.1l-0.3,0.1l0-0.1l0.1,0l-0.1,0l-0.3,0l-0.1,0.2l-0.1,0l-0.2,0.1L12,2.6l-0.2,0l0-0.1
	l-0.7,0.2L11,2.9l0,0L11.4,3H11.2L11.2,3z M15,4.8l-0.5,0.1L14.5,5l0.7,0.2h0l0.2-0.3l-0.2-0.2C15.2,4.7,15,4.8,15,4.8z M14.4,1.9
	L14.4,1.9L14.4,2l0.2,0.1l-0.2,0l0,0h0.3l0.3,0.1l0-0.1v0l-0.3-0.1l0-0.1L14.4,1.9L14.4,1.9z M18.2,7.6l0.1,0.2l0,0.1L18.5,8l0-0.1
	l-0.1-0.1v0l0-0.2L18.2,7.6C18.3,7.6,18.2,7.6,18.2,7.6z M19.6,8.9c0.1,1.5-0.2,3-0.8,4.4l0.1-0.8l-0.1-0.3l-0.2,0.2l-0.3-0.2
	L17.9,13l-0.5,0.2L17.1,13l0-0.2l-0.4-0.5l0-0.2l0.2-0.2l0-0.3l-0.1-0.3l0-0.3l0.5-1.1l0.2-0.7l0-0.4h0.3l0.4-0.3l0.2-0.5l0.2,0.1
	l0.1,0.3l0.4,0l0-0.5l0.2-0.2L19.6,8.9L19.6,8.9z M13.2,0.4c3,1.1,5.3,3.6,6.1,6.7L19.2,7l-0.3-0.2l-0.1,0.1l0.1,0.4l-0.1,0.1
	l-0.2-0.3l-0.4-0.3V7l0.3,0.2l0.1,0.2l0,0.1l-0.3-0.4h-0.2l0,0.3l-0.2,0l-0.2,0.2l0,0.8l-0.1,0.2l-0.5,0.1L17,8.6l0.1-0.4L17,8
	l0.1-0.1l0.2,0l0.2-0.2V7.5l-0.2-0.1l0-0.1l-0.2-0.1l0-0.1l0,0l0.1-0.1l0.1-0.6l0-0.3l0.1-0.2l-0.3-0.2l0.1-0.2l0.1,0l-0.1,0.2
	l0.2,0.1l0.1-0.1l0-0.3l-0.3-0.5l0.1,0V4.7l-0.3-0.2l0.2-0.4L17.2,4l0,0.3l-0.6-0.7l-0.1,0.1l0.7,1l0.2,0.7l-0.1,0L17.1,5H17l0,0.3
	l-0.2,0l-0.5-0.4l0.1-0.5l-0.2-0.5L16,3.4L16,3.3L15.9,3V2.8L16,2.9l0.4,0.3l0.3,0l-0.6-0.7l-0.4-0.5L15.4,2l-0.6-0.5l0-0.1l0.6,0.3
	l-0.3-0.4l-1.5-0.7L13.2,0.4L13.2,0.4z M11.4,6.7l0-0.2L11.1,6l-0.3,0.2l-0.3-0.1l0-0.3L9.9,5.6L9.6,6l0.2,0.3l0,0.3L9.4,6.7
	L9.3,7.2L9,7.1L8.9,6.7l0-0.2L8.1,6l0-0.3L7.9,5.6l0-0.2l0.4-0.2l0.4,0l0-0.2L9,5l0-0.1L8.8,4.8l0-0.1l0.2,0.1l0.2,0l0.2,0l0.2-0.2
	L9.6,4.4l-0.2,0L9.3,4.5l-0.1,0l0.1-0.2l0-0.1L9,4.3L8.9,4.1L9,4L8.9,3.7l0.2,0l0.1-0.2L9.1,3.4L8.8,3.5l0-0.2L8.6,3.2l0,0.2l-0.2,0
	L8.3,3.5l0.2,0.2l0.1,0l0,0.2l0.2,0.2L8.4,4.4L8.3,4.2H8.1L7.7,3.9L7.5,3.9L7.3,4.1l0-0.3L7.1,3.8V3.6L6.9,3.3L6.6,3.1V2.9H6.4
	l0-0.1L6.1,2.7L5.9,2.3l0-0.5l-0.5,0L5.2,2L5,2L4.8,2.2l0,0.1L4.7,2.4L4.5,2.3L4.1,2.8L4,3L3.7,3L3.6,3.2l0.3,0.1l0.6,0l0.1,0.4
	L4.6,4.2l0.2-0.1L4.3,5.4l0.3,0.3l0,0L4.5,6L4.3,5.9h0L4.2,6.2L3.8,6.7L3.6,7.2l0.2,0.2L3.7,7.7l0.4,1l0.2,0.2l0,0.4L4.1,8.9
	L3.9,9.1l0.3,0.6l0.2-0.4l0.4,1l-0.1,0.3l0.6,0.7l1,0.6l0.9,0.4l0.1,0.4l0.2,0.1l0.2,0.3L8,13.2l0.2-0.1l0.3,0.3l-0.1,0.2l0,0.3
	l-0.6,0.6h0l0,0.1l-0.1,0.1l0.2,0.6L8.5,16l0.4,0.2l0.2,0.1l0.1,0.3l-0.1,0.6l-0.4,0.7l-0.2,0.2l0,0.3l-0.1,0.3l0.1,0.1L8.9,19
	L9,18.9h0l0.2-0.1l0-0.1l-0.1-0.1l0.4-0.1l0-0.1l0.1-0.1l0.1,0.1h0l0.2-0.1l0.5,0l0.1-0.1L10.4,18l0.1-0.1l0.2,0.2L11,18l0.5-0.3
	l0.1,0.1l0.3-0.2l0.1-0.2l0.4-0.2l0.5,0l0.7-0.7l0.5-0.6l0.2-0.2l0.1-0.3L13.9,15L13.2,15L13,14.8h-0.3l-0.2,0.1h-0.2l-0.1-0.1
	l-0.1,0.1l-0.1-0.1l0.2-0.2l0.2,0l0-0.1l-0.1-0.2l0-0.2L12,13.9l-0.3-0.1l-0.1,0.1l-0.2-0.1l-0.1,0l0-0.2l-0.2-0.1l-0.3,0l0.1-0.1
	l-0.3-0.2l-0.3,0.1L10,13.2L9.6,13l-0.2,0.2l0,0.2l-0.1,0l-0.1-0.1l0.1-0.1l0-0.1L9.4,13l0-0.1L9.1,13h0l-0.2,0l0,0l-0.3,0.3L8.3,13
	l-0.2,0l-0.3-0.2l-0.1-0.2l-0.1-0.5L7,12l0.3-0.7l0-0.1l-0.4,0l-0.3,0.4l-0.2-0.2l-0.3,0l-0.2-0.4v-0.5l0.2-0.1V10l0.3-0.1l0.6,0.1
	l0.3,0.1L7.3,10l0.8,0.2v0.3l0.3,0.3l0.1-0.1l-0.2-0.3v-0.2l0.7-0.5l0.1-0.1L9.2,9.3l0,0l0.2-0.2l0,0.1l0.4-0.3l0.2,0l0.3-0.3
	L11,8.4l-0.3,0.2l0.2,0.1v0l0.3-0.3l0-0.2l-0.2,0L10.8,8L11,7.7l0.3,0l0.1-0.1l0.6-0.2l-0.1,0.4L11.7,8l0.7,0.1l0.2-0.2L12,7.7
	l0-0.3L12,7.4l-0.1-0.2L11.8,7l-0.3-0.1L11.4,6.7L11.4,6.7z"/>
<path class="st2" d="M10.5,7.2l1.1,0.6C12,8,12.2,8.4,12.2,8.9v1.2c0,0.5-0.2,0.9-0.6,1.1l-1.1,0.6c-0.4,0.2-0.9,0.2-1.3,0l-1.1-0.6
	c-0.4-0.2-0.6-0.7-0.6-1.1V8.9c0-0.5,0.2-0.9,0.6-1.1l1.1-0.6C9.6,6.9,10.1,6.9,10.5,7.2z"/>
</svg>
