<?xml version="1.0" encoding="UTF-8"?>
<svg version="1.1" xmlns="http://www.w3.org/2000/svg" xmlns:xlink="http://www.w3.org/1999/xlink" viewBox="0 0 20 20">
<path d="M19.5 9.1l-6.6-6.6c-.2-.3-.6-.5-1-.5h-1.5l6.1 6.1c.5.5.8 1.2.8 2s-.3 1.5-.8 2L11 17.5c.6.6 1.5.6 2.1 0l6.4-6.4c.6-.5.6-1.5 0-2z"/>
<path d="M15.5 9.1L8.9 2.5c-.2-.3-.6-.5-1-.5H1.5C.7 2 0 2.7 0 3.5v6.4c0 .4.2.8.4 1.1L7 17.6c.6.6 1.5.6 2.1 0l6.4-6.4c.6-.6.6-1.6 0-2.1zM3.5 7C2.7 7 2 6.3 2 5.5S2.7 4 3.5 4 5 4.7 5 5.5 4.3 7 3.5 7zm3.1 2.8L5 8.2 6.2 7l1.6 1.6-1.2 1.2zm2.1 2.1l-1.6-1.6 1.2-1.2 1.6 1.6-1.2 1.2zm2.1 2l-1.6-1.6 1.2-1.2 1.6 1.6-1.2 1.2z"/>
</svg>
