<svg width="392" height="120" viewBox="0 0 392 120" fill="none" xmlns="http://www.w3.org/2000/svg">
<path fill-rule="evenodd" clip-rule="evenodd" d="M75.8921 6.33283C87.4651 11.2244 95.572 22.6721 95.572 36.0427C95.572 44.2671 92.5015 51.7592 87.4455 57.4497C86.7914 56.2082 85.9807 53.7996 87.1008 50.5059C88.4128 46.6561 86.157 41.7332 83.4664 39.6967C81.939 38.5374 79.5304 39.9786 78.097 40.2215C75.1558 40.7345 73.3543 39.3207 71.8308 35.2006C69.3047 28.3822 74.255 24.6381 77.1062 23.3888C79.9495 22.1355 82.6205 20.193 84.4338 21.0977C85.6478 21.6969 85.8868 23.1224 86.298 23.4593C87.4572 24.4109 88.7575 24.9279 90.1165 23.7726C91.9572 22.2021 86.8737 17.2831 83.8385 17.5337C80.4038 17.8118 80.1649 19.351 78.3359 20.471C76.4952 21.595 73.4169 21.6538 73.789 18.7204C74.2472 15.1095 78.6101 18.3758 77.4273 14.2205C76.2407 10.8954 79.037 13.6957 80.2197 12.0351C81.4025 10.3746 79.178 9.2388 77.9286 10.5077C76.6871 11.7805 75.101 10.5155 75.661 7.45292C75.7903 6.75189 75.8373 6.5639 75.8882 6.32891L75.8921 6.33283ZM51.3206 6.12134C51.5752 7.19444 52.2253 9.43462 53.2475 10.1866C54.6104 11.1853 55.2918 13.1826 53.5882 13.9659C51.8806 14.7413 51.2266 15.1565 52.3349 15.6265C53.4394 16.1003 52.6208 18.2661 50.9994 17.71C49.378 17.1538 47.4159 16.3236 47.2749 18.0703C47.1339 19.8209 45.9551 21.8418 45.07 22.8405C44.1849 23.8431 43.3194 24.2112 43.6288 25.5663C43.9421 26.9292 43.0766 27.9866 42.5518 26.8195C42.027 25.6524 39.9121 25.5428 38.5688 26.843C38.5688 26.843 34.8717 31.0062 36.8064 31.4017C39.2072 31.8991 41.98 32.0675 42.7162 34.6797C43.2019 36.3755 44.3063 37.7855 46.5269 36.8416C48.7436 35.8978 51.4772 35.7058 53.6508 37.9029C55.8244 40.1 57.3362 37.5466 59.639 42.6575C62.0515 45.8767 68.1846 40.5191 64.8322 50.4707C62.7447 56.6703 60.3205 53.6077 59.7722 56.267C58.8714 60.6102 52.2879 66.2577 52.2879 66.2577L47.3807 63.9862C47.3807 63.9862 49.6287 54.0855 47.3807 52.2801C45.1248 50.4707 42.6693 45.0895 43.2763 42.5791C43.8755 40.0648 45.2893 39.2424 41.9878 37.4369C38.6902 35.6314 39.2933 33.9043 36.7986 33.3168C34.7738 32.8312 32.1576 33.309 31.2059 33.5087C31.2882 32.4474 31.4213 31.4056 31.6093 30.3717L32.8861 25.4527C35.9409 16.6447 42.7045 9.58344 51.3167 6.12526L51.3206 6.12134ZM63.3361 7.62939e-06C43.4525 7.62939e-06 27.2935 16.163 27.2935 36.0427C27.2935 55.9223 43.4564 72.0892 63.34 72.0892C83.2236 72.0892 99.3827 55.9262 99.3827 36.0427C99.3827 16.1591 83.2197 7.62939e-06 63.3361 7.62939e-06Z" fill="#4051CC"/>
<path d="M112.495 85.0173L124.224 91.0289L62.2551 119.266L0.458219 86.1021L12.1878 81.1322L17.5102 83.9912L17.1343 84.1596C17.1773 84.2849 17.2165 84.4102 17.2165 84.5551C17.2165 85.076 16.7779 85.5146 16.257 85.5146C15.8379 85.5146 15.505 85.2836 15.3601 84.9311L11.3928 86.6426L15.2936 88.73V88.6047C15.2936 87.7078 16.022 86.9755 16.9228 86.9755C17.8235 86.9755 18.552 87.7039 18.552 88.6047C18.552 89.2078 18.2191 89.7522 17.7178 90.0224L25.8796 94.4049C25.9618 93.9662 26.3613 93.6334 26.8195 93.6334C27.3404 93.6334 27.779 94.072 27.779 94.5929C27.779 94.8435 27.6733 95.0942 27.5088 95.2626L35.1262 99.3552C34.9578 99.1046 34.8756 98.8147 34.8756 98.5014C34.8756 97.6046 35.604 96.8722 36.5048 96.8722C37.4056 96.8722 38.134 97.6007 38.134 98.5014C38.134 99.4022 37.4447 100.088 36.5674 100.131L47.9642 106.244C48.1091 105.492 48.7592 104.952 49.5503 104.952C50.4472 104.952 51.1795 105.68 51.1795 106.581C51.1795 107.02 51.0111 107.415 50.7213 107.709L62.494 113.991L69.2146 110.924C68.9443 110.634 68.7759 110.235 68.7759 109.82C68.7759 108.923 69.5044 108.191 70.4052 108.191C71.2394 108.191 71.9482 108.837 72.0344 109.651L97.2286 98.1725C97.209 98.0902 97.1855 98.0041 97.1855 97.9218C97.1855 97.4009 97.6242 96.9623 98.145 96.9623C98.4779 96.9623 98.7717 97.1503 98.9401 97.4009L104.513 94.8553C103.804 94.6869 103.26 94.0407 103.26 93.2691C103.26 92.3723 103.988 91.6399 104.889 91.6399C105.79 91.6399 106.518 92.3683 106.518 93.2691C106.518 93.5394 106.456 93.79 106.33 94.0211L111.59 91.6203C111.089 91.3501 110.736 90.8057 110.736 90.1791C110.736 89.9284 110.779 89.6974 110.881 89.4898L107.039 87.5277L112.506 85.0251L112.495 85.0173ZM79.8515 102.277C79.8515 101.376 79.1231 100.648 78.2223 100.648C77.3215 100.648 76.5931 101.376 76.5931 102.277C76.5931 103.178 77.3215 103.906 78.2223 103.906C79.1231 103.906 79.8515 103.178 79.8515 102.277ZM91.0838 99.5628C91.0838 98.662 90.3553 97.9336 89.4545 97.9336C88.5538 97.9336 87.8253 98.662 87.8253 99.5628C87.8253 100.464 88.5538 101.192 89.4545 101.192C90.3553 101.192 91.0838 100.464 91.0838 99.5628ZM98.1176 93.6138C98.1176 92.713 97.3892 91.9845 96.4884 91.9845C95.5876 91.9845 94.8592 92.713 94.8592 93.6138C94.8592 94.5145 95.5876 95.243 96.4884 95.243C97.3892 95.243 98.1176 94.5145 98.1176 93.6138ZM60.34 108.202C60.34 107.302 59.6116 106.573 58.7108 106.573C57.81 106.573 57.0816 107.302 57.0816 108.202C57.0816 109.103 57.81 109.832 58.7108 109.832C59.6116 109.832 60.34 109.103 60.34 108.202ZM25.6289 89.3958C26.0676 89.3958 26.4827 89.2274 26.7764 88.9376L24.0232 87.4572C24.0036 87.5629 24.0036 87.6648 24.0036 87.7705C24.0036 88.6674 24.7321 89.3958 25.6329 89.3958H25.6289ZM45.5203 100.769C46.19 100.769 46.7736 100.373 47.0242 99.7899L44.1457 98.2469C43.9773 98.4975 43.895 98.8108 43.895 99.1241C43.895 100.044 44.6235 100.773 45.5243 100.773L45.5203 100.769ZM30.1171 92.901C30.1171 93.7978 30.8456 94.5302 31.7464 94.5302C32.6471 94.5302 33.3756 93.8018 33.3756 92.901C33.3756 92.7326 33.356 92.5877 33.3129 92.4193L31.2686 91.3344C30.6028 91.5224 30.121 92.149 30.121 92.901H30.1171ZM124.228 77.0395L62.259 105.277L0.458219 72.1166L11.2283 67.4639L15.9868 70.0096L16.5507 70.3229L19.0533 71.6584L21.1838 77.8581L26.1302 80.5095L24.0232 74.3098L27.0898 75.9586L29.1968 82.1583L34.3116 84.9115L32.2046 78.7119L35.2711 80.3607L37.3781 86.5603L42.1992 89.1491L40.0922 82.9494L43.1588 84.5982L45.2462 90.7783L50.361 93.5315L48.254 87.3319L51.3205 88.9807L53.4276 95.1803L58.3113 97.7495L56.2043 91.5498L59.2708 93.1986L61.3779 99.3944L62.4196 99.9583L65.4274 98.5798L63.7159 93.5707L65.8856 92.5916L67.5971 97.6007L71.2903 95.9323L69.5788 90.9232L71.7485 89.9441L73.46 94.9532L77.5918 93.0733L75.8803 88.0642L78.05 87.0851L79.7614 92.0942L83.3724 90.4454L81.6609 85.4363L83.8306 84.4572L85.5421 89.4663L89.8227 87.5238L88.1112 82.5147L90.2809 81.5356L91.9924 86.5447L96.1242 84.6648L94.4127 79.6557L96.5824 78.6766L98.2939 83.6857L101.905 82.0369L100.193 77.0278L102.363 76.0487L104.074 81.0578L108.206 79.1779L106.495 74.1688L107.415 73.7498L108.668 73.1858L112.906 71.2433L124.217 77.0474L124.228 77.0395ZM11.3302 72.5984L18.0938 76.2289L16.1512 70.5109L11.3302 72.5984ZM110.407 78.191L113.415 76.8124L109.197 74.6427L110.407 78.191ZM74.0083 105.304C74.0083 104.024 72.0892 104.024 72.0892 105.304C72.0892 106.585 74.0083 106.585 74.0083 105.304ZM65.7016 110.125C65.7016 108.845 63.7825 108.845 63.7825 110.125C63.7825 111.406 65.7016 111.406 65.7016 110.125ZM41.929 100.107C41.929 98.8265 40.01 98.8265 40.01 100.107C40.01 101.388 41.929 101.388 41.929 100.107ZM49.2331 102.277C49.2331 100.996 47.3141 100.996 47.3141 102.277C47.3141 103.558 49.2331 103.558 49.2331 102.277ZM22.6603 89.9833C22.6603 88.7026 20.7413 88.7026 20.7413 89.9833C20.7413 91.2639 22.6603 91.2639 22.6603 89.9833ZM85.17 102.026C85.17 100.746 83.251 100.746 83.251 102.026C83.251 103.307 85.17 103.307 85.17 102.026ZM93.0185 95.619C93.0185 94.3383 91.0994 94.3383 91.0994 95.619C91.0994 96.8996 93.0185 96.8996 93.0185 95.619ZM55.0529 104.928C55.0529 103.648 53.1338 103.648 53.1338 104.928C53.1338 106.209 55.0529 106.209 55.0529 104.928ZM97.0994 50.69C96.9701 51.0111 96.8291 51.3245 96.6921 51.6417C96.6451 51.7435 96.5981 51.8493 96.5511 51.9511C96.0889 52.9654 95.5837 53.9524 95.0354 54.9158L112.894 63.5436L61.9849 86.6465L10.8954 59.2199L29.3965 51.0699C29.3848 51.0425 29.373 51.0151 29.3613 50.9837C29.1811 50.5529 29.0088 50.1182 28.8443 49.6756C28.7621 49.4602 28.6876 49.2448 28.6093 49.0255C28.5349 48.818 28.4683 48.6104 28.3978 48.4028C28.1903 47.7762 27.9944 47.1457 27.8182 46.5034L0 58.7617L14.0051 66.2773L19.3274 69.1363L22.8757 71.0553L25.9422 72.7041L31.0571 75.4573L34.1236 77.1061L38.9447 79.6949L42.0112 81.3437L47.1261 84.0969L50.1926 85.7457L55.0999 88.3775L58.1664 90.0263L61.7969 91.9689L62.964 91.4245L65.1337 90.4454L68.8073 88.777L70.977 87.7979L75.1088 85.918L77.2785 84.9389L80.8894 83.2901L83.0591 82.311L87.3397 80.3685L89.5094 79.3894L93.6412 77.5095L95.8109 76.5304L99.4218 74.8816L101.591 73.9025L104.721 72.4848L105.723 72.0266L107.893 71.0475L110.211 69.9822L123.758 63.8021L97.0915 50.6978L97.0994 50.69Z" fill="url(#paint0_linear_159_1863)"/>
<path d="M156.201 34.903V52.8636C156.201 57.2186 152.665 60.7552 148.376 60.7552C144.088 60.7552 140.485 57.2186 140.485 52.8636V34.903C140.485 30.6184 144.021 27.078 148.376 27.078C152.731 27.078 156.201 30.6145 156.201 34.903ZM151.846 34.903C151.846 32.9996 150.28 31.433 148.376 31.433C146.473 31.433 144.84 32.9957 144.84 34.903V52.8636C144.84 54.8375 146.406 56.4001 148.376 56.4001C150.346 56.4001 151.846 54.8336 151.846 52.8636V34.903Z" fill="#001A39"/>
<path d="M177.491 28.2333V49.3898C177.491 50.9563 177.013 52.4524 176.198 53.7448L172.525 60.2069C172.321 60.5476 171.98 60.7512 171.573 60.7512H167.762C167.355 60.7512 167.014 60.5476 166.811 60.2069L163.137 53.7448C162.323 52.4524 161.845 50.9563 161.845 49.3898V28.2333C161.845 27.6224 162.323 27.1446 162.934 27.1446H165.111C165.722 27.1446 166.2 27.6224 166.2 28.2333V49.3898C166.2 49.7971 166.266 50.1378 166.403 50.4785L169.67 56.3296L173.003 50.4785C173.069 50.1378 173.14 49.7971 173.14 49.3898V28.2333C173.14 27.6224 173.684 27.1446 174.228 27.1446H176.406C177.017 27.1446 177.495 27.6224 177.495 28.2333H177.491Z" fill="#001A39"/>
<path d="M187.56 31.433V41.7058H193.478C194.089 41.7058 194.566 42.1836 194.566 42.7945V44.9721C194.566 45.583 194.089 46.0608 193.478 46.0608H187.56V56.4001H193.478C194.089 56.4001 194.566 56.8779 194.566 57.4889V59.6664C194.566 60.2774 194.089 60.7552 193.478 60.7552H185.382C184.157 60.7552 183.205 59.733 183.205 58.5776V29.2555C183.205 28.0297 184.157 27.078 185.382 27.078H193.478C194.089 27.078 194.566 27.5558 194.566 28.1668V30.3443C194.566 30.9552 194.089 31.433 193.478 31.433H187.56Z" fill="#001A39"/>
<path d="M215.519 38.1693C215.519 40.4134 214.634 42.4538 213.138 43.8833C214.634 45.3128 215.519 47.2866 215.519 49.5307V59.6664C215.519 60.2108 215.041 60.7552 214.43 60.7552H212.253C211.642 60.7552 211.164 60.2108 211.164 59.6664V49.5307C211.164 47.6274 209.597 46.0608 207.694 46.0608H204.224V59.6664C204.224 60.2108 203.68 60.7552 203.135 60.7552H200.958C200.347 60.7552 199.869 60.2108 199.869 59.6664V29.2555C199.869 28.0297 200.821 27.078 202.047 27.078H207.694C212.049 27.078 215.519 30.6145 215.519 34.903V38.1693ZM211.164 34.903C211.164 32.9996 209.597 31.433 207.694 31.433H204.224V41.7058H207.694C209.597 41.7058 211.164 40.1431 211.164 38.1693V34.903Z" fill="#001A39"/>
<path d="M231.099 28.1668V30.3443C231.099 30.9552 230.621 31.433 230.01 31.433H226.947V59.6664C226.947 60.2108 226.469 60.7552 225.858 60.7552H223.681C223.07 60.7552 222.592 60.2108 222.592 59.6664V31.433H219.53C218.919 31.433 218.441 30.9552 218.441 30.3443V28.1668C218.441 27.5558 218.919 27.078 219.53 27.078H230.006C230.617 27.078 231.095 27.5558 231.095 28.1668H231.099Z" fill="#001A39"/>
<path d="M251.777 28.1668V52.8597C251.777 57.2147 248.241 60.7512 243.952 60.7512C239.664 60.7512 236.061 57.2147 236.061 52.8597V28.1668C236.061 27.5558 236.605 27.078 237.149 27.078H239.327C239.938 27.078 240.416 27.5558 240.416 28.1668V52.8597C240.416 54.8336 241.982 56.3962 243.952 56.3962C245.922 56.3962 247.422 54.8296 247.422 52.8597V28.1668C247.422 27.5558 247.9 27.078 248.511 27.078H250.688C251.299 27.078 251.777 27.5558 251.777 28.1668Z" fill="#001A39"/>
<path d="M272.726 38.1693C272.726 40.4134 271.841 42.4538 270.345 43.8833C271.841 45.3128 272.726 47.2866 272.726 49.5307V59.6664C272.726 60.2108 272.248 60.7552 271.637 60.7552H269.46C268.849 60.7552 268.371 60.2108 268.371 59.6664V49.5307C268.371 47.6274 266.804 46.0608 264.901 46.0608H261.431V59.6664C261.431 60.2108 260.887 60.7552 260.342 60.7552H258.165C257.554 60.7552 257.076 60.2108 257.076 59.6664V29.2555C257.076 28.0297 258.028 27.078 259.254 27.078H264.901C269.256 27.078 272.726 30.6145 272.726 34.903V38.1693ZM268.371 34.903C268.371 32.9996 266.804 31.433 264.901 31.433H261.431V41.7058H264.901C266.804 41.7058 268.371 40.1431 268.371 38.1693V34.903Z" fill="#001A39"/>
<path d="M282.729 31.433V41.7058H288.646C289.257 41.7058 289.735 42.1836 289.735 42.7945V44.9721C289.735 45.583 289.257 46.0608 288.646 46.0608H282.729V56.4001H288.646C289.257 56.4001 289.735 56.8779 289.735 57.4889V59.6664C289.735 60.2774 289.257 60.7552 288.646 60.7552H280.551C279.325 60.7552 278.373 59.733 278.373 58.5776V29.2555C278.373 28.0297 279.325 27.078 280.551 27.078H288.646C289.257 27.078 289.735 27.5558 289.735 28.1668V30.3443C289.735 30.9552 289.257 31.433 288.646 31.433H282.729Z" fill="#001A39"/>
<path d="M330.101 34.48V59.2434C330.101 59.7878 329.624 60.3322 329.013 60.3322H326.835C326.224 60.3322 325.746 59.7878 325.746 59.2434V34.48C325.746 32.5766 324.18 31.0101 322.21 31.0101C320.24 31.0101 318.74 32.5727 318.74 34.48V59.2434C318.74 59.7878 318.262 60.3322 317.651 60.3322H315.474C314.863 60.3322 314.385 59.7878 314.385 59.2434V34.48C314.385 32.5766 312.818 31.0101 310.915 31.0101C309.012 31.0101 307.378 32.5727 307.378 34.48V59.2434C307.378 59.7878 306.901 60.3322 306.29 60.3322H304.112C303.568 60.3322 303.023 59.7878 303.023 59.2434V34.48C303.023 30.1955 306.56 26.655 310.915 26.655C313.092 26.655 315.133 27.6067 316.562 29.1028C317.992 27.6067 320.032 26.655 322.21 26.655C326.565 26.655 330.101 30.1915 330.101 34.48Z" fill="#001A39"/>
<path d="M351.461 34.5466V59.2395C351.461 59.8505 350.984 60.3283 350.373 60.3283H348.195C347.584 60.3283 347.106 59.8505 347.106 59.2395V45.7005H340.1V59.2395C340.1 59.8505 339.622 60.3283 339.011 60.3283H336.834C336.223 60.3283 335.745 59.8505 335.745 59.2395V34.5466C335.745 30.262 339.281 26.7216 343.636 26.7216C347.991 26.7216 351.461 30.2581 351.461 34.5466ZM347.106 34.5466C347.106 32.6432 345.54 31.0767 343.636 31.0767C341.733 31.0767 340.1 32.6393 340.1 34.5466V41.3494H347.106V34.5466Z" fill="#001A39"/>
<path d="M372.821 34.48V37.7463C372.821 42.1013 369.285 45.6378 364.996 45.6378H361.46V59.2434C361.46 59.7878 360.982 60.3322 360.371 60.3322H358.194C357.649 60.3322 357.105 59.7878 357.105 59.2434V27.7477C357.105 27.1368 357.649 26.659 358.194 26.659H364.996C369.281 26.659 372.821 30.1955 372.821 34.4839V34.48ZM368.466 34.48C368.466 32.5766 366.9 31.0101 364.996 31.0101H361.46V41.2828H364.996C366.9 41.2828 368.466 39.7201 368.466 37.7463V34.48Z" fill="#001A39"/>
<path d="M387.649 36.7946V34.4839C387.649 32.5805 386.086 31.014 384.179 31.014C382.272 31.014 380.709 32.5766 380.709 34.4839C380.709 35.074 380.777 35.4591 380.913 35.6393L390.367 48.1561C391.456 49.6078 392 51.0594 392 52.5111C392 56.7957 388.464 60.3361 384.175 60.3361C379.887 60.3361 376.35 56.7996 376.35 52.5111V50.1965C376.35 49.5856 376.828 49.1078 377.439 49.1078H379.616C380.227 49.1078 380.705 49.5856 380.705 50.1965V52.5111C380.705 54.4145 382.272 55.9811 384.175 55.9811C386.078 55.9811 387.645 54.4145 387.645 52.5111C387.645 51.9211 387.577 51.5359 387.441 51.3558L377.983 38.839C376.894 37.3873 376.35 35.9356 376.35 34.4839C376.35 30.1994 379.887 26.659 384.175 26.659C388.464 26.659 392 30.1955 392 34.4839V36.7946C392 37.4056 391.522 37.8834 390.911 37.8834H388.734C388.123 37.8834 387.645 37.4056 387.645 36.7946H387.649Z" fill="#001A39"/>
<path d="M142.525 91.5342V74.4861H153.695V76.3777H144.648V81.8724H153.515V83.764H144.648V91.5342H142.525Z" fill="#001A39"/>
<path d="M159.19 83.0238C159.19 77.9873 162.612 74.208 167.649 74.208C172.685 74.208 176.136 77.9912 176.136 83.0238C176.136 88.0564 172.685 91.8396 167.649 91.8396C162.612 91.8396 159.19 88.0564 159.19 83.0238ZM173.935 83.0238C173.935 79.0369 171.456 76.0957 167.649 76.0957C163.842 76.0957 161.387 79.033 161.387 83.0238C161.387 87.0146 163.815 89.9519 167.649 89.9519C171.483 89.9519 173.935 86.9872 173.935 83.0238Z" fill="#001A39"/>
<path d="M182.707 84.9154V74.4861H184.854V84.8606C184.854 87.9781 186.514 89.948 189.659 89.948C192.804 89.948 194.488 87.982 194.488 84.8606V74.4861H196.634V84.888C196.634 89.1295 194.284 91.8396 189.655 91.8396C185.026 91.8396 182.703 89.106 182.703 84.9115L182.707 84.9154Z" fill="#001A39"/>
<path d="M215.962 91.5342L206.018 77.9364V91.5342H203.895V74.4861H206.069L215.883 87.8018V74.4861H218.006V91.5342H215.962Z" fill="#001A39"/>
<path d="M225.267 91.5342V74.4861H231.095C236.409 74.4861 239.836 78.191 239.836 83.0238C239.836 87.8567 236.413 91.5342 231.095 91.5342H225.267ZM237.639 83.0238C237.639 79.3424 235.313 76.3777 231.095 76.3777H227.39V89.6425H231.095C235.234 89.6425 237.639 86.6778 237.639 83.0238Z" fill="#001A39"/>
<path d="M257.652 91.5342L256.144 87.7274H247.657L246.149 91.5342H243.721L250.594 74.4861H253.226L260.076 91.5342H257.648H257.652ZM251.903 76.6597L248.299 85.8593H255.533L251.903 76.6597Z" fill="#001A39"/>
<path d="M268.081 91.5342V76.3777H262.688V74.4861H275.62V76.3777H270.204V91.5342H268.081Z" fill="#001A39"/>
<path d="M281.706 91.5342V74.4861H283.829V91.5342H281.706Z" fill="#001A39"/>
<path d="M290.397 83.0238C290.397 77.9873 293.82 74.208 298.856 74.208C303.893 74.208 307.343 77.9912 307.343 83.0238C307.343 88.0564 303.893 91.8396 298.856 91.8396C293.82 91.8396 290.397 88.0564 290.397 83.0238ZM305.142 83.0238C305.142 79.0369 302.663 76.0957 298.856 76.0957C295.049 76.0957 292.594 79.033 292.594 83.0238C292.594 87.0146 295.022 89.9519 298.856 89.9519C302.69 89.9519 305.142 86.9872 305.142 83.0238Z" fill="#001A39"/>
<path d="M325.977 91.5342L316.034 77.9364V91.5342H313.911V74.4861H316.085L325.899 87.8018V74.4861H328.022V91.5342H325.977Z" fill="#001A39"/>
<defs>
<linearGradient id="paint0_linear_159_1863" x1="8.36935" y1="60.3048" x2="173.9" y2="117.582" gradientUnits="userSpaceOnUse">
<stop offset="0.09" stop-color="#4163CC"/>
<stop offset="0.52" stop-color="#14B3C4"/>
<stop offset="0.86" stop-color="#00E1AC"/>
</linearGradient>
</defs>
</svg>
