<?xml version="1.0" encoding="UTF-8"?>
<svg xmlns="http://www.w3.org/2000/svg" xmlns:xlink="http://www.w3.org/1999/xlink" version="1.1" viewBox="0 0 392 120">
  <defs>
    <style>
      .cls-1 {
        fill: url(#linear-gradient);
      }

      .cls-2 {
        fill: #4051cc;
        fill-rule: evenodd;
      }

      .cls-3 {
        fill: #001a39;
      }
    </style>
    <linearGradient id="linear-gradient" x1="276.4" y1="59.6" x2="441.9" y2="2.3" gradientTransform="translate(0 119.9) scale(1 -1)" gradientUnits="userSpaceOnUse">
      <stop offset="0" stop-color="#4163cc"/>
      <stop offset=".5" stop-color="#14b3c4"/>
      <stop offset=".9" stop-color="#00e1ac"/>
    </linearGradient>
  </defs>
  <!-- Generator: Adobe Illustrator 28.7.3, SVG Export Plug-In . SVG Version: 1.2.0 Build 164)  -->
  <g>
    <g id="Layer_1">
      <path class="cls-2" d="M343.9,6.3c11.6,4.9,19.7,16.3,19.7,29.7s-3.1,15.7-8.1,21.4c-.7-1.2-1.5-3.7-.3-6.9,1.3-3.8-.9-8.8-3.6-10.8-1.5-1.2-3.9.3-5.4.5-2.9.5-4.7-.9-6.3-5-2.5-6.8,2.4-10.6,5.3-11.8,2.8-1.3,5.5-3.2,7.3-2.3,1.2.6,1.5,2,1.9,2.4,1.2,1,2.5,1.5,3.8.3,1.8-1.6-3.2-6.5-6.3-6.2-3.4.3-3.7,1.8-5.5,2.9-1.8,1.1-4.9,1.2-4.5-1.8.5-3.6,4.8-.3,3.6-4.5-1.2-3.3,1.6-.5,2.8-2.2,1.2-1.7-1-2.8-2.3-1.5-1.2,1.3-2.8,0-2.3-3.1.1-.7.2-.9.2-1.1h0ZM319.3,6.1c.3,1.1.9,3.3,1.9,4.1,1.4,1,2,3,.3,3.8-1.7.8-2.4,1.2-1.3,1.7,1.1.5.3,2.6-1.3,2.1-1.6-.6-3.6-1.4-3.7.4-.1,1.8-1.3,3.8-2.2,4.8-.9,1-1.8,1.4-1.4,2.7.3,1.4-.6,2.4-1.1,1.3s-2.6-1.3-4,0c0,0-3.7,4.2-1.8,4.6,2.4.5,5.2.7,5.9,3.3.5,1.7,1.6,3.1,3.8,2.2,2.2-.9,5-1.1,7.1,1.1,2.2,2.2,3.7-.4,6,4.8,2.4,3.2,8.5-2.1,5.2,7.8-2.1,6.2-4.5,3.1-5.1,5.8-.9,4.3-7.5,10-7.5,10l-4.9-2.3s2.2-9.9,0-11.7c-2.3-1.8-4.7-7.2-4.1-9.7.6-2.5,2-3.3-1.3-5.1-3.3-1.8-2.7-3.5-5.2-4.1-2-.5-4.6,0-5.6.2,0-1.1.2-2.1.4-3.1l1.3-4.9c3.1-8.8,9.8-15.9,18.4-19.3h0ZM331.3,0C311.5,0,295.3,16.2,295.3,36s16.2,36,36,36,36-16.2,36-36S351.2,0,331.3,0Z"/>
      <path class="cls-1" d="M380.5,85l11.7,6-62,28.2-61.8-33.2,11.7-5,5.3,2.9-.4.2c0,.1,0,.3,0,.4,0,.5-.4,1-1,1s-.8-.2-.9-.6l-4,1.7,3.9,2.1h0c0-1,.7-1.8,1.6-1.8s1.6.7,1.6,1.6-.3,1.1-.8,1.4l8.2,4.4c0-.4.5-.8.9-.8s1,.4,1,1-.1.5-.3.7l7.6,4.1c-.2-.3-.3-.5-.3-.9,0-.9.7-1.6,1.6-1.6s1.6.7,1.6,1.6-.7,1.6-1.6,1.6l11.4,6.1c.1-.8.8-1.3,1.6-1.3s1.6.7,1.6,1.6-.2.8-.5,1.1l11.8,6.3,6.7-3.1c-.3-.3-.4-.7-.4-1.1,0-.9.7-1.6,1.6-1.6s1.5.6,1.6,1.5l25.2-11.5c0,0,0-.2,0-.3,0-.5.4-1,1-1s.6.2.8.4l5.6-2.5c-.7-.2-1.3-.8-1.3-1.6s.7-1.6,1.6-1.6,1.6.7,1.6,1.6,0,.5-.2.8l5.3-2.4c-.5-.3-.9-.8-.9-1.4s0-.5.1-.7l-3.8-2,5.5-2.5h0ZM347.9,102.3c0-.9-.7-1.6-1.6-1.6s-1.6.7-1.6,1.6.7,1.6,1.6,1.6,1.6-.7,1.6-1.6ZM359.1,99.6c0-.9-.7-1.6-1.6-1.6s-1.6.7-1.6,1.6.7,1.6,1.6,1.6,1.6-.7,1.6-1.6ZM366.1,93.6c0-.9-.7-1.6-1.6-1.6s-1.6.7-1.6,1.6.7,1.6,1.6,1.6,1.6-.7,1.6-1.6ZM328.3,108.2c0-.9-.7-1.6-1.6-1.6s-1.6.7-1.6,1.6.7,1.6,1.6,1.6,1.6-.7,1.6-1.6ZM293.6,89.4c.4,0,.9-.2,1.1-.5l-2.8-1.5c0,.1,0,.2,0,.3,0,.9.7,1.6,1.6,1.6h0ZM313.5,100.8c.7,0,1.3-.4,1.5-1l-2.9-1.5c-.2.3-.3.6-.3.9,0,.9.7,1.6,1.6,1.6h0ZM298.1,92.9c0,.9.7,1.6,1.6,1.6s1.6-.7,1.6-1.6,0-.3,0-.5l-2-1.1c-.7.2-1.1.8-1.1,1.6h0ZM392.2,77l-62,28.2-61.8-33.2,10.8-4.7,4.8,2.5.6.3,2.5,1.3,2.1,6.2,4.9,2.7-2.1-6.2,3.1,1.6,2.1,6.2,5.1,2.8-2.1-6.2,3.1,1.6,2.1,6.2,4.8,2.6-2.1-6.2,3.1,1.6,2.1,6.2,5.1,2.8-2.1-6.2,3.1,1.6,2.1,6.2,4.9,2.6-2.1-6.2,3.1,1.6,2.1,6.2,1,.6,3-1.4-1.7-5,2.2-1,1.7,5,3.7-1.7-1.7-5,2.2-1,1.7,5,4.1-1.9-1.7-5,2.2-1,1.7,5,3.6-1.6-1.7-5,2.2-1,1.7,5,4.3-1.9-1.7-5,2.2-1,1.7,5,4.1-1.9-1.7-5,2.2-1,1.7,5,3.6-1.6-1.7-5,2.2-1,1.7,5,4.1-1.9-1.7-5,.9-.4,1.3-.6,4.2-1.9,11.3,5.8h0ZM279.3,72.6l6.8,3.6-1.9-5.7-4.8,2.1ZM378.4,78.2l3-1.4-4.2-2.2,1.2,3.5ZM342,105.3c0-1.3-1.9-1.3-1.9,0s1.9,1.3,1.9,0ZM333.7,110.1c0-1.3-1.9-1.3-1.9,0s1.9,1.3,1.9,0ZM309.9,100.1c0-1.3-1.9-1.3-1.9,0s1.9,1.3,1.9,0ZM317.2,102.3c0-1.3-1.9-1.3-1.9,0s1.9,1.3,1.9,0ZM290.7,90c0-1.3-1.9-1.3-1.9,0s1.9,1.3,1.9,0ZM353.2,102c0-1.3-1.9-1.3-1.9,0s1.9,1.3,1.9,0ZM361,95.6c0-1.3-1.9-1.3-1.9,0s1.9,1.3,1.9,0ZM323.1,104.9c0-1.3-1.9-1.3-1.9,0s1.9,1.3,1.9,0ZM365.1,50.7c-.1.3-.3.6-.4,1,0,.1,0,.2-.1.3-.5,1-1,2-1.5,3l17.9,8.6-50.9,23.1-51.1-27.4,18.5-8.1s0,0,0,0c-.2-.4-.4-.9-.5-1.3,0-.2-.2-.4-.2-.7,0-.2-.1-.4-.2-.6-.2-.6-.4-1.3-.6-1.9l-27.8,12.3,14,7.5,5.3,2.9,3.5,1.9,3.1,1.6,5.1,2.8,3.1,1.6,4.8,2.6,3.1,1.6,5.1,2.8,3.1,1.6,4.9,2.6,3.1,1.6,3.6,1.9,1.2-.5,2.2-1,3.7-1.7,2.2-1,4.1-1.9,2.2-1,3.6-1.6,2.2-1,4.3-1.9,2.2-1,4.1-1.9,2.2-1,3.6-1.6,2.2-1,3.1-1.4,1-.5,2.2-1,2.3-1.1,13.5-6.2-26.7-13.1h0Z"/>
      <path class="cls-3" d="M15.2,34.9v18c0,4.4-3.5,7.9-7.8,7.9s-7.9-3.5-7.9-7.9v-18c0-4.3,3.5-7.8,7.9-7.8s7.8,3.5,7.8,7.8ZM10.8,34.9c0-1.9-1.6-3.5-3.5-3.5s-3.5,1.6-3.5,3.5v18c0,2,1.6,3.5,3.5,3.5s3.5-1.6,3.5-3.5v-18Z"/>
      <path class="cls-3" d="M36.5,28.2v21.2c0,1.6-.5,3.1-1.3,4.4l-3.7,6.5c-.2.3-.5.5-1,.5h-3.8c-.4,0-.7-.2-1-.5l-3.7-6.5c-.8-1.3-1.3-2.8-1.3-4.4v-21.2c0-.6.5-1.1,1.1-1.1h2.2c.6,0,1.1.5,1.1,1.1v21.2c0,.4,0,.7.2,1.1l3.3,5.9,3.3-5.9c0-.3.1-.7.1-1.1v-21.2c0-.6.5-1.1,1.1-1.1h2.2c.6,0,1.1.5,1.1,1.1h0Z"/>
      <path class="cls-3" d="M46.6,31.4v10.3h5.9c.6,0,1.1.5,1.1,1.1v2.2c0,.6-.5,1.1-1.1,1.1h-5.9v10.3h5.9c.6,0,1.1.5,1.1,1.1v2.2c0,.6-.5,1.1-1.1,1.1h-8.1c-1.2,0-2.2-1-2.2-2.2v-29.3c0-1.2,1-2.2,2.2-2.2h8.1c.6,0,1.1.5,1.1,1.1v2.2c0,.6-.5,1.1-1.1,1.1h-5.9Z"/>
      <path class="cls-3" d="M74.5,38.2c0,2.2-.9,4.3-2.4,5.7,1.5,1.4,2.4,3.4,2.4,5.6v10.1c0,.5-.5,1.1-1.1,1.1h-2.2c-.6,0-1.1-.5-1.1-1.1v-10.1c0-1.9-1.6-3.5-3.5-3.5h-3.5v13.6c0,.5-.5,1.1-1.1,1.1h-2.2c-.6,0-1.1-.5-1.1-1.1v-30.4c0-1.2,1-2.2,2.2-2.2h5.6c4.4,0,7.8,3.5,7.8,7.8v3.3ZM70.2,34.9c0-1.9-1.6-3.5-3.5-3.5h-3.5v10.3h3.5c1.9,0,3.5-1.6,3.5-3.5v-3.3Z"/>
      <path class="cls-3" d="M90.1,28.2v2.2c0,.6-.5,1.1-1.1,1.1h-3.1v28.2c0,.5-.5,1.1-1.1,1.1h-2.2c-.6,0-1.1-.5-1.1-1.1v-28.2h-3.1c-.6,0-1.1-.5-1.1-1.1v-2.2c0-.6.5-1.1,1.1-1.1h10.5c.6,0,1.1.5,1.1,1.1h0Z"/>
      <path class="cls-3" d="M110.8,28.2v24.7c0,4.4-3.5,7.9-7.8,7.9s-7.9-3.5-7.9-7.9v-24.7c0-.6.5-1.1,1.1-1.1h2.2c.6,0,1.1.5,1.1,1.1v24.7c0,2,1.6,3.5,3.5,3.5s3.5-1.6,3.5-3.5v-24.7c0-.6.5-1.1,1.1-1.1h2.2c.6,0,1.1.5,1.1,1.1Z"/>
      <path class="cls-3" d="M131.7,38.2c0,2.2-.9,4.3-2.4,5.7,1.5,1.4,2.4,3.4,2.4,5.6v10.1c0,.5-.5,1.1-1.1,1.1h-2.2c-.6,0-1.1-.5-1.1-1.1v-10.1c0-1.9-1.6-3.5-3.5-3.5h-3.5v13.6c0,.5-.5,1.1-1.1,1.1h-2.2c-.6,0-1.1-.5-1.1-1.1v-30.4c0-1.2,1-2.2,2.2-2.2h5.6c4.4,0,7.8,3.5,7.8,7.8v3.3ZM127.4,34.9c0-1.9-1.6-3.5-3.5-3.5h-3.5v10.3h3.5c1.9,0,3.5-1.6,3.5-3.5v-3.3Z"/>
      <path class="cls-3" d="M141.7,31.4v10.3h5.9c.6,0,1.1.5,1.1,1.1v2.2c0,.6-.5,1.1-1.1,1.1h-5.9v10.3h5.9c.6,0,1.1.5,1.1,1.1v2.2c0,.6-.5,1.1-1.1,1.1h-8.1c-1.2,0-2.2-1-2.2-2.2v-29.3c0-1.2,1-2.2,2.2-2.2h8.1c.6,0,1.1.5,1.1,1.1v2.2c0,.6-.5,1.1-1.1,1.1h-5.9Z"/>
      <path class="cls-3" d="M189.1,34.5v24.8c0,.5-.5,1.1-1.1,1.1h-2.2c-.6,0-1.1-.5-1.1-1.1v-24.8c0-1.9-1.6-3.5-3.5-3.5s-3.5,1.6-3.5,3.5v24.8c0,.5-.5,1.1-1.1,1.1h-2.2c-.6,0-1.1-.5-1.1-1.1v-24.8c0-1.9-1.6-3.5-3.5-3.5s-3.5,1.6-3.5,3.5v24.8c0,.5-.5,1.1-1.1,1.1h-2.2c-.5,0-1.1-.5-1.1-1.1v-24.8c0-4.3,3.5-7.8,7.9-7.8s4.2,1,5.6,2.4c1.4-1.5,3.5-2.4,5.6-2.4,4.4,0,7.9,3.5,7.9,7.8Z"/>
      <path class="cls-3" d="M210.5,34.5v24.7c0,.6-.5,1.1-1.1,1.1h-2.2c-.6,0-1.1-.5-1.1-1.1v-13.5h-7v13.5c0,.6-.5,1.1-1.1,1.1h-2.2c-.6,0-1.1-.5-1.1-1.1v-24.7c0-4.3,3.5-7.8,7.9-7.8s7.8,3.5,7.8,7.8ZM206.1,34.5c0-1.9-1.6-3.5-3.5-3.5s-3.5,1.6-3.5,3.5v6.8h7v-6.8Z"/>
      <path class="cls-3" d="M231.8,34.5v3.3c0,4.4-3.5,7.9-7.8,7.9h-3.5v13.6c0,.5-.5,1.1-1.1,1.1h-2.2c-.5,0-1.1-.5-1.1-1.1v-31.5c0-.6.5-1.1,1.1-1.1h6.8c4.3,0,7.8,3.5,7.8,7.8h0ZM227.5,34.5c0-1.9-1.6-3.5-3.5-3.5h-3.5v10.3h3.5c1.9,0,3.5-1.6,3.5-3.5v-3.3Z"/>
      <path class="cls-3" d="M246.6,36.8v-2.3c0-1.9-1.6-3.5-3.5-3.5s-3.5,1.6-3.5,3.5,0,1,.2,1.2l9.5,12.5c1.1,1.5,1.6,2.9,1.6,4.4,0,4.3-3.5,7.8-7.8,7.8s-7.8-3.5-7.8-7.8v-2.3c0-.6.5-1.1,1.1-1.1h2.2c.6,0,1.1.5,1.1,1.1v2.3c0,1.9,1.6,3.5,3.5,3.5s3.5-1.6,3.5-3.5,0-1-.2-1.2l-9.5-12.5c-1.1-1.5-1.6-2.9-1.6-4.4,0-4.3,3.5-7.8,7.8-7.8s7.8,3.5,7.8,7.8v2.3c0,.6-.5,1.1-1.1,1.1h-2.2c-.6,0-1.1-.5-1.1-1.1h0Z"/>
      <path class="cls-3" d="M64.5,91.5v-17h11.2v1.9h-9v5.5h8.9v1.9h-8.9v7.8h-2.1Z"/>
      <path class="cls-3" d="M81.2,83c0-5,3.4-8.8,8.5-8.8s8.5,3.8,8.5,8.8-3.5,8.8-8.5,8.8-8.5-3.8-8.5-8.8ZM95.9,83c0-4-2.5-6.9-6.3-6.9s-6.3,2.9-6.3,6.9,2.4,6.9,6.3,6.9,6.3-3,6.3-6.9Z"/>
      <path class="cls-3" d="M104.7,84.9v-10.4h2.1v10.4c0,3.1,1.7,5.1,4.8,5.1s4.8-2,4.8-5.1v-10.4h2.1v10.4c0,4.2-2.4,7-7,7s-7-2.7-7-6.9h0Z"/>
      <path class="cls-3" d="M138,91.5l-9.9-13.6v13.6h-2.1v-17h2.2l9.8,13.3v-13.3h2.1v17h-2Z"/>
      <path class="cls-3" d="M147.3,91.5v-17h5.8c5.3,0,8.7,3.7,8.7,8.5s-3.4,8.5-8.7,8.5h-5.8ZM159.6,83c0-3.7-2.3-6.6-6.5-6.6h-3.7v13.3h3.7c4.1,0,6.5-3,6.5-6.6Z"/>
      <path class="cls-3" d="M179.7,91.5l-1.5-3.8h-8.5l-1.5,3.8h-2.4l6.9-17h2.6l6.8,17h-2.4,0ZM173.9,76.7l-3.6,9.2h7.2l-3.6-9.2Z"/>
      <path class="cls-3" d="M190.1,91.5v-15.2h-5.4v-1.9h12.9v1.9h-5.4v15.2h-2.1Z"/>
      <path class="cls-3" d="M203.7,91.5v-17h2.1v17h-2.1Z"/>
      <path class="cls-3" d="M212.4,83c0-5,3.4-8.8,8.5-8.8s8.5,3.8,8.5,8.8-3.4,8.8-8.5,8.8-8.5-3.8-8.5-8.8ZM227.1,83c0-4-2.5-6.9-6.3-6.9s-6.3,2.9-6.3,6.9,2.4,6.9,6.3,6.9,6.3-3,6.3-6.9Z"/>
      <path class="cls-3" d="M248,91.5l-9.9-13.6v13.6h-2.1v-17h2.2l9.8,13.3v-13.3h2.1v17h-2Z"/>
    </g>
  </g>
</svg>