<svg xmlns="http://www.w3.org/2000/svg" id="Layer_1" data-name="Layer 1" viewBox="0 0 16 16"><defs><style>.cls-1{fill:#fff}</style></defs><circle cx="8" cy="8" r="8" fill="#c70bc6"/><rect width="1.66" height=".53" x="3.51" y="7.01" class="cls-1" rx=".26" ry=".26"/><rect width="1.66" height=".53" x="5.6" y="7.01" class="cls-1" rx=".26" ry=".26"/><rect width="1.66" height=".53" x="7.7" y="7.01" class="cls-1" rx=".26" ry=".26"/><path d="M11.65 5.06c-1.16-.6-2.53-.38-3.43.46H3.08c-.19 0-.35.16-.35.35s.16.35.35.35h7.11c.21-.01.42.02.63.1a1.5 1.5 0 0 1 .7 2.22c-.39.59-1.15.83-1.81.57a1.55 1.55 0 0 1-.83-.8H4.4c-.19 0-.35.16-.35.35s.16.35.35.35h3.57c.19 0 .35.16.35.35s-.16.35-.35.35H5.94c-.19 0-.35.16-.35.35s.16.35.35.35h1.51c.19 0 .35.16.35.35s-.15.34-.33.35H7.1c-.19 0-.35.16-.35.35s.16.35.35.35h.5c.05.23.09.41.12.53.02.08.11.13.19.1.76-.29 4.13-1.67 5-3.34a3 3 0 0 0-1.28-4.05z" class="cls-1"/></svg>