<svg id="Layer_1" data-name="Layer 1" xmlns="http://www.w3.org/2000/svg" viewBox="0 0 354.84 626.05"><defs><style>.cls-1{fill:#e23e36;}</style></defs><g id="Layer_2" data-name="Layer 2"><g id="Layer_1-2" data-name="Layer 1-2"><rect class="cls-1" x="100.43" y="257.03" width="154.04" height="33.04" rx="11.6"/><path class="cls-1" d="M295.52,138.89a63.71,63.71,0,0,0-47.78,16.55c-4.37,3.53-27.13,24.21-35.43,77.42a10.74,10.74,0,0,0,9,12.23,11,11,0,0,0,1.62.12h0a10.71,10.71,0,0,0,10.6-9c.57-3.7,1.22-7.19,1.92-10.49a39.73,39.73,0,1,1,76.07,23,38.77,38.77,0,0,1-1.41,3.91,6,6,0,0,0,8,7.77,63.87,63.87,0,0,0-22.58-121.45Z" transform="translate(0.11 0)"/><path class="cls-1" d="M224.69,301.9h0a10.77,10.77,0,0,0-10.75,10.77,10.89,10.89,0,0,0,.37,2.78,134.81,134.81,0,0,0,10.94,28.16,10.74,10.74,0,0,0,16,3.54h0a10.72,10.72,0,0,0,3-13.53,102.41,102.41,0,0,1-4.46-9.56,119.07,119.07,0,0,1-4.73-14.14A10.77,10.77,0,0,0,224.69,301.9Z" transform="translate(0.11 0)"/><path class="cls-1" d="M59.17,139A63.69,63.69,0,0,1,107,155.59c4.36,3.52,27.13,24.2,35.42,77.41a10.74,10.74,0,0,1-9,12.23,11.07,11.07,0,0,1-1.63.12h0a10.73,10.73,0,0,1-10.61-9q-.85-5.55-1.91-10.49a39.73,39.73,0,1,0-76,23.22c.38,1.24.82,2.47,1.32,3.67a5.94,5.94,0,0,1-8,7.76A63.87,63.87,0,0,1,59.17,139Z" transform="translate(0.11 0)"/><path class="cls-1" d="M130,302h0a10.76,10.76,0,0,1,10.75,10.77,10.53,10.53,0,0,1-.37,2.79,136.06,136.06,0,0,1-10.94,28.15,10.75,10.75,0,0,1-14.52,4.49,10.88,10.88,0,0,1-1.48-.94h0a10.7,10.7,0,0,1-3-13.53c1.37-2.59,2.92-5.8,4.46-9.57A119.07,119.07,0,0,0,119.63,310,10.77,10.77,0,0,1,130,302Z" transform="translate(0.11 0)"/><path class="cls-1" d="M177.49,0a67.37,67.37,0,0,0-67.35,67.35c0,27.37,11.49,59.17,25,87.07,10.53,21.79,21.85,62.14,27.08,81.88a15.4,15.4,0,0,0,14.9,11.46h0a15.37,15.37,0,0,0,15.06-12.2,353.21,353.21,0,0,1,27.71-81.14c13.49-27.9,25-59.7,25-87.07A67.36,67.36,0,0,0,177.52,0Zm0,101a27.76,27.76,0,1,1,27.76-27.76h0A27.74,27.74,0,0,1,177.52,101Z" transform="translate(0.11 0)"/><path class="cls-1" d="M211.73,365.13h0a206.07,206.07,0,0,1-19.51-51.33A15.15,15.15,0,0,0,177.49,302h0a15.16,15.16,0,0,0-14.73,11.78,205.54,205.54,0,0,1-19.51,51.33h0a11.79,11.79,0,0,0,2,13.95L169.14,403a.08.08,0,0,1,.07.05,11.8,11.8,0,0,0,16.62-.05l23.88-23.88A11.78,11.78,0,0,0,211.73,365.13Z" transform="translate(0.11 0)"/><path d="M3.63,500.94V487.69c4.91,2.71,10.54,4,17.38,4,6.2,0,8.55-1.07,8.55-3.49s-1.92-3.2-11.26-5.14c-10.4-2.28-14.81-6.91-14.81-15.53,0-10.61,8-16.39,20.8-16.39,7,0,12,.79,16.6,2.57V466a51,51,0,0,0-15.39-2.63c-5.77,0-8.48.57-8.48,3,0,1.92,1.43,2.56,9.12,4.13C38.75,473.23,44,477.36,44,486.84c0,11-8,17-22.8,17C13.74,503.86,7.76,502.87,3.63,500.94Z" transform="translate(0.11 0)"/><path d="M94,465.25H78.64v37.19H63.83V465.25H48.51V452.57H94Z" transform="translate(0.11 0)"/><path d="M125,495.53H109.56l-2.21,6.91H91.75l19-49.87h13.47l19,49.87h-16ZM121.6,485l-4.34-13.67L112.91,485Z" transform="translate(0.11 0)"/><path d="M186.36,465.25H171v37.19H156.22V465.25H140.9V452.57h45.46Z" transform="translate(0.11 0)"/><path d="M230.52,491v11.4H194.19V452.57H230.1V464H209v7.48h19.73v11.4H209V491Z" transform="translate(0.11 0)"/><path d="M306.46,477.36c0,16.67-9.61,26.5-25.72,26.5S255,494.32,255,477.65s9.61-26.51,25.71-26.51S306.46,460.83,306.46,477.36ZM270,477.5c0,9,4.06,13.75,10.75,13.75s10.76-4.77,10.76-13.75c0-8.83-4.13-13.75-10.76-13.75S270,468.67,270,477.5Z" transform="translate(0.11 0)"/><path d="M330.68,465.25v9.26h18.1v12.68h-18.1v15.25H315.86V452.57H351.7v12.68Z" transform="translate(0.11 0)"/><path d="M54.71,533.64H39.39v37.19H24.57V533.64H9.26V521H54.71Z" transform="translate(0.11 0)"/><path d="M106.64,521v49.87H91.82V552.31H77.36v18.52H62.54V521H77.36v18H91.82V521Z" transform="translate(0.11 0)"/><path d="M154.8,559.43v11.4H118.46V521h35.91v11.4H133.28v7.48H153v11.4H133.28v8.19Z" transform="translate(0.11 0)"/><path d="M235.51,521v49.87H221.76V542.76c-.57,1.14-1.21,2.28-1.85,3.42L212.85,558h-8.62l-7.33-11.83c-.5-.78-1-1.64-1.43-2.49v27.14H181.72V521h13.54l13.39,21.51L222,521Z" transform="translate(0.11 0)"/><path d="M275.76,563.92H260.37l-2.21,6.91h-15.6L261.51,521H275L294,570.87H278Zm-3.35-10.55-4.35-13.67-4.34,13.67Z" transform="translate(0.11 0)"/><path d="M344.36,540.48c0,13-7.69,19.52-21.87,19.52h-6.7v10.83H301V521h21.52C336.67,521,344.36,527.51,344.36,540.48Zm-14.82,0c0-4.49-2.49-7.12-8.47-7.12h-5.28V547.6h5.28c6,0,8.47-2.7,8.47-7.12Z" transform="translate(0.11 0)"/></g></g><path class="cls-1" d="M48.9,310.83v6.39H27.24v-5.61l7.89-6.55c3.46-2.85,5-4.48,5-7.05,0-2.74-1.91-3.82-4.8-3.82A16.8,16.8,0,0,0,27.56,296v-6.35a26.53,26.53,0,0,1,9.89-1.75c6.43,0,10.79,3,10.79,9.2,0,5.25-3.26,8.67-8.23,12.13l-2.27,1.58Z" transform="translate(0.11 0)"/><path class="cls-1" d="M52.24,303c0-9.28,4.89-15.08,13.18-15.08S78.61,293.69,78.61,303s-4.88,15.08-13.19,15.08S52.24,312.26,52.24,303Zm18.93,0c0-5.49-2.21-8.8-5.75-8.8s-5.69,3.34-5.69,8.8,2.11,8.79,5.69,8.79,5.69-3.35,5.69-8.79Z" transform="translate(0.11 0)"/><path class="cls-1" d="M302.35,310.83v6.39H280.69v-5.61l7.95-6.55c3.46-2.85,5-4.48,5-7.05,0-2.74-1.92-3.82-4.8-3.82a16.8,16.8,0,0,0-7.74,1.83v-6.35a26.53,26.53,0,0,1,9.89-1.75c6.43,0,10.78,3,10.78,9.2,0,5.25-3.25,8.67-8.23,12.13l-2.28,1.58Z" transform="translate(0.11 0)"/><path class="cls-1" d="M327.44,310.83v6.39H305.79v-5.61l7.9-6.55c3.46-2.85,5-4.48,5-7.05,0-2.74-1.91-3.82-4.8-3.82a16.8,16.8,0,0,0-7.74,1.83v-6.35a26.39,26.39,0,0,1,9.94-1.75c6.44,0,10.8,3,10.8,9.2,0,5.25-3.27,8.67-8.23,12.13l-2.28,1.58Z" transform="translate(0.11 0)"/><path class="cls-1" d="M99.72,604v7.54h10.5v4.28H99.72v10.2H95V599.79H112.1V604Z" transform="translate(0.11 0)"/><path class="cls-1" d="M123.42,599.79v26.26h-4.77V599.79Z" transform="translate(0.11 0)"/><path class="cls-1" d="M153.23,626.05h-5.29l-3.48-7a3.79,3.79,0,0,0-3.87-2.37H137v9.38h-4.76V599.79h9.94c6.08,0,9.9,2.63,9.9,8.18a7.94,7.94,0,0,1-4.84,7.58,5,5,0,0,1,1.95,2.32ZM142,612.55c3.11,0,5.25-1.24,5.25-4.43,0-3-2.06-4.16-5.25-4.16h-5v8.59Z" transform="translate(0.11 0)"/><path class="cls-1" d="M177.34,622v4H159.87V599.79h17.25v4.06H164.63v6.9h11.25v4H164.63V622Z" transform="translate(0.11 0)"/><path class="cls-1" d="M206.48,599.79v26.26h-4.24l-13.12-18.6c0,.86,0,1.72,0,2.58v16h-4.5V599.79h4.24L202,618.47c0-.93,0-1.83,0-2.73v-16Z" transform="translate(0.11 0)"/><path class="cls-1" d="M234.68,621.92v4.13H213.45v-3.49l10.77-14c1-1.31,2.55-3.18,3.82-4.72-1.95.07-4.31.11-5.89.11h-8.36v-4.13h20.33v3.49l-11,14.41c-.94,1.2-2.29,2.88-3.49,4.35,1.77-.08,3.83-.12,5.22-.12Z" transform="translate(0.11 0)"/><path class="cls-1" d="M258.94,622v4H241.46V599.79h17.26v4.06H246.23v6.9h11.25v4H246.23V622Z" transform="translate(0.11 0)"/></svg>