<?xml version="1.0" encoding="UTF-8"?>
<svg version="1.1" xmlns="http://www.w3.org/2000/svg" xmlns:xlink="http://www.w3.org/1999/xlink" viewBox="0 0 20 20">
  <path d="M10,3 C13.866,3 17,6.134 17,10 C17,13.866 13.866,17 10,17 C6.134,17 3,13.866 3,10 C3,6.134 6.134,3 10,3 z M10,4.5 C7,4.5 4.5,7 4.5,10 C4.5,13 7,15.5 10,15.5 C13,15.5 15.5,13 15.5,10 C15.5,7 13,4.5 10,4.5 z" fill="currentColor"/>
  <path d="M10,13 C8.343,13 7,11.657 7,10 C7,8.343 8.343,7 10,7 C11.657,7 13,8.343 13,10 C13,11.657 11.657,13 10,13 z" fill="currentColor"/>
  <path d="M9,1.5 C9,1 11,1 11,1.5 C11,2 11,5 11,5.5 C11,6 9,6 9,5.5 C9,5 9,2 9,1.5 z" fill="currentColor"/>
  <path d="M14.5,9 C15,9 18,9 18.5,9 C19,9 19,11 18.5,11 C18,11 15,11 14.5,11 C14,11 14,9 14.5,9 z" fill="currentColor"/>
  <path d="M1.5,9 C2,9 5,9 5.5,9 C6,9 6,11 5.5,11 C5,11 2,11 1.5,11 C1,11 1,9 1.5,9 z" fill="currentColor"/>
  <path d="M9,14.5 C9,14 11,14 11,14.5 C11,15 11,18 11,18.5 C11,19 9,19 9,18.5 C9,18 9,15 9,14.5 z" fill="currentColor"/>
</svg>
