<?xml version="1.0" ?><svg viewBox="0 0 64 64" xmlns="http://www.w3.org/2000/svg"><g data-name="12-Gingerbread" id="_12-Gingerbread"><polygon points="32 26.289 28 27.999 28 23.119 28 21.999 32 23.709 32 26.289" style="fill:#b63114"/><polygon points="36 23.119 36 27.999 32 26.289 32 23.709 36 21.999 36 23.119" style="fill:#b63114"/><circle cx="36" cy="11.999" r="1" style="fill:#fafafa"/><circle cx="28" cy="11.999" r="1" style="fill:#fafafa"/><path d="M14.89,19.489l3.01,1.64c-.74,1.06-1.93.35-2.65,1.55-.75,1.25.5,2.07-.25,3.32s-2,.43-2.75,1.68c-.63,1.04.14,1.78-.02,2.73l-1.3-.74a5.659,5.659,0,0,1-2.45-2.6,5.476,5.476,0,0,1,.61-5.53l.72-.95a3.959,3.959,0,0,1,5.08-1.1Z" style="fill:#b63114"/><path d="M55.52,27.069a5.659,5.659,0,0,1-2.45,2.6l-1.3.74c-.16-.95.61-1.69-.02-2.73-.75-1.25-2-.43-2.75-1.68s.5-2.07-.25-3.32c-.72-1.2-1.91-.49-2.65-1.55l3.01-1.64a3.959,3.959,0,0,1,5.08,1.1l.72.95A5.476,5.476,0,0,1,55.52,27.069Z" style="fill:#b63114"/><path d="M45.22,50.88c1.05-1,1.72.12,2.78-.88l1.36-1.02a4.84,4.84,0,0,1,3.88-.93A4.721,4.721,0,0,1,57,52.67v1.19a4.736,4.736,0,0,1-1.61,3.55l-4.71,4.12a5.949,5.949,0,0,1-8.46-.64l-2.34-2.77L40,58c1.06-1-.08-2.12.98-3.12s2.2.12,3.26-.88S44.16,51.88,45.22,50.88Z" style="fill:#b63114"/><path d="M16,50c1.06,1,1.73-.12,2.78.88S18.71,53,19.76,54s2.2-.12,3.26.88S22.94,57,24,58l.12.12-2.34,2.77a5.949,5.949,0,0,1-8.46.64L8.61,57.41A4.736,4.736,0,0,1,7,53.86V52.67a4.721,4.721,0,0,1,3.76-4.62,4.84,4.84,0,0,1,3.88.93Z" style="fill:#b63114"/><path d="M43.01,35.419l8.76-5.01c-.16-.95.61-1.69-.02-2.73-.75-1.25-2-.43-2.75-1.68s.5-2.07-.25-3.32c-.72-1.2-1.91-.49-2.65-1.55l-5,2.73a2,2,0,0,1-2.67-.74,11.978,11.978,0,0,0,5.56-10.59,12,12,0,1,0-18.42,10.59,2,2,0,0,1-2.67.74l-5-2.73c-.74,1.06-1.93.35-2.65,1.55-.75,1.25.5,2.07-.25,3.32s-2,.43-2.75,1.68c-.63,1.04.14,1.78-.02,2.73l8.76,5.01A2,2,0,0,1,22,37.16v4.17a1.969,1.969,0,0,1-.4,1.2L16,50c1.06,1,1.73-.12,2.78.88S18.71,53,19.76,54s2.2-.12,3.26.88S22.94,57,24,58l.12.12,6.28-7.41A2,2,0,0,1,31.93,50h.14a2,2,0,0,1,1.53.71l6.28,7.41L40,58c1.06-1-.08-2.12.98-3.12s2.2.12,3.26-.88-.08-2.12.98-3.12S46.94,51,48,50l-5.6-7.47a1.969,1.969,0,0,1-.4-1.2V37.16A2,2,0,0,1,43.01,35.419ZM36,28l-4-1.71L28,28V22l4,1.71L36,22v6Z" style="fill:#833411"/><path d="M12.251,30.062a5.8,5.8,0,0,0-.187-.984,2.244,2.244,0,0,1-.06-.667,1.654,1.654,0,0,1,.246-.732,1.545,1.545,0,0,1,.925-.722l-2.152-1.23a5.989,5.989,0,0,1-2.6-3.011,5.468,5.468,0,0,0,.056,4.353,5.659,5.659,0,0,0,2.45,2.6l1.3.74h0A1.707,1.707,0,0,0,12.251,30.062Z" style="fill:#963915"/><path d="M52.977,25.727l-2.152,1.23a1.545,1.545,0,0,1,.925.722,1.642,1.642,0,0,1,.246.732,2.244,2.244,0,0,1-.06.667,5.8,5.8,0,0,0-.187.984,1.707,1.707,0,0,0,.021.347h0l1.3-.74a5.659,5.659,0,0,0,2.45-2.6,5.468,5.468,0,0,0,.056-4.353A5.989,5.989,0,0,1,52.977,25.727Z" style="fill:#963915"/><path d="M45.525,59.257l-4.256-4.582a1.657,1.657,0,0,0-.289.205c-1.06,1,.08,2.12-.98,3.12l-.12.12,2.34,2.77a5.949,5.949,0,0,0,8.46.64l.582-.509A6,6,0,0,1,45.525,59.257Z" style="fill:#963915"/><path d="M23.02,54.88a1.657,1.657,0,0,0-.289-.205l-4.256,4.582a6,6,0,0,1-5.737,1.764l.582.509a5.949,5.949,0,0,0,8.46-.64l2.34-2.77L24,58C22.94,57,24.08,55.88,23.02,54.88Z" style="fill:#963915"/><path d="M51.749,30.062a5.814,5.814,0,0,1,.187-.984,2.244,2.244,0,0,0,.06-.667,1.642,1.642,0,0,0-.246-.732,1.545,1.545,0,0,0-.925-.722l-5.8,3.315A6,6,0,0,0,42,35.482v1.677a2,2,0,0,1,1.01-1.74l8.76-5.01A1.707,1.707,0,0,1,51.749,30.062Z" style="fill:#76240c"/><path d="M18.977,30.272l-5.8-3.315a1.545,1.545,0,0,0-.925.722,1.654,1.654,0,0,0-.246.732,2.244,2.244,0,0,0,.06.667,5.814,5.814,0,0,1,.187.984,1.707,1.707,0,0,1-.021.347l8.76,5.01A2,2,0,0,1,22,37.159V35.482A6,6,0,0,0,18.977,30.272Z" style="fill:#76240c"/><path d="M40.98,54.88a1.657,1.657,0,0,1,.289-.205l-2.6-2.8A9,9,0,0,0,32.075,49h-.15a9,9,0,0,0-6.6,2.876l-2.6,2.8a1.657,1.657,0,0,1,.289.205c1.06,1-.08,2.12.98,3.12l.12.12,6.28-7.41A2,2,0,0,1,31.93,50h.14a2,2,0,0,1,1.53.71l6.28,7.41L40,58C41.06,57,39.92,55.88,40.98,54.88Z" style="fill:#76240c"/><path d="M28,24.091V22l.2.084a11.977,11.977,0,0,1,5.767-20.91,11.678,11.678,0,0,0-1.492-.164,11.992,11.992,0,0,0-6.9,22.11l-.007.01,1.337.73A1.966,1.966,0,0,0,28,24.091Z" style="fill:#76240c"/><polygon points="32 26.289 28 27.999 28 29.999 32 28.289 36 29.999 36 27.999 32 26.289" style="fill:#76240c"/><line style="fill:none;stroke:#000;stroke-linejoin:round;stroke-width:2px" x1="20" x2="19" y1="44.667" y2="46"/><path d="M48,32.571l5.069-2.9a5.742,5.742,0,0,0,2.452-2.6,5.487,5.487,0,0,0-.615-5.532l-.714-.952a3.975,3.975,0,0,0-5.082-1.1L41.1,23.855a2,2,0,0,1-2.674-.732,11.978,11.978,0,0,0,5.566-10.589A12,12,0,0,0,20,13a11.979,11.979,0,0,0,5.575,10.123,2,2,0,0,1-2.674.732l-8.011-4.37a3.975,3.975,0,0,0-5.082,1.1l-.714.952a5.487,5.487,0,0,0-.615,5.532,5.742,5.742,0,0,0,2.452,2.6l10.061,5.749A2,2,0,0,1,22,37.161v4.172a2,2,0,0,1-.4,1.2l-.6.8" style="fill:none;stroke:#000;stroke-linejoin:round;stroke-width:2px"/><path d="M18,47.333,16,50l-1.355-1.016a4.839,4.839,0,0,0-3.885-.935A4.718,4.718,0,0,0,7,52.665v1.2a4.708,4.708,0,0,0,1.608,3.543l4.708,4.119A5.956,5.956,0,0,0,17.238,63h0a5.952,5.952,0,0,0,4.546-2.109L30.4,50.708A2,2,0,0,1,31.928,50h.144a2,2,0,0,1,1.527.708l8.617,10.183A5.952,5.952,0,0,0,46.762,63h0a5.956,5.956,0,0,0,3.922-1.474l4.708-4.119A4.708,4.708,0,0,0,57,53.864v-1.2a4.718,4.718,0,0,0-3.76-4.616,4.839,4.839,0,0,0-3.885.935L48,50l-5.6-7.467a2,2,0,0,1-.4-1.2V37.161a2,2,0,0,1,1.008-1.737L46,33.714" style="fill:none;stroke:#000;stroke-linejoin:round;stroke-width:2px"/><circle cx="36" cy="12" r="1" style="fill:none;stroke:#000;stroke-linejoin:round;stroke-width:2px"/><circle cx="28" cy="12" r="1" style="fill:none;stroke:#000;stroke-linejoin:round;stroke-width:2px"/><path d="M34,16a2,2,0,0,1-4,0" style="fill:none;stroke:#000;stroke-linejoin:round;stroke-width:2px"/><path d="M39,9a3.7,3.7,0,0,0-3-2" style="fill:none;stroke:#000;stroke-linejoin:round;stroke-width:2px"/><path d="M25,9a3.7,3.7,0,0,1,3-2" style="fill:none;stroke:#000;stroke-linejoin:round;stroke-width:2px"/><path d="M18,21c-.75,1.25-2,.435-2.751,1.685S15.751,24.75,15,26s-2,.435-2.751,1.685S12.752,29.75,12,31" style="fill:none;stroke:#000;stroke-linejoin:round;stroke-width:2px"/><path d="M46,21c.75,1.25,2,.435,2.751,1.685S48.249,24.75,49,26s2,.435,2.751,1.685S51.248,29.75,52,31" style="fill:none;stroke:#000;stroke-linejoin:round;stroke-width:2px"/><path d="M39.88,58.12,40,58c1.06-1-.08-2.12.98-3.12s2.2.12,3.26-.88-.08-2.12.98-3.12S46.94,51,48,50" style="fill:none;stroke:#000;stroke-linejoin:round;stroke-width:2px"/><path d="M16,50c1.06,1,1.73-.12,2.78.88S18.71,53,19.76,54s2.2-.12,3.26.88S22.94,57,24,58l.12.12" style="fill:none;stroke:#000;stroke-linejoin:round;stroke-width:2px"/><polygon points="32 26.286 32 23.714 36 22 36 28 32 26.286" style="fill:none;stroke:#000;stroke-linejoin:round;stroke-width:2px"/><polygon points="32 26.286 32 23.714 28 22 28 28 32 26.286" style="fill:none;stroke:#000;stroke-linejoin:round;stroke-width:2px"/><circle cx="32" cy="31" r="1" style="fill:none;stroke:#000;stroke-linejoin:round;stroke-width:2px"/><circle cx="32" cy="37" r="1" style="fill:none;stroke:#000;stroke-linejoin:round;stroke-width:2px"/><circle cx="32" cy="43" r="1" style="fill:none;stroke:#000;stroke-linejoin:round;stroke-width:2px"/></g></svg>