<?xml version="1.0" ?><svg viewBox="0 0 64 64" xmlns="http://www.w3.org/2000/svg"><g data-name="16-Star" id="_16-Star"><path d="M27,15V14a5,5,0,1,1,10,0v1Z" style="fill:#f7d842"/><polygon points="32 38 15 63 18 43 32 38" style="fill:#e8721f"/><polygon points="32 38 32 54 15 63 32 38" style="fill:#f9b72d"/><polygon points="32 38 18 43 4 30 32 38" style="fill:#f19929"/><polygon points="22 27 32 38 4 30 22 27" style="fill:#f9b72d"/><polygon points="32 15 32 38 22 27 28.67 15 32 15" style="fill:#f19929"/><polygon points="46 43 49 63 32 38 46 43" style="fill:#f7d842"/><polygon points="32 38 49 63 32 54 32 38" style="fill:#f19929"/><polygon points="60 30 46 43 32 38 60 30" style="fill:#f19929"/><polygon points="35 15 41 27 32 38 32 15 35 15" style="fill:#f8f165"/><polygon points="60 30 32 38 41 27 60 30" style="fill:#f7d842"/><path d="M32,13a2,2,0,0,1-.4-3.959A4.985,4.985,0,0,0,27,14v1H37V14a5,5,0,0,0-.1-1Z" style="fill:#f9b72d"/><ellipse cx="32" cy="5" rx="1.5" ry="3.5" style="fill:none"/><ellipse cx="32" cy="5" rx="2" ry="4" style="fill:none;stroke:#000;stroke-linejoin:round;stroke-width:2px"/><polyline points="35 15 41 27 60 30 46 43 49 63 32 54 15 63 18 43 4 30 22 27 28.667 15" style="fill:none;stroke:#000;stroke-linejoin:round;stroke-width:2px"/><polyline points="22 27 32 38 41 27" style="fill:none;stroke:#000;stroke-linejoin:round;stroke-width:2px"/><polyline points="18 43 32 38 46 43" style="fill:none;stroke:#000;stroke-linejoin:round;stroke-width:2px"/><polyline points="32 54 32 38 60 30" style="fill:none;stroke:#000;stroke-linejoin:round;stroke-width:2px"/><polyline points="18 34 32 38 15 63" style="fill:none;stroke:#000;stroke-linejoin:round;stroke-width:2px"/><line style="fill:none;stroke:#000;stroke-linejoin:round;stroke-width:2px" x1="14" x2="16" y1="32.857" y2="33.429"/><line style="fill:none;stroke:#000;stroke-linejoin:round;stroke-width:2px" x1="4" x2="12" y1="30" y2="32.286"/><polyline points="42.2 53 32 38 32 15" style="fill:none;stroke:#000;stroke-linejoin:round;stroke-width:2px"/><line style="fill:none;stroke:#000;stroke-linejoin:round;stroke-width:2px" x1="49" x2="43.56" y1="63" y2="55"/><path d="M32,9h0a5,5,0,0,1,5,5v1a0,0,0,0,1,0,0H27a0,0,0,0,1,0,0V14A5,5,0,0,1,32,9Z" style="fill:none;stroke:#000;stroke-linejoin:round;stroke-width:2px"/></g></svg>