<?xml version="1.0" ?><svg viewBox="0 0 64 64" xmlns="http://www.w3.org/2000/svg"><g data-name="19-Christmas Gloves" id="_19-Christmas_Gloves"><path d="M27,49h2a2.006,2.006,0,0,1,2,2V61a2.006,2.006,0,0,1-2,2H3a2.006,2.006,0,0,1-2-2V51a2.006,2.006,0,0,1,2-2H27ZM11,57a3,3,0,1,0-3,3A3,3,0,0,0,11,57Z" style="fill:#ecf3f9"/><path d="M29.09,27.16,29,27V23A12,12,0,0,0,17,11H15A12,12,0,0,0,3,23V47a2.006,2.006,0,0,0,2,2H27s2-1,4-5S41,33,41,30a4.79,4.79,0,0,0-2.79-4.21A6.928,6.928,0,0,0,35,25C33.42,25,31.01,26.11,29.09,27.16Z" style="fill:#bf1b2e"/><path d="M11,57c0-.083-.018-.162-.024-.244a2.992,2.992,0,1,1-4.952,2.488A2.989,2.989,0,0,0,11,57Z" style="fill:#d5dfe9"/><circle cx="8" cy="57" r="3" style="fill:#d61f34"/><path d="M8,58a2.986,2.986,0,0,0,2.817-2,3,3,0,1,1-5.634,0A2.986,2.986,0,0,0,8,58Z" style="fill:#a21727"/><path d="M23,22.919V19.391a8.386,8.386,0,0,0-8.195-8.381c.065,0,.129-.01.2-.01h2A12,12,0,0,1,29,23v4H27.081A4.081,4.081,0,0,1,23,22.919Z" style="fill:#a21727"/><path d="M14.008,43h6.144a10.623,10.623,0,0,0,7.282-2.753A5.662,5.662,0,0,0,29,38c.719-2.158,5.578-7.421,8.249-10.2a1.983,1.983,0,0,0,.322-2.294,6.588,6.588,0,0,1,.639.289A4.79,4.79,0,0,1,41,30c0,3-8,10-10,14s-4,5-4,5H5a2.006,2.006,0,0,1-2-2V31.992A11.007,11.007,0,0,0,14.008,43Z" style="fill:#a21727"/><path d="M3,59H5.776a2.973,2.973,0,0,0,4.448,0H21a5,5,0,0,0,0-10h8a2.006,2.006,0,0,1,2,2V61a2.006,2.006,0,0,1-2,2H3a2.006,2.006,0,0,1-2-2V57A2,2,0,0,0,3,59Z" style="fill:#d5dfe9"/><path d="M7.5,54.05V49h1v5.05A3.048,3.048,0,0,0,8,54,3.048,3.048,0,0,0,7.5,54.05Z" style="fill:#a21727"/><path d="M7,25a2,2,0,0,0,2-2,6.006,6.006,0,0,1,6-6,2,2,0,0,0,0-4A10.011,10.011,0,0,0,5,23,2,2,0,0,0,7,25Z" style="fill:#d61f34"/><path d="M7,31a2,2,0,0,0,2-2V28a2,2,0,0,0-4,0v1A2,2,0,0,0,7,31Z" style="fill:#d61f34"/><path d="M56,39h5a2.006,2.006,0,0,1,2,2V51a2.006,2.006,0,0,1-2,2H35a2.006,2.006,0,0,1-2-2V41a2.006,2.006,0,0,1,2-2H56Zm0,11a3,3,0,1,0-3-3A3,3,0,0,0,56,50Z" style="fill:#ecf3f9"/><path d="M34.91,17.16,35,17V13A12,12,0,0,1,47,1h2A12,12,0,0,1,61,13V37a2.006,2.006,0,0,1-2,2H37s-2-1-4-5S23,23,23,20a4.79,4.79,0,0,1,2.79-4.21A6.928,6.928,0,0,1,29,15C30.58,15,32.99,16.11,34.91,17.16Z" style="fill:#e72139"/><path d="M53,47c0-.083.018-.162.024-.244a2.992,2.992,0,1,0,4.952,2.488A2.989,2.989,0,0,1,53,47Z" style="fill:#d5dfe9"/><circle cx="56" cy="47" r="3" style="fill:#d61f34"/><path d="M56,48a2.986,2.986,0,0,1-2.817-2,3,3,0,1,0,5.634,0A2.986,2.986,0,0,1,56,48Z" style="fill:#a21727"/><path d="M41,12.919V9.391A8.386,8.386,0,0,1,49.2,1.01c-.065,0-.129-.01-.2-.01H47A12,12,0,0,0,35,13v4h1.919A4.081,4.081,0,0,0,41,12.919Z" style="fill:#d61f34"/><path d="M49.992,33H43.848a10.623,10.623,0,0,1-7.282-2.753A5.662,5.662,0,0,1,35,28c-.719-2.158-5.578-7.421-8.249-10.2a1.983,1.983,0,0,1-.322-2.294,6.588,6.588,0,0,0-.639.289A4.79,4.79,0,0,0,23,20c0,3,8,10,10,14s4,5,4,5H59a2.006,2.006,0,0,0,2-2V21.992A11.007,11.007,0,0,1,49.992,33Z" style="fill:#d61f34"/><path d="M61,49H58.224a2.973,2.973,0,0,1-4.448,0H43a5,5,0,0,1,0-10H35a2.006,2.006,0,0,0-2,2V51a2.006,2.006,0,0,0,2,2H61a2.006,2.006,0,0,0,2-2V47A2,2,0,0,1,61,49Z" style="fill:#d5dfe9"/><path d="M56.5,44.05V39h-1v5.05a2.525,2.525,0,0,1,1,0Z" style="fill:#a21727"/><path d="M57,15a2,2,0,0,1-2-2,6.006,6.006,0,0,0-6-6,2,2,0,0,1,0-4A10.011,10.011,0,0,1,59,13,2,2,0,0,1,57,15Z" style="fill:#fb243d"/><path d="M57,21a2,2,0,0,1-2-2V18a2,2,0,0,1,4,0v1A2,2,0,0,1,57,21Z" style="fill:#fb243d"/><path d="M59,39a2,2,0,0,0,2-2V13A12,12,0,0,0,49,1H47A12,12,0,0,0,35,13v4" style="fill:none;stroke:#000;stroke-linejoin:round;stroke-width:2px"/><path d="M38,19s-6-4-9-4-6,2-6,5,8,10,10,14,4,5,4,5" style="fill:none;stroke:#000;stroke-linejoin:round;stroke-width:2px"/><path d="M45,39H61a2,2,0,0,1,2,2V51a2,2,0,0,1-2,2H35a2,2,0,0,1-2-2V41a2,2,0,0,1,2-2h4" style="fill:none;stroke:#000;stroke-linejoin:round;stroke-width:2px"/><line style="fill:none;stroke:#000;stroke-linejoin:round;stroke-width:2px" x1="41" x2="43" y1="39" y2="39"/><circle cx="56" cy="47" r="3" style="fill:none;stroke:#000;stroke-linejoin:round;stroke-width:2px"/><line style="fill:none;stroke:#000;stroke-linejoin:round;stroke-width:2px" x1="56" x2="56" y1="44" y2="39"/><path d="M23,12.605A12.086,12.086,0,0,1,24.937,14" style="fill:none;stroke:#000;stroke-linejoin:round;stroke-width:2px"/><path d="M31,44h0c-2,4-4,5-4,5H5a2,2,0,0,1-2-2V23A12,12,0,0,1,15,11h2a11.983,11.983,0,0,1,4,.683" style="fill:none;stroke:#000;stroke-linejoin:round;stroke-width:2px"/><path d="M26,29s.818-.545,2-1.233" style="fill:none;stroke:#000;stroke-linejoin:round;stroke-width:2px"/><rect height="14" rx="2" style="fill:none;stroke:#000;stroke-linejoin:round;stroke-width:2px" transform="translate(32 112) rotate(-180)" width="30" x="1" y="49"/><circle cx="8" cy="57" r="3" style="fill:none;stroke:#000;stroke-linejoin:round;stroke-width:2px"/><line style="fill:none;stroke:#000;stroke-linejoin:round;stroke-width:2px" x1="8" x2="8" y1="54" y2="49"/></g></svg>