<?xml version="1.0" ?><svg viewBox="0 0 64 64" xmlns="http://www.w3.org/2000/svg"><g data-name="21-milk and cookie" id="_21-milk_and_cookie"><path d="M54,59h7a3.995,3.995,0,0,1-4,4H29a4,4,0,0,1-4-4H54Z" style="fill:#eb2335"/><path d="M57,61a3.97,3.97,0,0,1,2.622,1c.067-.058.144-.107.208-.17A4.025,4.025,0,0,0,61,59H25a3.974,3.974,0,0,0,1.378,3A4,4,0,0,1,29,61Z" style="fill:#009e60"/><path d="M57,47H35a3.995,3.995,0,0,1,4-4H53A4,4,0,0,1,57,47Z" style="fill:#c47952"/><path d="M56,55H34a3.995,3.995,0,0,1,4-4H52A4,4,0,0,1,56,55Z" style="fill:#c47952"/><path d="M54,59H32a3.995,3.995,0,0,1,4-4H50A4,4,0,0,1,54,59Z" style="fill:#c47952"/><path d="M51,51H29a3.995,3.995,0,0,1,4-4H47A4,4,0,0,1,51,51Z" style="fill:#c47952"/><path d="M23.49,28H4.51c.06-.13.12-.25.18-.38l.23-.47A15.985,15.985,0,0,0,6.4,22.63L8,13H20l1.6,9.63a15.985,15.985,0,0,0,1.48,4.52l.23.47C23.37,27.75,23.43,27.87,23.49,28Z" style="fill:#ebebff"/><path d="M20,9a2.006,2.006,0,0,1,2,2,2.015,2.015,0,0,1-2,2H8a2.006,2.006,0,0,1-2-2A2.015,2.015,0,0,1,8,9Z" style="fill:#ebebff"/><path d="M23.49,28H4.51A16.015,16.015,0,0,0,3,34.78V61c0,1.1,4.92,2,11,2s11-.9,11-2V34.78A16.015,16.015,0,0,0,23.49,28Z" style="fill:#edf4ed"/><path d="M21.41,10.41A1.955,1.955,0,0,1,20,11H8a2,2,0,0,1-1.721-1A1.963,1.963,0,0,0,6,11a2.006,2.006,0,0,0,2,2H20a1.984,1.984,0,0,0,1.721-3A1.938,1.938,0,0,1,21.41,10.41Z" style="fill:#a4afe6"/><path d="M9.521,26.957a5.984,5.984,0,0,0,.6-2.021l.487-4.378A4,4,0,0,1,14.58,17h6.085L20,13H8L6.4,22.63a15.985,15.985,0,0,1-1.48,4.52l-.23.47c-.06.13-.12.25-.18.38H9Z" style="fill:#ccf"/><path d="M23,60H17A10,10,0,0,1,7,50V35.305a14,14,0,0,1,1.478-6.261L9,28H4.51A16.015,16.015,0,0,0,3,34.78V61c0,1.1,4.92,2,11,2s11-.9,11-2V58A2,2,0,0,1,23,60Z" style="fill:#e2e6d8"/><polygon points="18 1.31 17.66 4.3 14.08 6.97 14.76 1 18 1.31" style="fill:#eb2335"/><polygon points="17.66 4.3 17.1 9.27 13.52 11.94 14.08 6.97 17.66 4.3" style="fill:#009e60"/><polygon points="17.1 9.27 16.55 14.24 16.54 14.24 12.96 16.92 13.52 11.94 17.1 9.27" style="fill:#eb2335"/><polygon points="16.55 14.24 15.99 19.22 15.97 19.22 12.39 21.89 12.96 16.92 16.54 14.24 16.55 14.24" style="fill:#009e60"/><polygon points="15.99 19.22 15.43 24.19 15.41 24.19 11.83 26.87 12.39 21.89 15.97 19.22 15.99 19.22" style="fill:#eb2335"/><polygon points="15.43 24.19 15 28 11.7 28 11.83 26.87 15.41 24.19 15.43 24.19" style="fill:#009e60"/><polygon points="17.1 9.27 17.13 9 13.851 9 13.626 11 16.909 11 17.1 9.27" style="fill:#ccf"/><polygon points="13.626 11 13.52 11.94 13.401 13 16.687 13 16.909 11 13.626 11" style="fill:#808dd1"/><path d="M55.622,44A4,4,0,0,1,53,45H39a3.97,3.97,0,0,1-2.622-1c-.068.058-.144.107-.208.17A4.025,4.025,0,0,0,35,47H57A3.974,3.974,0,0,0,55.622,44Z" style="fill:#ab623c"/><path d="M49.622,48A4,4,0,0,1,47,49H33a3.97,3.97,0,0,1-2.622-1c-.068.058-.144.107-.208.17A4.025,4.025,0,0,0,29,51H51A3.974,3.974,0,0,0,49.622,48Z" style="fill:#ab623c"/><path d="M54.622,52A4,4,0,0,1,52,53H38a3.97,3.97,0,0,1-2.622-1c-.068.058-.144.107-.208.17A4.025,4.025,0,0,0,34,55H56A3.974,3.974,0,0,0,54.622,52Z" style="fill:#ab623c"/><path d="M52.622,56A4,4,0,0,1,50,57H36a3.97,3.97,0,0,1-2.622-1c-.068.058-.144.107-.208.17A4.025,4.025,0,0,0,32,59H54A3.974,3.974,0,0,0,52.622,56Z" style="fill:#ab623c"/><path d="M31.43,61H29a4,4,0,0,0-2.622,1,4.151,4.151,0,0,1-.565-.6A3.981,3.981,0,0,0,29,63h5.883A3.993,3.993,0,0,1,31.43,61Z" style="fill:#c22026"/><path d="M29,61h2.43a4,4,0,0,1-.342-.735L30.667,59H25a3.907,3.907,0,0,0,.095.851c.011.05.032.095.045.143a3.912,3.912,0,0,0,.229.664c.011.025.027.047.038.071a4.133,4.133,0,0,0,.4.66l0,.006a4.151,4.151,0,0,0,.565.6A4,4,0,0,1,29,61Z" style="fill:#007145"/><path d="M23.442,28H19.225l.633,1.9A22.228,22.228,0,0,1,21,36.937V43a2,2,0,0,0,4,0V36.937a26.217,26.217,0,0,0-1.347-8.3Z" style="fill:#f6fcfc"/><path d="M19.671,21.027a2,2,0,0,0-1.644,2.3l.167,1A2,2,0,0,0,20.164,26a2.071,2.071,0,0,0,.331-.027,1.993,1.993,0,0,0,1.574-1.383A16.661,16.661,0,0,1,21.6,22.63l-.17-1.024A2.006,2.006,0,0,0,19.671,21.027Z" style="fill:#fffefe"/><rect height="2" rx="1" ry="1" style="fill:#ebebff" width="10" x="9" y="13"/><rect height="5" rx="2" ry="2" style="fill:#f6fcfc" width="4" x="21" y="46"/><rect height="2" rx="1" ry="1" style="fill:#de7f4d" width="12" x="40" y="43"/><rect height="2" rx="1" ry="1" style="fill:#de7f4d" width="12" x="37" y="55"/><rect height="2" rx="1" ry="1" style="fill:#de7f4d" width="8" x="33" y="47"/><rect height="2" rx="1" ry="1" style="fill:#de7f4d" width="4" x="43" y="47"/><rect height="2" rx="1" ry="1" style="fill:#de7f4d" width="8" x="38" y="51"/><rect height="2" rx="1" ry="1" style="fill:#de7f4d" width="4" x="48" y="51"/><rect height="2" rx="1" ry="1" style="fill:#00c477" width="19" x="32" y="59"/><rect height="2" rx="1" ry="1" style="fill:#00c477" width="5" x="52" y="59"/><rect height="4" rx="2" ry="2" style="fill:none;stroke:#000;stroke-linejoin:round;stroke-width:2px" width="16" x="6" y="9"/><path d="M25,49V34.777a15.994,15.994,0,0,0-1.689-7.155l-.235-.47A16.042,16.042,0,0,1,21.6,22.627L20,13H8L6.4,22.627a16.042,16.042,0,0,1-1.472,4.525l-.235.47A15.994,15.994,0,0,0,3,34.777V38" style="fill:none;stroke:#000;stroke-linejoin:round;stroke-width:2px"/><path d="M3,44V61c0,1.1,4.925,2,11,2s11-.9,11-2V51" style="fill:none;stroke:#000;stroke-linejoin:round;stroke-width:2px"/><line style="fill:none;stroke:#000;stroke-linejoin:round;stroke-width:2px" x1="3" x2="3" y1="40" y2="42"/><line style="fill:none;stroke:#000;stroke-linejoin:round;stroke-width:2px" x1="4" x2="24" y1="28" y2="28"/><polyline points="16.686 12.999 15 28 12 28" style="fill:none;stroke:#000;stroke-linejoin:round;stroke-width:2px"/><polyline points="13.855 9 14.761 1 18 1.311 17.136 9.001" style="fill:none;stroke:#000;stroke-linejoin:round;stroke-width:2px"/><line style="fill:none;stroke:#000;stroke-linejoin:round;stroke-width:2px" x1="11.703" x2="13.402" y1="28" y2="13"/><line style="fill:none;stroke:#000;stroke-linejoin:round;stroke-width:2px" x1="17.662" x2="14.085" y1="4.296" y2="6.969"/><line style="fill:none;stroke:#000;stroke-linejoin:round;stroke-width:2px" x1="16.535" x2="12.958" y1="14.244" y2="16.917"/><line style="fill:none;stroke:#000;stroke-linejoin:round;stroke-width:2px" x1="15.972" x2="12.395" y1="19.218" y2="21.891"/><line style="fill:none;stroke:#000;stroke-linejoin:round;stroke-width:2px" x1="15.408" x2="11.831" y1="24.192" y2="26.865"/><path d="M25,59H61a0,0,0,0,1,0,0v0a4,4,0,0,1-4,4H29a4,4,0,0,1-4-4v0A0,0,0,0,1,25,59Z" style="fill:none;stroke:#000;stroke-linejoin:round;stroke-width:2px"/><path d="M36,55H50a4,4,0,0,1,4,4v0a0,0,0,0,1,0,0H32a0,0,0,0,1,0,0v0a4,4,0,0,1,4-4Z" style="fill:none;stroke:#000;stroke-linejoin:round;stroke-width:2px"/><path d="M38,51H52a4,4,0,0,1,4,4v0a0,0,0,0,1,0,0H34a0,0,0,0,1,0,0v0a4,4,0,0,1,4-4Z" style="fill:none;stroke:#000;stroke-linejoin:round;stroke-width:2px"/><path d="M33,47H47a4,4,0,0,1,4,4v0a0,0,0,0,1,0,0H29a0,0,0,0,1,0,0v0a4,4,0,0,1,4-4Z" style="fill:none;stroke:#000;stroke-linejoin:round;stroke-width:2px"/><path d="M39,43H53a4,4,0,0,1,4,4v0a0,0,0,0,1,0,0H35a0,0,0,0,1,0,0v0a4,4,0,0,1,4-4Z" style="fill:none;stroke:#000;stroke-linejoin:round;stroke-width:2px"/><path d="M10,37H7a1,1,0,0,0-1,1v1a1,1,0,0,0,1,1H8a1,1,0,0,1,1,1v1a1,1,0,0,1-1,1H5" style="fill:none;stroke:#000;stroke-linejoin:round;stroke-width:2px"/><path d="M12,44V38.5A1.5,1.5,0,0,1,13.5,37h0A1.5,1.5,0,0,1,15,38.5V44" style="fill:none;stroke:#000;stroke-linejoin:round;stroke-width:2px"/><path d="M12,41h3" style="fill:none;stroke:#000;stroke-linejoin:round;stroke-width:2px"/><path d="M15,56V50.5A1.5,1.5,0,0,1,16.5,49h0A1.5,1.5,0,0,1,18,50.5V56" style="fill:none;stroke:#000;stroke-linejoin:round;stroke-width:2px"/><path d="M15,53h3" style="fill:none;stroke:#000;stroke-linejoin:round;stroke-width:2px"/><polyline points="18 44 18 37 22 43 22 36" style="fill:none;stroke:#000;stroke-linejoin:round;stroke-width:2px"/><line style="fill:none;stroke:#000;stroke-linejoin:round;stroke-width:2px" x1="14" x2="8" y1="49" y2="49"/><line style="fill:none;stroke:#000;stroke-linejoin:round;stroke-width:2px" x1="11" x2="11" y1="56" y2="49"/><path d="M41,26c0,2-2,2-2,4s2,2,2,4-2,2-2,4" style="fill:none;stroke:#000;stroke-linejoin:round;stroke-width:2px"/><path d="M47,26c0,2-2,2-2,4s2,2,2,4-2,2-2,4" style="fill:none;stroke:#000;stroke-linejoin:round;stroke-width:2px"/><path d="M53,26c0,2-2,2-2,4s2,2,2,4-2,2-2,4" style="fill:none;stroke:#000;stroke-linejoin:round;stroke-width:2px"/></g></svg>