<?xml version="1.0" ?><svg viewBox="0 0 64 64" xmlns="http://www.w3.org/2000/svg"><g data-name="12-candy" id="_12-candy"><path d="M9.55,16.31l2.23,4.8c-3.52,1.66-5.45,2.99-6.49,5.2L2.23,19.73c-.01-.02-.02-.03-.02-.05,1.7-2.33,5.79-3.3,7.25-3.59C9.49,16.17,9.52,16.24,9.55,16.31Z" style="fill:#ae0000"/><path d="M8.87,2.24l3.35,7.25a1.1,1.1,0,0,0-.23.09A5.013,5.013,0,0,0,9.61,11.9a19.028,19.028,0,0,0-8.41.05A13.067,13.067,0,0,1,8.58,2.24a1.3,1.3,0,0,1,.25-.1Z" style="fill:#ae0000"/><path d="M24.881,6.64c-.361,1.61-1.571,5.86-4.821,8.31L18.7,12.03a5.025,5.025,0,0,0-2.36-2.41c2.06-2.47,1.89-6.48,1.74-8A12.915,12.915,0,0,1,24.881,6.64Z" style="fill:#ae0000"/><path d="M28.051,12.98l3.6,7.76a27.78,27.78,0,0,1-5.57,7.18L22.89,21.05,23,21c4.6-4.4,5-8,5-8Z" style="fill:#ae0000"/><path d="M34.2,26.21l3.48,7.49a27.972,27.972,0,0,1-5.57,7.19l-3.15-6.78.12-.06C33.091,30.22,34.021,26.98,34.2,26.21Z" style="fill:#ae0000"/><path d="M48.621,57.24a4.058,4.058,0,0,1-1.95,5.38,3.966,3.966,0,0,1-1.7.38,4.044,4.044,0,0,1-3.67-2.34L41,60c4.6-4.4,5-8,5-8l.15-.07Z" style="fill:#ae0000"/><path d="M43.511,46.25l2.64,5.68L46,52s-.4,3.6-5,8l-2.86-6.14A24.636,24.636,0,0,0,43.511,46.25Z" style="fill:#008f57"/><path d="M40.561,39.91l2.95,6.34a24.636,24.636,0,0,1-5.37,7.61l-3.18-6.84L35,47A28.259,28.259,0,0,0,40.561,39.91Z" style="fill:#ae0000"/><path d="M37.681,33.7l2.88,6.21A28.259,28.259,0,0,1,35,47l-.04.02-2.85-6.13A27.972,27.972,0,0,0,37.681,33.7Z" style="fill:#008f57"/><path d="M31.651,20.74l2.55,5.47c-.18.77-1.11,4.01-5.12,7.84l-.12.06-2.88-6.19A27.78,27.78,0,0,0,31.651,20.74Z" style="fill:#008f57"/><path d="M28.051,12.98,28,13s-.4,3.6-5,8l-.11.05-2.83-6.1c3.25-2.45,4.46-6.7,4.821-8.31a12.191,12.191,0,0,1,1.13,1.96Z" style="fill:#008f57"/><path d="M18.08,1.62c.15,1.52.32,5.53-1.74,8a5.006,5.006,0,0,0-4.12-.13L8.87,2.24l-.04-.1a12.891,12.891,0,0,1,9.25-.52Z" style="fill:#008f57"/><path d="M12.96,23.65a4.058,4.058,0,0,1-1.95,5.38,3.966,3.966,0,0,1-1.7.38,4.044,4.044,0,0,1-3.67-2.34l-.35-.76c1.04-2.21,2.97-3.54,6.49-5.2Z" style="fill:#008f57"/><path d="M9.07,14.17a4.992,4.992,0,0,0,.39,1.92c-1.46.29-5.55,1.26-7.25,3.59A12.965,12.965,0,0,1,1.2,11.95a19.028,19.028,0,0,1,8.41-.05A5.09,5.09,0,0,0,9.07,14.17Z" style="fill:#008f57"/><path d="M5.571,17.271a9.406,9.406,0,0,0,.459,1.19l2.194,4.6A7.993,7.993,0,0,0,5.29,26.31L2.23,19.73c-.01-.02-.02-.03-.02-.05A8.1,8.1,0,0,1,5.571,17.271Z" style="fill:#ff273a"/><path d="M10.591,5.964c-.037.017-.074.028-.111.046h0a9.29,9.29,0,0,0-4.858,5.453A18.907,18.907,0,0,0,1.2,11.95,13.067,13.067,0,0,1,8.58,2.24a1.3,1.3,0,0,1,.25-.1l.04.1Z" style="fill:#ff273a"/><path d="M22.929,10.558a9.29,9.29,0,0,0-4.974-4.743,16.071,16.071,0,0,0,.126-4.195,12.909,12.909,0,0,1,6.8,5.02,18.082,18.082,0,0,1-1.676,4.521Z" style="fill:#ff273a"/><path d="M26.065,17.391A11.2,11.2,0,0,0,28,13l.05-.02,3.6,7.76a23.267,23.267,0,0,1-2.374,3.647Z" style="fill:#ff273a"/><path d="M32.1,30.549a13.238,13.238,0,0,0,2.1-4.339l3.48,7.49a23.391,23.391,0,0,1-2.424,3.715Z" style="fill:#ff273a"/><path d="M45.855,60.505l-1.848-4.027A11.313,11.313,0,0,0,46,52l.15-.07,2.47,5.31a4.058,4.058,0,0,1-1.268,4.971A3.989,3.989,0,0,1,45.855,60.505Z" style="fill:#ff273a"/><path d="M38.1,43.612a23.9,23.9,0,0,0,2.46-3.7l2.951,6.34a23.511,23.511,0,0,1-2.335,4.063Z" style="fill:#ff273a"/><path d="M44.007,56.478l-2.83-6.165a23.511,23.511,0,0,0,2.335-4.063l2.64,5.68L46,52A11.313,11.313,0,0,1,44.007,56.478Z" style="fill:#00c477"/><path d="M35.257,37.415A23.391,23.391,0,0,0,37.681,33.7l2.88,6.21a23.9,23.9,0,0,1-2.46,3.7Z" style="fill:#00c477"/><path d="M29.277,24.387a23.267,23.267,0,0,0,2.374-3.647l2.55,5.47a13.238,13.238,0,0,1-2.1,4.339Z" style="fill:#00c477"/><path d="M26.065,17.391l-2.86-6.23A18.082,18.082,0,0,0,24.881,6.64a12.191,12.191,0,0,1,1.13,1.96l2.04,4.38L28,13A11.2,11.2,0,0,1,26.065,17.391Z" style="fill:#00c477"/><path d="M17.955,5.815a9.291,9.291,0,0,0-7.364.149L8.87,2.24l-.04-.1a12.894,12.894,0,0,1,9.251-.52A16.071,16.071,0,0,1,17.955,5.815Z" style="fill:#00c477"/><path d="M5.64,27.07l-.35-.76a7.993,7.993,0,0,1,2.934-3.245l1.92,4.032a2,2,0,0,1-.455,2.272c-.127.012-.253.041-.379.041A4.044,4.044,0,0,1,5.64,27.07Z" style="fill:#00c477"/><path d="M5.622,11.463a9.287,9.287,0,0,0-.051,5.808A8.1,8.1,0,0,0,2.21,19.68,12.965,12.965,0,0,1,1.2,11.95,18.907,18.907,0,0,1,5.622,11.463Z" style="fill:#00c477"/><path d="M54.45,16.31l-2.23,4.8c3.52,1.66,5.45,2.99,6.49,5.2l3.06-6.58c.01-.02.02-.03.02-.05-1.7-2.33-5.79-3.3-7.25-3.59C54.51,16.17,54.48,16.24,54.45,16.31Z" style="fill:#ebebff"/><path d="M55.13,2.24,51.78,9.49a1.1,1.1,0,0,1,.23.09,5.013,5.013,0,0,1,2.38,2.32,19.028,19.028,0,0,1,8.41.05,13.067,13.067,0,0,0-7.38-9.71,1.3,1.3,0,0,0-.25-.1Z" style="fill:#ebebff"/><path d="M39.119,6.64c.361,1.61,1.571,5.86,4.821,8.31l1.36-2.92a5.025,5.025,0,0,1,2.36-2.41c-2.06-2.47-1.89-6.48-1.74-8A12.915,12.915,0,0,0,39.119,6.64Z" style="fill:#ebebff"/><path d="M35.949,12.98l-3.6,7.76a27.78,27.78,0,0,0,5.57,7.18l3.191-6.87L41,21c-4.6-4.4-5-8-5-8Z" style="fill:#ebebff"/><path d="M29.8,26.21l-3.48,7.49a27.972,27.972,0,0,0,5.57,7.19l3.15-6.78-.12-.06C30.909,30.22,29.979,26.98,29.8,26.21Z" style="fill:#ebebff"/><path d="M15.379,57.24a4.058,4.058,0,0,0,1.95,5.38,3.966,3.966,0,0,0,1.7.38,4.044,4.044,0,0,0,3.67-2.34L23,60c-4.6-4.4-5-8-5-8l-.15-.07Z" style="fill:#ebebff"/><path d="M20.489,46.25l-2.64,5.68L18,52s.4,3.6,5,8l2.86-6.14A24.636,24.636,0,0,1,20.489,46.25Z" style="fill:#c22026"/><path d="M23.439,39.91l-2.95,6.34a24.636,24.636,0,0,0,5.37,7.61l3.18-6.84L29,47A28.259,28.259,0,0,1,23.439,39.91Z" style="fill:#ebebff"/><path d="M26.319,33.7l-2.88,6.21A28.259,28.259,0,0,0,29,47l.04.02,2.85-6.13A27.972,27.972,0,0,1,26.319,33.7Z" style="fill:#c22026"/><path d="M32.349,20.74,29.8,26.21c.18.77,1.11,4.01,5.12,7.84l.12.06,2.88-6.19A27.78,27.78,0,0,1,32.349,20.74Z" style="fill:#c22026"/><path d="M35.949,12.98,36,13s.4,3.6,5,8l.11.05,2.83-6.1c-3.25-2.45-4.46-6.7-4.821-8.31a12.191,12.191,0,0,0-1.13,1.96Z" style="fill:#c22026"/><path d="M45.92,1.62c-.15,1.52-.32,5.53,1.74,8a5.006,5.006,0,0,1,4.12-.13l3.35-7.25.04-.1a12.891,12.891,0,0,0-9.25-.52Z" style="fill:#c22026"/><path d="M51.04,23.65a4.058,4.058,0,0,0,1.95,5.38,3.966,3.966,0,0,0,1.7.38,4.044,4.044,0,0,0,3.67-2.34l.35-.76c-1.04-2.21-2.97-3.54-6.49-5.2Z" style="fill:#c22026"/><path d="M54.93,14.17a4.992,4.992,0,0,1-.39,1.92c1.46.29,5.55,1.26,7.25,3.59a12.965,12.965,0,0,0,1.01-7.73,19.028,19.028,0,0,0-8.41-.05A5.09,5.09,0,0,1,54.93,14.17Z" style="fill:#c22026"/><path d="M58.43,17.271a9.413,9.413,0,0,1-.46,1.19l-2.193,4.6A7.99,7.99,0,0,1,58.71,26.31l3.06-6.58c.01-.02.02-.03.02-.05A8.1,8.1,0,0,0,58.43,17.271Z" style="fill:#fffefe"/><path d="M53.409,5.964c.037.017.075.028.112.046h0a9.293,9.293,0,0,1,4.858,5.453,18.9,18.9,0,0,1,4.421.487,13.067,13.067,0,0,0-7.38-9.71,1.3,1.3,0,0,0-.25-.1l-.04.1Z" style="fill:#fffefe"/><path d="M41.072,10.558a9.286,9.286,0,0,1,4.974-4.743A16.071,16.071,0,0,1,45.92,1.62a12.909,12.909,0,0,0-6.8,5.02A18.029,18.029,0,0,0,40.8,11.161Z" style="fill:#fffefe"/><path d="M37.935,17.391A11.216,11.216,0,0,1,36,13l-.05-.02-3.6,7.76a23.369,23.369,0,0,0,2.375,3.647Z" style="fill:#fffefe"/><path d="M31.9,30.549a13.25,13.25,0,0,1-2.1-4.339l-3.48,7.49a23.491,23.491,0,0,0,2.425,3.715Z" style="fill:#fffefe"/><path d="M18.145,60.505l1.849-4.027A11.313,11.313,0,0,1,18,52l-.15-.07-2.47,5.31a4.058,4.058,0,0,0,1.267,4.971A3.982,3.982,0,0,0,18.145,60.505Z" style="fill:#fffefe"/><path d="M25.9,43.612a23.98,23.98,0,0,1-2.46-3.7l-2.95,6.34a23.493,23.493,0,0,0,2.334,4.063Z" style="fill:#fffefe"/><path d="M19.994,56.478l2.829-6.165a23.493,23.493,0,0,1-2.334-4.063l-2.64,5.68L18,52A11.313,11.313,0,0,0,19.994,56.478Z" style="fill:#ff273a"/><path d="M28.744,37.415A23.491,23.491,0,0,1,26.319,33.7l-2.88,6.21a23.98,23.98,0,0,0,2.46,3.7Z" style="fill:#ff273a"/><path d="M34.724,24.387a23.369,23.369,0,0,1-2.375-3.647L29.8,26.21a13.25,13.25,0,0,0,2.1,4.339Z" style="fill:#ff273a"/><path d="M37.935,17.391l2.86-6.23A18.029,18.029,0,0,1,39.12,6.64,12.121,12.121,0,0,0,37.989,8.6l-2.04,4.38L36,13A11.216,11.216,0,0,0,37.935,17.391Z" style="fill:#ff273a"/><path d="M46.046,5.815a9.288,9.288,0,0,1,7.363.149L55.13,2.24l.04-.1a12.891,12.891,0,0,0-9.25-.52A16.071,16.071,0,0,0,46.046,5.815Z" style="fill:#ff273a"/><path d="M58.36,27.07l.35-.76a7.99,7.99,0,0,0-2.933-3.245L53.856,27.1a2,2,0,0,0,.456,2.272c.126.012.252.041.378.041A4.044,4.044,0,0,0,58.36,27.07Z" style="fill:#ff273a"/><path d="M58.379,11.463a9.287,9.287,0,0,1,.051,5.808,8.1,8.1,0,0,1,3.36,2.409,12.965,12.965,0,0,0,1.01-7.73A18.9,18.9,0,0,0,58.379,11.463Z" style="fill:#ff273a"/><path d="M27.512,31,26.081,27.92l-3.19-6.87-2.831-6.1L18.7,12.03a5.028,5.028,0,0,0-6.48-2.54,1.1,1.1,0,0,0-.23.09A5.013,5.013,0,0,0,9.61,11.9a5.09,5.09,0,0,0-.54,2.27,4.992,4.992,0,0,0,.39,1.92c.03.08.06.15.09.22l2.23,4.8,1.18,2.54a4.058,4.058,0,0,1-1.95,5.38,3.966,3.966,0,0,1-1.7.38,4.044,4.044,0,0,1-3.67-2.34l-.35-.76L2.23,19.73c-.01-.02-.02-.03-.02-.05A13.2,13.2,0,0,1,8.58,2.24a1.3,1.3,0,0,1,.25-.1,12.891,12.891,0,0,1,9.25-.52,12.911,12.911,0,0,1,6.8,5.02,12.191,12.191,0,0,1,1.13,1.96l2.04,4.38,3.6,7.76.349.749" style="fill:none;stroke:#000;stroke-linejoin:round;stroke-width:2px"/><path d="M36.427,31l1.254,2.7,2.88,6.21,2.95,6.34,2.64,5.68,2.471,5.31a4.058,4.058,0,0,1-1.95,5.38,3.974,3.974,0,0,1-1.7.38,4.044,4.044,0,0,1-3.67-2.34L41,60l-2.86-6.14-3.18-6.84-2.85-6.13L32,40.649" style="fill:none;stroke:#000;stroke-linejoin:round;stroke-width:2px"/><path d="M46,52s-.4,3.6-5,8" style="fill:none;stroke:#000;stroke-linejoin:round;stroke-width:2px"/><path d="M43.511,46.25a24.636,24.636,0,0,1-5.37,7.61" style="fill:none;stroke:#000;stroke-linejoin:round;stroke-width:2px"/><path d="M40.561,39.91A28.259,28.259,0,0,1,35,47" style="fill:none;stroke:#000;stroke-linejoin:round;stroke-width:2px"/><path d="M37.681,33.7a27.972,27.972,0,0,1-5.57,7.19A1.141,1.141,0,0,1,32,41" style="fill:none;stroke:#000;stroke-linejoin:round;stroke-width:2px"/><path d="M31.651,20.74a27.78,27.78,0,0,1-5.57,7.18A.6.6,0,0,1,26,28" style="fill:none;stroke:#000;stroke-linejoin:round;stroke-width:2px"/><path d="M28,13s-.4,3.6-5,8" style="fill:none;stroke:#000;stroke-linejoin:round;stroke-width:2px"/><path d="M24.881,6.64c-.36,1.61-1.57,5.86-4.821,8.31-.02.02-.04.03-.06.05" style="fill:none;stroke:#000;stroke-linejoin:round;stroke-width:2px"/><path d="M18.08,1.62c.15,1.52.32,5.53-1.74,8" style="fill:none;stroke:#000;stroke-linejoin:round;stroke-width:2px"/><polyline points="12.26 9.58 12.22 9.49 8.87 2.24" style="fill:none;stroke:#000;stroke-linejoin:round;stroke-width:2px"/><path d="M5.29,26.31c1.04-2.21,2.97-3.54,6.49-5.2" style="fill:none;stroke:#000;stroke-linejoin:round;stroke-width:2px"/><path d="M9.46,16.09c-1.46.29-5.55,1.26-7.25,3.59" style="fill:none;stroke:#000;stroke-linejoin:round;stroke-width:2px"/><path d="M9.61,11.9a19.028,19.028,0,0,0-8.41.05" style="fill:none;stroke:#000;stroke-linejoin:round;stroke-width:2px"/><path d="M58.71,26.31l3.06-6.58c.01-.02.02-.03.02-.05A13.2,13.2,0,0,0,55.42,2.24a1.3,1.3,0,0,0-.25-.1,12.891,12.891,0,0,0-9.25-.52,12.911,12.911,0,0,0-6.8,5.02,12.191,12.191,0,0,0-1.13,1.96l-2.04,4.38-3.6,7.76L29.8,26.21l-3.48,7.49-2.88,6.21-2.95,6.34-2.64,5.68-2.471,5.31a4.058,4.058,0,0,0,1.95,5.38,3.974,3.974,0,0,0,1.7.38,4.044,4.044,0,0,0,3.67-2.34L23,60l2.86-6.14,3.18-6.84,2.85-6.13,3.15-6.78,2.88-6.19,3.19-6.87,2.831-6.1,1.36-2.92a5.028,5.028,0,0,1,6.48-2.54,1.1,1.1,0,0,1,.23.09,5.013,5.013,0,0,1,2.38,2.32,5.09,5.09,0,0,1,.54,2.27,4.992,4.992,0,0,1-.39,1.92c-.03.08-.06.15-.09.22l-2.23,4.8-1.18,2.54a4.058,4.058,0,0,0,1.95,5.38,3.966,3.966,0,0,0,1.7.38,4.044,4.044,0,0,0,3.67-2.34Z" style="fill:none;stroke:#000;stroke-linejoin:round;stroke-width:2px"/><path d="M18,52s.4,3.6,5,8" style="fill:none;stroke:#000;stroke-linejoin:round;stroke-width:2px"/><path d="M20.489,46.25a24.636,24.636,0,0,0,5.37,7.61" style="fill:none;stroke:#000;stroke-linejoin:round;stroke-width:2px"/><path d="M23.439,39.91A28.259,28.259,0,0,0,29,47" style="fill:none;stroke:#000;stroke-linejoin:round;stroke-width:2px"/><path d="M26.319,33.7a27.972,27.972,0,0,0,5.57,7.19A1.141,1.141,0,0,0,32,41" style="fill:none;stroke:#000;stroke-linejoin:round;stroke-width:2px"/><path d="M29.8,26.21c.18.77,1.11,4.01,5.12,7.84" style="fill:none;stroke:#000;stroke-linejoin:round;stroke-width:2px"/><path d="M32.349,20.74a27.78,27.78,0,0,0,5.57,7.18A.6.6,0,0,0,38,28" style="fill:none;stroke:#000;stroke-linejoin:round;stroke-width:2px"/><path d="M36,13s.4,3.6,5,8" style="fill:none;stroke:#000;stroke-linejoin:round;stroke-width:2px"/><path d="M39.119,6.64c.36,1.61,1.57,5.86,4.821,8.31.02.02.04.03.06.05" style="fill:none;stroke:#000;stroke-linejoin:round;stroke-width:2px"/><path d="M45.92,1.62c-.15,1.52-.32,5.53,1.74,8" style="fill:none;stroke:#000;stroke-linejoin:round;stroke-width:2px"/><polyline points="51.74 9.58 51.78 9.49 55.13 2.24" style="fill:none;stroke:#000;stroke-linejoin:round;stroke-width:2px"/><path d="M58.71,26.31c-1.04-2.21-2.97-3.54-6.49-5.2" style="fill:none;stroke:#000;stroke-linejoin:round;stroke-width:2px"/><path d="M54.54,16.09c1.46.29,5.55,1.26,7.25,3.59" style="fill:none;stroke:#000;stroke-linejoin:round;stroke-width:2px"/><path d="M54.39,11.9a19.028,19.028,0,0,1,8.41.05" style="fill:none;stroke:#000;stroke-linejoin:round;stroke-width:2px"/></g></svg>