<?xml version="1.0" ?><svg viewBox="0 0 64 64" xmlns="http://www.w3.org/2000/svg"><g data-name="26-Christmas Balls" id="_26-Christmas_Balls"><path d="M32,15A24,24,0,1,1,8,39,24.006,24.006,0,0,1,32,15Z" style="fill:#df2d3d"/><path d="M37,11v4H35.62a1,1,0,0,1-.9-.55L34,12v2a1,1,0,0,1-1,1H31a1,1,0,0,1-1-1V12l-.72,2.45a1,1,0,0,1-.9.55H27V11a2.006,2.006,0,0,1,2-2h6A2.006,2.006,0,0,1,37,11Z" style="fill:#edc332"/><path d="M33,14H31a1,1,0,0,1-1-1v1a1,1,0,0,0,1,1h2a1,1,0,0,0,1-1V13A1,1,0,0,1,33,14Z" style="fill:#d79d44"/><path d="M29.28,13.45a1,1,0,0,1-.9.55H27v1h1.38a1,1,0,0,0,.9-.55L30,12V11Z" style="fill:#d79d44"/><path d="M34.72,13.45,34,11v1l.72,2.45a1,1,0,0,0,.9.55H37V14H35.62A1,1,0,0,1,34.72,13.45Z" style="fill:#d79d44"/><path d="M35,9H29a2.006,2.006,0,0,0-2,2v1a2.006,2.006,0,0,1,2-2h6a2.006,2.006,0,0,1,2,2V11A2.006,2.006,0,0,0,35,9Z" style="fill:#ffdc63"/><ellipse cx="32" cy="5" rx="3" ry="4" style="fill:#fff"/><path d="M34.72,14.45,34,12v2a1,1,0,0,1-1,1H32a24.082,24.082,0,0,1,5,.526V15H35.62A1,1,0,0,1,34.72,14.45Z" style="fill:#8a0314"/><path d="M31,15a1,1,0,0,1-1-1V12l-.72,2.45a1,1,0,0,1-.9.55H27v.526A24.082,24.082,0,0,1,32,15Z" style="fill:#8a0314"/><rect height="3" rx="1" ry="1" style="fill:#ffdc63" width="2" x="31" y="10"/><rect height="3" rx="1" ry="1" style="fill:#ffdc63" width="2" x="35" y="10"/><rect height="3" rx="1" ry="1" style="fill:#ffdc63" width="2" x="27" y="10"/><path d="M18.56,5.29l1.02.52A2.31,2.31,0,0,0,19,7.35v7.3a2.31,2.31,0,0,0,.58,1.54l-1.02.52a2.634,2.634,0,0,1-1.21.29A2.2,2.2,0,0,1,15,14.99V7.01a1.856,1.856,0,0,1,.69-1.42A2.507,2.507,0,0,1,17.35,5,2.634,2.634,0,0,1,18.56,5.29Z" style="fill:#007145"/><path d="M49,7.01v7.98A2.2,2.2,0,0,1,46.65,17a2.634,2.634,0,0,1-1.21-.29l-1.02-.52A2.31,2.31,0,0,0,45,14.65V7.35a2.31,2.31,0,0,0-.58-1.54l1.02-.52A2.634,2.634,0,0,1,46.65,5a2.507,2.507,0,0,1,1.66.59A1.856,1.856,0,0,1,49,7.01Z" style="fill:#007145"/><path d="M47,14.325V7.675a1.468,1.468,0,0,0-.69-1.183A2.822,2.822,0,0,0,44.65,6c-.028,0-.055.007-.083.008A2.315,2.315,0,0,1,45,7.35v7.3a2.315,2.315,0,0,1-.433,1.342c.028,0,.055.008.083.008C45.95,16,47,15.25,47,14.325Z" style="fill:#004a2d"/><path d="M17,14.325V7.675a1.468,1.468,0,0,1,.69-1.183A2.822,2.822,0,0,1,19.35,6c.028,0,.055.007.083.008A2.315,2.315,0,0,0,19,7.35v7.3a2.315,2.315,0,0,0,.433,1.342c-.028,0-.055.008-.083.008C18.05,16,17,15.25,17,14.325Z" style="fill:#004a2d"/><path d="M27,10l.24.05A2.028,2.028,0,0,0,27,11v1l-3.14.77a1.408,1.408,0,0,1-.2.01,1.66,1.66,0,1,1,.4-3.27Z" style="fill:#ae0000"/><path d="M39.94,9.51a1.66,1.66,0,1,1,.4,3.27,1.408,1.408,0,0,1-.2-.01L37,12V11a2.028,2.028,0,0,0-.24-.95L37,10Z" style="fill:#ae0000"/><path d="M22.6,5.24,31,9H29a2.012,2.012,0,0,0-1.76,1.05L27,10l-2.94-.49a1.66,1.66,0,1,0-.4,3.27,1.408,1.408,0,0,0,.2-.01L27,12v3l-4.4,1.76a3.348,3.348,0,0,1-1.25.24,2.31,2.31,0,0,1-1.66-.69c-.04-.04-.07-.08-.11-.12A2.31,2.31,0,0,1,19,14.65V7.35A2.359,2.359,0,0,1,21.35,5,3.348,3.348,0,0,1,22.6,5.24Z" style="fill:#ff273a"/><path d="M37,12l3.14.77a1.408,1.408,0,0,0,.2.01,1.66,1.66,0,1,0-.4-3.27L37,10l-.24.05A2.012,2.012,0,0,0,35,9H33l8.4-3.76A3.348,3.348,0,0,1,42.65,5,2.359,2.359,0,0,1,45,7.35v7.3a2.31,2.31,0,0,1-.58,1.54c-.04.04-.07.08-.11.12a2.31,2.31,0,0,1-1.66.69,3.348,3.348,0,0,1-1.25-.24L37,15Z" style="fill:#ff273a"/><path d="M25.3,9.716A2.977,2.977,0,0,0,25,11v1.49L27,12V11a2.028,2.028,0,0,1,.24-.95L27,10Z" style="fill:#700310"/><path d="M39,11a2.977,2.977,0,0,0-.3-1.284L37,10l-.24.05A2.028,2.028,0,0,1,37,11v1l2,.49Z" style="fill:#700310"/><path d="M25.3,9.716,27,10l.24.05A2.012,2.012,0,0,1,29,9h2L28.766,8H28A2.991,2.991,0,0,0,25.3,9.716Z" style="fill:#c22026"/><path d="M25,12.558a2,2,0,0,1-1.368,1.9l-4.28,1.427a2.162,2.162,0,0,0,.228.307c.04.04.07.08.11.12a2.31,2.31,0,0,0,1.66.69,3.348,3.348,0,0,0,1.25-.24L27,15V12l-2,.49Z" style="fill:#c22026"/><path d="M39,12.558V12.49L37,12v3l4.4,1.76a3.348,3.348,0,0,0,1.25.24,2.31,2.31,0,0,0,1.66-.69c.04-.04.07-.08.11-.12a2.162,2.162,0,0,0,.228-.307l-4.28-1.427A2,2,0,0,1,39,12.558Z" style="fill:#c22026"/><path d="M38.7,9.716A2.991,2.991,0,0,0,36,8h-.766L33,9h2a2.012,2.012,0,0,1,1.76,1.05L37,10Z" style="fill:#c22026"/><path d="M11,40,8.22,42.22c-.1-.73-.17-1.47-.2-2.22Z" style="fill:#d0daed"/><path d="M53,40h2.98c-.03.75-.1,1.49-.2,2.22Z" style="fill:#d0daed"/><path d="M56,39c0,.33-.01.66-.02.98L51,35l-5,5h3l-5,4h3l-4,5h6v4H34V49h6l-4-5h3l-5-4h3l-5-5-5,5h3l-5,4h3l-4,5h6v4H15V49h6l-4-5h3l-5-4h3l-5-5L8.02,39.98C8.01,39.66,8,39.33,8,39a24,24,0,0,1,48,0ZM43,22a2,2,0,1,0-2,2A2.006,2.006,0,0,0,43,22Zm0,11a2,2,0,1,0-2,2A2.006,2.006,0,0,0,43,33Zm-9-5a2,2,0,1,0-2,2A2.006,2.006,0,0,0,34,28Zm-5-9a2,2,0,1,0-2,2A2.006,2.006,0,0,0,29,19ZM25,38a2,2,0,1,0-2,2A2.006,2.006,0,0,0,25,38Zm-5-9a2,2,0,1,0-2,2A2.006,2.006,0,0,0,20,29Z" style="fill:#d0daed"/><path d="M55.98,39.98V40H53l2.78,2.22A23.472,23.472,0,0,1,53.81,49H43l4-5H44l5-4H46l5-5Z" style="fill:#007145"/><path d="M53,49h.81a22.819,22.819,0,0,1-2.33,4H49V49Z" style="fill:#5c1012"/><path d="M49,53h2.48a23.974,23.974,0,0,1-38.96,0H49Z" style="fill:#007145"/><circle cx="41" cy="22" r="2" style="fill:#f5f9ff"/><circle cx="41" cy="33" r="2" style="fill:#f5f9ff"/><polygon points="36 44 40 49 34 49 30 49 24 49 28 44 25 44 30 40 27 40 32 35 37 40 34 40 39 44 36 44" style="fill:#007145"/><rect height="4" style="fill:#5c1012" width="4" x="30" y="49"/><circle cx="32" cy="28" r="2" style="fill:#f5f9ff"/><circle cx="27" cy="19" r="2" style="fill:#f5f9ff"/><circle cx="23" cy="38" r="2" style="fill:#f5f9ff"/><path d="M17,44l4,5H10.19a23.472,23.472,0,0,1-1.97-6.78L11,40H8.02v-.02L13,35l5,5H15l5,4Z" style="fill:#007145"/><circle cx="18" cy="29" r="2" style="fill:#f5f9ff"/><path d="M15,49v4H12.52a22.819,22.819,0,0,1-2.33-4H15Z" style="fill:#5c1012"/><path d="M8.02,40c.03.75.1,1.49.2,2.22L11,40Z" style="fill:#d0daed"/><path d="M55.78,42.22c.1-.73.17-1.47.2-2.22H53Z" style="fill:#b2bfd6"/><path d="M49,34a17.081,17.081,0,0,1-.331,3.331l2.114-2.114-1.8-1.654C48.982,33.71,49,33.852,49,34Z" style="fill:#b2bfd6"/><path d="M40,49v0h0a16.882,16.882,0,0,1-6,1.872V53H49V49H43l4-5H45.726A17.043,17.043,0,0,1,40,49Z" style="fill:#b2bfd6"/><path d="M24,49h0v0a17.043,17.043,0,0,1-5.727-5H17l4,5H15v4H30V50.872A16.882,16.882,0,0,1,24,49Z" style="fill:#b2bfd6"/><path d="M13.217,35.217l1.8-1.654a16.984,16.984,0,0,1,10.055-15.08A2,2,0,0,1,27,17a1.976,1.976,0,0,1,1.227.435,16.824,16.824,0,0,1,13.8,2.86,2.072,2.072,0,0,1,.314.235,16.947,16.947,0,0,1,6.635,13.033l1.8,1.654L51,35l4.98,4.98c.01-.32.02-.65.02-.98A24,24,0,0,0,8,39c0,.33.01.66.02.98L13,35Z" style="fill:#d8e2f7"/><path d="M15.022,33.563l-1.8,1.654,2.114,2.114A17.081,17.081,0,0,1,15,34C15,33.852,15.018,33.71,15.022,33.563Z" style="fill:#b2bfd6"/><path d="M49,40H47.89q-.261.691-.58,1.352Z" style="fill:#d0daed"/><path d="M15,40l1.69,1.352q-.318-.661-.58-1.352Z" style="fill:#d0daed"/><path d="M48.669,37.331A16.857,16.857,0,0,1,47.89,40H49l-1.69,1.352A16.86,16.86,0,0,1,45.726,44H47l-4,5H53.81a23.472,23.472,0,0,0,1.97-6.78L53,40h2.98v-.018l-5.2-4.765Z" style="fill:#004a2d"/><polygon points="51 35 50.783 35.217 55.98 39.982 55.98 39.98 51 35" style="fill:#007145"/><path d="M49,49v4h2.48a22.819,22.819,0,0,0,2.33-4H49Z" style="fill:#5c1012"/><path d="M34,53H12.52a23.974,23.974,0,0,0,38.96,0H34Z" style="fill:#004a2d"/><path d="M42.029,20.3c.106.078.211.156.314.235A2.072,2.072,0,0,0,42.029,20.3Z" style="fill:#3646d9"/><polygon points="24 49 24.004 49 24.001 48.998 24 49" style="fill:#007145"/><polygon points="40 49 39.999 48.998 39.996 49 40 49" style="fill:#007145"/><path d="M32,51a17.138,17.138,0,0,1-2-.128V53h4V50.872A17.138,17.138,0,0,1,32,51Z" style="fill:#5c1012"/><path d="M27,17a2,2,0,0,0-1.923,1.483,16.853,16.853,0,0,1,3.15-1.048A1.976,1.976,0,0,0,27,17Z" style="fill:#b2bfd6"/><polygon points="13 35 8.02 39.98 8.02 39.982 13.217 35.217 13 35" style="fill:#007145"/><path d="M15,49h6l-4-5h1.274a16.86,16.86,0,0,1-1.584-2.648L15,40h1.11a16.857,16.857,0,0,1-.779-2.669l-2.114-2.114-5.2,4.765V40H11L8.22,42.22A23.472,23.472,0,0,0,10.19,49H15Z" style="fill:#004a2d"/><path d="M15,49H10.19a22.819,22.819,0,0,0,2.33,4H15Z" style="fill:#5c1012"/><path d="M24,49a16.882,16.882,0,0,0,6,1.872V49Z" style="fill:#d0daed"/><path d="M34,50.872A16.882,16.882,0,0,0,40,49H34Z" style="fill:#d0daed"/><path d="M48.978,33.563l-.113-.1A4.742,4.742,0,0,0,43,33.033a2,2,0,0,1-1.643,1.931c-.01.023-.024.043-.034.067h0A5,5,0,0,1,36.751,38H35l2,2H34l5,4H36l4,5a17.043,17.043,0,0,0,5.727-5H44l3.31-2.648q.318-.661.58-1.352H46l2.669-2.669A17.081,17.081,0,0,0,49,34C49,33.852,48.982,33.71,48.978,33.563Z" style="fill:#d0daed"/><path d="M24,49l4-5H25l5-4H27l2-2H27.249a4.973,4.973,0,0,1-2.352-.6,1.97,1.97,0,0,1,.1.6,2,2,0,1,1-2-2,1.952,1.952,0,0,1,.287.029,4.989,4.989,0,0,1-.607-1h0a4.746,4.746,0,0,0-7.545-1.572l-.113.1c0,.147-.022.289-.022.437a17.081,17.081,0,0,0,.331,3.331L18,40H16.11q.261.691.58,1.352L20,44H18.274A17.043,17.043,0,0,0,24,49Z" style="fill:#d0daed"/><path d="M22.68,35.031h0a4.989,4.989,0,0,0,.607,1A2,2,0,0,1,24.9,37.4a4.973,4.973,0,0,0,2.352.6H29l3-3,3,3h1.751a5,5,0,0,0,4.569-2.969h0c.01-.024.024-.044.034-.067A1.967,1.967,0,0,1,41,35a2,2,0,1,1,2-2c0,.011,0,.022,0,.033a4.742,4.742,0,0,1,5.868.426l.113.1A16.947,16.947,0,0,0,42.343,20.53a2.032,2.032,0,1,1-.314-.235,16.824,16.824,0,0,0-13.8-2.86A2,2,0,1,1,25,19a1.964,1.964,0,0,1,.077-.517,16.984,16.984,0,0,0-10.055,15.08l.113-.1A4.746,4.746,0,0,1,22.68,35.031ZM32,26a2,2,0,1,1-2,2A2.006,2.006,0,0,1,32,26ZM18,27a2,2,0,1,1-2,2A2.006,2.006,0,0,1,18,27Z" style="fill:#f5f9ff"/><path d="M45.726,44a16.86,16.86,0,0,0,1.584-2.648L44,44Z" style="fill:#007145"/><path d="M47.89,40a16.857,16.857,0,0,0,.779-2.669L46,40Z" style="fill:#007145"/><path d="M39,22a2,2,0,1,0,3.343-1.47c-.1-.079-.208-.157-.314-.235A1.979,1.979,0,0,0,41,20,2.006,2.006,0,0,0,39,22Z" style="fill:#d8e2f7"/><path d="M41.354,34.964A2,2,0,0,0,43,33.033,4.7,4.7,0,0,0,41.354,34.964Z" style="fill:#b2bfd6"/><path d="M41,31a2,2,0,0,0,0,4,1.967,1.967,0,0,0,.354-.036A4.7,4.7,0,0,1,43,33.033c0-.011,0-.022,0-.033A2.006,2.006,0,0,0,41,31Z" style="fill:#d8e2f7"/><polygon points="29 38 32 38 35 38 32 35 29 38" style="fill:#00995d"/><polygon points="29 38 27 40 30 40 25 44 28 44 24.001 48.998 24.004 49 30 49 34 49 39.996 49 39.999 48.998 36 44 39 44 34 40 37 40 35 38 32 38 29 38" style="fill:#007145"/><path d="M30,49v1.872a15.689,15.689,0,0,0,4,0V49Z" style="fill:#5c1012"/><circle cx="32" cy="28" r="2" style="fill:#d8e2f7"/><path d="M27,21a1.99,1.99,0,0,0,1.227-3.565,16.853,16.853,0,0,0-3.15,1.048A1.964,1.964,0,0,0,25,19,2.006,2.006,0,0,0,27,21Z" style="fill:#d8e2f7"/><path d="M23.287,36.029A1.952,1.952,0,0,0,23,36a2,2,0,1,0,2,2,1.97,1.97,0,0,0-.1-.6A4.972,4.972,0,0,1,23.287,36.029Z" style="fill:#b2bfd6"/><path d="M23.287,36.029A4.972,4.972,0,0,0,24.9,37.4,2,2,0,0,0,23.287,36.029Z" style="fill:#d8e2f7"/><path d="M16.69,41.352A16.86,16.86,0,0,0,18.274,44H20Z" style="fill:#007145"/><path d="M15.331,37.331A16.857,16.857,0,0,0,16.11,40H18Z" style="fill:#007145"/><circle cx="18" cy="29" r="2" style="fill:#d8e2f7"/><path d="M48.669,37.331l.3-.3c-.08-.013-.165-.015-.248-.02C48.7,37.12,48.69,37.227,48.669,37.331Z" style="fill:#fff"/><path d="M45.726,44c-.217.3-.464.573-.7.857a2.308,2.308,0,0,0,.442,1.058L47,44Z" style="fill:#d8e2f7"/><path d="M49,40H47.89q-.261.691-.58,1.352Z" style="fill:#d8e2f7"/><path d="M47.89,40H49l-1.69,1.352A16.86,16.86,0,0,1,45.726,44H47l-1.532,1.915a2.709,2.709,0,0,0,3.992.375c1.66-1.39,1.64-5.13,1.45-7.42a2.159,2.159,0,0,0-1.946-1.834l-.3.3A16.857,16.857,0,0,1,47.89,40Z" style="fill:#00945a"/><path d="M45.087,44a2.189,2.189,0,0,0-.061.857c.236-.284.483-.558.7-.857Z" style="fill:#fff"/><path d="M47.89,40H46.062a15.166,15.166,0,0,1-.6,2.83l1.847-1.478Q47.628,40.691,47.89,40Z" style="fill:#fff"/><path d="M48.716,37.016c-.065,0-.129-.016-.2-.016a2.23,2.23,0,0,0-2.4,2.03c0,.3-.021.6-.05.9l2.6-2.6C48.69,37.227,48.7,37.12,48.716,37.016Z" style="fill:#fff"/><path d="M47.31,41.352,45.463,42.83c-.111.358-.224.693-.333.99-.021.059-.027.12-.043.18h.639A16.86,16.86,0,0,0,47.31,41.352Z" style="fill:#00c477"/><path d="M48.669,37.331l-2.6,2.6-.008.07H47.89A16.857,16.857,0,0,0,48.669,37.331Z" style="fill:#00c477"/><path d="M48.557,33.223A4.712,4.712,0,0,0,43.8,32.6c.679.34,1.33.7,1.927,1.065A2.191,2.191,0,0,0,48.557,33.223Z" style="fill:#f5f9ff"/><path d="M42.775,22.9a1.99,1.99,0,0,1-3.77-.855A4.642,4.642,0,0,0,35.9,23.78l-.06.09a4.033,4.033,0,0,0,2.04,6.31c.809.278,1.659.59,2.513.925A1.973,1.973,0,0,1,41,31a2,2,0,0,1,1.784,1.117q.519.239,1.019.488a4.712,4.712,0,0,1,4.754.618,1.832,1.832,0,0,0,.362-.7,16.948,16.948,0,0,0-.637-3.346A10.816,10.816,0,0,0,42.775,22.9Z" style="fill:#fff"/><path d="M41,24a2,2,0,0,0,1.775-1.1,12.205,12.205,0,0,0-1.845-.71,4.7,4.7,0,0,0-1.925-.145A2,2,0,0,0,41,24Z" style="fill:#f5f9ff"/><path d="M41,31a1.973,1.973,0,0,0-.607.105c.8.315,1.609.652,2.391,1.012A2,2,0,0,0,41,31Z" style="fill:#f5f9ff"/><circle cx="51" cy="33" r="1" style="fill:#fff"/><circle cx="33" cy="22" r="1" style="fill:#fff"/><circle cx="26" cy="35" r="1" style="fill:#fff"/><circle cx="20" cy="41" r="1" style="fill:#fff"/><circle cx="42" cy="45" r="1" style="fill:#fff"/><circle cx="18" cy="34" r="1" style="fill:#fff"/><circle cx="24" cy="51" r="1" style="fill:#fff"/><circle cx="30.5" cy="32.5" r="0.5" style="fill:#fff"/><circle cx="23.5" cy="30.5" r="0.5" style="fill:#fff"/><circle cx="33" cy="32" r="1" style="fill:#fff"/><circle cx="38.5" cy="36.5" r="0.5" style="fill:#fff"/><circle cx="29.5" cy="30.5" r="0.5" style="fill:#fff"/><circle cx="42.5" cy="40.5" r="0.5" style="fill:#fff"/><circle cx="39.5" cy="41.5" r="0.5" style="fill:#fff"/><circle cx="25.5" cy="39.5" r="0.5" style="fill:#fff"/><circle cx="23.5" cy="27.5" r="0.5" style="fill:#fff"/><circle cx="24.5" cy="33.5" r="0.5" style="fill:#fff"/><circle cx="49.5" cy="31.5" r="0.5" style="fill:#fff"/><circle cx="41.5" cy="37.5" r="0.5" style="fill:#fff"/><circle cx="45.5" cy="36.5" r="0.5" style="fill:#fff"/><circle cx="40.5" cy="46.5" r="0.5" style="fill:#fff"/><circle cx="13.5" cy="31.5" r="1.5" style="fill:#fff"/><circle cx="22.5" cy="44.5" r="1.5" style="fill:#fff"/><circle cx="24" cy="23" r="2" style="fill:#fff"/><line style="fill:none;stroke:#000;stroke-linejoin:round;stroke-width:2px" x1="34" x2="49" y1="53" y2="53"/><line style="fill:none;stroke:#000;stroke-linejoin:round;stroke-width:2px" x1="15" x2="30" y1="53" y2="53"/><polyline points="30 49 24 49 28 44 25 44 30 40 27 40 32 35 37 40 34 40 39 44 36 44 40 49 34 49" style="fill:none;stroke:#000;stroke-linejoin:round;stroke-width:2px"/><rect height="4" style="fill:none;stroke:#000;stroke-linejoin:round;stroke-width:2px" width="4" x="30" y="49"/><polyline points="49 49 43 49 47 44 44 44 49 40 46 40 51 35 55.98 39.98 56 40 55.98 40 53 40 55.78 42.22 56 42.4" style="fill:none;stroke:#000;stroke-linejoin:round;stroke-width:2px"/><polyline points="54 49 53.81 49 53 49" style="fill:none;stroke:#000;stroke-linejoin:round;stroke-width:2px"/><polyline points="52 53 51.48 53 49 53 49 49 53 49" style="fill:none;stroke:#000;stroke-linejoin:round;stroke-width:2px"/><polyline points="15 49 21 49 17 44 20 44 15 40 18 40 13 35 8.02 39.98 8 40 8.02 40 11 40 8.22 42.22 8 42.4" style="fill:none;stroke:#000;stroke-linejoin:round;stroke-width:2px"/><polyline points="10 49 10.19 49 11 49" style="fill:none;stroke:#000;stroke-linejoin:round;stroke-width:2px"/><polyline points="12 53 12.52 53 15 53 15 49 11 49" style="fill:none;stroke:#000;stroke-linejoin:round;stroke-width:2px"/><circle cx="41" cy="33" r="2" style="fill:none;stroke:#000;stroke-linejoin:round;stroke-width:2px"/><circle cx="23" cy="38" r="2" style="fill:none;stroke:#000;stroke-linejoin:round;stroke-width:2px"/><circle cx="27" cy="19" r="2" style="fill:none;stroke:#000;stroke-linejoin:round;stroke-width:2px"/><circle cx="32" cy="28" r="2" style="fill:none;stroke:#000;stroke-linejoin:round;stroke-width:2px"/><circle cx="41" cy="22" r="2" style="fill:none;stroke:#000;stroke-linejoin:round;stroke-width:2px"/><circle cx="18" cy="29" r="2" style="fill:none;stroke:#000;stroke-linejoin:round;stroke-width:2px"/><path d="M32,15A24.006,24.006,0,0,1,56,39c0,.33-.01.66-.02.98V40c-.03.75-.1,1.49-.2,2.22A23.472,23.472,0,0,1,53.81,49a22.819,22.819,0,0,1-2.33,4,23.974,23.974,0,0,1-38.96,0,22.819,22.819,0,0,1-2.33-4,23.472,23.472,0,0,1-1.97-6.78c-.1-.73-.17-1.47-.2-2.22v-.02C8.01,39.66,8,39.33,8,39A24.006,24.006,0,0,1,32,15Z" style="fill:none;stroke:#000;stroke-linejoin:round;stroke-width:2px"/><path d="M37,15V11a2,2,0,0,0-2-2H29a2,2,0,0,0-2,2v4h1.38a1,1,0,0,0,.9-.55L30,12v2a1,1,0,0,0,1,1h2a1,1,0,0,0,1-1V12l.72,2.45a1,1,0,0,0,.9.55Z" style="fill:none;stroke:#000;stroke-linejoin:round;stroke-width:2px"/><ellipse cx="32" cy="5" rx="3" ry="4" style="fill:none;stroke:#000;stroke-linejoin:round;stroke-width:2px"/><path d="M37,15l4.4,1.76a3.348,3.348,0,0,0,1.25.24,2.31,2.31,0,0,0,1.66-.69c.04-.04.07-.08.11-.12A2.31,2.31,0,0,0,45,14.65V7.35A2.359,2.359,0,0,0,42.65,5a3.348,3.348,0,0,0-1.25.24L33,9" style="fill:none;stroke:#000;stroke-linejoin:round;stroke-width:2px"/><path d="M37,10l2.94-.49a1.66,1.66,0,1,1,.4,3.27,1.408,1.408,0,0,1-.2-.01L37,12" style="fill:none;stroke:#000;stroke-linejoin:round;stroke-width:2px"/><path d="M44.06,6l.36-.19,1.02-.52A2.634,2.634,0,0,1,46.65,5a2.507,2.507,0,0,1,1.66.59A1.856,1.856,0,0,1,49,7.01v7.98A2.2,2.2,0,0,1,46.65,17a2.634,2.634,0,0,1-1.21-.29l-1.02-.52L44.05,16" style="fill:none;stroke:#000;stroke-linejoin:round;stroke-width:2px"/><path d="M27,15l-4.4,1.76a3.348,3.348,0,0,1-1.25.24,2.31,2.31,0,0,1-1.66-.69c-.04-.04-.07-.08-.11-.12A2.31,2.31,0,0,1,19,14.65V7.35A2.359,2.359,0,0,1,21.35,5a3.348,3.348,0,0,1,1.25.24L31,9" style="fill:none;stroke:#000;stroke-linejoin:round;stroke-width:2px"/><path d="M27,10l-2.94-.49a1.66,1.66,0,1,0-.4,3.27,1.408,1.408,0,0,0,.2-.01L27,12" style="fill:none;stroke:#000;stroke-linejoin:round;stroke-width:2px"/><path d="M19.94,6l-.36-.19-1.02-.52A2.634,2.634,0,0,0,17.35,5a2.507,2.507,0,0,0-1.66.59A1.856,1.856,0,0,0,15,7.01v7.98A2.2,2.2,0,0,0,17.35,17a2.634,2.634,0,0,0,1.21-.29l1.02-.52.37-.19" style="fill:none;stroke:#000;stroke-linejoin:round;stroke-width:2px"/></g></svg>