<?xml version="1.0" ?><svg viewBox="0 0 64 64" xmlns="http://www.w3.org/2000/svg"><g data-name="28-letter" id="_28-letter"><path d="M63,5v5H55V5a4,4,0,1,1,8,0Z" style="fill:#f2da9f"/><path d="M41.58,41.58,32,49l-9.58-7.42L8.91,31.12,9,31V7a6,6,0,0,1,6-6H59a4,4,0,0,0-4,4V31l.09.12ZM40.29,13.29A3,3,0,1,0,43,9a2.96,2.96,0,0,0-1.59.46,16.624,16.624,0,0,0-4.69-2.87A8.053,8.053,0,0,0,33.69,6H32a10.3,10.3,0,0,0-3.81.69A5.781,5.781,0,0,0,25.3,9.23L22,15v.22a5.509,5.509,0,0,0-.6.41,1,1,0,0,0-.4.79v1.6A.985.985,0,0,0,22,19s-4,4-4,9,3,8,13,8,13-3,13-8-4-9-4-9a.985.985,0,0,0,1-.98v-1.6a1,1,0,0,0-.4-.79,10.152,10.152,0,0,0-1.45-.9A5.282,5.282,0,0,1,40.29,13.29Z" style="fill:#f3f2cf"/><polygon points="9 20.61 9 31 8.91 31.12 1 25 9 20.61" style="fill:#a21727"/><polygon points="63 25 55.09 31.12 55 31 55 20.61 63 25" style="fill:#a21727"/><path d="M22.42,41.58,1.59,62.41A1.955,1.955,0,0,1,1,61V25l7.91,6.12Z" style="fill:#d61f34"/><path d="M61,63H3a1.955,1.955,0,0,1-1.41-.59L22.42,41.58,32,49l9.58-7.42L62.41,62.41A1.955,1.955,0,0,1,61,63Z" style="fill:#fb243d"/><path d="M63,25V61a1.955,1.955,0,0,1-.59,1.41L41.58,41.58,55.09,31.12Z" style="fill:#d61f34"/><ellipse cx="31" cy="21.5" rx="2" ry="1.5" style="fill:#d61f34"/><path d="M29,24H26a3,3,0,0,1-3-3V18.61A18.092,18.092,0,0,1,31,17a18.092,18.092,0,0,1,8,1.61V21a3,3,0,0,1-3,3H33l-2-1c1.1,0,2-.67,2-1.5S32.1,20,31,20s-2,.67-2,1.5.9,1.5,2,1.5Z" style="fill:#f0b6a6"/><path d="M31,17a18.092,18.092,0,0,0-8,1.61v1A18.092,18.092,0,0,1,31,18a18.092,18.092,0,0,1,8,1.61v-1A18.092,18.092,0,0,0,31,17Z" style="fill:#e89c87"/><path d="M41.41,9.46A2.96,2.96,0,0,1,43,9a3,3,0,1,1-2.71,4.29A3.086,3.086,0,0,1,40,12,2.974,2.974,0,0,1,41.41,9.46Z" style="fill:#fafafa"/><path d="M41.29,11.29A3.086,3.086,0,0,1,41,10c0-.081.024-.155.031-.235A2.959,2.959,0,0,0,40,12a3.086,3.086,0,0,0,.29,1.29,2.992,2.992,0,0,0,5.686-1.046,2.987,2.987,0,0,1-4.686-.954Z" style="fill:#c0cee6"/><path d="M40.29,13.29a5.282,5.282,0,0,0-1.14,1.44A17.8,17.8,0,0,0,31,13a16.71,16.71,0,0,0-9,2.22V15l3.3-5.77a5.781,5.781,0,0,1,2.89-2.54A10.3,10.3,0,0,1,32,6h1.69a8.053,8.053,0,0,1,3.03.59,16.624,16.624,0,0,1,4.69,2.87A2.974,2.974,0,0,0,40,12,3.086,3.086,0,0,0,40.29,13.29Z" style="fill:#d61f34"/><path d="M22,15.22A16.71,16.71,0,0,1,31,13a17.8,17.8,0,0,1,8.15,1.73,10.152,10.152,0,0,1,1.45.9,1,1,0,0,1,.4.79v1.6A.985.985,0,0,1,40,19a1.009,1.009,0,0,1-.5-.13c-.15-.09-.32-.17-.5-.26A18.092,18.092,0,0,0,31,17a18.092,18.092,0,0,0-8,1.61c-.18.09-.35.17-.5.26A1.009,1.009,0,0,1,22,19a.985.985,0,0,1-1-.98v-1.6a1,1,0,0,1,.4-.79A5.509,5.509,0,0,1,22,15.22Z" style="fill:#fafafa"/><path d="M40,17a1.009,1.009,0,0,1-.5-.13c-.15-.09-.32-.17-.5-.26A18.092,18.092,0,0,0,31,15a18.092,18.092,0,0,0-8,1.61c-.18.09-.35.17-.5.26A1.009,1.009,0,0,1,22,17a.98.98,0,0,1-.955-.766A.934.934,0,0,0,21,16.42v1.6A.985.985,0,0,0,22,19a1.009,1.009,0,0,0,.5-.13c.15-.09.32-.17.5-.26A18.092,18.092,0,0,1,31,17a18.092,18.092,0,0,1,8,1.61c.18.09.35.17.5.26A1.009,1.009,0,0,0,40,19a.985.985,0,0,0,1-.98v-1.6a.934.934,0,0,0-.045-.186A.98.98,0,0,1,40,17Z" style="fill:#c0cee6"/><path d="M23,18.61V21a3,3,0,0,0,3,3h3l2-1,2,1h3a3,3,0,0,0,3-3V18.61c.18.09.35.17.5.26A1.009,1.009,0,0,0,40,19s4,4,4,9-3,8-13,8-13-3-13-8,4-9,4-9a1.009,1.009,0,0,0,.5-.13C22.65,18.78,22.82,18.7,23,18.61Z" style="fill:#fafafa"/><path d="M41.41,9.46a14.182,14.182,0,0,0-1.181-.941A7.1,7.1,0,0,0,38.7,10.466a2,2,0,0,1-2.192.977A26.193,26.193,0,0,0,31,11a26.593,26.593,0,0,0-7.217.883L22,15v.22A16.71,16.71,0,0,1,31,13a17.8,17.8,0,0,1,8.15,1.73,5.282,5.282,0,0,1,1.14-1.44A3.086,3.086,0,0,1,40,12,2.974,2.974,0,0,1,41.41,9.46Z" style="fill:#a21727"/><path d="M23,31a5,5,0,0,1,5-5h.528a2,2,0,0,0,.894-.211l.684-.342a2,2,0,0,1,1.788,0l.684.342a2,2,0,0,0,.894.211H36a4,4,0,0,0,4-4V19a1.009,1.009,0,0,1-.5-.13c-.15-.09-.32-.17-.5-.26V21a3,3,0,0,1-3,3H33l-2-1-2,1H26a3,3,0,0,1-3-3V18.61c-.18.09-.35.17-.5.26A1.009,1.009,0,0,1,22,19s-4,4-4,9c0,4.141,2.072,6.9,8.46,7.733A4.982,4.982,0,0,1,23,31Z" style="fill:#ecf3f9"/><path d="M31,22a2.042,2.042,0,0,1-1.877-1,1.157,1.157,0,0,0-.123.5c0,.83.9,1.5,2,1.5s2-.67,2-1.5a1.157,1.157,0,0,0-.123-.5A2.042,2.042,0,0,1,31,22Z" style="fill:#a21727"/><path d="M57,6a4,4,0,0,1,4-4,3.956,3.956,0,0,1,.71.072A3.989,3.989,0,0,0,55,5v5h2V6Z" style="fill:#e4c986"/><path d="M1.59,62.41,22.42,41.58,8.91,31.12,1,25v4L14.6,40.2a4,4,0,0,1,.286,5.916L1,60v1A1.955,1.955,0,0,0,1.59,62.41Z" style="fill:#bf1b2e"/><path d="M63,29V25l-7.91,6.12L41.58,41.58,62.41,62.41A1.955,1.955,0,0,0,63,61V60L49.115,46.115A4,4,0,0,1,49.4,40.2Z" style="fill:#bf1b2e"/><path d="M58,58H29a6.951,6.951,0,0,1-5.082-11.693l1.935-2.072L22.42,41.58,1.59,62.41A1.955,1.955,0,0,0,3,63H61a1.955,1.955,0,0,0,1.41-.59Z" style="fill:#d61f34"/><path d="M40.212,38.715a15,15,0,0,1-15.721-1.138L20.218,34.49A15,15,0,0,1,14,22.33V7a6,6,0,0,1,6-6H15A6,6,0,0,0,9,7V31l-.09.12L22.42,41.58,32,49l9.58-7.42L55.09,31.12,55,31Z" style="fill:#f2da9f"/><path d="M61,63H3a2,2,0,0,1-2-2V25L32,49,63,25V61A2,2,0,0,1,61,63Z" style="fill:none;stroke:#000;stroke-linejoin:round;stroke-width:2px"/><line style="fill:none;stroke:#000;stroke-linejoin:round;stroke-width:2px" x1="1" x2="23" y1="63" y2="41"/><line style="fill:none;stroke:#000;stroke-linejoin:round;stroke-width:2px" x1="63" x2="41" y1="63" y2="41"/><path d="M59,1H15A6,6,0,0,0,9,7V28" style="fill:none;stroke:#000;stroke-linejoin:round;stroke-width:2px"/><path d="M55,24V5a4,4,0,0,1,4-4h0a4,4,0,0,1,4,4v5H55" style="fill:none;stroke:#000;stroke-linejoin:round;stroke-width:2px"/><line style="fill:none;stroke:#000;stroke-linejoin:round;stroke-width:2px" x1="55" x2="55" y1="28" y2="26"/><line style="fill:none;stroke:#000;stroke-linejoin:round;stroke-width:2px" x1="55" x2="63" y1="20.613" y2="25"/><line style="fill:none;stroke:#000;stroke-linejoin:round;stroke-width:2px" x1="1" x2="9" y1="25" y2="20.613"/><path d="M31,17a17.457,17.457,0,0,1,8.5,1.868,1,1,0,0,0,1.5-.85v-1.6a.986.986,0,0,0-.4-.788C39.579,14.858,36.544,13,31,13s-8.579,1.858-9.6,2.631a.986.986,0,0,0-.4.788v1.6a1,1,0,0,0,1.5.85A17.457,17.457,0,0,1,31,17Z" style="fill:none;stroke:#000;stroke-linejoin:round;stroke-width:2px"/><path d="M23,18v3a3,3,0,0,0,3,3h3l2-1,2,1h3a3,3,0,0,0,3-3V18" style="fill:none;stroke:#000;stroke-linejoin:round;stroke-width:2px"/><ellipse cx="31" cy="21.5" rx="2" ry="1.5" style="fill:none;stroke:#000;stroke-linejoin:round;stroke-width:2px"/><circle cx="43" cy="12" r="3" style="fill:none;stroke:#000;stroke-linejoin:round;stroke-width:2px"/><path d="M42,10a16.251,16.251,0,0,0-5.277-3.406A8.008,8.008,0,0,0,33.689,6H32a10.287,10.287,0,0,0-3.81.692A5.8,5.8,0,0,0,25.3,9.225L22,15v1" style="fill:none;stroke:#000;stroke-linejoin:round;stroke-width:2px"/><path d="M39,15s1-2,2-2" style="fill:none;stroke:#000;stroke-linejoin:round;stroke-width:2px"/><path d="M40,19s4,4,4,9-3,8-13,8-13-3-13-8,4-9,4-9" style="fill:none;stroke:#000;stroke-linejoin:round;stroke-width:2px"/><line style="fill:none;stroke:#000;stroke-linejoin:round;stroke-width:2px" x1="35" x2="35" y1="19" y2="21"/><line style="fill:none;stroke:#000;stroke-linejoin:round;stroke-width:2px" x1="27" x2="27" y1="19" y2="21"/></g></svg>