<?xml version="1.0" ?><svg viewBox="0 0 64 64" xmlns="http://www.w3.org/2000/svg"><g data-name="16-Christmas Balls" id="_16-Christmas_Balls"><path d="M32,15A24,24,0,1,1,8,39,24.006,24.006,0,0,1,32,15Z" style="fill:#2934a3"/><path d="M37,11v4H35.62a1,1,0,0,1-.9-.55L34,12v2a1,1,0,0,1-1,1H31a1,1,0,0,1-1-1V12l-.72,2.45a1,1,0,0,1-.9.55H27V11a2.006,2.006,0,0,1,2-2h6A2.006,2.006,0,0,1,37,11Z" style="fill:#dbe0e9"/><ellipse cx="32" cy="5" rx="3" ry="4" style="fill:#fff"/><ellipse cx="32" cy="5" rx="2" ry="3" style="fill:none"/><path d="M34.72,14.45,34,12v2a1,1,0,0,1-1,1H32a24.082,24.082,0,0,1,5,.526V15H35.62A1,1,0,0,1,34.72,14.45Z" style="fill:#272665"/><path d="M31,15a1,1,0,0,1-1-1V12l-.72,2.45a1,1,0,0,1-.9.55H27v.526A24.082,24.082,0,0,1,32,15Z" style="fill:#272665"/><rect height="3" rx="1" ry="1" style="fill:#eff1f8" width="2" x="31" y="10"/><rect height="3" rx="1" ry="1" style="fill:#eff1f8" width="2" x="35" y="10"/><rect height="3" rx="1" ry="1" style="fill:#eff1f8" width="2" x="27" y="10"/><path d="M32,15A24,24,0,1,1,8,39,24.006,24.006,0,0,1,32,15Z" style="fill:#2934a3"/><circle cx="38" cy="30" r="2" style="fill:#9dafcf"/><circle cx="45" cy="34" r="2" style="fill:#9dafcf"/><ellipse cx="51" cy="40" rx="1.5" ry="2" style="fill:#9dafcf"/><circle cx="26" cy="30" r="2" style="fill:#9dafcf"/><circle cx="19" cy="34" r="2" style="fill:#9dafcf"/><ellipse cx="13" cy="40" rx="1.5" ry="2" style="fill:#9dafcf"/><path d="M50.929,35.516a.5.5,0,0,1-.361.608.48.48,0,0,1-.124.016.5.5,0,0,1-.484-.376c-.073-.287-.155-.6-.244-.929a.492.492,0,0,1,.132-.475l-.87-.8c0,.147.022.289.022.437a16.974,16.974,0,0,1-7.931,14.362l1.285,1.284a.5.5,0,0,1-.708.708L40.189,48.9a17.042,17.042,0,0,1-1.763.838l1.021,2.042a.5.5,0,1,1-.894.448L37.481,50.08a16.781,16.781,0,0,1-2.111.583l.984.983a.5.5,0,0,1-.708.708l-1.5-1.5c-.54.069-1.088.109-1.643.125v1.716l3.724,1.862a.5.5,0,1,1-.448.894L32.5,53.809v1.984l1.854,1.853a.5.5,0,0,1-.708.708L32,56.707l-1.646,1.647a.5.5,0,0,1-.708-.708L31.5,55.793V53.809l-3.276,1.638a.5.5,0,0,1-.448-.894L31.5,52.691V50.975c-.555-.016-1.1-.056-1.643-.125l-1.5,1.5a.5.5,0,0,1-.708-.708l.984-.983a16.781,16.781,0,0,1-2.111-.583l-1.072,2.144a.5.5,0,0,1-.894-.448l1.021-2.042a17.042,17.042,0,0,1-1.763-.838l-1.457,1.458a.5.5,0,0,1-.708-.708l1.285-1.284A16.974,16.974,0,0,1,15,34c0-.148.018-.29.022-.437l-.87.8a.492.492,0,0,1,.132.475c-.089.331-.171.642-.244.929a.5.5,0,0,1-.484.376.48.48,0,0,1-.124-.016.5.5,0,0,1-.361-.608c.018-.067.039-.148.057-.217l-5.1,4.678a23.995,23.995,0,0,0,47.95,0l-5.1-4.678C50.89,35.368,50.911,35.449,50.929,35.516ZM13,42c-.828,0-1.5-.9-1.5-2a2.03,2.03,0,0,1,1.016-1.884.5.5,0,0,1-.006-.215s.035-.173.106-.5a.5.5,0,0,1,.977.217c-.069.307-.1.473-.1.476s-.005.011-.006.017A2.03,2.03,0,0,1,14.5,40C14.5,41.105,13.828,42,13,42Zm38.384-4.594c.071.322.106.5.106.5a.5.5,0,0,1-.006.215A2.03,2.03,0,0,1,52.5,40c0,1.1-.672,2-1.5,2s-1.5-.9-1.5-2a2.03,2.03,0,0,1,1.016-1.884c0-.006,0-.011-.006-.017s-.034-.169-.1-.476a.5.5,0,0,1,.977-.217Z" style="fill:#161e70"/><path d="M34.645,15.148a.478.478,0,0,1,.173.159c.181.284.356.586.521.9a.5.5,0,0,1-.885.465c-.153-.291-.312-.569-.479-.83a.469.469,0,0,1,.272-.736C33.507,15.039,32.758,15,32,15s-1.506.039-2.246.108a.513.513,0,0,1,.118.045.5.5,0,0,1,.153.691c-.167.261-.326.539-.479.83a.5.5,0,1,1-.885-.465c.165-.316.34-.618.521-.9a.483.483,0,0,1,.175-.159A24.009,24.009,0,0,0,8,39c0,.328.012.653.025.977l5.1-4.678c.061-.232.121-.466.191-.724a.5.5,0,0,1,.613-.352.488.488,0,0,1,.22.137l.87-.8a17.042,17.042,0,0,1,.333-3.027.49.49,0,0,1-.152.048.517.517,0,0,1-.159-.025.5.5,0,0,1-.315-.634l.314-.918a.488.488,0,0,1,.78-.224c.1-.315.221-.623.341-.93a.5.5,0,0,1-.165-.03.5.5,0,0,1-.291-.644q.169-.451.35-.908a.5.5,0,0,1,.648-.283.493.493,0,0,1,.216.179c.208-.4.437-.788.676-1.169a.485.485,0,0,1-.345.167.493.493,0,0,1-.2-.04.5.5,0,0,1-.265-.655q.188-.446.385-.892a.5.5,0,1,1,.916.4q-.155.352-.3.7a17.052,17.052,0,0,1,6.817-5.971c-.036-.016-.076-.012-.108-.038a.5.5,0,0,1-.083-.7c.213-.27.434-.534.66-.79a.5.5,0,0,1,.748.665c-.137.154-.266.315-.4.475a17.025,17.025,0,0,1,13.146,0c-.131-.16-.26-.321-.4-.475a.5.5,0,0,1,.748-.665c.226.256.447.52.66.79a.5.5,0,0,1-.083.7c-.032.026-.072.022-.108.038a17.052,17.052,0,0,1,6.817,5.971q-.15-.35-.3-.7a.5.5,0,1,1,.916-.4q.2.447.385.892a.5.5,0,0,1-.46.7A.49.49,0,0,1,46.4,25c.24.381.469.769.677,1.17a.493.493,0,0,1,.216-.179.5.5,0,0,1,.648.283q.18.457.35.908a.5.5,0,0,1-.291.644.5.5,0,0,1-.165.03c.12.307.239.615.341.93a.488.488,0,0,1,.78.224l.314.918a.5.5,0,0,1-.315.634.517.517,0,0,1-.159.025.49.49,0,0,1-.152-.048,17.042,17.042,0,0,1,.333,3.027l.87.8a.488.488,0,0,1,.22-.137.5.5,0,0,1,.613.352c.07.258.13.492.191.724l5.1,4.678c.013-.324.025-.649.025-.977A24.008,24.008,0,0,0,34.645,15.148Zm-19.891,16.3a.5.5,0,0,1,.333.624l-.278.921a.5.5,0,0,1-.48.358.467.467,0,0,1-.142-.022.5.5,0,0,1-.337-.621l.28-.928A.5.5,0,0,1,14.754,31.445Zm4.56-10.067c-.142.287-.283.575-.42.862a.5.5,0,0,1-.452.283.482.482,0,0,1-.215-.049.5.5,0,0,1-.236-.667q.21-.436.427-.873a.5.5,0,1,1,.9.444Zm1.123-2.135-.24.435a.5.5,0,1,1-.877-.479l.242-.442a.5.5,0,0,1,.875.486Zm24.044.634a.5.5,0,0,1-.678-.2l-.241-.435a.5.5,0,0,1,.875-.486l.243.442A.5.5,0,0,1,44.481,19.877Zm1.292,2.6a.482.482,0,0,1-.215.049.5.5,0,0,1-.452-.283c-.137-.287-.278-.575-.42-.862a.5.5,0,1,1,.9-.444q.217.436.427.873A.5.5,0,0,1,45.773,22.474Zm4.04,10.852a.467.467,0,0,1-.142.022.5.5,0,0,1-.48-.358l-.278-.921a.5.5,0,0,1,.957-.292l.28.928A.5.5,0,0,1,49.813,33.326Z" style="fill:#212b87"/><path d="M35.646,52.354a.5.5,0,0,0,.708-.708l-.984-.983c-.4.081-.814.135-1.227.187Z" style="fill:#8291ab"/><path d="M27.646,51.646a.5.5,0,0,0,.708.708l1.5-1.5c-.413-.052-.825-.106-1.227-.187Z" style="fill:#8291ab"/><path d="M24.553,51.776a.5.5,0,1,0,.894.448l1.072-2.144c-.318-.109-.635-.219-.945-.346Z" style="fill:#8291ab"/><path d="M31.5,50.975v1.716l-3.724,1.862a.5.5,0,0,0,.448.894L31.5,53.809v1.984l-1.854,1.853a.5.5,0,0,0,.708.708L32,56.707l1.646,1.647a.5.5,0,0,0,.708-.708L32.5,55.793V53.809l3.276,1.638a.5.5,0,1,0,.448-.894L32.5,52.691V50.975c-.168,0-.331.025-.5.025S31.668,50.98,31.5,50.975Z" style="fill:#8291ab"/><path d="M41.646,50.354a.5.5,0,0,0,.708-.708l-1.285-1.284c-.29.183-.579.368-.88.534Z" style="fill:#8291ab"/><path d="M21.646,49.646a.5.5,0,0,0,.708.708L23.811,48.9c-.3-.166-.59-.351-.88-.534Z" style="fill:#8291ab"/><path d="M38.553,52.224a.5.5,0,1,0,.894-.448l-1.021-2.042c-.31.127-.627.237-.945.346Z" style="fill:#8291ab"/><path d="M34.247,15.108l.4.04A.5.5,0,0,0,34.247,15.108Z" style="fill:#9dafcf"/><path d="M33.975,15.844c.167.261.326.539.479.83a.5.5,0,0,0,.885-.465c-.165-.316-.34-.618-.521-.9a.478.478,0,0,0-.173-.159l-.4-.04a.469.469,0,0,0-.272.736Z" style="fill:#9dafcf"/><path d="M39.5,18.672a.5.5,0,0,0,.083-.7c-.213-.27-.434-.534-.66-.79a.5.5,0,0,0-.748.665c.137.154.266.315.4.475.28.117.548.258.82.39C39.429,18.694,39.469,18.7,39.5,18.672Z" style="fill:#9dafcf"/><path d="M50.407,37.623c.069.307.1.473.1.476s.005.011.006.017a1.068,1.068,0,0,1,.968,0,.5.5,0,0,0,.006-.215s-.035-.173-.106-.5a.5.5,0,0,0-.977.217Z" style="fill:#9dafcf"/><path d="M51.484,38.116A1.16,1.16,0,0,0,51,38a.746.746,0,0,1,.459.175A1.688,1.688,0,0,1,52,39.5c0,.828-.448,1.5-1,1.5s-1-.672-1-1.5a1.687,1.687,0,0,1,.54-1.324A.742.742,0,0,1,51,38a1.16,1.16,0,0,0-.484.116A2.03,2.03,0,0,0,49.5,40c0,1.1.672,2,1.5,2s1.5-.9,1.5-2A2.03,2.03,0,0,0,51.484,38.116Z" style="fill:#8291ab"/><path d="M48,27.823a.5.5,0,0,0,.291-.644q-.169-.451-.35-.908a.5.5,0,0,0-.648-.283.493.493,0,0,0-.216.179,16.8,16.8,0,0,1,.758,1.686A.5.5,0,0,0,48,27.823Z" style="fill:#9dafcf"/><path d="M45.582,20.934a.5.5,0,1,0-.9.444c.142.287.283.575.42.862a.5.5,0,0,0,.452.283.482.482,0,0,0,.215-.049.5.5,0,0,0,.236-.667Q45.8,21.371,45.582,20.934Z" style="fill:#9dafcf"/><path d="M50.681,34.575a.5.5,0,0,0-.613-.352.488.488,0,0,0-.22.137l1.024.939C50.811,35.067,50.751,34.833,50.681,34.575Z" style="fill:#9dafcf"/><path d="M46.747,25.165a.5.5,0,0,0,.46-.7q-.187-.446-.385-.892a.5.5,0,1,0-.916.4q.155.352.3.7c.067.1.126.212.191.316A.49.49,0,0,0,46.747,25.165Z" style="fill:#9dafcf"/><path d="M48.8,30.584a.517.517,0,0,0,.159-.025.5.5,0,0,0,.315-.634l-.314-.918a.488.488,0,0,0-.78-.224,17.115,17.115,0,0,1,.468,1.753A.49.49,0,0,0,48.8,30.584Z" style="fill:#9dafcf"/><path d="M49.87,31.777a.5.5,0,0,0-.957.292l.278.921a.5.5,0,0,0,.48.358.467.467,0,0,0,.142-.022.5.5,0,0,0,.337-.621Z" style="fill:#9dafcf"/><path d="M49.716,34.835c.089.331.171.642.244.929a.5.5,0,0,0,.484.376.48.48,0,0,0,.124-.016.5.5,0,0,0,.361-.608c-.018-.067-.039-.148-.057-.217l-1.024-.939A.492.492,0,0,0,49.716,34.835Z" style="fill:#9dafcf"/><path d="M44.68,19.2l-.243-.442a.5.5,0,0,0-.875.486l.241.435a.5.5,0,0,0,.877-.479Z" style="fill:#9dafcf"/><path d="M29.357,15.148l.4-.04A.5.5,0,0,0,29.357,15.148Z" style="fill:#9dafcf"/><path d="M29.182,15.307c-.181.284-.356.586-.521.9a.5.5,0,0,0,.885.465c.153-.291.312-.569.479-.83a.5.5,0,0,0-.153-.691.513.513,0,0,0-.118-.045l-.4.04A.483.483,0,0,0,29.182,15.307Z" style="fill:#9dafcf"/><path d="M25.824,17.845a.5.5,0,0,0-.748-.665c-.226.256-.447.52-.66.79a.5.5,0,0,0,.083.7c.032.026.072.022.108.038.272-.132.54-.273.82-.39C25.558,18.16,25.687,18,25.824,17.845Z" style="fill:#9dafcf"/><path d="M13.484,38.116c0-.006.005-.011.006-.017s.034-.169.1-.476a.5.5,0,0,0-.977-.217c-.071.322-.106.5-.106.5a.5.5,0,0,0,.006.215,1.068,1.068,0,0,1,.968,0Z" style="fill:#8291ab"/><path d="M13.484,38.116A1.16,1.16,0,0,0,13,38a.746.746,0,0,1,.46.175A1.691,1.691,0,0,1,14,39.5c0,.828-.448,1.5-1,1.5s-1-.672-1-1.5a1.688,1.688,0,0,1,.541-1.325A.746.746,0,0,1,13,38a1.16,1.16,0,0,0-.484.116A2.03,2.03,0,0,0,11.5,40c0,1.1.672,2,1.5,2s1.5-.9,1.5-2A2.03,2.03,0,0,0,13.484,38.116Z" style="fill:#8291ab"/><path d="M14.13,31.777l-.28.928a.5.5,0,0,0,.337.621.467.467,0,0,0,.142.022.5.5,0,0,0,.48-.358l.278-.921a.5.5,0,0,0-.957-.292Z" style="fill:#9dafcf"/><path d="M19.089,20.708a.5.5,0,0,0-.671.226q-.218.436-.427.873a.5.5,0,0,0,.236.667.482.482,0,0,0,.215.049.5.5,0,0,0,.452-.283c.137-.287.278-.575.42-.862A.5.5,0,0,0,19.089,20.708Z" style="fill:#9dafcf"/><path d="M13.432,36.124a.48.48,0,0,0,.124.016.5.5,0,0,0,.484-.376c.073-.287.155-.6.244-.929a.492.492,0,0,0-.132-.475l-1.024.939c-.018.069-.039.15-.057.217A.5.5,0,0,0,13.432,36.124Z" style="fill:#8291ab"/><path d="M16.706,25.988a.5.5,0,0,0-.648.283q-.181.457-.35.908a.5.5,0,0,0,.291.644.5.5,0,0,0,.165.03,16.8,16.8,0,0,1,.758-1.686A.493.493,0,0,0,16.706,25.988Z" style="fill:#9dafcf"/><path d="M18.094,23.979a.5.5,0,1,0-.916-.4q-.2.447-.385.892a.5.5,0,0,0,.265.655.493.493,0,0,0,.2.04A.485.485,0,0,0,17.6,25c.065-.105.125-.214.192-.317Q17.94,24.332,18.094,23.979Z" style="fill:#9dafcf"/><path d="M15.68,28.7a.5.5,0,0,0-.637.308l-.314.918a.5.5,0,0,0,.315.634.517.517,0,0,0,.159.025.49.49,0,0,0,.152-.048,17.115,17.115,0,0,1,.468-1.753A.5.5,0,0,0,15.68,28.7Z" style="fill:#9dafcf"/><path d="M13.932,34.223a.5.5,0,0,0-.613.352c-.07.258-.13.492-.191.724l1.024-.939A.488.488,0,0,0,13.932,34.223Z" style="fill:#9dafcf"/><path d="M20.243,18.563a.5.5,0,0,0-.681.194l-.242.442a.5.5,0,0,0,.877.479l.24-.435A.5.5,0,0,0,20.243,18.563Z" style="fill:#9dafcf"/><path d="M51.459,38.175a.689.689,0,0,0-.919,0A1.687,1.687,0,0,0,50,39.5c0,.828.448,1.5,1,1.5s1-.672,1-1.5A1.688,1.688,0,0,0,51.459,38.175Z" style="fill:#9dafcf"/><path d="M13.46,38.175a.691.691,0,0,0-.919,0A1.688,1.688,0,0,0,12,39.5c0,.828.448,1.5,1,1.5s1-.672,1-1.5A1.691,1.691,0,0,0,13.46,38.175Z" style="fill:#9dafcf"/><path d="M34.449,48.5a2.485,2.485,0,0,1-.365.877l1.286,1.286a16.781,16.781,0,0,0,2.111-.583l-.79-1.58Z" style="fill:#2934a3"/><path d="M18.1,32.222a1.985,1.985,0,0,1,.408-.155.479.479,0,0,1,0-.156s.067-.37.214-1.007a.5.5,0,1,1,.974.225c-.128.558-.191.889-.2.94a1.99,1.99,0,0,1,1.072.7,4.693,4.693,0,0,1,2.112,2.259h0A5,5,0,0,0,27.249,38H29.5a.5.5,0,0,1,.854-.354l.353.354h2.586l.353-.354A.5.5,0,0,1,34.5,38h2.251a5,5,0,0,0,4.569-2.969h0a4.693,4.693,0,0,1,2.112-2.259,1.99,1.99,0,0,1,1.072-.7c-.009-.051-.072-.382-.2-.94a.5.5,0,1,1,.974-.225c.147.637.214,1.007.214,1.007a.479.479,0,0,1,0,.156,1.985,1.985,0,0,1,.408.155,4.691,4.691,0,0,1,2.968,1.237l.113.1a17.042,17.042,0,0,0-.333-3.027.477.477,0,0,1-.322-.292l-.311-.909a.5.5,0,0,1,.165-.552c-.1-.315-.221-.623-.341-.93l-.012,0a.5.5,0,0,1-.468-.324c-.111-.295-.225-.594-.343-.894a.492.492,0,0,1,.065-.47c-.208-.4-.437-.789-.677-1.17a.488.488,0,0,1-.114-.137c-.025-.059-.052-.119-.077-.179a17.052,17.052,0,0,0-6.817-5.971.514.514,0,0,1-.2.07.5.5,0,0,1-.392-.191c-.073-.092-.151-.179-.226-.269a17.025,17.025,0,0,0-13.146,0c-.075.09-.153.177-.226.269a.5.5,0,0,1-.392.191.514.514,0,0,1-.2-.07,17.052,17.052,0,0,0-6.817,5.971c-.025.06-.052.12-.077.179A.466.466,0,0,1,17.6,25c-.239.381-.468.768-.676,1.169a.492.492,0,0,1,.065.47c-.118.3-.232.6-.343.894a.5.5,0,0,1-.468.324l-.012,0c-.12.307-.239.615-.341.93a.5.5,0,0,1,.165.552l-.311.909a.477.477,0,0,1-.322.292,17.042,17.042,0,0,0-.333,3.027l.113-.1A4.691,4.691,0,0,1,18.1,32.222Zm26.383-4.253c.1.339.2.664.286.97a.5.5,0,0,1-.345.618.491.491,0,0,1-.136.019.5.5,0,0,1-.481-.364c-.085-.3-.179-.619-.281-.951a.5.5,0,0,1,.957-.292Zm-1-2.873q.188.483.356.95a.5.5,0,0,1-.942.338c-.108-.3-.224-.613-.345-.926a.5.5,0,1,1,.931-.362ZM41.6,22.079a.5.5,0,0,1,.67.226q.227.459.435.92a.5.5,0,0,1-.248.662.508.508,0,0,1-.207.045.5.5,0,0,1-.455-.294c-.135-.3-.274-.593-.422-.889A.5.5,0,0,1,41.6,22.079Zm-1.517-2.59a.5.5,0,0,1,.692.151q.276.43.533.872a.5.5,0,0,1-.18.683.491.491,0,0,1-.252.069.5.5,0,0,1-.432-.248q-.246-.423-.511-.836A.5.5,0,0,1,40.079,19.489Zm-1.717,7.442c.093.636.135,1.014.135,1.014a.444.444,0,0,1-.011.121,2,2,0,1,1-.979,0l0-.014s-.041-.368-.131-.979a.5.5,0,0,1,.99-.145Zm-.52-2.987c.069.344.134.677.192.992a.5.5,0,0,1-.4.582.484.484,0,0,1-.092.008.5.5,0,0,1-.491-.409c-.057-.31-.119-.636-.189-.974a.5.5,0,0,1,.981-.2Zm-.7-2.956q.135.494.257.979a.5.5,0,1,1-.971.243q-.118-.474-.251-.958a.5.5,0,0,1,.965-.264Zm-1.6-3.188a.5.5,0,0,1,.648.285c.123.314.239.635.35.958a.5.5,0,0,1-.309.636.522.522,0,0,1-.164.027.5.5,0,0,1-.472-.337q-.162-.466-.337-.922A.5.5,0,0,1,35.539,17.8ZM31.5,18a.5.5,0,0,1,1,0v1a.5.5,0,0,1-1,0Zm0,4a.5.5,0,0,1,1,0v1a.5.5,0,0,1-1,0Zm0,4a.5.5,0,0,1,1,0v1a.5.5,0,0,1-1,0Zm0,4a.5.5,0,0,1,1,0v1a.5.5,0,0,1-1,0Zm0,4a.5.5,0,0,1,1,0v1a.5.5,0,0,1-1,0ZM27.463,19.043c.111-.323.227-.644.35-.958a.5.5,0,1,1,.932.362q-.176.454-.337.922a.5.5,0,0,1-.472.337.522.522,0,0,1-.164-.027A.5.5,0,0,1,27.463,19.043Zm-.857,2.924q.121-.485.257-.979a.5.5,0,0,1,.965.264q-.132.483-.251.958a.5.5,0,0,1-.971-.243Zm-.448,1.977a.5.5,0,0,1,.981.2c-.07.338-.132.664-.189.974a.5.5,0,0,1-.491.409.484.484,0,0,1-.092-.008.5.5,0,0,1-.4-.582C26.024,24.621,26.089,24.288,26.158,23.944Zm-.644,4.122a.444.444,0,0,1-.011-.121s.042-.378.135-1.014a.5.5,0,0,1,.99.145c-.09.611-.131.974-.131.979l0,.014a2,2,0,1,1-.979,0ZM22.7,20.512q.258-.441.533-.872a.5.5,0,1,1,.842.54q-.264.414-.511.836a.5.5,0,0,1-.432.248.491.491,0,0,1-.252-.069A.5.5,0,0,1,22.7,20.512Zm-1.4,2.713c.138-.307.284-.614.435-.92a.5.5,0,0,1,.9.444c-.148.3-.287.593-.422.889a.5.5,0,0,1-.455.294.508.508,0,0,1-.207-.045A.5.5,0,0,1,21.3,23.225Zm-1.144,2.821q.169-.466.356-.95a.5.5,0,1,1,.931.362c-.121.313-.237.623-.345.926a.5.5,0,1,1-.942-.338Zm-.927,2.893c.086-.306.182-.631.286-.97a.5.5,0,0,1,.957.292c-.1.332-.2.65-.281.951a.5.5,0,0,1-.481.364.491.491,0,0,1-.136-.019A.5.5,0,0,1,19.228,28.939Z" style="fill:#545fc9"/><path d="M45.9,32.222a2,2,0,1,1-2.465.55,4.693,4.693,0,0,0-2.112,2.259h0A5,5,0,0,1,36.751,38H34.5a.5.5,0,0,1-.146.354L32.5,40.207v1.984l3.276-1.638a.5.5,0,1,1,.448.894L32.5,43.309v2.242a2.485,2.485,0,0,1,.877.365l2.269-2.27a.5.5,0,0,1,.708.708l-2.27,2.269a2.485,2.485,0,0,1,.365.877h2.242l1.862-3.724a.5.5,0,1,1,.894.448L37.809,47.5h1.984l1.853-1.854a.5.5,0,0,1,.708.708L40.707,48l.362.362A16.974,16.974,0,0,0,49,34c0-.148-.018-.29-.022-.437l-.113-.1A4.691,4.691,0,0,0,45.9,32.222Z" style="fill:#2934a3"/><path d="M22.931,48.362,23.293,48l-1.647-1.646a.5.5,0,0,1,.708-.708L24.207,47.5h1.984l-1.638-3.276a.5.5,0,1,1,.894-.448L27.309,47.5h2.242a2.485,2.485,0,0,1,.365-.877l-2.27-2.269a.5.5,0,0,1,.708-.708l2.269,2.27a2.485,2.485,0,0,1,.877-.365V43.309l-3.724-1.862a.5.5,0,0,1,.448-.894L31.5,42.191V40.207l-1.854-1.853A.5.5,0,0,1,29.5,38H27.249a5,5,0,0,1-4.569-2.969h0a4.693,4.693,0,0,0-2.112-2.259,2,2,0,1,1-2.465-.55,4.691,4.691,0,0,0-2.968,1.237l-.113.1c0,.147-.022.289-.022.437A16.974,16.974,0,0,0,22.931,48.362Z" style="fill:#2934a3"/><path d="M33.057,46.943c-.005,0-.006-.01-.01-.014a1.492,1.492,0,0,0-2.094,0s0,.01-.01.014-.01.006-.014.01a1.492,1.492,0,0,0,0,2.094s.01.005.014.01.006.01.01.014a1.492,1.492,0,0,0,2.094,0s.005-.01.01-.014.01-.006.014-.01a1.492,1.492,0,0,0,0-2.094S33.061,46.948,33.057,46.943Z" style="fill:#2934a3"/><path d="M24.207,48.5l-.4.4a17.042,17.042,0,0,0,1.763.838l.617-1.234Z" style="fill:#2934a3"/><polygon points="33.293 38 32 38 30.707 38 32 39.293 33.293 38" style="fill:#2934a3"/><path d="M30.623,50.084l-.766.766c.54.069,1.088.109,1.643.125v-.526A2.485,2.485,0,0,1,30.623,50.084Z" style="fill:#2934a3"/><path d="M29.551,48.5H27.309l-.79,1.58a16.781,16.781,0,0,0,2.111.583l1.286-1.286A2.485,2.485,0,0,1,29.551,48.5Z" style="fill:#2934a3"/><path d="M32.5,50.449v.526c.555-.016,1.1-.056,1.643-.125l-.766-.766A2.485,2.485,0,0,1,32.5,50.449Z" style="fill:#2934a3"/><path d="M37.809,48.5l.617,1.234a17.042,17.042,0,0,0,1.763-.838l-.4-.4Z" style="fill:#2934a3"/><path d="M30.354,37.646A.5.5,0,0,0,29.5,38h1.207Z" style="fill:#9dafcf"/><path d="M42.354,46.354a.5.5,0,0,0-.708-.708L39.793,47.5H37.809l1.638-3.276a.5.5,0,1,0-.894-.448L36.691,47.5H34.449a2.485,2.485,0,0,0-.365-.877l2.27-2.269a.5.5,0,0,0-.708-.708l-2.269,2.27a2.485,2.485,0,0,0-.877-.365V43.309l3.724-1.862a.5.5,0,1,0-.448-.894L32.5,42.191V40.207l1.854-1.853A.5.5,0,0,0,34.5,38H33.293L32,39.293,30.707,38H29.5a.5.5,0,0,0,.146.354L31.5,40.207v1.984l-3.276-1.638a.5.5,0,0,0-.448.894L31.5,43.309v2.242a2.485,2.485,0,0,0-.877.365l-2.269-2.27a.5.5,0,0,0-.708.708l2.27,2.269a2.485,2.485,0,0,0-.365.877H27.309l-1.862-3.724a.5.5,0,1,0-.894.448L26.191,47.5H24.207l-1.853-1.854a.5.5,0,0,0-.708.708L23.293,48l-.362.362c.29.183.579.368.88.534l.4-.4h1.984l-.617,1.234c.31.127.627.237.945.346l.79-1.58h2.242a2.485,2.485,0,0,0,.365.877L28.63,50.663c.4.081.814.135,1.227.187l.766-.766a2.485,2.485,0,0,0,.877.365v.526c.168,0,.331.025.5.025s.332-.02.5-.025v-.526a2.485,2.485,0,0,0,.877-.365l.766.766c.413-.052.825-.106,1.227-.187l-1.286-1.286a2.485,2.485,0,0,0,.365-.877h2.242l.79,1.58c.318-.109.635-.219.945-.346L37.809,48.5h1.984l.4.4c.3-.166.59-.351.88-.534L40.707,48Zm-9.283,2.693s-.01.005-.014.01-.006.01-.01.014a1.492,1.492,0,0,1-2.094,0s0-.01-.01-.014-.01-.006-.014-.01a1.492,1.492,0,0,1,0-2.094s.01-.005.014-.01.006-.01.01-.014a1.492,1.492,0,0,1,2.094,0s.005.01.01.014.01.006.014.01a1.492,1.492,0,0,1,0,2.094Z" style="fill:#9dafcf"/><path d="M34.354,37.646a.5.5,0,0,0-.708,0L33.293,38H34.5A.5.5,0,0,0,34.354,37.646Z" style="fill:#9dafcf"/><path d="M32,35.5a.5.5,0,0,0,.5-.5V34a.5.5,0,0,0-1,0v1A.5.5,0,0,0,32,35.5Z" style="fill:#dbe0e9"/><path d="M32,31.5a.5.5,0,0,0,.5-.5V30a.5.5,0,0,0-1,0v1A.5.5,0,0,0,32,31.5Z" style="fill:#dbe0e9"/><path d="M32,27.5a.5.5,0,0,0,.5-.5V26a.5.5,0,0,0-1,0v1A.5.5,0,0,0,32,27.5Z" style="fill:#dbe0e9"/><path d="M32,23.5a.5.5,0,0,0,.5-.5V22a.5.5,0,0,0-1,0v1A.5.5,0,0,0,32,23.5Z" style="fill:#dbe0e9"/><path d="M32,19.5a.5.5,0,0,0,.5-.5V18a.5.5,0,0,0-1,0v1A.5.5,0,0,0,32,19.5Z" style="fill:#dbe0e9"/><path d="M45,36a1.994,1.994,0,0,0,.9-3.778c-.1-.005-.2-.006-.3,0A.984.984,0,0,1,46,33a1,1,0,0,1-2,0,.979.979,0,0,1,.19-.555,4.788,4.788,0,0,0-.758.327A1.99,1.99,0,0,0,45,36Z" style="fill:#9dafcf"/><path d="M37.372,27.076c.09.611.131.974.131.979l0,.014A1.962,1.962,0,0,1,38,28a1.992,1.992,0,0,1,.486.066.444.444,0,0,0,.011-.121s-.042-.378-.135-1.014a.5.5,0,0,0-.99.145Z" style="fill:#dbe0e9"/><path d="M36.861,24.143c.07.338.132.664.189.974a.5.5,0,0,0,.491.409.484.484,0,0,0,.092-.008.5.5,0,0,0,.4-.582c-.058-.315-.123-.648-.192-.992a.5.5,0,0,0-.981.2Z" style="fill:#dbe0e9"/><path d="M36.172,21.252q.132.483.251.958a.5.5,0,0,0,.971-.243q-.123-.485-.257-.979a.5.5,0,0,0-.965.264Z" style="fill:#dbe0e9"/><path d="M35.592,19.369a.5.5,0,0,0,.472.337.522.522,0,0,0,.164-.027.5.5,0,0,0,.309-.636c-.111-.323-.227-.644-.35-.958a.5.5,0,1,0-.932.362Q35.43,18.9,35.592,19.369Z" style="fill:#dbe0e9"/><path d="M38.486,28.066A1.992,1.992,0,0,0,38,28a1.042,1.042,0,0,1,1,1,1,1,0,0,1-2,0,.989.989,0,0,1,.527-.865A.97.97,0,0,1,38,28a1.962,1.962,0,0,0-.493.069,2,2,0,1,0,.979,0Z" style="fill:#dbe0e9"/><path d="M45.489,32.067a.479.479,0,0,0,0-.156s-.067-.37-.214-1.007a.5.5,0,1,0-.974.225c.128.558.191.889.2.94a1.818,1.818,0,0,1,.985,0Z" style="fill:#dbe0e9"/><path d="M39.191,18.78a.514.514,0,0,0,.2-.07c-.272-.132-.54-.273-.82-.39.075.09.153.177.226.269A.5.5,0,0,0,39.191,18.78Z" style="fill:#9dafcf"/><path d="M42.558,25.458c.121.313.237.623.345.926a.5.5,0,0,0,.942-.338q-.169-.466-.356-.95a.5.5,0,1,0-.931.362Z" style="fill:#dbe0e9"/><path d="M41.369,22.749c.148.3.287.593.422.889a.5.5,0,0,0,.455.294.508.508,0,0,0,.207-.045.5.5,0,0,0,.248-.662q-.209-.461-.435-.92a.5.5,0,0,0-.9.444Z" style="fill:#dbe0e9"/><path d="M40.44,21.016a.5.5,0,0,0,.432.248.491.491,0,0,0,.252-.069.5.5,0,0,0,.18-.683q-.258-.441-.533-.872a.5.5,0,1,0-.842.54Q40.193,20.594,40.44,21.016Z" style="fill:#dbe0e9"/><path d="M43.529,28.261c.1.332.2.65.281.951a.5.5,0,0,0,.481.364.491.491,0,0,0,.136-.019.5.5,0,0,0,.345-.618c-.086-.306-.182-.631-.286-.97a.5.5,0,0,0-.957.292Z" style="fill:#dbe0e9"/><path d="M45.489,32.067A2.017,2.017,0,0,0,45,32a.97.97,0,0,1,.476.137,1.2,1.2,0,0,1,.12.081c.1,0,.2,0,.3,0A1.985,1.985,0,0,0,45.489,32.067Z" style="fill:#dbe0e9"/><path d="M43.432,32.772a4.788,4.788,0,0,1,.758-.327.992.992,0,0,1,.335-.309A.979.979,0,0,1,45,32a2.033,2.033,0,0,0-.5.069A1.99,1.99,0,0,0,43.432,32.772Z" style="fill:#dbe0e9"/><path d="M48.012,29.335l.311.909a.477.477,0,0,0,.322.292,17.115,17.115,0,0,0-.468-1.753A.5.5,0,0,0,48.012,29.335Z" style="fill:#dbe0e9"/><path d="M46.4,25c-.065-.1-.124-.213-.191-.316.025.06.052.12.077.179A.488.488,0,0,0,46.4,25Z" style="fill:#9dafcf"/><path d="M47.013,26.637c.118.3.232.6.343.894a.5.5,0,0,0,.468.324l.012,0a16.8,16.8,0,0,0-.758-1.686A.492.492,0,0,0,47.013,26.637Z" style="fill:#dbe0e9"/><path d="M20,33a1,1,0,0,1-2,0,.984.984,0,0,1,.4-.782c-.1,0-.2,0-.3,0a2,2,0,1,0,2.465.55,4.788,4.788,0,0,0-.758-.327A.979.979,0,0,1,20,33Z" style="fill:#9dafcf"/><path d="M26.493,28.069l0-.014s.041-.368.131-.979a.5.5,0,0,0-.99-.145c-.093.636-.135,1.014-.135,1.014a.444.444,0,0,0,.011.121A1.992,1.992,0,0,1,26,28,1.962,1.962,0,0,1,26.493,28.069Z" style="fill:#dbe0e9"/><path d="M27.772,19.679a.522.522,0,0,0,.164.027.5.5,0,0,0,.472-.337q.162-.466.337-.922a.5.5,0,1,0-.932-.362c-.123.314-.239.635-.35.958A.5.5,0,0,0,27.772,19.679Z" style="fill:#dbe0e9"/><path d="M26.367,25.518a.484.484,0,0,0,.092.008.5.5,0,0,0,.491-.409c.057-.31.119-.636.189-.974a.5.5,0,0,0-.981-.2c-.069.344-.134.677-.192.992A.5.5,0,0,0,26.367,25.518Z" style="fill:#dbe0e9"/><path d="M26.971,22.574a.5.5,0,0,0,.606-.364q.118-.474.251-.958a.5.5,0,0,0-.965-.264q-.135.494-.257.979A.5.5,0,0,0,26.971,22.574Z" style="fill:#dbe0e9"/><path d="M26.493,28.069A1.962,1.962,0,0,0,26,28a.97.97,0,0,1,.473.135A.989.989,0,0,1,27,29a1,1,0,0,1-2,0,.987.987,0,0,1,.52-.86A.977.977,0,0,1,26,28a2.034,2.034,0,1,0,.493.069Z" style="fill:#dbe0e9"/><path d="M25.2,18.589c.073-.092.151-.179.226-.269-.28.117-.548.258-.82.39a.514.514,0,0,0,.2.07A.5.5,0,0,0,25.2,18.589Z" style="fill:#dbe0e9"/><path d="M19.5,32.069c.009-.051.072-.382.2-.94a.5.5,0,1,0-.974-.225c-.147.637-.214,1.007-.214,1.007a.479.479,0,0,0,0,.156,1.818,1.818,0,0,1,.985,0Z" style="fill:#dbe0e9"/><path d="M20.457,26.686a.5.5,0,0,0,.64-.3c.108-.3.224-.613.345-.926a.5.5,0,1,0-.931-.362q-.187.483-.356.95A.5.5,0,0,0,20.457,26.686Z" style="fill:#dbe0e9"/><path d="M22.876,21.2a.491.491,0,0,0,.252.069.5.5,0,0,0,.432-.248q.246-.423.511-.836a.5.5,0,1,0-.842-.54q-.276.43-.533.872A.5.5,0,0,0,22.876,21.2Z" style="fill:#dbe0e9"/><path d="M21.547,23.887a.508.508,0,0,0,.207.045.5.5,0,0,0,.455-.294c.135-.3.274-.593.422-.889a.5.5,0,0,0-.9-.444c-.151.306-.3.613-.435.92A.5.5,0,0,0,21.547,23.887Z" style="fill:#dbe0e9"/><path d="M19.573,29.557a.491.491,0,0,0,.136.019.5.5,0,0,0,.481-.364c.085-.3.179-.619.281-.951a.5.5,0,0,0-.957-.292c-.1.339-.2.664-.286.97A.5.5,0,0,0,19.573,29.557Z" style="fill:#dbe0e9"/><path d="M18.1,32.222c.1-.005.2-.006.3,0a1.2,1.2,0,0,1,.12-.081A.97.97,0,0,1,19,32a2.017,2.017,0,0,0-.489.067A1.985,1.985,0,0,0,18.1,32.222Z" style="fill:#dbe0e9"/><path d="M19.5,32.069A2.033,2.033,0,0,0,19,32a.979.979,0,0,1,.475.136.992.992,0,0,1,.335.309,4.788,4.788,0,0,1,.758.327A1.99,1.99,0,0,0,19.5,32.069Z" style="fill:#dbe0e9"/><path d="M16.644,27.531c.111-.295.225-.594.343-.894a.492.492,0,0,0-.065-.47,16.8,16.8,0,0,0-.758,1.686l.012,0A.5.5,0,0,0,16.644,27.531Z" style="fill:#dbe0e9"/><path d="M17.79,24.681c-.067.1-.127.212-.192.317a.466.466,0,0,0,.115-.138C17.738,24.8,17.765,24.741,17.79,24.681Z" style="fill:#dbe0e9"/><path d="M15.677,30.244l.311-.909a.5.5,0,0,0-.165-.552,17.115,17.115,0,0,0-.468,1.753A.477.477,0,0,0,15.677,30.244Z" style="fill:#dbe0e9"/><path d="M19.81,32.445c-.145-.047-.293-.085-.442-.118a4.831,4.831,0,0,0-.806-.1l-.158,0A.984.984,0,0,0,18,33a1,1,0,0,0,2,0A.979.979,0,0,0,19.81,32.445Z" style="fill:#dbe0e9"/><path d="M19.475,32.136a.9.9,0,0,0-.951,0,1.2,1.2,0,0,0-.12.081l.158,0a4.831,4.831,0,0,1,.806.1c.149.033.3.071.442.118A.992.992,0,0,0,19.475,32.136Z" style="fill:#eff1f8"/><path d="M26,28.5a.525.525,0,0,1-.056,0,.5.5,0,0,1-.425-.357A.987.987,0,0,0,25,29a1,1,0,0,0,2,0,.989.989,0,0,0-.527-.865A.5.5,0,0,1,26,28.5Z" style="fill:#eff1f8"/><path d="M25.52,28.14a.5.5,0,0,0,.425.357.525.525,0,0,0,.056,0,.5.5,0,0,0,.472-.365.894.894,0,0,0-.953,0Z" style="fill:#eff1f8"/><path d="M38.055,28.5a.525.525,0,0,1-.056,0,.5.5,0,0,1-.472-.365A.989.989,0,0,0,37,29a1,1,0,0,0,2,0,.99.99,0,0,0-.52-.861A.5.5,0,0,1,38.055,28.5Z" style="fill:#eff1f8"/><path d="M38,28.5a.525.525,0,0,0,.056,0,.5.5,0,0,0,.425-.358A.987.987,0,0,0,38,28a.97.97,0,0,0-.473.135A.5.5,0,0,0,38,28.5Z" style="fill:#eff1f8"/><path d="M45.438,32.223l.158,0a1.2,1.2,0,0,0-.12-.081A.51.51,0,0,1,45.438,32.223Z" style="fill:#eff1f8"/><path d="M44.525,32.136a.992.992,0,0,0-.335.309c.145-.047.293-.085.442-.118A.493.493,0,0,1,44.525,32.136Z" style="fill:#eff1f8"/><path d="M45.6,32.218l-.158,0a4.844,4.844,0,0,0-.806.1c-.149.033-.3.071-.442.118A.979.979,0,0,0,44,33a1,1,0,0,0,2,0A.984.984,0,0,0,45.6,32.218Z" style="fill:#dbe0e9"/><path d="M45.438,32.223a.51.51,0,0,0,.038-.086.9.9,0,0,0-.951,0,.493.493,0,0,0,.107.191A4.844,4.844,0,0,1,45.438,32.223Z" style="fill:#eff1f8"/><path d="M46.99,46.92a2.7,2.7,0,0,0,2.47-.63c1.011-.846,1.394-2.564,1.5-4.3A1.819,1.819,0,0,1,49.5,40a2.03,2.03,0,0,1,1.016-1.884c0-.006,0-.011-.006-.017s-.021-.1-.062-.289a2.54,2.54,0,0,0-1.723-.794,16.9,16.9,0,0,1-3.691,7.878A2.535,2.535,0,0,0,46.99,46.92Z" style="fill:#3646d9"/><path d="M50.91,38.87a1.738,1.738,0,0,0-.249-.765c-.007-.012-.016-.022-.023-.033a1.918,1.918,0,0,0-.19-.262c.041.185.061.286.062.289s.005.011.006.017A2.03,2.03,0,0,0,49.5,40,1.819,1.819,0,0,0,50.96,42c.021-.335.03-.667.032-1C51,40.233,50.962,39.5,50.91,38.87Z" style="fill:#5e89ff"/><path d="M46.12,39.03a14.879,14.879,0,0,1-.99,4.79,2.174,2.174,0,0,0-.1,1.074,16.9,16.9,0,0,0,3.691-7.878c-.069,0-.135-.016-.2-.016A2.23,2.23,0,0,0,46.12,39.03Z" style="fill:#5e89ff"/><path d="M48.323,30.244l-.311-.909a.486.486,0,0,1,.137-.512c-.134-.339-.286-.674-.452-1.007a.485.485,0,0,1-.341-.285c-.111-.295-.225-.594-.343-.894,0-.006,0-.011,0-.017a10.416,10.416,0,0,0-4.523-3.845c.071.15.145.3.213.45a.5.5,0,0,1-.248.662.508.508,0,0,1-.207.045.5.5,0,0,1-.455-.294c-.135-.3-.274-.593-.422-.889a.491.491,0,0,1-.008-.412c-.144-.049-.281-.1-.431-.147a4.713,4.713,0,0,0-5.03,1.59l-.06.09a3.957,3.957,0,0,0,.361,5.273,2,2,0,0,1,1.306-1.074l0-.014s-.041-.368-.131-.979a.5.5,0,0,1,.99-.145c.093.636.135,1.014.135,1.014a.444.444,0,0,1-.011.121,1.979,1.979,0,0,1,1.307,2.805c1.308.5,2.643,1.059,3.885,1.674a1.967,1.967,0,0,1,.826-.476c-.009-.051-.072-.382-.2-.94a.5.5,0,1,1,.974-.225c.147.637.214,1.007.214,1.007a.479.479,0,0,1,0,.156,1.985,1.985,0,0,1,.408.155,4.69,4.69,0,0,1,2.66,1,1.847,1.847,0,0,0,.354-.679,16.152,16.152,0,0,0-.266-2.009A.477.477,0,0,1,48.323,30.244Zm-10.69-4.726a.484.484,0,0,1-.092.008.5.5,0,0,1-.491-.409c-.057-.31-.119-.636-.189-.974a.5.5,0,0,1,.981-.2c.069.344.134.677.192.992A.5.5,0,0,1,37.633,25.518Zm5.27.866c-.108-.3-.224-.613-.345-.926a.5.5,0,1,1,.931-.362q.188.483.356.95a.5.5,0,0,1-.942.338Zm1.524,3.173a.491.491,0,0,1-.136.019.5.5,0,0,1-.481-.364c-.085-.3-.179-.619-.281-.951a.5.5,0,0,1,.957-.292c.1.339.2.664.286.97A.5.5,0,0,1,44.427,29.557Z" style="fill:#759aff"/><path d="M47,33.992a2.179,2.179,0,0,0,1.558-.768,4.69,4.69,0,0,0-2.66-1A1.993,1.993,0,0,1,47,33.992Z" style="fill:#5e89ff"/><path d="M38.486,28.066a.444.444,0,0,0,.011-.121s-.042-.378-.135-1.014a.5.5,0,0,0-.99.145c.09.611.131.974.131.979l0,.014A1.962,1.962,0,0,1,38,28,1.992,1.992,0,0,1,38.486,28.066Z" style="fill:#fff"/><path d="M37.252,23.554a.5.5,0,0,0-.391.589c.07.338.132.664.189.974a.5.5,0,0,0,.491.409.484.484,0,0,0,.092-.008.5.5,0,0,0,.4-.582c-.058-.315-.123-.648-.192-.992A.5.5,0,0,0,37.252,23.554Z" style="fill:#fff"/><path d="M43.845,26.046q-.169-.466-.356-.95a.5.5,0,1,0-.931.362c.121.313.237.623.345.926a.5.5,0,0,0,.942-.338Z" style="fill:#fff"/><path d="M41.369,22.749c.148.3.287.593.422.889a.5.5,0,0,0,.455.294.508.508,0,0,0,.207-.045.5.5,0,0,0,.248-.662c-.068-.15-.142-.3-.213-.45-.356-.16-.733-.306-1.127-.438A.491.491,0,0,0,41.369,22.749Z" style="fill:#fff"/><path d="M44.486,27.969a.5.5,0,0,0-.957.292c.1.332.2.65.281.951a.5.5,0,0,0,.481.364.491.491,0,0,0,.136-.019.5.5,0,0,0,.345-.618C44.686,28.633,44.59,28.308,44.486,27.969Z" style="fill:#fff"/><path d="M48.012,29.335l.311.909a.477.477,0,0,0,.322.292c-.1-.464-.23-.914-.364-1.363-.043-.117-.085-.233-.132-.35A.486.486,0,0,0,48.012,29.335Z" style="fill:#fff"/><path d="M47.356,27.531a.485.485,0,0,0,.341.285,11.84,11.84,0,0,0-.686-1.2c0,.006,0,.011,0,.017C47.131,26.937,47.245,27.236,47.356,27.531Z" style="fill:#fff"/><path d="M38.486,28.066A1.992,1.992,0,0,0,38,28a1.962,1.962,0,0,0-.493.069A2,2,0,0,0,36.2,29.143,4.377,4.377,0,0,0,37.88,30.18c.619.213,1.262.444,1.913.691a1.979,1.979,0,0,0-1.307-2.8Z" style="fill:#fff"/><path d="M45.9,32.222a1.985,1.985,0,0,0-.408-.155.479.479,0,0,0,0-.156s-.067-.37-.214-1.007a.5.5,0,1,0-.974.225c.128.558.191.889.2.94a1.967,1.967,0,0,0-.826.476l.133.064.238.121c.589.3,1.157.615,1.681.94h0A2.178,2.178,0,0,0,47,33.992,1.993,1.993,0,0,0,45.9,32.222Z" style="fill:#fff"/><circle cx="32" cy="39" r="24" style="fill:none;stroke:#000;stroke-linejoin:round;stroke-width:2px"/><path d="M37,15V11a2,2,0,0,0-2-2H29a2,2,0,0,0-2,2v4h1.382a1,1,0,0,0,.894-.553L30,12h0v2a1,1,0,0,0,1,1h2a1,1,0,0,0,1-1V12h0l.724,2.447a1,1,0,0,0,.894.553Z" style="fill:none;stroke:#000;stroke-linejoin:round;stroke-width:2px"/><ellipse cx="32" cy="5" rx="3" ry="4" style="fill:none;stroke:#000;stroke-linejoin:round;stroke-width:2px"/></g></svg>