<svg xmlns="http://www.w3.org/2000/svg" width="45.46" height="46.67" viewBox="0 0 45.46 46.67">
  <title>santa-hand</title>
  <g style="isolation: isolate">
    <g id="Layer_1" data-name="Layer 1">
      <g>
        <path d="M44.68,25.12a5.72,5.72,0,0,1-2.12,7.79L20.79,46.4a5.72,5.72,0,0,1-7.92-1.56h0A5.72,5.72,0,0,1,15,37.05l21.77-13.5a5.73,5.73,0,0,1,7.92,1.57Z" transform="translate(-0.56 -1.22)" fill="#fcfcfc" stroke="snow" stroke-miterlimit="10"/>
        <path d="M14.53,37.33S2,34.16,1.27,30.78s.91-10.23,9.19-5.7L5,16.25S3.28,10,8.8,6.6l7.07-4.38S23.68.3,26.21,4.38L37.72,23Z" transform="translate(-0.56 -1.22)" fill="#e92f47"/>
        <g opacity="0.5" style="mix-blend-mode: multiply">
          <path d="M31.7,26.69,20.18,8.11C17.65,4,9.84,6,9.84,6l6-3.73S23.68.3,26.21,4.38L37.72,23Z" transform="translate(-0.56 -1.22)" fill="#be1e2d"/>
        </g>
        <g opacity="0.5" style="mix-blend-mode: multiply">
          <path d="M42.56,32.91l-9,5.6a5.72,5.72,0,0,0,2.12-7.79,5.72,5.72,0,0,0-7.92-1.57l9-5.6a5.73,5.73,0,0,1,7.92,1.57A5.72,5.72,0,0,1,42.56,32.91Z" transform="translate(-0.56 -1.22)" fill="#b8b7b5"/>
        </g>
        <path d="M15.76,1.69c.34-.08,8.23-2,10.94,2.39L38.21,22.66a.57.57,0,0,1-.21.76L14.81,37.79a.59.59,0,0,1-.45.07C13,37.53,1.49,34.5.72,30.92c-.41-1.9-.18-5.33,2.12-7,1.54-1.12,3.59-1.18,6.12-.17L4.51,16.56a.42.42,0,0,1-.06-.14c0-.06-1.75-6.67,4.06-10.27l7.07-4.38A.71.71,0,0,1,15.76,1.69ZM11,24.78a.54.54,0,0,1-.1.67.59.59,0,0,1-.69.11C7.26,24,5,23.7,3.48,24.77,1.84,26,1.41,28.68,1.83,30.63c.47,2.2,7.9,4.88,12.64,6.11L37,22.81,25.72,4.69c-2.16-3.49-8.81-2.15-9.66-2l-7,4.33c-4.84,3-3.73,8.27-3.56,9Z" transform="translate(-0.56 -1.22)" fill="#4f142a"/>
        <path d="M45.17,24.82a6.29,6.29,0,0,1-2.33,8.55L21.07,46.86a6.28,6.28,0,0,1-8.69-1.72,6.28,6.28,0,0,1,2.33-8.55L36.48,23.1A6.28,6.28,0,0,1,45.17,24.82Zm-2.89,7.64a5.17,5.17,0,0,0,1.91-7A5.16,5.16,0,0,0,37.05,24L15.27,37.5a5.15,5.15,0,0,0-1.91,7A5.16,5.16,0,0,0,20.51,46Z" transform="translate(-0.56 -1.22)" fill="#4f142a"/>
      </g>
    </g>
  </g>
</svg>
