<svg id="Layer_1" data-name="Layer 1" xmlns="http://www.w3.org/2000/svg" xmlns:xlink="http://www.w3.org/1999/xlink" width="37.42" height="40.72" viewBox="0 0 37.42 40.72">
  <defs>
    <linearGradient id="linear-gradient" x1="11.79" y1="87.23" x2="24.22" y2="87.23" gradientTransform="matrix(0.78, -0.63, -0.63, -0.78, 67.73, 112.76)" gradientUnits="userSpaceOnUse">
      <stop offset="0" stop-color="#a17f59"/>
      <stop offset="1" stop-color="#8b725c"/>
    </linearGradient>
    <linearGradient id="linear-gradient-2" x1="16.79" y1="87.22" x2="24.21" y2="87.22" gradientTransform="matrix(0.78, -0.63, -0.63, -0.78, 67.73, 112.76)" gradientUnits="userSpaceOnUse">
      <stop offset="0" stop-color="#7c5943"/>
      <stop offset="1" stop-color="#6d4e3a"/>
    </linearGradient>
    <linearGradient id="linear-gradient-3" x1="17.65" y1="-4.53" x2="17.65" y2="18.15" gradientTransform="matrix(0.78, -0.63, 0.63, 0.78, -11.48, 14.77)" gradientUnits="userSpaceOnUse">
      <stop offset="0" stop-color="#8ac647"/>
      <stop offset="1" stop-color="#007839"/>
    </linearGradient>
  </defs>
  <title>tree</title>
  <g>
    <g>
      <path d="M21.43,32.29a48,48,0,0,1,2.95,6.25c.36,1.52,0,1.74.15,2s.92-.27,1.56-1,2.24-.46,3-1.1S29,37.31,29,37.31a37.49,37.49,0,0,0,4.56-2.2c.57-.54-1.43-.6-1.43-.6s1.76-1.15,2-1.8-5.37-1.8-7.25-4S21.43,32.29,21.43,32.29Z" transform="translate(0.06 -0.87)" fill="url(#linear-gradient)"/>
      <path d="M23.68,29.38l-.45,1.4s4,5.45,5,6.15a3.37,3.37,0,0,0,.93.49.5.5,0,0,0-.16-.11l.56-.23A1.66,1.66,0,0,1,29,36c-.11-.86,2.66-.44,4.12-.63a3.16,3.16,0,0,0,.44-.28c.58-.54-1.42-.6-1.42-.6l.09-.06c-.7,0-1.63-.06-1.66-.55s1.7-.37,3.08-.56a1.65,1.65,0,0,0,.47-.64c.22-.64-5.36-1.79-7.24-4C26,27.63,24.74,28.34,23.68,29.38Z" transform="translate(0.06 -0.87)" fill="url(#linear-gradient-2)"/>
    </g>
    <path d="M29.24,21.75a2.71,2.71,0,0,0-.86-.4c.16,0,3.32,0,4.17-1.27.48-.75-2-1.24-5.19-1.68-.93-.13-1.91-.26-2.85-.35-.14-.4-.75-.51-.54-.52s2.91-.06,3.64-1.18c.55-.85-1.56-1.26-4.48-1.71-1.17-.17-2.44-.34-3.64-.46.07-.4-.33-.48,0-.51s2.51-.14,3.12-1.08-1.09-1.25-3.76-1.71c-1.35-.24-3-.45-4.37-.58a.47.47,0,0,0,0-.1l0,0c.1-.25.11-.27.63-.33s2.11-.21,2.61-1c.66-1-.63-1.24-3.05-1.73A45.34,45.34,0,0,0,10,6.47,2,2,0,0,0,9.4,6s2.58.2,3.3-.92-.17-1.21-2.35-1.74S2.53,2,2.06,3.58c0,0-1.94,9.25-1,10.61S2.14,12,2.14,12s1.45,1,1.86.64S3.5,11,3.5,11a5.63,5.63,0,0,0,.94.27c-.67,3.2-1.42,7.53-.8,8.35C4.54,20.85,5,17.93,5,17.38c0-.09,0-.11,0-.09s1.15.92,1.81.74l0,0c-.68,3.14-1.25,6.46-.73,7.11,1,1.21,1.7-2.11,1.71-2.53,0-.06,0-.06.06,0a2.38,2.38,0,0,0,1.66.85c-.79,3.28-1.4,6.55-.9,7.17,1,1.22,2-2.5,2-2.78,0,0,0,0,.08.06a2.33,2.33,0,0,0,1.42.94c-.87,3.41-1.53,6.67-1,7.24,1.08,1.23,2.4-2.9,2.4-3s0,0,.11.15a2.48,2.48,0,0,0,1,.93c-.95,3.51-1.64,6.74-1.15,7.26,1.13,1.24,2.74-3.28,2.74-3.28s1.1,2.2,2.48,1.08,1.07-3.69,1.07-3.69,2,1.63,3.12.71.91-3.56.91-3.56,2.43.86,3.41.07S27,30.28,27,30.28s2.8,1.65,4,0-1.72-2.8-1.72-2.8,4.27.6,4.92-.75-1.61-1.65-1.61-1.65,3.73.1,4.69-1.37C37.88,22.88,33.43,22.19,29.24,21.75ZM6.89,16.09c0-.1.15-.1.39,0a.34.34,0,0,1,.12,0L7.19,17C7.07,16.56,6.88,16.16,6.89,16.09Zm3.31,5.08a.23.23,0,0,1,.06-.18,1.66,1.66,0,0,0-.06.21S10.2,21.19,10.2,21.17Z" transform="translate(0.06 -0.87)" fill="url(#linear-gradient-3)"/>
    <g>
      <path d="M18.75,31.37l-.15,0s-.08.06-.06.09a.09.09,0,0,0,.1.06l.15,0,0,0a.08.08,0,0,0,0-.09S18.8,31.36,18.75,31.37Z" transform="translate(0.06 -0.87)" fill="#b5d334"/>
      <path d="M20.45,33.54l-.15.06a.07.07,0,0,0,0,.1s.05,0,.09,0l.15-.07h0s0-.06,0-.1A.07.07,0,0,0,20.45,33.54Z" transform="translate(0.06 -0.87)" fill="#ee2b4f"/>
      <path d="M16.08,28.71a1,1,0,0,0-.13.09.08.08,0,0,0,0,.1.09.09,0,0,0,.11,0l.13-.08h0a.08.08,0,0,0,0-.1S16.11,28.68,16.08,28.71Z" transform="translate(0.06 -0.87)" fill="#ee2b4f"/>
      <path d="M16.47,28.46l-.13.09a.09.09,0,0,0,0,.11.1.1,0,0,0,.1,0,1,1,0,0,1,.13-.09h0a.07.07,0,0,0,0-.1A.06.06,0,0,0,16.47,28.46Z" transform="translate(0.06 -0.87)" fill="#ee2b4f"/>
      <path d="M16.86,28.2l-.13.08a.09.09,0,0,0,0,.11.08.08,0,0,0,.1,0,1,1,0,0,0,.13-.09h0a.07.07,0,0,0,0-.1C16.94,28.18,16.9,28.16,16.86,28.2Z" transform="translate(0.06 -0.87)" fill="#ee2b4f"/>
      <path d="M19.19,31.23l-.14.05s-.08.06-.06.1.06.07.1.05l.14-.05h0a.1.1,0,0,0,0-.09S19.24,31.22,19.19,31.23Z" transform="translate(0.06 -0.87)" fill="#b5d334"/>
      <path d="M20.87,33.33h0a.39.39,0,0,0-.14.08s-.05.06,0,.11a.09.09,0,0,0,.11,0l.15-.07h0s0-.06,0-.1A.08.08,0,0,0,20.87,33.33Z" transform="translate(0.06 -0.87)" fill="#ee2b4f"/>
      <path d="M18.3,31.5l-.15,0s-.08.05-.06.09a.09.09,0,0,0,.1.06l.15,0h0s0,0,0-.09A.07.07,0,0,0,18.3,31.5Z" transform="translate(0.06 -0.87)" fill="#b5d334"/>
      <path d="M19.6,33.94l-.15.07a.06.06,0,0,0,0,.09s.07.07.1,0l.15-.07h0a.11.11,0,0,0,0-.09A.09.09,0,0,0,19.6,33.94Z" transform="translate(0.06 -0.87)" fill="#ee2b4f"/>
      <path d="M19.17,34.12h0l-.13.06a.07.07,0,0,0-.05.1.09.09,0,0,0,.1,0l.15-.07h0a.09.09,0,0,0,0-.09A.1.1,0,0,0,19.17,34.12Z" transform="translate(0.06 -0.87)" fill="#ee2b4f"/>
      <path d="M17.39,31.7l-.16,0a.07.07,0,0,0-.06.08.07.07,0,0,0,.09.07l.16,0h0a.08.08,0,0,0,0-.08A.08.08,0,0,0,17.39,31.7Z" transform="translate(0.06 -0.87)" fill="#b5d334"/>
      <path d="M20,33.74l-.15.07s-.05.06,0,.1a.08.08,0,0,0,.1,0l.15-.07h0s0-.06,0-.1S20.07,33.73,20,33.74Z" transform="translate(0.06 -0.87)" fill="#ee2b4f"/>
      <path d="M18.73,34.3a.34.34,0,0,1-.14.05.09.09,0,1,0,.06.16.3.3,0,0,1,.14,0l0,0a.09.09,0,0,0,0-.09A.08.08,0,0,0,18.73,34.3Z" transform="translate(0.06 -0.87)" fill="#ee2b4f"/>
      <path d="M16.92,31.77l-.15,0a.07.07,0,0,0-.06.09s0,.08.08.06h0l.15,0h0a.08.08,0,0,0,0-.08A.07.07,0,0,0,16.92,31.77Z" transform="translate(0.06 -0.87)" fill="#b5d334"/>
      <path d="M19.55,31.28a.48.48,0,0,1,.14-.05l0,0a.08.08,0,0,0,0-.09s-.07-.06-.11-.05l-.14.05a.09.09,0,1,0,.06.16Z" transform="translate(0.06 -0.87)" fill="#b5d334"/>
      <path d="M15.68,29a1,1,0,0,1-.13.09.09.09,0,0,0,0,.11.11.11,0,0,0,.11,0l.14-.08h0a.08.08,0,0,0,0-.1C15.76,28.94,15.71,28.94,15.68,29Z" transform="translate(0.06 -0.87)" fill="#ee2b4f"/>
      <path d="M17.85,31.61a.37.37,0,0,0-.15,0,.07.07,0,0,0-.06.09.08.08,0,0,0,.1.06l.15,0h0a.08.08,0,0,0,0-.08S17.89,31.59,17.85,31.61Z" transform="translate(0.06 -0.87)" fill="#b5d334"/>
      <path d="M22.52,32.42l-.14.08s0,.07,0,.1a.09.09,0,0,0,.11,0l.14-.07h0a.08.08,0,0,0,0-.1A.07.07,0,0,0,22.52,32.42Z" transform="translate(0.06 -0.87)" fill="#ee2b4f"/>
      <path d="M22.93,32.17l-.14.08a.09.09,0,0,0,0,.11.11.11,0,0,0,.11,0,1.48,1.48,0,0,1,.13-.08h0a.07.07,0,0,0,0-.1A.07.07,0,0,0,22.93,32.17Z" transform="translate(0.06 -0.87)" fill="#ee2b4f"/>
      <path d="M19.22,26.51a.09.09,0,0,0-.11,0l-.12.1a.08.08,0,0,0,0,.11.08.08,0,0,0,.11,0h0l.13-.09A.07.07,0,0,0,19.22,26.51Z" transform="translate(0.06 -0.87)" fill="#ee2b4f"/>
      <path d="M18.5,27.12a.08.08,0,0,0-.11,0h0l-.12.09a.08.08,0,0,0,0,.11.09.09,0,0,0,.11,0l.12-.1h0S18.53,27.15,18.5,27.12Z" transform="translate(0.06 -0.87)" fill="#ee2b4f"/>
      <path d="M16.55,31.91a.08.08,0,0,0-.09-.07.81.81,0,0,1-.16,0,.07.07,0,0,0-.06.09.06.06,0,0,0,.08.06h.2A.24.24,0,0,1,16.55,31.91Z" transform="translate(0.06 -0.87)" fill="#b5d334"/>
      <path d="M21.86,30.27h0a.09.09,0,0,0,0-.1.08.08,0,0,0-.11,0,.39.39,0,0,0-.14.08s-.05.06,0,.11a.08.08,0,0,0,.11,0h0Z" transform="translate(0.06 -0.87)" fill="#b5d334"/>
      <path d="M18.86,26.81a.09.09,0,0,0-.11,0l-.12.1a.08.08,0,0,0,0,.11.09.09,0,0,0,.11,0h0l.12-.1A.08.08,0,0,0,18.86,26.81Z" transform="translate(0.06 -0.87)" fill="#ee2b4f"/>
      <path d="M23.31,31.93h0l-.13.08a.11.11,0,0,0,0,.11.09.09,0,0,0,.11,0,1,1,0,0,0,.13-.09h0s.05-.07,0-.1A.07.07,0,0,0,23.31,31.93Z" transform="translate(0.06 -0.87)" fill="#ee2b4f"/>
      <path d="M20.93,30.73s.05,0,.08,0l0,0a.08.08,0,0,0,0-.1s-.06,0-.1,0l-.07,0-.08,0a.08.08,0,0,0,0,.1s.06.05.1,0Z" transform="translate(0.06 -0.87)" fill="#b5d334"/>
      <path d="M20,31.12a.76.76,0,0,1,.16-.06l0,0a.07.07,0,0,0,0-.08.07.07,0,0,0-.1-.05l-.15.05a.07.07,0,0,0,0,.1.07.07,0,0,0,.09.06Z" transform="translate(0.06 -0.87)" fill="#b5d334"/>
      <path d="M18.13,27.4a.08.08,0,0,0-.11,0h0a.6.6,0,0,1-.13.09.07.07,0,0,0,0,.11.08.08,0,0,0,.11,0l.13-.09h0A.11.11,0,0,0,18.13,27.4Z" transform="translate(0.06 -0.87)" fill="#ee2b4f"/>
      <path d="M21.71,32.89l-.14.08s-.05.07,0,.11.07,0,.11,0l.14-.08h0a.09.09,0,0,0,0-.1S21.74,32.86,21.71,32.89Z" transform="translate(0.06 -0.87)" fill="#ee2b4f"/>
      <path d="M17.25,27.93h0l-.13.09a.08.08,0,1,0,.09.12.6.6,0,0,0,.13-.09h0a.07.07,0,0,0,0-.11A.08.08,0,0,0,17.25,27.93Z" transform="translate(0.06 -0.87)" fill="#ee2b4f"/>
      <path d="M21.29,33.11l-.13.07a.07.07,0,0,0,0,.11.07.07,0,0,0,.1,0,.39.39,0,0,0,.14-.08h0a.08.08,0,0,0,0-.1A.08.08,0,0,0,21.29,33.11Z" transform="translate(0.06 -0.87)" fill="#ee2b4f"/>
      <path d="M22.11,32.66h0l-.14.08a.11.11,0,0,0,0,.11s.07,0,.11,0l.14-.08h0s0-.06,0-.1A.07.07,0,0,0,22.11,32.66Z" transform="translate(0.06 -0.87)" fill="#ee2b4f"/>
      <path d="M17.63,27.66h0l-.13.08s-.05.07,0,.11a.08.08,0,0,0,.11,0,1,1,0,0,1,.13-.09h0a.08.08,0,0,0,0-.11A.09.09,0,0,0,17.63,27.66Z" transform="translate(0.06 -0.87)" fill="#ee2b4f"/>
      <path d="M20.57,30.88h0a.09.09,0,0,0,0-.09s-.07-.07-.1,0l-.14.07a.07.07,0,0,0,0,.1s.07.06.1,0S20.52,30.91,20.57,30.88Z" transform="translate(0.06 -0.87)" fill="#b5d334"/>
      <path d="M21.45,30.48a.08.08,0,0,0,0-.1.07.07,0,0,0-.11,0l-.14.06a.07.07,0,0,0,0,.1s.06,0,.1,0l.14-.07Z" transform="translate(0.06 -0.87)" fill="#b5d334"/>
      <path d="M13.13,30.52l.14-.07h0a.09.09,0,0,0,0-.09s-.07-.07-.1,0l-.13.06a.07.07,0,0,0,0,.1C13,30.52,13.09,30.54,13.13,30.52Z" transform="translate(0.06 -0.87)" fill="#ee2b4f"/>
      <path d="M12.22,30.83a.42.42,0,0,0,.15,0h0s0-.05,0-.09a.08.08,0,0,0-.09-.06h0a1.24,1.24,0,0,1-.16,0s-.07.06-.05.1S12.18,30.85,12.22,30.83Z" transform="translate(0.06 -0.87)" fill="#ee2b4f"/>
      <path d="M14,30.11a.39.39,0,0,0,.14-.08h0s0-.06,0-.1a.09.09,0,0,0-.11,0l-.14.08s-.05.06,0,.11S13.94,30.13,14,30.11Z" transform="translate(0.06 -0.87)" fill="#ee2b4f"/>
      <path d="M18.29,34.46l-.14,0a.07.07,0,0,0,0,.1s.06.08.1,0l.15,0h0a.14.14,0,0,0,0-.09A.09.09,0,0,0,18.29,34.46Z" transform="translate(0.06 -0.87)" fill="#ee2b4f"/>
      <path d="M12,30.8c0-.05,0-.07-.08-.07h0a.07.07,0,0,0-.06,0v.08l0,0a.35.35,0,0,0,.1.08s.07,0,.1,0h0a.13.13,0,0,0,0-.12Z" transform="translate(0.06 -0.87)" fill="#ee2b4f"/>
      <path d="M15.11,35.1H15a.1.1,0,0,0-.09.06.1.1,0,0,0,.07.09.85.85,0,0,1,.16,0s0,0,.05,0a.11.11,0,0,0,0-.06s0-.06-.07-.06Z" transform="translate(0.06 -0.87)" fill="#ee2b4f"/>
      <path d="M12.19,31.15l.14.09a.1.1,0,0,0,.09,0l0,0a.09.09,0,0,0,0-.11L12.29,31a.09.09,0,0,0-.12,0A.07.07,0,0,0,12.19,31.15Z" transform="translate(0.06 -0.87)" fill="#b5d334"/>
      <path d="M14.82,29.66l.13-.08h0a.08.08,0,0,0,0-.1.1.1,0,0,0-.1,0l-.14.08a.08.08,0,0,0,0,.11S14.78,29.68,14.82,29.66Z" transform="translate(0.06 -0.87)" fill="#ee2b4f"/>
      <path d="M25.52,18.64l0,0,.08-.13a.07.07,0,0,0,0-.1.06.06,0,0,0-.1,0l-.08.13a.08.08,0,0,0,0,.11A.13.13,0,0,0,25.52,18.64Z" transform="translate(0.06 -0.87)" fill="#ee2b4f"/>
      <path d="M25.27,19l0,0a.46.46,0,0,0,.08-.13.08.08,0,0,0,0-.11.11.11,0,0,0-.12,0,1,1,0,0,1-.08.14.09.09,0,0,0,0,.11S25.25,19.06,25.27,19Z" transform="translate(0.06 -0.87)" fill="#ee2b4f"/>
      <path d="M25,19.45h0l.07-.13a.09.09,0,0,0,0-.12.08.08,0,0,0-.11,0,.57.57,0,0,0-.08.13.08.08,0,0,0,0,.11S25,19.47,25,19.45Z" transform="translate(0.06 -0.87)" fill="#ee2b4f"/>
      <path d="M19.79,26.09h0l.12-.11a.07.07,0,1,0-.1-.11L19.7,26a.08.08,0,0,0,0,.11A.08.08,0,0,0,19.79,26.09Z" transform="translate(0.06 -0.87)" fill="#ee2b4f"/>
      <path d="M15.22,29.42l.14-.08h0s.05-.07,0-.1a.09.09,0,0,0-.11,0l-.14.08a.11.11,0,0,0,0,.11S15.18,29.45,15.22,29.42Z" transform="translate(0.06 -0.87)" fill="#ee2b4f"/>
      <path d="M20.46,25.43h0a.71.71,0,0,0,.12-.13.07.07,0,0,0,0-.11.07.07,0,0,0-.11,0h0l-.11.11a.07.07,0,0,0,0,.11S20.43,25.46,20.46,25.43Z" transform="translate(0.06 -0.87)" fill="#ee2b4f"/>
      <path d="M24.78,19.84h0l.08-.13a.09.09,0,0,0,0-.12.08.08,0,0,0-.11,0l-.08.13a.08.08,0,0,0,0,.11A.07.07,0,0,0,24.78,19.84Z" transform="translate(0.06 -0.87)" fill="#ee2b4f"/>
      <path d="M14.4,29.9l.14-.08h0a.09.09,0,0,0,0-.1.08.08,0,0,0-.11,0l-.14.08s0,.07,0,.11A.11.11,0,0,0,14.4,29.9Z" transform="translate(0.06 -0.87)" fill="#ee2b4f"/>
      <path d="M13.56,30.33l.14-.07h0a.08.08,0,0,0,0-.1.07.07,0,0,0-.1,0l-.15.07s-.05.06,0,.1A.11.11,0,0,0,13.56,30.33Z" transform="translate(0.06 -0.87)" fill="#ee2b4f"/>
      <path d="M17.41,34.74l-.16,0s-.07,0-.05.09a.08.08,0,0,0,.09.06l.16,0,0,0a.08.08,0,0,0,0-.09A.07.07,0,0,0,17.41,34.74Z" transform="translate(0.06 -0.87)" fill="#ee2b4f"/>
      <path d="M15.05,32l.06,0s0,0,0,0,0-.08-.07-.09H14.9a.09.09,0,0,0-.09.08.12.12,0,0,0,.07.09Z" transform="translate(0.06 -0.87)" fill="#b5d334"/>
      <path d="M14.44,31.79a.08.08,0,1,0,0,.15l.15,0,.06,0s0,0,0-.05,0-.08-.07-.09Z" transform="translate(0.06 -0.87)" fill="#b5d334"/>
      <path d="M15.57,35.08h-.16a.08.08,0,0,0-.07.08.08.08,0,0,0,.07.07h.16l0,0a.08.08,0,0,0,0-.07s0-.06-.07-.06Z" transform="translate(0.06 -0.87)" fill="#ee2b4f"/>
      <path d="M16.07,31.94a.07.07,0,0,0-.08-.07.46.46,0,0,0-.16,0,.07.07,0,0,0-.07.07c0,.05,0,.08.08.08A1.15,1.15,0,0,0,16,32s0,0,.05,0A0,0,0,0,0,16.07,31.94Z" transform="translate(0.06 -0.87)" fill="#b5d334"/>
      <path d="M17,34.85l-.15,0a.1.1,0,0,0-.06.1.09.09,0,0,0,.1.06L17,35l0,0a.06.06,0,0,0,0-.07A.1.1,0,0,0,17,34.85Z" transform="translate(0.06 -0.87)" fill="#ee2b4f"/>
      <path d="M17.86,34.61h0a.88.88,0,0,0-.15,0,.07.07,0,0,0-.05.09.08.08,0,0,0,.09.06l.15-.05,0,0a.08.08,0,0,0,0-.09S17.9,34.59,17.86,34.61Z" transform="translate(0.06 -0.87)" fill="#ee2b4f"/>
      <path d="M15.58,32s0,0,0-.06a.07.07,0,0,0-.07-.08h-.16c-.05,0-.08,0-.07.08s0,.08.07.07h.2Z" transform="translate(0.06 -0.87)" fill="#b5d334"/>
      <path d="M13.1,31.44a.08.08,0,0,0-.06.14h0l.15.06a.06.06,0,0,0,.08,0s0,0,0,0a.07.07,0,0,0,0-.1Z" transform="translate(0.06 -0.87)" fill="#b5d334"/>
      <path d="M14.14,31.73l-.15,0a.07.07,0,0,0,0,.14.76.76,0,0,0,.16,0l.06,0,0,0A.1.1,0,0,0,14.14,31.73Z" transform="translate(0.06 -0.87)" fill="#b5d334"/>
      <path d="M12.85,31.42s0-.08,0-.11l-.14-.07s-.08,0-.11,0a.08.08,0,0,0,0,.1l.14.08a.11.11,0,0,0,.08,0A.07.07,0,0,0,12.85,31.42Z" transform="translate(0.06 -0.87)" fill="#b5d334"/>
      <path d="M16,35l-.15,0a.07.07,0,0,0-.07.08.08.08,0,0,0,.09.07l.15,0,0,0a.06.06,0,0,0,0-.07C16.12,35.05,16.08,35,16,35Z" transform="translate(0.06 -0.87)" fill="#ee2b4f"/>
      <path d="M16.49,35l-.15,0c-.05,0-.08,0-.06.08a.07.07,0,0,0,.08.07l.16,0,0,0a.08.08,0,0,0,0-.07A.1.1,0,0,0,16.49,35Z" transform="translate(0.06 -0.87)" fill="#ee2b4f"/>
      <path d="M12.68,30.7c.05,0,.1,0,.16-.06l0,0a.08.08,0,0,0,0-.09.08.08,0,0,0-.1-.05.53.53,0,0,1-.15.05.09.09,0,0,0,0,.11A.08.08,0,0,0,12.68,30.7Z" transform="translate(0.06 -0.87)" fill="#ee2b4f"/>
      <path d="M13.71,31.76a.07.07,0,0,0,0,0,.06.06,0,0,0-.05-.09l-.16,0a.07.07,0,0,0-.09,0,.08.08,0,0,0,0,.1l.16,0A0,0,0,0,0,13.71,31.76Z" transform="translate(0.06 -0.87)" fill="#b5d334"/>
      <path d="M20.13,25.77h0a1.42,1.42,0,0,1,.13-.12.07.07,0,0,0,0-.11.07.07,0,0,0-.11,0l-.12.11a.08.08,0,0,0,0,.12A.12.12,0,0,0,20.13,25.77Z" transform="translate(0.06 -0.87)" fill="#ee2b4f"/>
      <path d="M24.09,20.77a.09.09,0,0,0-.12,0l-.09.13a.07.07,0,0,0,0,.1.08.08,0,0,0,.1,0h0l.09-.14S24.12,20.79,24.09,20.77Z" transform="translate(0.06 -0.87)" fill="#ee2b4f"/>
      <path d="M23.83,21.16a.08.08,0,0,0-.1,0h0l-.1.13a.07.07,0,0,0,0,.1s.06,0,.09,0h0l.1-.13A.08.08,0,0,0,23.83,21.16Z" transform="translate(0.06 -0.87)" fill="#ee2b4f"/>
      <path d="M27.75,24.31a.91.91,0,0,1-.08.13.08.08,0,0,0,0,.11.07.07,0,0,0,.09,0l0,0,.08-.13a.11.11,0,0,0,0-.12A.08.08,0,0,0,27.75,24.31Z" transform="translate(0.06 -0.87)" fill="#b5d334"/>
      <path d="M27.29,25.32h0a.67.67,0,0,0,.09-.14.08.08,0,0,0,0-.11.08.08,0,0,0-.12,0,1.25,1.25,0,0,1-.09.12.09.09,0,0,0,0,.11s.06,0,.1,0S27.29,25.32,27.29,25.32Z" transform="translate(0.06 -0.87)" fill="#b5d334"/>
      <path d="M27.56,24.92h0a1.48,1.48,0,0,1,.08-.13.1.1,0,0,0,0-.12.09.09,0,0,0-.11,0,.66.66,0,0,0-.08.13.08.08,0,0,0,0,.11.08.08,0,0,0,.1,0Z" transform="translate(0.06 -0.87)" fill="#b5d334"/>
      <path d="M28.8,26.3c0,.05,0,.08-.07.14a.08.08,0,0,0,0,.1.06.06,0,0,0,.09,0s0,0,0,0l.08-.14a.09.09,0,0,0,0-.11A.08.08,0,0,0,28.8,26.3Z" transform="translate(0.06 -0.87)" fill="#ee2b4f"/>
      <path d="M29,25.87h0c0,.05,0,.1-.07.14a.08.08,0,0,0,0,.11.11.11,0,0,0,.08,0,.05.05,0,0,0,0,0,.61.61,0,0,1,.07-.14.09.09,0,0,0,0-.1S29,25.84,29,25.87Z" transform="translate(0.06 -0.87)" fill="#ee2b4f"/>
      <path d="M24.35,20.37a.09.09,0,0,0-.11,0h0a.35.35,0,0,0-.08.13.08.08,0,0,0,0,.11.08.08,0,0,0,.1,0l0,0,.09-.14A.09.09,0,0,0,24.35,20.37Z" transform="translate(0.06 -0.87)" fill="#ee2b4f"/>
      <path d="M28.58,26.71a.91.91,0,0,1-.08.13.09.09,0,0,0,0,.11.1.1,0,0,0,.09,0l0,0a.66.66,0,0,0,.08-.13.07.07,0,0,0,0-.11A.08.08,0,0,0,28.58,26.71Z" transform="translate(0.06 -0.87)" fill="#ee2b4f"/>
      <path d="M27.83,27.89l-.1.13s0,.08,0,.1.06,0,.09,0l0,0L28,28a.07.07,0,0,0,0-.1A.07.07,0,0,0,27.83,27.89Z" transform="translate(0.06 -0.87)" fill="#ee2b4f"/>
      <path d="M26.74,26.09l.09-.13a.08.08,0,0,0,0-.11.09.09,0,0,0-.11,0l-.09.13a.07.07,0,0,0,0,.1.08.08,0,0,0,.11,0S26.74,26.09,26.74,26.09Z" transform="translate(0.06 -0.87)" fill="#b5d334"/>
      <path d="M28.36,27.11c0,.05-.05.09-.08.13s0,.08,0,.12a.12.12,0,0,0,.1,0l0,0a.83.83,0,0,0,.07-.13.08.08,0,0,0,0-.11S28.37,27.07,28.36,27.11Z" transform="translate(0.06 -0.87)" fill="#ee2b4f"/>
      <path d="M22.28,30s0-.06,0-.1-.07,0-.11,0l-.14.08s0,.07,0,.11a.08.08,0,0,0,.11,0,.4.4,0,0,0,.15-.09Z" transform="translate(0.06 -0.87)" fill="#b5d334"/>
      <path d="M23.28,21.93a.08.08,0,0,0-.11,0l-.09.13a.07.07,0,0,0,0,.1.08.08,0,0,0,.1,0h0L23.3,22A.08.08,0,0,0,23.28,21.93Z" transform="translate(0.06 -0.87)" fill="#ee2b4f"/>
      <path d="M27,25.71l.1-.13a.09.09,0,0,0,0-.11.08.08,0,0,0-.1,0l-.1.13s0,.08,0,.1a.08.08,0,0,0,.1,0Z" transform="translate(0.06 -0.87)" fill="#b5d334"/>
      <path d="M23.56,21.55s-.08,0-.1,0l-.1.13a.07.07,0,0,0,.11.09h0l.1-.13A.1.1,0,0,0,23.56,21.55Z" transform="translate(0.06 -0.87)" fill="#ee2b4f"/>
      <path d="M28.1,27.5h0l-.08.13a.09.09,0,0,0,0,.12.08.08,0,0,0,.09,0l0,0a.48.48,0,0,0,.09-.14.08.08,0,0,0,0-.11A.12.12,0,0,0,28.1,27.5Z" transform="translate(0.06 -0.87)" fill="#ee2b4f"/>
      <path d="M29.09,21.73a.07.07,0,0,0-.09.05l-.06.14a.08.08,0,0,0,0,.1.08.08,0,0,0,.07,0l0,0s0-.1.05-.14S29.12,21.74,29.09,21.73Z" transform="translate(0.06 -0.87)" fill="#b5d334"/>
      <path d="M28.92,22.18a.07.07,0,0,0-.1,0l-.06.15a.07.07,0,0,0,0,.1.08.08,0,0,0,.08,0,.05.05,0,0,0,0,0c0-.05,0-.09.06-.15A.06.06,0,0,0,28.92,22.18Z" transform="translate(0.06 -0.87)" fill="#b5d334"/>
      <path d="M29.8,23.19h0s0,.1,0,.15a.06.06,0,0,0,0,.09.07.07,0,0,0,.07,0s0,0,0,0l0-.16a.08.08,0,0,0-.07-.08S29.82,23.14,29.8,23.19Z" transform="translate(0.06 -0.87)" fill="#ee2b4f"/>
      <path d="M23,22.31s-.09,0-.11,0l-.1.13a.08.08,0,0,0,0,.1s.07,0,.1,0h0l.1-.13A.08.08,0,0,0,23,22.31Z" transform="translate(0.06 -0.87)" fill="#ee2b4f"/>
      <path d="M29.72,23.64a.76.76,0,0,0,0,.16.07.07,0,0,0,.06.09l.06,0,0,0c0-.06,0-.1,0-.16a.07.07,0,0,0-.05-.09A.1.1,0,0,0,29.72,23.64Z" transform="translate(0.06 -0.87)" fill="#ee2b4f"/>
      <path d="M28.73,22.61s-.08,0-.11,0a.37.37,0,0,1-.07.14.08.08,0,0,0,0,.1,0,0,0,0,0,.07,0l0,0h0a.31.31,0,0,1,.07-.14C28.79,22.66,28.77,22.62,28.73,22.61Z" transform="translate(0.06 -0.87)" fill="#b5d334"/>
      <path d="M29.9,21.83s0,.07,0,.12A.06.06,0,0,0,30,22L30,22a.11.11,0,0,0,0-.06v-.12A.3.3,0,0,1,29.9,21.83Z" transform="translate(0.06 -0.87)" fill="#ee2b4f"/>
      <path d="M24.61,20a.09.09,0,0,0-.12,0,.57.57,0,0,0-.08.13.09.09,0,0,0,0,.11s.06,0,.09,0h0a1.17,1.17,0,0,0,.08-.13A.11.11,0,0,0,24.61,20Z" transform="translate(0.06 -0.87)" fill="#ee2b4f"/>
      <path d="M29.86,22.72v.15a.08.08,0,0,0,.07.09H30a.07.07,0,0,0,0-.06l0-.16a.08.08,0,0,0-.07-.08S29.86,22.69,29.86,22.72Z" transform="translate(0.06 -0.87)" fill="#ee2b4f"/>
      <path d="M29.89,22.26a.45.45,0,0,1,0,.16s0,.08.07.08H30a.07.07,0,0,0,0-.06.81.81,0,0,0,0-.15c0-.05,0-.08-.08-.08S29.9,22.21,29.89,22.26Z" transform="translate(0.06 -0.87)" fill="#ee2b4f"/>
      <path d="M28,23.9l-.08.13a.07.07,0,0,0,0,.1.07.07,0,0,0,.09,0l0,0,.08-.13a.08.08,0,0,0,0-.11C28.05,23.85,28,23.86,28,23.9Z" transform="translate(0.06 -0.87)" fill="#b5d334"/>
      <path d="M29.62,24.11a1.13,1.13,0,0,1,0,.15.06.06,0,0,0,.05.09.06.06,0,0,0,.07,0l0,0c0-.05,0-.11.05-.16a.08.08,0,0,0-.06-.09A.1.1,0,0,0,29.62,24.11Z" transform="translate(0.06 -0.87)" fill="#ee2b4f"/>
      <path d="M29.35,25s0,.1-.05.14a.07.07,0,0,0,0,.1.11.11,0,0,0,.08,0,.05.05,0,0,0,0,0s0-.09,0-.14a.07.07,0,0,0,0-.1C29.4,24.94,29.36,25,29.35,25Z" transform="translate(0.06 -0.87)" fill="#ee2b4f"/>
      <path d="M29.18,25.44h0s0,.09-.05.14a.08.08,0,0,0,.05.1.09.09,0,0,0,.07,0,.05.05,0,0,0,0,0c0-.05,0-.1.07-.15a.07.07,0,0,0-.05-.1A.14.14,0,0,0,29.18,25.44Z" transform="translate(0.06 -0.87)" fill="#ee2b4f"/>
      <path d="M28.42,23.06l-.07.14a.08.08,0,0,0,0,.11.11.11,0,0,0,.08,0s0,0,0,0a.91.91,0,0,0,.07-.14s0-.08,0-.11A.08.08,0,0,0,28.42,23.06Z" transform="translate(0.06 -0.87)" fill="#b5d334"/>
      <path d="M29.49,24.55a.66.66,0,0,0,0,.15c0,.05,0,.1,0,.1a.08.08,0,0,0,.08,0,.05.05,0,0,0,0,0s0-.1,0-.15,0-.08,0-.1A.08.08,0,0,0,29.49,24.55Z" transform="translate(0.06 -0.87)" fill="#ee2b4f"/>
      <path d="M28.21,23.48c0,.06-.05.09-.07.15a.08.08,0,0,0,0,.1.08.08,0,0,0,.09,0h0c0-.06.05-.09.07-.14a.08.08,0,0,0,0-.11A.08.08,0,0,0,28.21,23.48Z" transform="translate(0.06 -0.87)" fill="#b5d334"/>
      <path d="M26.45,26.45l.09-.12a.11.11,0,0,0,0-.12.11.11,0,0,0-.11,0l-.1.13a.09.09,0,0,0,0,.11.08.08,0,0,0,.1,0Z" transform="translate(0.06 -0.87)" fill="#b5d334"/>
      <path d="M20.91,24.86a.08.08,0,0,0-.12,0,1.27,1.27,0,0,1-.1.12.07.07,0,0,0,0,.11.07.07,0,0,0,.1,0h0a1.27,1.27,0,0,1,.1-.12A.11.11,0,0,0,20.91,24.86Z" transform="translate(0.06 -0.87)" fill="#ee2b4f"/>
      <path d="M24.15,28.75l.07-.06a.08.08,0,0,0,0-.11.08.08,0,0,0-.11,0l-.12.1a.09.09,0,0,0,0,.11.09.09,0,0,0,.11,0Z" transform="translate(0.06 -0.87)" fill="#b5d334"/>
      <path d="M25.25,30.58h0l-.12.1a.08.08,0,1,0,.1.12l.12-.1a.09.09,0,0,0,0-.11A.09.09,0,0,0,25.25,30.58Z" transform="translate(0.06 -0.87)" fill="#ee2b4f"/>
      <path d="M23.85,29h0a.08.08,0,0,0,0-.11.09.09,0,0,0-.11,0l-.12.1s-.05.07,0,.11a.07.07,0,0,0,.11,0h0Z" transform="translate(0.06 -0.87)" fill="#b5d334"/>
      <path d="M25.6,30.29l-.12.1a.09.09,0,0,0,0,.11.08.08,0,0,0,.11,0h0l.12-.09a.08.08,0,0,0,0-.11S25.64,30.26,25.6,30.29Z" transform="translate(0.06 -0.87)" fill="#ee2b4f"/>
      <path d="M21.21,24.51a.09.09,0,0,0-.11,0,.63.63,0,0,1-.11.12s0,.09,0,.11a.07.07,0,0,0,.1,0h0l.11-.12A.07.07,0,0,0,21.21,24.51Z" transform="translate(0.06 -0.87)" fill="#ee2b4f"/>
      <path d="M23.48,29.26a.08.08,0,0,0,0-.11.08.08,0,0,0-.11,0l-.13.09a.07.07,0,0,0,0,.11s.06,0,.11,0l.13-.09Z" transform="translate(0.06 -0.87)" fill="#b5d334"/>
      <path d="M24.87,30.87l-.12.09a.08.08,0,0,0,0,.11.07.07,0,0,0,.11,0L25,31h0a.08.08,0,0,0,0-.11S24.91,30.85,24.87,30.87Z" transform="translate(0.06 -0.87)" fill="#ee2b4f"/>
      <path d="M19.57,26.19a.08.08,0,0,0-.11,0,.6.6,0,0,0-.12.11.09.09,0,0,0,0,.11.09.09,0,0,0,.11,0h0l.12-.11A.07.07,0,0,0,19.57,26.19Z" transform="translate(0.06 -0.87)" fill="#ee2b4f"/>
      <path d="M24.11,31.42,24,31.5a.11.11,0,0,0,0,.11.09.09,0,0,0,.11,0,1,1,0,0,0,.13-.09h0a.08.08,0,0,0,0-.1A.07.07,0,0,0,24.11,31.42Z" transform="translate(0.06 -0.87)" fill="#ee2b4f"/>
      <path d="M23.71,31.67l-.13.09a.11.11,0,0,0,0,.11.11.11,0,0,0,.11,0l.13-.09h0a.08.08,0,0,0,0-.1S23.76,31.65,23.71,31.67Z" transform="translate(0.06 -0.87)" fill="#ee2b4f"/>
      <path d="M22.69,29.78a.08.08,0,0,0,0-.1.11.11,0,0,0-.11,0l-.14.08a.08.08,0,1,0,.08.14h0l.15-.09Z" transform="translate(0.06 -0.87)" fill="#b5d334"/>
      <path d="M23.08,29.53h0a.09.09,0,0,0,0-.11.11.11,0,0,0-.11,0,1,1,0,0,1-.13.09.09.09,0,0,0,0,.11.09.09,0,0,0,.11,0h0Z" transform="translate(0.06 -0.87)" fill="#b5d334"/>
      <path d="M24.46,28.48l.12-.1a.08.08,0,0,0,0-.11.09.09,0,0,0-.11,0l-.12.1a.08.08,0,0,0,0,.11.07.07,0,0,0,.11,0Z" transform="translate(0.06 -0.87)" fill="#b5d334"/>
      <path d="M24.5,31.15a.6.6,0,0,1-.13.09.08.08,0,1,0,.1.12,1,1,0,0,0,.13-.09h0a.08.08,0,0,0,0-.11A.09.09,0,0,0,24.5,31.15Z" transform="translate(0.06 -0.87)" fill="#ee2b4f"/>
      <path d="M21.83,23.79a.1.1,0,0,0-.12,0l-.1.12a.09.09,0,0,0,0,.11.08.08,0,0,0,.1,0h0l.1-.12A.07.07,0,0,0,21.83,23.79Z" transform="translate(0.06 -0.87)" fill="#ee2b4f"/>
      <path d="M25.82,27.18h0l.11-.12a.09.09,0,0,0,0-.11.08.08,0,0,0-.11,0,.63.63,0,0,1-.11.12.08.08,0,0,0,0,.11.09.09,0,0,0,.11,0Z" transform="translate(0.06 -0.87)" fill="#b5d334"/>
      <path d="M26,30a.38.38,0,0,0-.11.11.08.08,0,0,0,0,.11.09.09,0,0,0,.11,0h0l.11-.11a.08.08,0,0,0,0-.11A.07.07,0,0,0,26,30Z" transform="translate(0.06 -0.87)" fill="#ee2b4f"/>
      <path d="M22.42,23.06a.09.09,0,0,0-.11,0h0l-.09.13a.09.09,0,0,0,0,.11.08.08,0,0,0,.1,0h0l.1-.13A.06.06,0,0,0,22.42,23.06Z" transform="translate(0.06 -0.87)" fill="#ee2b4f"/>
      <path d="M25.49,27.51h0a1.14,1.14,0,0,1,.11-.11.08.08,0,0,0,0-.12.07.07,0,0,0-.11,0l-.12.11a.07.07,0,0,0,0,.11.09.09,0,0,0,.12,0Z" transform="translate(0.06 -0.87)" fill="#b5d334"/>
      <path d="M22.71,22.69a.07.07,0,0,0-.1,0l-.1.12a.09.09,0,0,0,0,.11.09.09,0,0,0,.1,0h0l.1-.13A.08.08,0,0,0,22.71,22.69Z" transform="translate(0.06 -0.87)" fill="#ee2b4f"/>
      <path d="M26.14,26.82h0a1.27,1.27,0,0,0,.1-.12.07.07,0,1,0-.11-.1.63.63,0,0,0-.11.12.08.08,0,0,0,.11.11Z" transform="translate(0.06 -0.87)" fill="#b5d334"/>
      <path d="M22.13,23.43a.09.09,0,0,0-.11,0,.4.4,0,0,1-.1.12.09.09,0,0,0,0,.11.08.08,0,0,0,.11,0h0a.4.4,0,0,1,.1-.12A.08.08,0,0,0,22.13,23.43Z" transform="translate(0.06 -0.87)" fill="#ee2b4f"/>
      <path d="M27.27,28.63h0a1.31,1.31,0,0,1-.11.12.09.09,0,0,0,0,.11.08.08,0,0,0,.1,0h0a1.27,1.27,0,0,1,.1-.12.11.11,0,0,0,0-.12C27.33,28.59,27.29,28.6,27.27,28.63Z" transform="translate(0.06 -0.87)" fill="#ee2b4f"/>
      <path d="M27,29h0l-.11.12s0,.09,0,.11a.08.08,0,0,0,.1,0h0a.63.63,0,0,0,.11-.12s0-.09,0-.11A.07.07,0,0,0,27,29Z" transform="translate(0.06 -0.87)" fill="#ee2b4f"/>
      <path d="M24.82,28.18l.11-.11a.08.08,0,0,0,0-.11.08.08,0,0,0-.11,0l-.11.1a.08.08,0,0,0,.1.13Z" transform="translate(0.06 -0.87)" fill="#b5d334"/>
      <path d="M26.3,29.66l-.11.11a.08.08,0,0,0,0,.12.08.08,0,0,0,.11,0h0a1.14,1.14,0,0,0,.11-.11.07.07,0,0,0,0-.11A.06.06,0,0,0,26.3,29.66Z" transform="translate(0.06 -0.87)" fill="#ee2b4f"/>
      <path d="M21.53,24.15a.09.09,0,0,0-.11,0,.63.63,0,0,0-.11.12.09.09,0,0,0,0,.11s.07,0,.1,0h0l.11-.12A.11.11,0,0,0,21.53,24.15Z" transform="translate(0.06 -0.87)" fill="#ee2b4f"/>
      <path d="M26.64,29.33h0a1.27,1.27,0,0,0-.12.1.08.08,0,0,0,0,.12s.07,0,.1,0h0s.07-.08.11-.11a.07.07,0,0,0,0-.11S26.66,29.29,26.64,29.33Z" transform="translate(0.06 -0.87)" fill="#ee2b4f"/>
      <path d="M25.16,27.85l.11-.11a.08.08,0,0,0-.12-.1l-.11.1a.08.08,0,0,0,0,.12.11.11,0,0,0,.11,0Z" transform="translate(0.06 -0.87)" fill="#b5d334"/>
      <path d="M27.56,28.26l-.1.13a.09.09,0,0,0,0,.11.08.08,0,0,0,.1,0h0l.09-.13a.08.08,0,0,0,0-.11S27.58,28.23,27.56,28.26Z" transform="translate(0.06 -0.87)" fill="#ee2b4f"/>
    </g>
    <g>
      <path d="M22.56,22.79a.09.09,0,0,1,0-.11h0l.12-.1h0a.09.09,0,0,1,.11,0h0a.09.09,0,0,1,0,.11h0l-.13.09h0a.08.08,0,0,1-.11,0Z" transform="translate(0.06 -0.87)" fill="#42c4de"/>
      <path d="M22.43,23l-.12.1h0a.08.08,0,0,1-.11,0h0a.08.08,0,0,1,0-.11h0l.12-.1h0a.09.09,0,0,1,.11,0h0a.08.08,0,0,1,0,.11Z" transform="translate(0.06 -0.87)" fill="#42c4de"/>
      <path d="M22.92,22.49a.09.09,0,0,1,0-.11h0l.12-.1h0a.09.09,0,0,1,.12,0h0a.09.09,0,0,1,0,.11h0l-.12.1h0a.08.08,0,0,1-.11,0Z" transform="translate(0.06 -0.87)" fill="#42c4de"/>
      <path d="M22.06,23.29l-.13.1h0a.09.09,0,0,1-.11,0h0a.09.09,0,0,1,0-.11h0l.12-.09h0a.08.08,0,0,1,.11,0h0a.08.08,0,0,1,0,.11Z" transform="translate(0.06 -0.87)" fill="#42c4de"/>
      <path d="M21.69,23.58l-.12.1h0a.08.08,0,0,1-.11,0h0a.08.08,0,0,1,0-.11h0l.12-.1h0a.09.09,0,0,1,.11,0h0a.08.08,0,0,1,0,.11Z" transform="translate(0.06 -0.87)" fill="#42c4de"/>
      <path d="M23.29,22.19a.08.08,0,0,1,0-.11h0l.12-.1h0a.08.08,0,0,1,.11,0h0a.08.08,0,0,1,0,.11h0l-.12.09h0a.08.08,0,0,1-.11,0Z" transform="translate(0.06 -0.87)" fill="#42c4de"/>
      <path d="M21.32,23.87l-.12.1h0s-.09,0-.11,0h0a.09.09,0,0,1,0-.12h0l.12-.09h0a.08.08,0,0,1,.11,0h0a.09.09,0,0,1,0,.11Z" transform="translate(0.06 -0.87)" fill="#42c4de"/>
      <path d="M23.64,21.89a.08.08,0,0,1,0-.11h0l.11-.11h0a.07.07,0,0,1,.11,0h0a.08.08,0,0,1,0,.11h0l-.12.11h0a.14.14,0,0,1-.11,0Z" transform="translate(0.06 -0.87)" fill="#42c4de"/>
      <path d="M20.94,24.14l-.13.1h0a.08.08,0,0,1-.11,0h0a.09.09,0,0,1,0-.11h0l.13-.1h0A.09.09,0,0,1,21,24h0a.08.08,0,0,1,0,.11Z" transform="translate(0.06 -0.87)" fill="#42c4de"/>
      <path d="M24,21.57a.07.07,0,0,1,0-.11h0l.11-.11h0a.08.08,0,0,1,.11,0h0a.08.08,0,0,1,0,.11h0l-.12.11h0a.11.11,0,0,1-.11,0Z" transform="translate(0.06 -0.87)" fill="#42c4de"/>
      <path d="M20.56,24.43l-.13.09h0a.09.09,0,0,1-.11,0h0a.09.09,0,0,1,0-.11h0a.38.38,0,0,1,.13-.09h0a.08.08,0,0,1,.11,0h0a.08.08,0,0,1,0,.11Z" transform="translate(0.06 -0.87)" fill="#42c4de"/>
      <path d="M24.33,21.24a.08.08,0,0,1,0-.11h0l.11-.1h0a.09.09,0,0,1,.11,0h0a.09.09,0,0,1,0,.11h0s-.07.08-.11.11h0c-.06,0-.09,0-.14,0Z" transform="translate(0.06 -0.87)" fill="#42c4de"/>
      <path d="M20.17,24.71a1,1,0,0,1-.13.09h0a.08.08,0,0,1-.11,0h0a.08.08,0,0,1,0-.11h0l.13-.09h0a.09.09,0,0,1,.11,0h0s0,.08,0,.11Z" transform="translate(0.06 -0.87)" fill="#42c4de"/>
      <path d="M24.68,20.92a.09.09,0,0,1,0-.11h0a1.14,1.14,0,0,1,.11-.11h0a.09.09,0,0,1,.11,0h0a.09.09,0,0,1,0,.11h0l-.11.11h0s-.07,0-.1,0Z" transform="translate(0.06 -0.87)" fill="#42c4de"/>
      <path d="M19.78,25a1,1,0,0,0-.13.09h0a.08.08,0,0,1-.11,0h0a.07.07,0,0,1,0-.11h0a1,1,0,0,1,.13-.09h0a.07.07,0,0,1,.11,0h0s0,.07,0,.11Z" transform="translate(0.06 -0.87)" fill="#42c4de"/>
      <path d="M19.38,25.23a.39.39,0,0,1-.14.08h0s-.08,0-.11,0h0a.08.08,0,0,1,0-.11h0l.14-.08h0a.08.08,0,0,1,.11,0h0s0,.08,0,.11Z" transform="translate(0.06 -0.87)" fill="#42c4de"/>
      <path d="M25,20.58a.09.09,0,0,1,0-.11h0l.11-.12h0a.11.11,0,0,1,.11,0h0a.13.13,0,0,1,0,.12h0a.63.63,0,0,0-.11.12h0s-.07,0-.1,0Z" transform="translate(0.06 -0.87)" fill="#42c4de"/>
      <path d="M19,25.48a.57.57,0,0,0-.13.08h0s-.1,0-.11,0h0s0-.1,0-.11h0l.14-.08h0a.06.06,0,0,1,.1,0h0s0,.07,0,.11Z" transform="translate(0.06 -0.87)" fill="#42c4de"/>
      <path d="M25.33,20.24a.09.09,0,0,1,0-.12h0l.1-.11h0s.08,0,.11,0h0s0,.08,0,.11h0l-.11.12h0a.08.08,0,0,1-.1,0Z" transform="translate(0.06 -0.87)" fill="#42c4de"/>
      <path d="M18.57,25.7l-.14.08h0a.09.09,0,0,1-.11,0h0a.11.11,0,0,1,0-.11h0l.14-.07h0a.08.08,0,0,1,.11,0h0a.1.1,0,0,1,0,.1h0Z" transform="translate(0.06 -0.87)" fill="#42c4de"/>
      <path d="M25.64,19.89s0-.07,0-.11h0l.1-.13h0a.07.07,0,0,1,.1,0h0a.07.07,0,0,1,0,.1h0l-.1.13h0a.07.07,0,0,1-.1,0Z" transform="translate(0.06 -0.87)" fill="#42c4de"/>
      <path d="M18.15,25.93,18,26h0a.11.11,0,0,1-.11,0h0a.11.11,0,0,1,0-.11h0l.14-.08h0a.09.09,0,0,1,.11,0h0a.09.09,0,0,1,0,.1h0a0,0,0,0,1,0,0Z" transform="translate(0.06 -0.87)" fill="#42c4de"/>
      <path d="M25.93,19.52s-.05-.08,0-.1h0c0-.05.07-.09.09-.13h0a.09.09,0,0,1,.11,0h0a.08.08,0,0,1,0,.11h0l-.1.13h0l0,0h-.09Z" transform="translate(0.06 -0.87)" fill="#42c4de"/>
      <path d="M17.72,26.13l-.14.07h0a.07.07,0,0,1-.1,0h0a.07.07,0,0,1,0-.09h0l.14-.07h0a.07.07,0,0,1,.1,0h0a.08.08,0,0,1,0,.1h0Z" transform="translate(0.06 -0.87)" fill="#42c4de"/>
      <path d="M26.19,19.12a.09.09,0,0,1,0-.11h0l.08-.13h0a.08.08,0,0,1,.1,0h0a.08.08,0,0,1,0,.1h0a1,1,0,0,0-.07.15h0a.09.09,0,0,1-.1,0Z" transform="translate(0.06 -0.87)" fill="#42c4de"/>
      <path d="M17.29,26.34l-.15.07h0a.08.08,0,0,1-.1,0h0s0-.09,0-.1h0l.15-.07h0a.07.07,0,0,1,.09,0h0a.06.06,0,0,1,0,.09h0Z" transform="translate(0.06 -0.87)" fill="#42c4de"/>
      <path d="M16.86,26.52l-.16.05h0a.07.07,0,0,1-.1,0h0a.08.08,0,0,1,0-.11h0a.34.34,0,0,1,.14-.05h0a.07.07,0,0,1,.1,0h0a.08.08,0,0,1,0,.09h0a0,0,0,0,1,0,0Z" transform="translate(0.06 -0.87)" fill="#42c4de"/>
      <path d="M26.41,18.7c-.05,0-.07-.07-.05-.1h0a.43.43,0,0,0,0-.14h0s.05-.07.09-.05h0a.07.07,0,0,1,.06.09h0a1.31,1.31,0,0,1-.05.15h0a.05.05,0,0,1,0,0h0a.09.09,0,0,1-.07,0Z" transform="translate(0.06 -0.87)" fill="#42c4de"/>
      <path d="M16.41,26.69l-.14,0h0a.09.09,0,0,1-.11,0h0a.08.08,0,0,1,.05-.1h0a.6.6,0,0,1,.14-.05h0a.08.08,0,0,1,.11,0h0a.08.08,0,0,1,0,.09h0l0,0Z" transform="translate(0.06 -0.87)" fill="#42c4de"/>
      <path d="M16,26.85l-.15,0h0s-.09,0-.09-.06h0a.06.06,0,0,1,0-.09h0a.88.88,0,0,1,.15-.05h0a.06.06,0,0,1,.09.05h0a.08.08,0,0,1,0,.09h0Z" transform="translate(0.06 -0.87)" fill="#42c4de"/>
      <path d="M15.51,27l-.15,0h0a.07.07,0,0,1-.1-.05h0s0-.08.06-.1h0l.15,0h0a.07.07,0,0,1,.09.06h0a.08.08,0,0,1,0,.09h0Z" transform="translate(0.06 -0.87)" fill="#42c4de"/>
      <path d="M15.06,27.11l-.15,0h0a.07.07,0,0,1-.1,0h0s0-.08.06-.1h0L15,27h0a.08.08,0,0,1,.09.06h0a.08.08,0,0,1,0,.08h0Z" transform="translate(0.06 -0.87)" fill="#42c4de"/>
      <path d="M14.59,27.22l-.15,0h0a.09.09,0,0,1-.1-.05h0a.09.09,0,0,1,.06-.1h0l.15,0h0a.1.1,0,0,1,.1.06h0a.11.11,0,0,1,0,.07h0s0,0,0,0Z" transform="translate(0.06 -0.87)" fill="#42c4de"/>
      <path d="M14.13,27.31l-.16,0h0a.07.07,0,0,1-.09-.06h0a.08.08,0,0,1,.06-.09h0l.16,0h0s.08,0,.08.06h0a.08.08,0,0,1,0,.08h0Z" transform="translate(0.06 -0.87)" fill="#42c4de"/>
      <path d="M13.66,27.4a.39.39,0,0,1-.15,0h0s-.08,0-.08-.06h0a.07.07,0,0,1,.06-.09h0l.15,0h0a.08.08,0,0,1,.09.07h0a.09.09,0,0,1,0,.07h0Z" transform="translate(0.06 -0.87)" fill="#42c4de"/>
      <path d="M13.19,27.46l-.16,0h0s-.09,0-.08-.07h0a.07.07,0,0,1,.06-.09h.16a.08.08,0,0,1,.09.07h0a.09.09,0,0,1,0,.07h0Z" transform="translate(0.06 -0.87)" fill="#42c4de"/>
      <path d="M12.71,27.5h-.15a.08.08,0,0,1-.08-.07h0a.08.08,0,0,1,.07-.08h.16a.08.08,0,0,1,.09.06h0a.08.08,0,0,1,0,.07h0a.07.07,0,0,1-.06,0Z" transform="translate(0.06 -0.87)" fill="#42c4de"/>
      <path d="M18.36,22.81a.09.09,0,0,1,0-.11h0l.12-.1h0a.08.08,0,0,1,.11,0h0a.09.09,0,0,1,0,.11h0l-.13.09h0a.08.08,0,0,1-.11,0Z" transform="translate(0.06 -0.87)" fill="#795194"/>
      <path d="M18.23,23l-.12.1h0a.09.09,0,0,1-.11,0h0A.08.08,0,0,1,18,23h0l.12-.1h0a.08.08,0,0,1,.11,0h0a.08.08,0,0,1,0,.11Z" transform="translate(0.06 -0.87)" fill="#795194"/>
      <path d="M18.72,22.51a.08.08,0,0,1,0-.11h0a1.31,1.31,0,0,0,.12-.11h0s.07,0,.11,0h0a.08.08,0,0,1,0,.11h0l-.13.1h0a.07.07,0,0,1-.1,0Z" transform="translate(0.06 -0.87)" fill="#795194"/>
      <path d="M17.85,23.3a.57.57,0,0,1-.13.08h0a.08.08,0,0,1-.11,0h0a.08.08,0,0,1,0-.11h0l.13-.09h0a.09.09,0,0,1,.11,0h0a.08.08,0,0,1,0,.11Z" transform="translate(0.06 -0.87)" fill="#795194"/>
      <path d="M19.07,22.19a.08.08,0,0,1,0-.11h0L19.2,22h0a.08.08,0,0,1,.11,0h0a.08.08,0,0,1,0,.11h0l-.12.11h0s-.07,0-.11,0Z" transform="translate(0.06 -0.87)" fill="#795194"/>
      <path d="M17.47,23.57l-.13.09h0a.09.09,0,0,1-.11,0h0a.08.08,0,0,1,0-.11h0l.13-.09h0a.09.09,0,0,1,.11,0h0a.08.08,0,0,1,0,.11Z" transform="translate(0.06 -0.87)" fill="#795194"/>
      <path d="M19.42,21.88a.13.13,0,0,1,0-.12h0l.12-.11h0a.11.11,0,0,1,.11,0h0a.11.11,0,0,1,0,.11h0l-.12.11h0a.09.09,0,0,1-.1,0Z" transform="translate(0.06 -0.87)" fill="#795194"/>
      <path d="M17.08,23.84l-.13.08h0a.07.07,0,0,1-.11,0h0a.06.06,0,0,1,0-.1h0A1,1,0,0,1,17,23.7h0s.08,0,.11,0h0a.11.11,0,0,1,0,.11Z" transform="translate(0.06 -0.87)" fill="#795194"/>
      <path d="M19.75,21.54a.09.09,0,0,1,0-.11h0a1.27,1.27,0,0,1,.1-.12h0a.09.09,0,0,1,.11,0h0a.09.09,0,0,1,0,.11h0a1.27,1.27,0,0,1-.1.12h0a.09.09,0,0,1-.11,0Z" transform="translate(0.06 -0.87)" fill="#795194"/>
      <path d="M16.69,24.1l-.13.09h0a.07.07,0,0,1-.11,0h0a.07.07,0,0,1,0-.11h0a1,1,0,0,0,.13-.09h0a.08.08,0,0,1,.11,0h0s0,.09,0,.11Z" transform="translate(0.06 -0.87)" fill="#795194"/>
      <path d="M16.28,24.35l-.14.07h0s-.08,0-.11,0h0a.06.06,0,0,1,0-.1h0l.14-.08h0a.07.07,0,0,1,.11,0h0s0,.09,0,.11Z" transform="translate(0.06 -0.87)" fill="#795194"/>
      <path d="M20.08,21.19s0-.07,0-.11h0l.11-.12h0s.07,0,.11,0h0a.1.1,0,0,1,0,.12h0a.63.63,0,0,0-.11.12h0a.07.07,0,0,1-.1,0Z" transform="translate(0.06 -0.87)" fill="#795194"/>
      <path d="M12.25,27.52h-.16a.07.07,0,0,1-.08-.07h0a.08.08,0,0,1,.08-.08h0a.39.39,0,0,0,.15,0h0a.08.08,0,0,1,.08.08h0s0,0,0,.06h0Z" transform="translate(0.06 -0.87)" fill="#42c4de"/>
      <path d="M15.88,24.6l-.14.08h0a.08.08,0,0,1-.11,0h0a.09.09,0,0,1,0-.11h0l.13-.08h0s.1,0,.11,0h0a.08.08,0,0,1,0,.11Z" transform="translate(0.06 -0.87)" fill="#795194"/>
      <path d="M20.38,20.83s0-.06,0-.11h0l.1-.12h0a.08.08,0,0,1,.12,0h0a.07.07,0,0,1,0,.11h0l-.1.12h0a.08.08,0,0,1-.1,0Z" transform="translate(0.06 -0.87)" fill="#795194"/>
      <path d="M15.47,24.84l-.14.07h0a.09.09,0,0,1-.11,0h0a.1.1,0,0,1,0-.1h0l.14-.08h0a.08.08,0,0,1,.11,0h0a.1.1,0,0,1,0,.11Z" transform="translate(0.06 -0.87)" fill="#795194"/>
      <path d="M20.68,20.47a.07.07,0,0,1,0-.11h0l.09-.13h0a.08.08,0,0,1,.11,0h0a.08.08,0,0,1,0,.1h0l-.1.13h0a.07.07,0,0,1-.11,0Z" transform="translate(0.06 -0.87)" fill="#795194"/>
      <path d="M15.05,25.07l-.14.08h0a.09.09,0,0,1-.1,0h0a.08.08,0,0,1,0-.11h0a1.48,1.48,0,0,1,.13-.08h0a.11.11,0,0,1,.11,0h0a.08.08,0,0,1,0,.1h0Z" transform="translate(0.06 -0.87)" fill="#795194"/>
      <path d="M14.64,25.29a.61.61,0,0,0-.14.07h0a.08.08,0,0,1-.11,0h0a.1.1,0,0,1,0-.1h0l.14-.08h0a.09.09,0,0,1,.11,0h0a.09.09,0,0,1,0,.1h0Z" transform="translate(0.06 -0.87)" fill="#795194"/>
      <path d="M21,20.1s0-.08,0-.1h0l.09-.13h0a.07.07,0,0,1,.11,0h0s.05.08,0,.1h0l-.09.13h0l0,0h0a.09.09,0,0,1-.09,0Z" transform="translate(0.06 -0.87)" fill="#795194"/>
      <path d="M11.77,27.54h-.15a.08.08,0,0,1-.08-.07h0a.08.08,0,0,1,.07-.08h.16a.07.07,0,0,1,.08.07h0s0,.05,0,.06h0l0,0Z" transform="translate(0.06 -0.87)" fill="#42c4de"/>
      <path d="M14.22,25.51l-.15.07h0a.08.08,0,0,1-.1,0h0a.11.11,0,0,1,0-.11h0l.15-.07h0a.11.11,0,0,1,.11,0h0s0,.08,0,.1h0l0,0Z" transform="translate(0.06 -0.87)" fill="#795194"/>
      <path d="M21.25,19.71s-.05-.08,0-.1h0l.09-.12h0a.08.08,0,0,1,.11,0h0a.08.08,0,0,1,0,.11h0a.55.55,0,0,0-.09.14h0l0,0h0a.09.09,0,0,1-.1,0Z" transform="translate(0.06 -0.87)" fill="#795194"/>
      <path d="M13.79,25.72l-.14.07h0s-.09,0-.1,0h0s0-.09,0-.1h0l.14-.07h0s.09,0,.1,0h0a.08.08,0,0,1,0,.1h0Z" transform="translate(0.06 -0.87)" fill="#795194"/>
      <path d="M21.51,19.33a.08.08,0,0,1,0-.11h0s.05-.1.07-.14h0a.11.11,0,0,1,.12,0h0a.08.08,0,0,1,0,.11h0a.74.74,0,0,1-.08.13h0l0,0h0s-.06,0-.09,0Z" transform="translate(0.06 -0.87)" fill="#795194"/>
      <path d="M13.37,25.91l-.15.07h0a.07.07,0,0,1-.1,0h0a.08.08,0,0,1,0-.1h0l.15-.06h0a.06.06,0,0,1,.09,0h0a.05.05,0,0,1,0,.08h0Z" transform="translate(0.06 -0.87)" fill="#795194"/>
      <path d="M11.29,27.52h-.16s-.08,0-.06-.09h0s0-.08.08-.06h.16a.06.06,0,0,1,.07.07h0a.09.09,0,0,1,0,.06h-.06Z" transform="translate(0.06 -0.87)" fill="#42c4de"/>
      <path d="M21.76,18.93a.08.08,0,0,1,0-.12h0l.08-.13h0a.09.09,0,0,1,.11,0h0a.08.08,0,0,1,0,.1h0c0,.05-.05.1-.08.14h0a.07.07,0,0,1-.09,0Z" transform="translate(0.06 -0.87)" fill="#795194"/>
      <path d="M12.93,26.1l-.15.07h0a.09.09,0,0,1-.11-.05h0a.09.09,0,0,1,.05-.11h0l.14-.06h0a.08.08,0,0,1,.1,0h0a.08.08,0,0,1,0,.09h0s0,0,0,0Z" transform="translate(0.06 -0.87)" fill="#795194"/>
      <path d="M12.48,26.27a.48.48,0,0,1-.14.05h0a.08.08,0,0,1-.11,0h0a.09.09,0,0,1,0-.11h0l.14-.05h0a.09.09,0,0,1,.11.05h0a.08.08,0,0,1,0,.09h0Z" transform="translate(0.06 -0.87)" fill="#795194"/>
      <path d="M22,18.52a.08.08,0,0,1,0-.11h0a.61.61,0,0,0,.07-.14h0a.08.08,0,0,1,.11,0h0a.08.08,0,0,1,0,.1h0l-.07.14h0l0,0h0a.07.07,0,0,1-.08,0Z" transform="translate(0.06 -0.87)" fill="#795194"/>
      <path d="M10.83,27.49h-.16a.09.09,0,0,1-.07-.09h0a.07.07,0,0,1,.08-.06h.16a.07.07,0,0,1,.06.08h0a.11.11,0,0,1,0,0h0a.06.06,0,0,1-.05,0Z" transform="translate(0.06 -0.87)" fill="#42c4de"/>
      <path d="M12,26.43l-.15.05h0a.07.07,0,0,1-.1-.05h0a.07.07,0,0,1,.05-.1h0a.58.58,0,0,1,.14,0h0a.09.09,0,0,1,.11,0h0a.12.12,0,0,1,0,.09h0s0,0,0,0Z" transform="translate(0.06 -0.87)" fill="#795194"/>
      <path d="M22.22,18.1a.08.08,0,0,1,0-.1h0c0-.05.05-.09.07-.14h0a.08.08,0,0,1,.11,0h0a.09.09,0,0,1,0,.11h0a.91.91,0,0,1-.07.14h0a0,0,0,0,0,0,0h0a.07.07,0,0,1-.09,0Z" transform="translate(0.06 -0.87)" fill="#795194"/>
      <path d="M11.59,26.59l-.14.05h0a.08.08,0,0,1-.1-.06h0a.07.07,0,0,1,.06-.09h0a1.21,1.21,0,0,1,.14,0h0s.1,0,.1,0h0a.08.08,0,0,1,0,.09h0s0,0,0,0Z" transform="translate(0.06 -0.87)" fill="#795194"/>
      <path d="M22.43,17.68a.08.08,0,0,1,0-.1h0c0-.06,0-.1.07-.15h0a.09.09,0,0,1,.11,0h0s.06.07,0,.1h0a.41.41,0,0,1-.07.15h0s0,0,0,0h0a.11.11,0,0,1-.08,0Z" transform="translate(0.06 -0.87)" fill="#795194"/>
      <path d="M10.35,27.44l-.15,0h0a.12.12,0,0,1-.08-.1h0a.1.1,0,0,1,.08-.06h0l.16,0h0a.1.1,0,0,1,.07.09h0l0,.05h0s0,0-.05,0Z" transform="translate(0.06 -0.87)" fill="#42c4de"/>
      <path d="M11.14,26.72l-.15,0h0a.08.08,0,0,1-.09-.06h0s0-.08,0-.1h0l.15,0h0a.07.07,0,0,1,.1.05h0a.08.08,0,0,1,0,.09h0Z" transform="translate(0.06 -0.87)" fill="#795194"/>
      <path d="M22.62,17.26a.07.07,0,0,1,0-.11h0a.94.94,0,0,1,.06-.15h0a.07.07,0,0,1,.1-.05h0a.09.09,0,0,1,0,.1h0a.94.94,0,0,1-.06.15h0s0,0,0,0h0a.13.13,0,0,1-.09,0Z" transform="translate(0.06 -0.87)" fill="#795194"/>
      <path d="M10.69,26.84a.42.42,0,0,0-.16,0h0a.08.08,0,0,1-.09-.06h0s0-.08.05-.1h0l.16,0h0a.08.08,0,0,1,.09.06h0a.06.06,0,0,1,0,.07h0l0,0Z" transform="translate(0.06 -0.87)" fill="#795194"/>
      <path d="M9.88,27.37l-.16,0h0s-.07-.05-.05-.09h0a.07.07,0,0,1,.09-.06h0a.66.66,0,0,0,.15,0h0c.05,0,.07,0,.06.1h0s0,0,0,0H9.88Z" transform="translate(0.06 -0.87)" fill="#42c4de"/>
      <path d="M22.8,16.81a.07.07,0,0,1-.05-.1h0a1.47,1.47,0,0,0,.06-.14h0a.06.06,0,0,1,.09-.05h0c.05,0,.07.07.05.1h0a1.21,1.21,0,0,0-.05.14h0l0,0h0a.06.06,0,0,1-.07,0Z" transform="translate(0.06 -0.87)" fill="#795194"/>
      <path d="M10.22,26.94l-.16,0h0a.07.07,0,0,1-.09-.06h0a.08.08,0,0,1,.07-.09h0l.16,0h0a.08.08,0,0,1,.09.06h0a.06.06,0,0,1,0,.07h0l0,0Z" transform="translate(0.06 -0.87)" fill="#795194"/>
      <path d="M23,16.37a.06.06,0,0,1,0-.09h0c0-.05,0-.1,0-.15h0s.07-.07.1,0h0a.06.06,0,0,1,.05.09h0a.75.75,0,0,0-.05.16h0s0,0,0,0h0s-.06,0-.08,0Z" transform="translate(0.06 -0.87)" fill="#795194"/>
      <path d="M9.41,27.28l-.15-.05h0a.09.09,0,0,1-.06-.09h0a.08.08,0,0,1,.09-.05h0l.15,0h0s.07.05.05.09h0s0,0,0,0h0s0,0-.05,0Z" transform="translate(0.06 -0.87)" fill="#42c4de"/>
      <path d="M9.75,27l-.15,0h0s-.09,0-.09-.07h0a.08.08,0,0,1,.06-.09h0l.16,0h0a.07.07,0,0,1,.08.07h0a.06.06,0,0,1,0,.07h0s0,0,0,0Z" transform="translate(0.06 -0.87)" fill="#795194"/>
      <path d="M23.11,15.92a.07.07,0,0,1-.05-.09h0c0-.05,0-.11.05-.16h0a.07.07,0,0,1,.08-.05h0s.06.05.06.09h0a1.13,1.13,0,0,1,0,.15h0s0,0,0,0h0s0,0-.07,0Z" transform="translate(0.06 -0.87)" fill="#795194"/>
      <path d="M9.28,27.09H9.12a.07.07,0,0,1-.06,0h0s0,0,0,0h0a.07.07,0,0,1-.1,0H9l-.15,0h0a.07.07,0,0,1,0-.1h0a.06.06,0,0,1,.09,0h0L9,27H9l0,0H9s0-.08.07-.07h.16a.08.08,0,0,1,.09.06h0a.06.06,0,0,1,0,.07h0Z" transform="translate(0.06 -0.87)" fill="#795194"/>
      <path d="M23.24,15.46a.07.07,0,0,1-.06-.09h0l0-.14h0a.07.07,0,0,1,.09-.06h0s.07.05.05.09h0c0,.05,0,.1,0,.17h0s0,0,0,0h0a.05.05,0,0,1-.05,0Z" transform="translate(0.06 -0.87)" fill="#795194"/>
      <path d="M18.93,18.51a.09.09,0,0,1,0-.11h0l.13-.1h0a.08.08,0,0,1,.11,0h0a.09.09,0,0,1,0,.11h0l-.12.1h0a.09.09,0,0,1-.11,0Z" transform="translate(0.06 -0.87)" fill="#f8982c"/>
      <path d="M18.68,18.82h0a.09.09,0,0,1-.11,0h0a.08.08,0,0,1,0-.11h0l.12-.09h0a.08.08,0,0,1,.11,0h0a.08.08,0,0,1,0,.11h0l-.12.1Z" transform="translate(0.06 -0.87)" fill="#f8982c"/>
      <path d="M19.3,18.21a.08.08,0,0,1,0-.11h0l.12-.1h0a.09.09,0,0,1,.11,0h0a.08.08,0,0,1,0,.11h0l-.12.09h0a.08.08,0,0,1-.11,0Z" transform="translate(0.06 -0.87)" fill="#f8982c"/>
      <path d="M18.43,19l-.13.1h0a.08.08,0,0,1-.11,0h0a.09.09,0,0,1,0-.11h0l.13-.1h0a.09.09,0,0,1,.11,0h0a.08.08,0,0,1,0,.11Z" transform="translate(0.06 -0.87)" fill="#f8982c"/>
      <path d="M18.06,19.3l-.12.1h0a.08.08,0,0,1-.11,0h0a.08.08,0,0,1,0-.11h0l.12-.09h0a.08.08,0,0,1,.11,0h0a.08.08,0,0,1,0,.11Z" transform="translate(0.06 -0.87)" fill="#f8982c"/>
      <path d="M19.77,17.9a.07.07,0,0,1-.11,0h0a.07.07,0,0,1,0-.11h0l.12-.1h0a.08.08,0,0,1,.11,0h0a.07.07,0,0,1,0,.11h0l-.12.1Z" transform="translate(0.06 -0.87)" fill="#f8982c"/>
      <path d="M23.23,15,23.1,15a.1.1,0,0,1,0-.12h0a.1.1,0,0,1,.12,0h0l.13.08a.09.09,0,0,1,0,.11h0l0,0h0a.14.14,0,0,1-.09,0Z" transform="translate(0.06 -0.87)" fill="#795194"/>
      <path d="M17.68,19.57a.38.38,0,0,1-.13.09h0a.08.08,0,0,1-.11,0h0a.08.08,0,0,1,0-.11h0a.6.6,0,0,1,.13-.09h0a.09.09,0,0,1,.11,0h0a.08.08,0,0,1,0,.11Z" transform="translate(0.06 -0.87)" fill="#f8982c"/>
      <path d="M20,17.59a.08.08,0,0,1,0-.11h0a.38.38,0,0,0,.11-.11h0a.08.08,0,0,1,.11,0h0a.08.08,0,0,1,0,.11h0a.63.63,0,0,1-.12.11h0s-.07,0-.11,0Z" transform="translate(0.06 -0.87)" fill="#f8982c"/>
      <path d="M17.29,19.86l-.13.08h0a.09.09,0,0,1-.12,0h0a.09.09,0,0,1,0-.11h0l.13-.09h0a.09.09,0,0,1,.11,0h0s0,.07,0,.11Z" transform="translate(0.06 -0.87)" fill="#f8982c"/>
      <path d="M20.35,17.28s0-.08,0-.11h0l.11-.11h0a.09.09,0,0,1,.11,0h0a.09.09,0,0,1,0,.11h0l-.12.11h0a.12.12,0,0,1-.13,0Z" transform="translate(0.06 -0.87)" fill="#f8982c"/>
      <path d="M16.9,20.13l-.13.09h0a.09.09,0,0,1-.11,0h0a.09.09,0,0,1,0-.11h0L16.8,20h0s.09,0,.11,0h0c.05,0,0,.08,0,.11Z" transform="translate(0.06 -0.87)" fill="#f8982c"/>
      <path d="M20.69,17a.11.11,0,0,1,0-.11h0l.11-.11h0a.09.09,0,0,1,.11,0h0a.09.09,0,0,1,0,.11h0a1.14,1.14,0,0,1-.11.11h0s-.07,0-.11,0Z" transform="translate(0.06 -0.87)" fill="#f8982c"/>
      <path d="M16.52,20.41a1,1,0,0,0-.13.09h0a.09.09,0,0,1-.11,0h0s0-.09,0-.11h0a1,1,0,0,1,.13-.09h0a.07.07,0,0,1,.11,0h0s0,.07,0,.11Z" transform="translate(0.06 -0.87)" fill="#f8982c"/>
      <path d="M16.12,20.66l-.14.08h0a.06.06,0,0,1-.1,0h0a.07.07,0,0,1,0-.11h0a.38.38,0,0,0,.13-.09h0a.06.06,0,0,1,.1,0h0a.08.08,0,0,1,0,.12Z" transform="translate(0.06 -0.87)" fill="#f8982c"/>
      <path d="M21,16.6a.09.09,0,0,1,0-.11h0a.63.63,0,0,0,.11-.12h0a.09.09,0,0,1,.11,0h0a.11.11,0,0,1,0,.11h0a.63.63,0,0,0-.11.12h0a.06.06,0,0,1-.1,0Z" transform="translate(0.06 -0.87)" fill="#f8982c"/>
      <path d="M15.72,20.91l-.14.07h0s-.1,0-.11,0h0a.08.08,0,0,1,0-.1h0l.14-.08h0a.07.07,0,0,1,.11,0h0s0,.07,0,.11Z" transform="translate(0.06 -0.87)" fill="#f8982c"/>
      <path d="M21.34,16.26a.09.09,0,0,1,0-.12h0l.1-.11h0s.08,0,.11,0h0s0,.08,0,.11h0l-.1.12h0a.09.09,0,0,1-.11,0Z" transform="translate(0.06 -0.87)" fill="#f8982c"/>
      <path d="M15.3,21.14l-.14.08h0a.11.11,0,0,1-.11,0h0a.11.11,0,0,1,0-.11h0a.39.39,0,0,0,.14-.08h0a.11.11,0,0,1,.11,0h0a.08.08,0,0,1,0,.1h0Z" transform="translate(0.06 -0.87)" fill="#f8982c"/>
      <path d="M21.65,15.91a.08.08,0,0,1,0-.11h0l.1-.13h0a.07.07,0,0,1,.1,0h0a.07.07,0,0,1,0,.1h0l-.1.13h0a.1.1,0,0,1-.1,0Z" transform="translate(0.06 -0.87)" fill="#f8982c"/>
      <path d="M14.88,21.35l-.15.07h0s-.08,0-.09,0h0a.07.07,0,0,1,0-.1h0l.15-.07h0a.08.08,0,0,1,.1,0h0a.09.09,0,0,1,0,.1h0a0,0,0,0,0,0,0Z" transform="translate(0.06 -0.87)" fill="#f8982c"/>
      <path d="M21.93,15.53s-.05-.08,0-.1h0l.09-.12h0a.09.09,0,0,1,.12,0h0a.09.09,0,0,1,0,.11h0l-.1.13h0l0,0h0s-.05,0-.09,0Z" transform="translate(0.06 -0.87)" fill="#f8982c"/>
      <path d="M14.45,21.54l-.15.07h0a.06.06,0,0,1-.09,0h0a.08.08,0,0,1,0-.1h0l.15-.06h0a.07.07,0,0,1,.1,0h0a.09.09,0,0,1,0,.09h0Z" transform="translate(0.06 -0.87)" fill="#f8982c"/>
      <path d="M22.21,15.14a.07.07,0,0,1,0-.11h0l.08-.13h0a.08.08,0,0,1,.1,0h0a.08.08,0,0,1,0,.11h0a.6.6,0,0,0-.07.14h0s-.08,0-.1,0Z" transform="translate(0.06 -0.87)" fill="#f8982c"/>
      <path d="M14,21.73l-.15.06h0a.09.09,0,0,1-.11-.05h0a.09.09,0,0,1,.05-.11h0l.15-.05h0a.08.08,0,0,1,.1.05h0a.07.07,0,0,1,0,.09h0Z" transform="translate(0.06 -0.87)" fill="#f8982c"/>
      <path d="M22.42,14.72c-.05,0-.07-.07-.05-.1h0c0-.07,0-.12.05-.14h0a.09.09,0,0,1,.09-.06h0a.08.08,0,0,1,.06.09h0a.87.87,0,0,1-.06.16h0a.05.05,0,0,1,0,0h0s0,0-.07,0Z" transform="translate(0.06 -0.87)" fill="#f8982c"/>
      <path d="M13.57,21.89l-.15.05h0s-.09,0-.09-.06h0a.07.07,0,0,1,.06-.1h0a1.21,1.21,0,0,0,.14-.05h0a.1.1,0,0,1,.11.05h0s0,.07,0,.09h0l0,0Z" transform="translate(0.06 -0.87)" fill="#f8982c"/>
      <path d="M13.12,22l-.16,0h0s-.08,0-.09-.05h0s0-.09.05-.1h0l.16,0h0a.08.08,0,0,1,.09.06h0a.08.08,0,0,1,0,.09h0Z" transform="translate(0.06 -0.87)" fill="#f8982c"/>
      <path d="M12.66,22.15l-.15,0h0s-.09,0-.1-.06h0a.08.08,0,0,1,.06-.09h0l.15,0h0s.08,0,.1.06h0a.11.11,0,0,1,0,.07h0a0,0,0,0,1,0,0Z" transform="translate(0.06 -0.87)" fill="#f8982c"/>
      <path d="M12.19,22.26l-.16,0h0s-.08,0-.08-.07h0a.06.06,0,0,1,.06-.08h0l.16,0h0a.1.1,0,0,1,.1.06h0a.11.11,0,0,1,0,.07h0a.06.06,0,0,0-.05,0Z" transform="translate(0.06 -0.87)" fill="#f8982c"/>
      <path d="M11.72,22.34l-.15,0h0a.07.07,0,0,1-.09-.06h0c0-.05,0-.09.07-.09h0l.15,0h0c.05,0,.08,0,.08.06h0a.08.08,0,0,1,0,.08h0Z" transform="translate(0.06 -0.87)" fill="#f8982c"/>
      <path d="M11.25,22.4a.43.43,0,0,1-.16,0h0a.07.07,0,0,1-.09-.06h0a.08.08,0,0,1,.07-.09h.16s.09,0,.08.07h0a.07.07,0,0,1,0,.07h0Z" transform="translate(0.06 -0.87)" fill="#f8982c"/>
      <path d="M10.78,22.44l-.16,0h0a.07.07,0,0,1-.07-.08h0a.06.06,0,0,1,.07-.07h.16a.06.06,0,0,1,.07.07h0a.06.06,0,0,1,0,.07h0s0,0-.05,0Z" transform="translate(0.06 -0.87)" fill="#f8982c"/>
      <path d="M10.3,22.46h-.15a.07.07,0,0,1-.08-.07h0a.08.08,0,0,1,.08-.08h.14a.08.08,0,0,1,.08.07h0a0,0,0,0,1,0,.06h0s0,0,0,0Z" transform="translate(0.06 -0.87)" fill="#f8982c"/>
      <path d="M9.83,22.46H9.67s-.08,0-.07-.07h0a.09.09,0,0,1,.09-.08h.16a.06.06,0,0,1,.07.07h0a.07.07,0,0,1,0,.06h0l-.06,0Z" transform="translate(0.06 -0.87)" fill="#f8982c"/>
      <path d="M9.36,22.43H9.2s-.07-.05-.06-.08h0a.08.08,0,0,1,.08-.07h.16s.08,0,.06.08h0a.08.08,0,0,1,0,.05h0s0,0-.06,0Z" transform="translate(0.06 -0.87)" fill="#f8982c"/>
      <path d="M8.88,22.38l-.15,0h0a.09.09,0,0,1-.07-.08h0a.12.12,0,0,1,.09-.08h0l.16,0h0a.06.06,0,0,1,.06.08H9a.08.08,0,0,1,0,.05H9a.1.1,0,0,1-.07,0Z" transform="translate(0.06 -0.87)" fill="#f8982c"/>
      <path d="M8.41,22.31l-.16,0h0s-.07-.05-.05-.09h0a.07.07,0,0,1,.09-.06h0l.15,0h0a.07.07,0,0,1,.06.09h0l0,0h0s0,0-.06,0Z" transform="translate(0.06 -0.87)" fill="#f8982c"/>
      <path d="M7.94,22.22l-.16,0h0a.06.06,0,0,1,0-.09h0s0-.07.08-.05h0l.15,0H8s.07.05.06.09H8a.08.08,0,0,1,0,0H8s0,0,0,0Z" transform="translate(0.06 -0.87)" fill="#f8982c"/>
      <path d="M13.9,17.06a.09.09,0,0,1,0-.12h0l.09-.07h0l0,0h0a.08.08,0,0,1,.11,0h0a.09.09,0,0,1,0,.11h0l0,0h0l-.09.08h0a.09.09,0,0,1-.11,0Z" transform="translate(0.06 -0.87)" fill="#ef5194"/>
      <path d="M13.76,17.26l-.12.1h0a.08.08,0,0,1-.11,0h0a.09.09,0,0,1,0-.11h0l.12-.1h0a.09.09,0,0,1,.11,0h0a.07.07,0,0,1,0,.11Z" transform="translate(0.06 -0.87)" fill="#ef5194"/>
      <path d="M13.4,17.56l-.13.1h0a.09.09,0,0,1-.11,0h0a.09.09,0,0,1,0-.11h0l.12-.1h0a.08.08,0,0,1,.11,0h0a.08.08,0,0,1,0,.11Z" transform="translate(0.06 -0.87)" fill="#ef5194"/>
      <path d="M14.26,16.76a.08.08,0,0,1,0-.11h0l.12-.11h0a.08.08,0,0,1,.11,0h0a.08.08,0,0,1,0,.11h0a.65.65,0,0,0-.12.11h0a.11.11,0,0,1-.11,0Z" transform="translate(0.06 -0.87)" fill="#ef5194"/>
      <path d="M13,17.83a.38.38,0,0,1-.13.09h0a.08.08,0,0,1-.11,0h0a.09.09,0,0,1,0-.11h0l.13-.09h0a.09.09,0,0,1,.11,0h0a.08.08,0,0,1,0,.11Z" transform="translate(0.06 -0.87)" fill="#ef5194"/>
      <path d="M14.62,16.44a.08.08,0,0,1,0-.11h0l.12-.11h0a.09.09,0,0,1,.11,0h0a.09.09,0,0,1,0,.11h0l-.11.11h0c-.07,0-.1,0-.13,0Z" transform="translate(0.06 -0.87)" fill="#ef5194"/>
      <path d="M12.64,18.12a.6.6,0,0,1-.13.09h0a.09.09,0,0,1-.11,0h0a.09.09,0,0,1,0-.11h0a1,1,0,0,1,.13-.09h0a.08.08,0,0,1,.11,0h0a.08.08,0,0,1,0,.11Z" transform="translate(0.06 -0.87)" fill="#ef5194"/>
      <path d="M12.25,18.38a1,1,0,0,1-.13.09h0a.08.08,0,0,1-.11,0h0a.07.07,0,0,1,0-.1h0a1,1,0,0,0,.13-.09h0a.09.09,0,0,1,.11,0h0a.08.08,0,0,1,0,.1Z" transform="translate(0.06 -0.87)" fill="#ef5194"/>
      <path d="M14.94,16.11a.09.09,0,0,1,0-.11h0l.1-.12h0a.09.09,0,0,1,.11,0h0a.09.09,0,0,1,0,.11h0a1.27,1.27,0,0,1-.1.12h0s-.06,0-.11,0Z" transform="translate(0.06 -0.87)" fill="#ef5194"/>
      <path d="M11.86,18.65l-.13.09h0a.07.07,0,0,1-.11,0h0a.07.07,0,0,1,0-.11h0l.13-.09h0a.07.07,0,0,1,.11,0h0a.11.11,0,0,1,0,.11Z" transform="translate(0.06 -0.87)" fill="#ef5194"/>
      <path d="M7.49,22.11l-.15,0h0S7.28,22,7.28,22h0a.07.07,0,0,1,.1,0h0l.15,0h0s.06.05.06.09h0s0,0,0,0h0s0,0-.07,0Z" transform="translate(0.06 -0.87)" fill="#f8982c"/>
      <path d="M15.28,15.77s0-.08,0-.11h0l.1-.12h0a.1.1,0,0,1,.12,0h0a.09.09,0,0,1,0,.12h0l-.1.11h0a.08.08,0,0,1-.1,0Z" transform="translate(0.06 -0.87)" fill="#ef5194"/>
      <path d="M11.46,18.9a1,1,0,0,1-.13.09h0s-.08,0-.11,0h0a.06.06,0,0,1,0-.1h0a1,1,0,0,1,.13-.09h0a.07.07,0,0,1,.11,0h0a.08.08,0,0,1,0,.1Z" transform="translate(0.06 -0.87)" fill="#ef5194"/>
      <path d="M11.06,19.16a.6.6,0,0,0-.13.09h0a.08.08,0,0,1-.11,0h0a.08.08,0,0,1,0-.11h0L11,19h0a.07.07,0,0,1,.11,0h0a.1.1,0,0,1,0,.1Z" transform="translate(0.06 -0.87)" fill="#ef5194"/>
      <path d="M15.58,15.4s0-.06,0-.11h0l.09-.13h0a.08.08,0,0,1,.12,0h0a.07.07,0,0,1,0,.11h0l-.09.13h0a.08.08,0,0,1-.11,0Z" transform="translate(0.06 -0.87)" fill="#ef5194"/>
      <path d="M10.66,19.41a.57.57,0,0,1-.13.08h0a.07.07,0,0,1-.11,0h0s0-.08,0-.11h0l.14-.07h0a.06.06,0,0,1,.1,0h0a.06.06,0,0,1,0,.1Z" transform="translate(0.06 -0.87)" fill="#ef5194"/>
      <path d="M10.25,19.65l-.14.08h0s-.09,0-.11,0h0s0-.1,0-.11h0l.14-.08h0s.1,0,.11,0h0s0,.09,0,.11h0s0,0,0,0Z" transform="translate(0.06 -0.87)" fill="#ef5194"/>
      <path d="M15.87,15a.08.08,0,0,1,0-.11h0l.08-.12h0s.08-.05.11,0h0s.05.08,0,.11h0L16,15h0a.07.07,0,0,1-.08,0Z" transform="translate(0.06 -0.87)" fill="#ef5194"/>
      <path d="M9.84,19.89,9.71,20h0a.09.09,0,0,1-.11,0h0a.09.09,0,0,1,0-.11h0l.14-.07h0a.08.08,0,0,1,.1,0h0s0,.07,0,.1Z" transform="translate(0.06 -0.87)" fill="#ef5194"/>
      <path d="M16.14,14.66a.1.1,0,0,1,0-.12h0l.08-.13h0a.09.09,0,0,1,.12,0h0a.09.09,0,0,1,0,.11h0l-.09.14h0l0,0h0s0,0-.08,0Z" transform="translate(0.06 -0.87)" fill="#ef5194"/>
      <path d="M9.44,20.12l-.14.08h0a.11.11,0,0,1-.11,0h0a.11.11,0,0,1,0-.11h0L9.36,20h0a.11.11,0,0,1,.11,0h0s0,.08,0,.1h0Z" transform="translate(0.06 -0.87)" fill="#ef5194"/>
      <path d="M7,22a.42.42,0,0,0-.15,0h0s-.07-.06,0-.1h0s.07-.07.1,0h0l.15.05h0a.07.07,0,0,1,0,.1h0l0,0h0A.08.08,0,0,1,7,22Z" transform="translate(0.06 -0.87)" fill="#f8982c"/>
      <path d="M9,20.34l-.14.08h0a.09.09,0,0,1-.11,0h0a.09.09,0,0,1,0-.11h0l.14-.07h0a.09.09,0,0,1,.11,0h0a.09.09,0,0,1,0,.1H9Z" transform="translate(0.06 -0.87)" fill="#ef5194"/>
      <path d="M16.39,14.25a.09.09,0,0,1,0-.11h0l.08-.13h0a.08.08,0,0,1,.1,0h0s.06.08,0,.11h0l-.08.13h0l0,0h0a.06.06,0,0,1-.09,0Z" transform="translate(0.06 -0.87)" fill="#ef5194"/>
      <path d="M8.59,20.57l-.14.07h0a.11.11,0,0,1-.11,0h0a.09.09,0,0,1,0-.11h0l.14-.08h0a.1.1,0,0,1,.1,0h0a.08.08,0,0,1,0,.1h0s0,0,0,0Z" transform="translate(0.06 -0.87)" fill="#ef5194"/>
      <path d="M8.17,20.78,8,20.84H8a.08.08,0,0,1-.1,0h0a.08.08,0,0,1,0-.1H8l.14-.07h0a.09.09,0,0,1,.11,0h0a.08.08,0,0,1,0,.1h0Z" transform="translate(0.06 -0.87)" fill="#ef5194"/>
      <path d="M16.62,13.84a.08.08,0,0,1,0-.1h0a.61.61,0,0,1,.07-.14h0a.08.08,0,0,1,.1,0h0a.08.08,0,0,1,0,.11h0a.91.91,0,0,0-.07.14h0v0h0s-.07,0-.1,0Z" transform="translate(0.06 -0.87)" fill="#ef5194"/>
      <path d="M7.75,21l-.15.07h0s-.08,0-.09,0h0a.08.08,0,0,1,0-.1h0l.15-.06h0a.07.07,0,0,1,.1,0h0s0,.08,0,.1h0a0,0,0,0,0,0,0Z" transform="translate(0.06 -0.87)" fill="#ef5194"/>
      <path d="M6.58,21.81l-.16-.06h0s0-.07,0-.1h0s.07,0,.1,0h0l.14.05h0a.07.07,0,0,1,0,.1h0s0,0,0,0h0s0,0-.06,0Z" transform="translate(0.06 -0.87)" fill="#f8982c"/>
      <path d="M7.32,21.18l-.15.07h0a.07.07,0,0,1-.09,0h0a.07.07,0,0,1,0-.1h0L7.26,21h0a.08.08,0,0,1,.1,0h0a.09.09,0,0,1,0,.1h0a0,0,0,0,1,0,0Z" transform="translate(0.06 -0.87)" fill="#ef5194"/>
      <path d="M16.83,13.41a.08.08,0,0,1,0-.1h0a.48.48,0,0,0,0-.14h0c0-.05.07-.07.1-.05h0c.05,0,.07.07.05.1h0a1,1,0,0,1-.07.15h0s0,0,0,0h-.06Z" transform="translate(0.06 -0.87)" fill="#ef5194"/>
      <path d="M6.89,21.37l-.15.07h0a.06.06,0,0,1-.09,0h0a.06.06,0,0,1,0-.09h0l.14-.07h0a.07.07,0,0,1,.1,0h0a.09.09,0,0,1,0,.09h0Z" transform="translate(0.06 -0.87)" fill="#ef5194"/>
      <path d="M6.45,21.56l-.15.06h0a.09.09,0,0,1-.11-.05h0a.09.09,0,0,1,0-.11h0l.14-.06h0a.08.08,0,0,1,.1,0h0a.08.08,0,0,1,0,.09h0s0,0,0,0Z" transform="translate(0.06 -0.87)" fill="#ef5194"/>
      <path d="M17,13s-.07-.06,0-.09h0a.88.88,0,0,1,.05-.15h0a.07.07,0,0,1,.1,0h0a.06.06,0,0,1,0,.09h0c0,.05,0,.1,0,.15h0s0,0,0,0h0A.08.08,0,0,1,17,13Z" transform="translate(0.06 -0.87)" fill="#ef5194"/>
      <path d="M17.14,12.53a.07.07,0,0,1-.05-.09h0s0-.1,0-.15h0a.07.07,0,0,1,.09,0h0a.07.07,0,0,1,.06.08h0a1.42,1.42,0,0,1-.05.16h0s0,0,0,0h0s0,0-.07,0Z" transform="translate(0.06 -0.87)" fill="#ef5194"/>
      <path d="M17.26,12.08a.06.06,0,0,1-.05-.09h0c0-.05,0-.1,0-.15h0q0-.08.09-.06h0q.08,0,.06.09h0l0,.16h0l0,0h-.06Z" transform="translate(0.06 -0.87)" fill="#ef5194"/>
      <path d="M17.35,11.61a.1.1,0,0,1-.07-.09h0v-.15h0a.09.09,0,0,1,.08-.07h0a.1.1,0,0,1,.07.09h0l0,.16h0s0,0,0,0h0Z" transform="translate(0.06 -0.87)" fill="#ef5194"/>
      <path d="M14.33,14.07a.09.09,0,0,1-.11,0h0a.09.09,0,0,1,0-.11h0l.13-.1h0a.09.09,0,0,1,.11,0h0a.09.09,0,0,1,0,.11h0l-.13.1Z" transform="translate(0.06 -0.87)" fill="#42c4de"/>
      <path d="M14.59,13.76a.08.08,0,0,1,0-.11h0l.12-.1h0a.08.08,0,0,1,.11,0h0a.08.08,0,0,1,0,.11h0l-.12.1h0a.08.08,0,0,1-.11,0Z" transform="translate(0.06 -0.87)" fill="#42c4de"/>
      <path d="M14.09,14.26l-.12.1h0a.08.08,0,0,1-.11,0h0a.08.08,0,0,1,0-.11h0l.12-.1h0a.09.09,0,0,1,.11,0h0a.08.08,0,0,1,0,.11Z" transform="translate(0.06 -0.87)" fill="#42c4de"/>
      <path d="M15,13.46a.08.08,0,0,1,0-.11h0a.38.38,0,0,0,.11-.11h0a.07.07,0,0,1,.11,0h0a.08.08,0,0,1,0,.11h0l-.12.1h0a.09.09,0,0,1-.11,0Z" transform="translate(0.06 -0.87)" fill="#42c4de"/>
      <path d="M13.72,14.55l-.13.09h0a.09.09,0,0,1-.11,0h0a.08.08,0,0,1,0-.11h0a.57.57,0,0,1,.13-.08h0a.08.08,0,0,1,.11,0h0a.09.09,0,0,1,0,.11Z" transform="translate(0.06 -0.87)" fill="#42c4de"/>
      <path d="M15.3,13.15a.07.07,0,0,1,0-.11h0l.11-.11h0a.07.07,0,0,1,.11,0h0a.08.08,0,0,1,0,.11h0l-.12.11h0a.11.11,0,0,1-.11,0Z" transform="translate(0.06 -0.87)" fill="#42c4de"/>
      <path d="M13.32,14.83l-.13.09h0a.09.09,0,0,1-.11,0h0a.08.08,0,0,1,0-.11h0a.6.6,0,0,1,.13-.09h0a.08.08,0,0,1,.11,0h0s0,.08,0,.11Z" transform="translate(0.06 -0.87)" fill="#42c4de"/>
      <path d="M15.64,12.82a.11.11,0,0,1,0-.11h0l.11-.11h0a.11.11,0,0,1,.11,0h0a.1.1,0,0,1,0,.12h0l-.11.1h0a.07.07,0,0,1-.11,0Z" transform="translate(0.06 -0.87)" fill="#42c4de"/>
      <path d="M12.93,15.1l-.13.08h0a.06.06,0,0,1-.1,0h0a.06.06,0,0,1,0-.1h0a.6.6,0,0,1,.13-.09h0a.06.06,0,0,1,.1,0h0s0,.08,0,.12Z" transform="translate(0.06 -0.87)" fill="#42c4de"/>
      <path d="M12.54,15.36l-.13.09h0a.08.08,0,0,1-.11,0h0a.08.08,0,0,1,0-.11h0a.6.6,0,0,0,.13-.09h0s.09,0,.11,0h0s0,.08,0,.11Z" transform="translate(0.06 -0.87)" fill="#42c4de"/>
      <path d="M16,12.48a.09.09,0,0,1,0-.11h0a.65.65,0,0,0,.11-.12h0a.09.09,0,0,1,.11,0h0a.09.09,0,0,1,0,.11h0a1.27,1.27,0,0,0-.1.12h0a.06.06,0,0,1-.1,0Z" transform="translate(0.06 -0.87)" fill="#42c4de"/>
      <path d="M12.14,15.62,12,15.7h0a.06.06,0,0,1-.1,0h0a.06.06,0,0,1,0-.1h0l.13-.09h0a.06.06,0,0,1,.1,0h0s0,.07,0,.11Z" transform="translate(0.06 -0.87)" fill="#42c4de"/>
      <path d="M16.31,12.15a.09.09,0,0,1,0-.11h0l.11-.12h0s.08,0,.11,0h0s0,.08,0,.11h0a1.31,1.31,0,0,1-.11.12h0s-.08,0-.1,0Z" transform="translate(0.06 -0.87)" fill="#42c4de"/>
      <path d="M11.75,15.87l-.14.08h0a.07.07,0,0,1-.11,0h0a.07.07,0,0,1,0-.11h0l.14-.08h0a.08.08,0,0,1,.11,0h0a.1.1,0,0,1,0,.11Z" transform="translate(0.06 -0.87)" fill="#42c4de"/>
      <path d="M16.62,11.8s0-.07,0-.11h0a.32.32,0,0,1,.11-.12h0s.06,0,.11,0h0a.07.07,0,0,1,0,.11h0a.4.4,0,0,1-.1.12h0a.11.11,0,0,1-.1,0Z" transform="translate(0.06 -0.87)" fill="#42c4de"/>
      <path d="M11.35,16.11l-.14.08h0a.11.11,0,0,1-.11,0h0s0-.1,0-.11h0l.14-.08h0a.07.07,0,0,1,.11,0h0a.12.12,0,0,1,0,.11Z" transform="translate(0.06 -0.87)" fill="#42c4de"/>
      <path d="M17.39,11.14s-.08,0-.07-.07h0s0-.05,0-.07h0s0,0,0,0h0a.09.09,0,0,1-.11,0h0a.08.08,0,0,1,0-.11h0l.08-.13h0a.09.09,0,0,1,.12,0h0s0,0,0,0h0c.05,0,.08,0,.07.07h0a.86.86,0,0,1,0,.16h0s0,0,0,.06h0s0,0,0,0Z" transform="translate(0.06 -0.87)" fill="#42c4de"/>
      <path d="M10.93,16.34a1.48,1.48,0,0,1-.13.08h0a.11.11,0,0,1-.11,0h0a.09.09,0,0,1,0-.11h0l.14-.08h0a.09.09,0,0,1,.1,0h0s0,.08,0,.1h0Z" transform="translate(0.06 -0.87)" fill="#42c4de"/>
      <path d="M16.92,11.42a.07.07,0,0,1,0-.1h0l.1-.13h0s.08,0,.1,0h0a.07.07,0,0,1,0,.11h0l-.1.13h0a.05.05,0,0,1-.09,0Z" transform="translate(0.06 -0.87)" fill="#42c4de"/>
      <path d="M10.51,16.57l-.14.06h0a.09.09,0,0,1-.11,0h0a.08.08,0,0,1,0-.1h0l.14-.07h0a.09.09,0,0,1,.11,0h0a.08.08,0,0,1,0,.1h0Z" transform="translate(0.06 -0.87)" fill="#42c4de"/>
      <path d="M10.09,16.77l-.15.07h0a.07.07,0,0,1-.09,0h0a.08.08,0,0,1,0-.1h0l.15-.06h0a.08.08,0,0,1,.1,0h0s0,.08,0,.1h0Z" transform="translate(0.06 -0.87)" fill="#42c4de"/>
      <path d="M9.65,17,9.5,17h0A.09.09,0,0,1,9.39,17h0a.09.09,0,0,1,0-.11h0l.15-.05h0a.08.08,0,0,1,.1.05h0a.07.07,0,0,1,0,.09h0Z" transform="translate(0.06 -0.87)" fill="#42c4de"/>
      <path d="M9.2,17.12a.53.53,0,0,1-.15.05h0s-.09,0-.1-.05H9S9,17,9,17H9L9.14,17h0a.09.09,0,0,1,.11.05h0a.11.11,0,0,1,0,.09h0s0,0,0,0Z" transform="translate(0.06 -0.87)" fill="#42c4de"/>
      <path d="M8.75,17.27l-.16,0h0a.08.08,0,0,1-.09-.06h0s0-.08.05-.09h0l.16,0h0a.06.06,0,0,1,.09.05h0a.08.08,0,0,1,0,.09h0Z" transform="translate(0.06 -0.87)" fill="#42c4de"/>
      <path d="M8.3,17.4l-.16,0h0a.08.08,0,0,1-.09-.06h0s0-.08,0-.09h0l.16,0h0a.07.07,0,0,1,.09.05h0a.06.06,0,0,1,0,.07h0l0,0Z" transform="translate(0.06 -0.87)" fill="#42c4de"/>
      <path d="M7.83,17.49l-.16,0h0s-.08,0-.08-.07h0a.06.06,0,0,1,.06-.08h0l.15,0h0a.07.07,0,0,1,.09.06h0a.08.08,0,0,1,0,.07h0Z" transform="translate(0.06 -0.87)" fill="#42c4de"/>
      <path d="M7.35,17.56a.81.81,0,0,1-.16,0h0a.09.09,0,0,1-.08-.06h0a.08.08,0,0,1,.06-.09h0a.86.86,0,0,1,.16,0h0a.07.07,0,0,1,.09.06h0a.08.08,0,0,1,0,.07h0a.07.07,0,0,1,0,0Z" transform="translate(0.06 -0.87)" fill="#42c4de"/>
      <path d="M6.87,17.59H6.72a.07.07,0,0,1-.08-.07h0a.08.08,0,0,1,.07-.08h0a.75.75,0,0,0,.15,0h0a.08.08,0,0,1,.08.07h0a.1.1,0,0,1,0,.07h0Z" transform="translate(0.06 -0.87)" fill="#42c4de"/>
      <path d="M6.41,17.6H6.25s-.08,0-.06-.08h0a.07.07,0,0,1,.08-.07h.16a.08.08,0,0,1,.07.07h0a.11.11,0,0,1,0,.07h0s0,0-.06,0Z" transform="translate(0.06 -0.87)" fill="#42c4de"/>
      <path d="M5.93,17.57l-.16,0h0s-.06,0-.06-.08h0a.08.08,0,0,1,.08-.07h0l.16,0H6A.07.07,0,0,1,6,17.5H6s0,.05,0,.05H6l-.06,0Z" transform="translate(0.06 -0.87)" fill="#42c4de"/>
      <path d="M11.82,12.64a.09.09,0,0,1,0-.11h0l.12-.1h0a.08.08,0,0,1,.11,0h0a.08.08,0,0,1,0,.11h0l-.12.1h0a.09.09,0,0,1-.11,0Z" transform="translate(0.06 -0.87)" fill="#795194"/>
      <path d="M11.69,12.85l-.13.1h0a.09.09,0,0,1-.11,0h0a.09.09,0,0,1,0-.11h0l.12-.1h0a.09.09,0,0,1,.11,0h0a.09.09,0,0,1,0,.11Z" transform="translate(0.06 -0.87)" fill="#795194"/>
      <path d="M12.18,12.33a.08.08,0,0,1,0-.11h0l.12-.1h0a.08.08,0,0,1,.11,0h0a.08.08,0,0,1,0,.11h0l-.12.09h0a.07.07,0,0,1-.11,0Z" transform="translate(0.06 -0.87)" fill="#795194"/>
      <path d="M11.31,13.13l-.12.1h0a.08.08,0,0,1-.11,0h0a.09.09,0,0,1,0-.11h0l.12-.1h0a.09.09,0,0,1,.11,0h0a.07.07,0,0,1,0,.11Z" transform="translate(0.06 -0.87)" fill="#795194"/>
      <path d="M12.54,12a.08.08,0,0,1,0-.11h0l.13-.1h0s.07,0,.11,0h0a.07.07,0,0,1,0,.11h0a.57.57,0,0,0-.11.11h0c-.05,0-.09,0-.12,0Z" transform="translate(0.06 -0.87)" fill="#795194"/>
      <path d="M10.94,13.42l-.12.1h0a.09.09,0,0,1-.11,0h0a.08.08,0,0,1,0-.11h0a.57.57,0,0,1,.13-.08h0a.08.08,0,0,1,.11,0h0a.1.1,0,0,1,0,.1Z" transform="translate(0.06 -0.87)" fill="#795194"/>
      <path d="M12.89,11.72a.08.08,0,0,1,0-.11h0L13,11.5h0a.08.08,0,0,1,.11,0h0a.08.08,0,0,1,0,.11h0a1.31,1.31,0,0,0-.12.11h0s-.07,0-.11,0Z" transform="translate(0.06 -0.87)" fill="#795194"/>
      <path d="M10.56,13.69a.38.38,0,0,1-.13.09h0a.08.08,0,0,1-.11,0h0a.08.08,0,0,1,0-.11h0a.6.6,0,0,1,.13-.09h0a.09.09,0,0,1,.11,0h0a.08.08,0,0,1,0,.11Z" transform="translate(0.06 -0.87)" fill="#795194"/>
      <path d="M13.24,11.4a.08.08,0,0,1,0-.11h0l.12-.1h0a.07.07,0,0,1,.1,0h0a.08.08,0,0,1,0,.1h0l-.12.11h0a.08.08,0,0,1-.11,0Z" transform="translate(0.06 -0.87)" fill="#795194"/>
      <path d="M10.16,14l-.13.08h0a.06.06,0,0,1-.1,0h0a.09.09,0,0,1,0-.11h0l.13-.08h0a.08.08,0,0,1,.11,0h0s0,.08,0,.12Z" transform="translate(0.06 -0.87)" fill="#795194"/>
      <path d="M13.58,11.08a.09.09,0,0,1,0-.11h0l.11-.11h0a.09.09,0,0,1,.11,0h0a.09.09,0,0,1,0,.11h0l-.12.11h0s-.06,0-.1,0Z" transform="translate(0.06 -0.87)" fill="#795194"/>
      <path d="M9.77,14.24l-.13.09h0a.06.06,0,0,1-.1,0h0a.07.07,0,0,1,0-.11h0a1,1,0,0,0,.13-.09h0a.06.06,0,0,1,.1,0h0s0,.08,0,.11Z" transform="translate(0.06 -0.87)" fill="#795194"/>
      <path d="M13.91,10.74a.11.11,0,0,1,0-.11h0a.58.58,0,0,0,.1-.12h0a.11.11,0,0,1,.12,0h0a.11.11,0,0,1,0,.11h0a1.27,1.27,0,0,0-.1.12h0a.08.08,0,0,1-.11,0Z" transform="translate(0.06 -0.87)" fill="#795194"/>
      <path d="M9.38,14.5l-.13.08h0a.07.07,0,0,1-.11,0h0a.06.06,0,0,1,0-.1h0l.13-.09h0s.08,0,.11,0h0s0,.07,0,.11Z" transform="translate(0.06 -0.87)" fill="#795194"/>
      <path d="M9,14.74l-.14.08h0s-.09,0-.11,0h0a.08.08,0,0,1,0-.11h0l.14-.08h0a.07.07,0,0,1,.11,0H9a.09.09,0,0,1,0,.11Z" transform="translate(0.06 -0.87)" fill="#795194"/>
      <path d="M14.24,10.4s0-.08,0-.12h0a1.14,1.14,0,0,0,.11-.11h0s.08,0,.11,0h0s0,.08,0,.11h0l-.11.12h0s-.08,0-.1,0Z" transform="translate(0.06 -0.87)" fill="#795194"/>
      <path d="M5.46,17.49l-.15,0h0a.07.07,0,0,1-.06-.09h0s0-.07.09-.05h0l.16,0h0s.07.05,0,.09h0a.09.09,0,0,1,0,.05H5.46Z" transform="translate(0.06 -0.87)" fill="#42c4de"/>
      <path d="M8.57,15l-.14.08h0a.1.1,0,0,1-.1,0h0a.09.09,0,0,1,0-.11h0l.13-.08h0a.09.09,0,0,1,.11,0h0s0,.07,0,.11Z" transform="translate(0.06 -0.87)" fill="#795194"/>
      <path d="M14.56,10s0-.08,0-.11h0a1.27,1.27,0,0,1,.1-.12h0s.07,0,.12,0h0a.07.07,0,0,1,0,.11h0a.4.4,0,0,1-.1.12h0a.07.07,0,0,1-.1,0Z" transform="translate(0.06 -0.87)" fill="#795194"/>
      <path d="M8.15,15.2,8,15.28H8a.11.11,0,0,1-.11,0h0a.11.11,0,0,1,0-.11h0a.39.39,0,0,0,.14-.08h0a.11.11,0,0,1,.11,0h0s0,.08,0,.1h0s0,0,0,0Z" transform="translate(0.06 -0.87)" fill="#795194"/>
      <path d="M14.85,9.68a.07.07,0,0,1,0-.11h0l.09-.13h0a.09.09,0,0,1,.11,0h0a.08.08,0,0,1,0,.12h0L15,9.66h0s-.06,0-.1,0Z" transform="translate(0.06 -0.87)" fill="#795194"/>
      <path d="M7.73,15.43l-.15.06h0a.08.08,0,0,1-.1,0h0s0-.09,0-.1h0l.15-.07h0a.09.09,0,0,1,.1,0h0s0,.08,0,.1h0Z" transform="translate(0.06 -0.87)" fill="#795194"/>
      <path d="M15.14,9.31s0-.08,0-.1h0l.09-.13h0s.08-.05.11,0h0s.05.08,0,.11h0l-.09.13h0s-.05,0-.09,0Z" transform="translate(0.06 -0.87)" fill="#795194"/>
      <path d="M7.31,15.63l-.15.07h0s-.09,0-.1,0h0a.08.08,0,0,1,0-.1h0l.15-.06h0a.07.07,0,0,1,.09,0h0a.08.08,0,0,1,0,.1h0s0,0,0,0Z" transform="translate(0.06 -0.87)" fill="#795194"/>
      <path d="M15.43,8.93a.08.08,0,0,1,0-.11h0l.08-.13h0a.08.08,0,0,1,.11,0h0a.1.1,0,0,1,0,.12h0a.48.48,0,0,0-.09.14h0a.06.06,0,0,1-.08,0Z" transform="translate(0.06 -0.87)" fill="#795194"/>
      <path d="M5,17.38l-.15,0h0a.07.07,0,0,1,0-.1h0s.07-.07.1,0h0l.16,0h0s0,.05,0,.09h0s0,0,0,0h0s-.07,0-.09,0Z" transform="translate(0.06 -0.87)" fill="#42c4de"/>
      <path d="M6.87,15.82l-.15.07h0a.09.09,0,0,1-.11-.05h0s0-.09,0-.1h0l.14-.06h0a.08.08,0,0,1,.1,0h0a.08.08,0,0,1,0,.09h0s0,0,0,0Z" transform="translate(0.06 -0.87)" fill="#795194"/>
      <path d="M15.67,8.53a.07.07,0,0,1,0-.11h0a1.48,1.48,0,0,1,.08-.13h0a.08.08,0,0,1,.1,0h0a.09.09,0,0,1,0,.11h0a.91.91,0,0,0-.08.13h0l0,0h0s-.06.05-.1,0Z" transform="translate(0.06 -0.87)" fill="#795194"/>
      <path d="M6.43,16l-.14,0h0a.09.09,0,0,1-.11,0h0a.09.09,0,0,1,.05-.11h0l.14-.05h0a.09.09,0,0,1,.11.05h0a.08.08,0,0,1,0,.09h0s0,0,0,0Z" transform="translate(0.06 -0.87)" fill="#795194"/>
      <path d="M15.91,8.12s-.06-.07,0-.1h0A.61.61,0,0,1,16,7.88h0a.07.07,0,0,1,.1,0h0a.07.07,0,0,1,0,.11h0a.91.91,0,0,0-.07.14h0l0,0h0a.1.1,0,0,1-.09,0Z" transform="translate(0.06 -0.87)" fill="#795194"/>
      <path d="M6,16.15l-.15.05h0a.07.07,0,0,1-.09-.06h0a.07.07,0,0,1,0-.09h0L5.94,16h0a.07.07,0,0,1,.1.05H6a.08.08,0,0,1,0,.09H6Z" transform="translate(0.06 -0.87)" fill="#795194"/>
      <path d="M4.54,17.23l-.16-.06h0a.07.07,0,0,1,0-.1h0s.07-.05.1,0h0l.14,0h0a.07.07,0,0,1,0,.1h0s0,0,0,0h0s0,0-.06,0Z" transform="translate(0.06 -0.87)" fill="#42c4de"/>
      <path d="M5.54,16.29l-.16,0h0a.08.08,0,0,1-.09-.06h0s0-.08,0-.09h0l.16,0h0a.07.07,0,0,1,.09.05h0a.07.07,0,0,1,0,.09h0Z" transform="translate(0.06 -0.87)" fill="#795194"/>
      <path d="M16.1,7.7a.08.08,0,0,1,0-.1h0a.45.45,0,0,0,0-.14h0a.07.07,0,0,1,.09,0h0a.07.07,0,0,1,.06.09h0l-.06.16h0s0,0,0,0h0a.08.08,0,0,1-.07,0Z" transform="translate(0.06 -0.87)" fill="#795194"/>
      <path d="M5.07,16.42a.42.42,0,0,0-.16,0h0a.09.09,0,0,1-.09-.06h0a.09.09,0,0,1,.06-.1h0a.31.31,0,0,0,.15,0H5a.08.08,0,0,1,.09.06h0a.06.06,0,0,1,0,.07h0s0,0,0,0Z" transform="translate(0.06 -0.87)" fill="#795194"/>
      <path d="M4.09,17A.46.46,0,0,0,4,17H4s-.06-.07,0-.11h0s.07-.06.1,0H4l.14.07h0a.08.08,0,0,1,0,.1h0a0,0,0,0,0,0,0h0s-.05,0-.1,0Z" transform="translate(0.06 -0.87)" fill="#42c4de"/>
      <path d="M4.6,16.51l-.16,0h0a.07.07,0,0,1-.08-.07h0s0-.08.06-.08h0l.15,0h0a.08.08,0,0,1,.09.07h0a.09.09,0,0,1,0,.07h0Z" transform="translate(0.06 -0.87)" fill="#795194"/>
      <path d="M4.13,16.57H4s-.08,0-.07-.07h0A.08.08,0,0,1,4,16.42h.16a.07.07,0,0,1,.09.06h0a.11.11,0,0,1,0,.08h0l0,0Z" transform="translate(0.06 -0.87)" fill="#795194"/>
      <path d="M3.68,16.8l-.14-.09h0s0-.08,0-.1h0a.07.07,0,0,1-.07-.08h0s0-.08.08-.06h0a.85.85,0,0,0,.16,0h0a.08.08,0,0,1,.08.08h0s0,.08-.08.07h0l.12.08h0a.09.09,0,0,1,0,.11h0l0,0h0s-.07,0-.11,0Z" transform="translate(0.06 -0.87)" fill="#795194"/>
    </g>
    <path d="M11.47,10.48a.09.09,0,0,1,0-.11h0l.13-.09h0a.08.08,0,0,1,.11,0h0a.09.09,0,0,1,0,.11h0l-.12.1h0a.09.09,0,0,1-.11,0Zm-.14.2-.12.1h0a.08.08,0,0,1-.11,0h0a.08.08,0,0,1,0-.11h0l.12-.1h0a.09.09,0,0,1,.11,0h0a.07.07,0,0,1,0,.11Zm.5-.5a.08.08,0,0,1,0-.11h0l0,0h0L12,10h0a.08.08,0,0,1,.11,0h0a.08.08,0,0,1,0,.11h0l-.11.09h0l0,0h0a.11.11,0,0,1-.11,0ZM11,11l-.13.09h0a.09.09,0,0,1-.11,0h0a.08.08,0,0,1,0-.11h0a.57.57,0,0,1,.13-.08h0a.08.08,0,0,1,.11,0h0A.08.08,0,0,1,11,11Zm1.23-1.1s0-.07,0-.11h0l.12-.1h0a.07.07,0,0,1,.11,0h0s0,.07,0,.11h0a.52.52,0,0,0-.11.1h0a.13.13,0,0,1-.12,0Zm-1.61,1.38a1,1,0,0,1-.13.09h0a.08.08,0,0,1-.11,0h0a.09.09,0,0,1,0-.11h0l.13-.09h0a.09.09,0,0,1,.11,0h0a.08.08,0,0,1,0,.11Zm2-1.7a.07.07,0,0,1,0-.11h0l.11-.11h0a.07.07,0,0,1,.11,0h0a.07.07,0,0,1,0,.11h0a.57.57,0,0,0-.11.11h0a.07.07,0,0,1-.11,0Zm.35-.32s0-.07,0-.11h0A.38.38,0,0,0,13,9h0a.07.07,0,0,1,.11,0h0s0,.07,0,.11h0l-.11.1h0a.07.07,0,0,1-.11,0Zm-2.71,2.29a1,1,0,0,0-.13.09h0a.08.08,0,0,1-.11,0h0a.08.08,0,0,1,0-.11h0l.13-.09h0a.07.07,0,0,1,.11,0h0a.09.09,0,0,1,0,.11Zm3.05-2.6a.08.08,0,0,1,0-.11h0l.11-.11h0a.09.09,0,0,1,.12,0h0a.09.09,0,0,1,0,.12h0l-.12.11h0a.1.1,0,0,1-.13,0ZM9.79,11.77a1,1,0,0,1-.13.09h0a.06.06,0,0,1-.1,0h0s0-.08,0-.11h0a1,1,0,0,0,.13-.09h0a.07.07,0,0,1,.1,0h0a.09.09,0,0,1,0,.11ZM13.58,8.6a.09.09,0,0,1,0-.11h0l.11-.11h0a.09.09,0,0,1,.11,0h0a.09.09,0,0,1,0,.11h0a1.14,1.14,0,0,1-.11.11h0s-.07,0-.1,0ZM9.4,12l-.14.08h0a.07.07,0,0,1-.11,0h0a.07.07,0,0,1,0-.11h0l.14-.08h0a.08.08,0,0,1,.11,0h0a.11.11,0,0,1,0,.11Zm4.52-3.76a.09.09,0,0,1,0-.11h0L14,8.05h0a.11.11,0,0,1,.12,0h0a.11.11,0,0,1,0,.11h0a1.27,1.27,0,0,0-.1.12h0a.09.09,0,0,1-.11,0ZM9,12.27l-.14.08h0a.08.08,0,0,1-.11,0h0s0-.09,0-.11h0l.14-.08h0a.09.09,0,0,1,.11,0H9a.09.09,0,0,1,0,.11Zm5.25-4.34a.1.1,0,0,1,0-.12h0a1.14,1.14,0,0,0,.11-.11h0s.08,0,.11,0h0s0,.08,0,.11h0l-.11.12h0a.09.09,0,0,1-.1,0ZM8.57,12.51l-.13.08h0a.11.11,0,0,1-.11,0h0a.09.09,0,0,1,0-.11h0l.14-.08h0a.08.08,0,0,1,.1,0h0a.08.08,0,0,1,0,.1h0Zm6-4.94a.07.07,0,0,1,0-.11h0a.35.35,0,0,0,.08-.13h0a.09.09,0,0,1,.11,0h0a.08.08,0,0,1,0,.1h0a.46.46,0,0,1-.09.14h0l0,0h0a.07.07,0,0,1-.09,0ZM8.15,12.73,8,12.81H8a.11.11,0,0,1-.11,0h0a.11.11,0,0,1,0-.11h0a.39.39,0,0,0,.14-.08h0a.11.11,0,0,1,.11,0h0a.08.08,0,0,1,0,.1h0s0,0,0,0ZM7.74,13,7.59,13h0a.11.11,0,0,1-.11,0h0a.11.11,0,0,1,0-.11h0l.15-.07h0a.11.11,0,0,1,.11,0h0s0,.08,0,.1h0Zm6.94-5.79h0a.1.1,0,0,1-.11-.07h0A.08.08,0,0,1,14.64,7h0l.1,0h0a.09.09,0,0,1,0,.11h0s0,0,0,0h-.07Zm-7.36,6-.15.07h0a.07.07,0,0,1-.1,0h0a.07.07,0,0,1,0-.09h0L7.26,13h0a.09.09,0,0,1,.11,0h0a.09.09,0,0,1,0,.1h0Zm-.43.22-.15.07h0a.08.08,0,0,1-.1,0h0s0-.09,0-.1h0l.15-.07h0a.07.07,0,0,1,.09,0h0a.08.08,0,0,1,0,.1h0Zm-.43.19-.15.07h0a.07.07,0,0,1-.1,0h0a.07.07,0,0,1,0-.09h0l.15-.07h0a.06.06,0,0,1,.09,0h0s0,.06,0,.09h0ZM6,13.75l-.15.07h0a.08.08,0,0,1-.1,0h0a.08.08,0,0,1,0-.1h0L6,13.61H6a.08.08,0,0,1,.1,0h0a.08.08,0,0,1,0,.09H6Zm-.44.17L5.43,14h0a.09.09,0,0,1-.11-.05h0a.09.09,0,0,1,0-.11h0l.15-.05h0a.08.08,0,0,1,.1.05h0s0,.06,0,.09h0s0,0,0,0Zm-.44.17a.53.53,0,0,1-.15.05H5s-.08,0-.1-.05h0s0-.08.05-.1h0l.14-.05h0s.08,0,.11.05h0a.08.08,0,0,1,0,.09h0s0,0,0,0Zm-.44.17-.14.05h0a.1.1,0,0,1-.11-.05h0a.08.08,0,0,1,0-.1h0a1.21,1.21,0,0,1,.14-.05h0a.09.09,0,0,1,.11,0h0a.08.08,0,0,1,0,.09h0l0,0Zm-.45.15a.38.38,0,0,0-.14.05h0s-.1,0-.1-.06H4a.07.07,0,0,1,.06-.1h0a.6.6,0,0,0,.14-.05h0a.08.08,0,0,1,.1.06h0s0,.07,0,.09h0Zm-.45.14-.15,0h0a.07.07,0,0,1-.1-.05h0s0-.08.06-.1h0l.15,0h0a.07.07,0,0,1,.09.06h0a.08.08,0,0,1,0,.09h0s0,0,0,0ZM4.39,14l-.1.09h0a.09.09,0,0,1-.11,0h0a.09.09,0,0,1,0-.11h0l.1-.08h0a.08.08,0,0,1,.11,0h0a.08.08,0,0,1,0,.11h0Zm.16-.22a.08.08,0,0,1,0-.11h0l.12-.1h0a.08.08,0,0,1,.11,0h0a.09.09,0,0,1,0,.11h0l-.12.1h0a.09.09,0,0,1-.11,0Zm-.5.5-.12.1h0a.08.08,0,0,1-.11,0h0a.08.08,0,0,1,0-.11h0l.12-.1H4a.09.09,0,0,1,.11,0h0a.08.08,0,0,1,0,.11Zm.85-.81a.08.08,0,0,1,0-.11h0A.38.38,0,0,0,5,13.27H5a.07.07,0,0,1,.11,0h0a.08.08,0,0,1,0,.11h0L5,13.5H5s-.07,0-.11,0Zm.35-.31a.08.08,0,0,1,0-.11h0A.65.65,0,0,0,5.38,13h0a.07.07,0,0,1,.11,0h0a.08.08,0,0,1,0,.11h0l-.12.11h0s-.06,0-.11,0Zm.35-.32a.08.08,0,0,1,0-.11h0l.12-.11h0a.09.09,0,0,1,.11,0h0a.11.11,0,0,1,0,.11h0l-.12.11h0s-.08,0-.12,0Zm.34-.33a.09.09,0,0,1,0-.11h0a1.14,1.14,0,0,0,.11-.11h0a.11.11,0,0,1,.11,0h0a.09.09,0,0,1,0,.11h0l-.11.11h0a.09.09,0,0,1-.11,0Zm.34-.33a.09.09,0,0,1,0-.11h0L6.38,12h0a.1.1,0,0,1,.12,0h0a.11.11,0,0,1,0,.11h0a.38.38,0,0,1-.11.11h0a.09.09,0,0,1-.1,0Zm.32-.35a.11.11,0,0,1,0-.11h0l.11-.12h0a.11.11,0,0,1,.11,0h0a.11.11,0,0,1,0,.12h0l-.11.12h0s-.06,0-.1,0Zm.33-.34s0-.08,0-.12h0l.1-.11H7s.08,0,.12,0h0a.08.08,0,0,1,0,.11h0L7,11.5H7s-.08,0-.1,0Zm.3-.35a.09.09,0,0,1,0-.11h0l.11-.12h0s.08,0,.11,0h0s0,.08,0,.11h0a.63.63,0,0,1-.11.12h0a.09.09,0,0,1-.1,0Zm.32-.36s0-.08,0-.11h0a.63.63,0,0,1,.11-.12h0a.08.08,0,0,1,.11,0h0a.09.09,0,0,1,0,.12h0l-.11.11h0a.08.08,0,0,1-.1,0Zm.3-.36s0-.07,0-.11h0a.58.58,0,0,1,.1-.12h0a.08.08,0,0,1,.12,0h0s0,.06,0,.11h0L8,10.45H8a.09.09,0,0,1-.11,0Zm.3-.37s0-.07,0-.12h0l.1-.12h0s.07,0,.11,0h0a.08.08,0,0,1,0,.11h0l-.1.13h0s-.08,0-.1,0Zm.29-.37a.07.07,0,0,1,0-.11h0l.1-.13h0a.08.08,0,0,1,.1,0h0a.08.08,0,0,1,0,.1h0l-.1.13h0s-.07,0-.09,0Zm.28-.38s-.05-.08,0-.1h0l.1-.13h0s.08-.05.1,0h0s0,.08,0,.1h0l-.1.13h0l0,0h0s-.05,0-.08,0ZM9,8.94S9,8.86,9,8.84H9l.1-.13h0s.08-.05.1,0h0s.05.08,0,.1h0l-.1.13h0l0,0h0a.05.05,0,0,1-.08,0Zm.26-.38s0-.08,0-.1h0l.08-.13h0s.07,0,.11,0h0s0,.08,0,.1h0l-.09.13h0l0,0h0a.13.13,0,0,1-.08,0Zm.28-.39a.08.08,0,0,1,0-.11h0a.66.66,0,0,0,.08-.13h0a.08.08,0,0,1,.11,0h0a.08.08,0,0,1,0,.11h0a1.1,1.1,0,0,0-.09.14h0l0,0h0s-.06,0-.08,0Zm.25-.39a.08.08,0,0,1,0-.11h0a.46.46,0,0,0,.07-.14h0a.11.11,0,0,1,.12,0h0a.08.08,0,0,1,0,.11h0a.74.74,0,0,1-.08.13h0l0,0h0a.07.07,0,0,1-.09,0Zm.27-.4a.08.08,0,0,1,0-.11h0l.08-.13h0a.08.08,0,0,1,.11,0h0a.08.08,0,0,1,0,.11h0l-.08.14h0a.08.08,0,0,1-.09,0ZM10.3,7a.08.08,0,0,1,0-.11h0s.05-.1.08-.14h0a.08.08,0,0,1,.11,0h0a.08.08,0,0,1,0,.11h0a1.17,1.17,0,0,0-.08.13h0l0,0h0a.09.09,0,0,1-.1,0Zm.25-.4a.08.08,0,0,1,0-.12h0a.46.46,0,0,0,.08-.13h0a.09.09,0,0,1,.11,0h0s.06.07,0,.1h0l-.07.14h0s-.06,0-.09,0Zm.24-.41a.08.08,0,0,1,0-.11h0l.08-.13h0a.08.08,0,0,1,.11,0h0A.08.08,0,0,1,11,6h0a.91.91,0,0,1-.08.13h0l0,0h0a.07.07,0,0,1-.08,0ZM11,5.76a.08.08,0,0,1,0-.1h0l.07-.14h0a.08.08,0,0,1,.11,0h0a.09.09,0,0,1,0,.11h0a.91.91,0,0,1-.07.14h0l0,0h0s-.06,0-.08,0Zm.23-.42a.08.08,0,0,1,0-.1h0c0-.06,0-.09.07-.14h0a.08.08,0,0,1,.11,0h0a.08.08,0,0,1,0,.11h0a.91.91,0,0,1-.07.14h0s-.06,0-.08,0Zm.21-.42a.08.08,0,0,1,0-.11h0a.61.61,0,0,0,.07-.14h0s.08,0,.11,0h0s.06.07,0,.1h0a1,1,0,0,1-.07.15h0s0,0,0,0h0a.06.06,0,0,1-.09,0Zm.22-.41a.09.09,0,0,1,0-.11h0c0-.05,0-.1.07-.14h0s.08-.06.11,0h0s.06.08,0,.11h0a1,1,0,0,1-.08.14h0l0,0h-.08Zm.19-.43s-.06-.07,0-.1h0a.67.67,0,0,1,.07-.14h0a.07.07,0,0,1,.1,0h0a.07.07,0,0,1,0,.11h0a.72.72,0,0,0-.06.15h0l0,0h-.09Z" transform="translate(0.06 -0.87)" fill="#b5d334"/>
    <path d="M6,11l-.13.1h0a.09.09,0,0,1-.11,0h0a.09.09,0,0,1,0-.11h0l.12-.1h0a.08.08,0,0,1,.11,0H6A.09.09,0,0,1,6,11Zm.13-.21a.09.09,0,0,1,0-.11h0l.12-.1h0a.09.09,0,0,1,.11,0h0a.08.08,0,0,1,0,.11h0l-.12.1h0a.08.08,0,0,1-.11,0Zm-.52.5a.38.38,0,0,1-.13.09h0a.08.08,0,0,1-.11,0h0a.09.09,0,0,1,0-.11h0l.13-.09h0a.09.09,0,0,1,.11,0h0s0,.08,0,.11Zm.88-.81s0-.07,0-.11h0a.52.52,0,0,0,.11-.1h0a.07.07,0,0,1,.11,0h0s0,.07,0,.11h0a.38.38,0,0,0-.11.11h0a.09.09,0,0,1-.11,0ZM5.22,11.56a1,1,0,0,0-.13.09h0s-.09,0-.1,0H5s0-.09,0-.1H5a1,1,0,0,1,.13-.09h0a.08.08,0,0,1,.11,0h0s0,.07,0,.11Zm1.61-1.4a.07.07,0,0,1,0-.11h0L7,9.94H7a.11.11,0,0,1,.11,0h0a.1.1,0,0,1,0,.12h0l-.11.1H7s-.11,0-.13,0Zm-2,1.66a1,1,0,0,1-.13.09h0a.07.07,0,0,1-.11,0h0a.08.08,0,0,1,0-.11h0a1,1,0,0,0,.13-.09h0a.08.08,0,0,1,.11,0h0a.09.09,0,0,1,0,.11Zm2.34-2a.09.09,0,0,1,0-.11h0l.11-.11h0a.11.11,0,0,1,.12,0h0a.09.09,0,0,1,0,.11h0a1.14,1.14,0,0,0-.11.11h0a.07.07,0,0,1-.1,0ZM4.43,12.08l-.14.08h0a.08.08,0,0,1-.1,0h0a.07.07,0,0,1,0-.11h0a.57.57,0,0,1,.13-.08h0a.07.07,0,0,1,.11,0h0s0,.07,0,.11ZM7.5,9.5a.13.13,0,0,1,0-.12h0a1.14,1.14,0,0,0,.11-.11h0a.09.09,0,0,1,.11,0h0a.09.09,0,0,1,0,.11h0l-.11.12h0a.08.08,0,0,1-.1,0ZM4,12.32l-.14.08h0a.11.11,0,0,1-.11,0h0a.09.09,0,0,1,0-.11h0L4,12.18H4a.11.11,0,0,1,.11,0h0a.09.09,0,0,1,0,.11ZM7.81,9.16s0-.08,0-.11h0a1.27,1.27,0,0,1,.1-.12h0s.08,0,.12,0H8S8.05,9,8,9H8a1.27,1.27,0,0,1-.1.12h0a.11.11,0,0,1-.11,0Zm.31-.37a.08.08,0,0,1,0-.11h0a.58.58,0,0,1,.1-.12h0a.08.08,0,0,1,.11,0h0s0,.07,0,.12h0l-.1.12h0a.08.08,0,0,1-.11,0Zm.3-.36a.08.08,0,0,1,0-.11h0l.1-.13h0a.07.07,0,0,1,.11,0h0s0,.06,0,.11h0l-.1.13h0s-.06,0-.1,0Zm.29-.37a.08.08,0,0,1,0-.1h0l.1-.13h0a.09.09,0,0,1,.11,0h0a.09.09,0,0,1,0,.11h0l-.1.13h0s-.05,0-.09,0ZM9,7.69a.08.08,0,0,1,0-.11H9l.09-.13h0a.08.08,0,0,1,.11,0h0s0,.08,0,.1h0l-.09.13h0l0,0h0a.13.13,0,0,1-.09,0Zm.28-.39a.1.1,0,0,1,0-.12h0a.35.35,0,0,0,.08-.13h0a.08.08,0,0,1,.11,0h0a.08.08,0,0,1,0,.11h0a.67.67,0,0,0-.09.14h0l0,0H9.27Zm.25-.39a.09.09,0,0,1,0-.12h0a.83.83,0,0,0,.07-.13h0a.09.09,0,0,1,.12,0h0a.08.08,0,0,1,0,.11h0a1.48,1.48,0,0,1-.08.13h0l0,0h0a.13.13,0,0,1-.09,0Zm.26-.41a.08.08,0,0,1,0-.12h0a.46.46,0,0,0,.08-.13h0a.08.08,0,0,1,.11,0h0a.08.08,0,0,1,0,.1h0a.74.74,0,0,1-.08.13h0l0,0h0s-.08,0-.09,0ZM10,6.09A.08.08,0,0,1,10,6h0l.08-.13h0a.08.08,0,0,1,.11,0h0a.09.09,0,0,1,0,.11h0c0,.05,0,.09-.07.14h0l0,0h0a.07.07,0,0,1-.09,0Zm.23-.42a.08.08,0,0,1,0-.1h0c0-.06.05-.09.07-.14h0a.08.08,0,0,1,.11,0h0a.08.08,0,0,1,0,.11h0s0,.08-.07.14h0s-.05,0-.08,0ZM6.78,8.27a.08.08,0,0,1,0-.11h0l.12-.1h0a.08.08,0,0,1,.11,0H7a.09.09,0,0,1,0,.11H7l-.12.1h0a.08.08,0,0,1-.11,0Zm-.14.21-.12.1h0a.09.09,0,0,1-.11,0h0a.09.09,0,0,1,0-.11h0l.12-.09h0a.08.08,0,0,1,.11,0h0s0,.07,0,.11ZM7.15,8a.08.08,0,0,1,0-.11h0l.13-.09h0s.07,0,.11,0h0a.08.08,0,0,1,0,.11h0L7.26,8h0a.08.08,0,0,1-.11,0Zm-.88.8a.38.38,0,0,1-.13.09h0a.08.08,0,0,1-.11,0H6a.08.08,0,0,1,0-.11H6a.6.6,0,0,1,.13-.09h0a.09.09,0,0,1,.11,0h0a.07.07,0,0,1,0,.11ZM7.5,7.65a.08.08,0,0,1,0-.11h0l.12-.11h0a.08.08,0,0,1,.11,0h0a.08.08,0,0,1,0,.11h0a.43.43,0,0,0-.12.11h0a.08.08,0,0,1-.11,0ZM5.89,9a1,1,0,0,0-.13.09h0a.08.08,0,0,1-.11,0h0a.07.07,0,0,1,0-.11h0a1,1,0,0,1,.13-.09h0a.08.08,0,0,1,.11,0h0a.14.14,0,0,1,0,.13Zm2-1.71a.08.08,0,0,1,0-.11h0L8,7.11H8a.07.07,0,0,1,.11,0h0a.07.07,0,0,1,0,.11h0L8,7.34H8a.08.08,0,0,1-.11,0Zm2.61-2.07a.08.08,0,0,1,0-.11h0A.61.61,0,0,0,10.49,5h0a.09.09,0,0,1,.11,0h0s.06.07,0,.1h0a.61.61,0,0,1-.07.14h0s0,0,0,0h-.08Zm-5,4a1,1,0,0,1-.13.09h0a.07.07,0,0,1-.11,0h0s0-.08,0-.11h0a1,1,0,0,0,.13-.09h0a.09.09,0,0,1,.11,0h0a.11.11,0,0,1,0,.11ZM8.19,7a.13.13,0,0,1,0-.12h0a1.27,1.27,0,0,0,.12-.1h0a.09.09,0,0,1,.11,0h0a.09.09,0,0,1,0,.11h0L8.3,7h0a.07.07,0,0,1-.1,0ZM5.09,9.55,5,9.63H5a.11.11,0,0,1-.11,0h0s0-.1,0-.11h0L5,9.41H5a.07.07,0,0,1,.11,0h0s0,.08,0,.11ZM8.53,6.68a.09.09,0,0,1,0-.11h0s.07-.08.11-.11h0a.11.11,0,0,1,.11,0h0a.1.1,0,0,1,0,.12h0a1.27,1.27,0,0,1-.12.1h0a.07.07,0,0,1-.1,0Zm.34-.34a.09.09,0,0,1,0-.11h0A1.27,1.27,0,0,0,9,6.11H9a.11.11,0,0,1,.12,0h0a.09.09,0,0,1,0,.11h0a1.27,1.27,0,0,0-.1.12H9s-.08,0-.1,0ZM4.68,9.78l-.14.08h0a.11.11,0,0,1-.11,0h0a.09.09,0,0,1,0-.11h0a.39.39,0,0,0,.14-.08h0a.11.11,0,0,1,.11,0h0s0,.08,0,.1h0ZM9.18,6a.13.13,0,0,1,0-.12h0a1.14,1.14,0,0,0,.11-.11h0s.08,0,.11,0h0a.09.09,0,0,1,0,.11h0L9.29,6h0a.09.09,0,0,1-.1,0Zm1.47-1.18s-.06-.07,0-.1h0a.37.37,0,0,1,.07-.14h0a.07.07,0,0,1,.1,0h0a.08.08,0,0,1,0,.11h0a.91.91,0,0,1-.07.14h0l0,0h0a.07.07,0,0,1-.08,0ZM4.25,10l-.14.06h0A.07.07,0,0,1,4,10H4a.07.07,0,0,1,0-.1h0l.14-.07h0s.09,0,.1,0h0a.09.09,0,0,1,0,.1h0ZM9.5,5.66s0-.08,0-.11h0l.1-.12h0s.08,0,.12,0h0s0,.08,0,.11h0a1.27,1.27,0,0,1-.1.12h0s-.07,0-.11,0Zm.32-.36s0-.07,0-.11h0a.63.63,0,0,0,.11-.12h0a.08.08,0,0,1,.11,0h0s0,.07,0,.11h0l-.11.12h0a.08.08,0,0,1-.1,0Zm-6,4.9-.14.07h0a.09.09,0,0,1-.11,0h0a.08.08,0,0,1,.05-.1h0l.13-.06h0a.07.07,0,0,1,.1,0h0a.06.06,0,0,1,0,.09h0s0,0,0,0Zm7-5.79a.07.07,0,0,1,0-.1h0l0-.08h0a.09.09,0,0,1-.11,0h0a.07.07,0,0,1,0-.11h0L10.81,4h0s.07,0,.12,0h0a.08.08,0,0,1,0,.11h0l0,0h0s.07.07,0,.1h0a.47.47,0,0,1-.06.15h0s0,0,0,0h-.07ZM10.13,5s0-.08,0-.12h0l.11-.12h0s.07,0,.11,0h0a.08.08,0,0,1,0,.11h0l-.1.12h0a.09.09,0,0,1-.1,0ZM3.38,10.38l-.15,0h0a.08.08,0,0,1-.1,0h0a.09.09,0,0,1,0-.11h0a.88.88,0,0,0,.15,0h0a.09.09,0,0,1,.11,0h0a.08.08,0,0,1,0,.09h0l0,0Zm7.05-5.79a.08.08,0,0,1,0-.11h0a.4.4,0,0,1,.1-.12h0s.07,0,.12,0h0a.07.07,0,0,1,0,.11h0a.4.4,0,0,1-.1.12h0a.08.08,0,0,1-.11,0ZM11,4S11,3.9,11,3.87h0a.2.2,0,0,0,0-.07h0s0,0,0-.06h0a0,0,0,0,0,0,0h0a.08.08,0,0,1,.1,0h0a.07.07,0,0,1,0,.08h0a.58.58,0,0,1-.05.13h0s0,0,0,0h0s0,0-.06,0Zm-8.1,6.56a.42.42,0,0,1-.15,0h0a.07.07,0,0,1-.09-.05h0s0-.08,0-.1h0l.16,0h0s.09,0,.09.06H3a.09.09,0,0,1,0,.09h0Zm-.45.13-.15,0h0a.07.07,0,0,1-.09,0h0a.08.08,0,0,1,0-.1h0a1.24,1.24,0,0,0,.16,0h0a.08.08,0,0,1,.09.06h0a.06.06,0,0,1,0,.07h0l0,0Zm-.47.1-.16,0h0a.07.07,0,0,1-.09-.06h0c0-.05,0-.09.07-.09h0l.15,0H2c.05,0,.08,0,.08.06h0a.08.08,0,0,1,0,.08H2Zm-.47.06a.45.45,0,0,1-.16,0h0a.07.07,0,0,1-.08-.07h0a.07.07,0,0,1,.08-.07h0l.16,0h0a.09.09,0,0,1,.08.07h0a.06.06,0,0,1,0,.07H1.53Zm-.48,0a.59.59,0,0,1-.17,0h0a.06.06,0,0,1-.06-.08h0a.08.08,0,0,1,.08-.07h0l.14,0H1a.09.09,0,0,1,.08.07h0a.06.06,0,0,1,0,.06h0s0,0,0,0Z" transform="translate(0.06 -0.87)" fill="#ef5194"/>
    <circle cx="7.05" cy="11.94" r="0.74" fill="#fff"/>
    <circle cx="17.21" cy="12.02" r="0.74" fill="#fff"/>
    <circle cx="17.11" cy="15.52" r="0.74" fill="#fff"/>
    <circle cx="14.51" cy="26.42" r="0.74" fill="#fff"/>
    <circle cx="16.72" cy="26.15" r="0.74" fill="#fff"/>
    <circle cx="27.81" cy="22.74" r="0.74" fill="#fff"/>
    <circle cx="27.01" cy="26.51" r="0.74" fill="#fff"/>
    <circle cx="7.37" cy="13.5" r="0.24" fill="#fff"/>
    <circle cx="13.82" cy="18.99" r="0.24" fill="#fff"/>
    <circle cx="13.33" cy="18.38" r="0.24" fill="#fff"/>
    <circle cx="14.55" cy="18.39" r="0.24" fill="#fff"/>
    <circle cx="14.86" cy="24.01" r="0.24" fill="#fff"/>
    <circle cx="18.35" cy="25.17" r="0.24" fill="#fff"/>
    <circle cx="15.78" cy="28.65" r="0.24" fill="#fff"/>
    <circle cx="14.57" cy="28.82" r="0.24" fill="#fff"/>
    <circle cx="18.26" cy="27.72" r="0.24" fill="#fff"/>
    <circle cx="26.2" cy="24.81" r="0.24" fill="#fff"/>
    <circle cx="24.32" cy="26.47" r="0.24" fill="#fff"/>
    <circle cx="23.65" cy="28.69" r="0.24" fill="#fff"/>
    <circle cx="21.15" cy="29.09" r="0.24" fill="#fff"/>
    <circle cx="24.74" cy="20.88" r="0.24" fill="#fff"/>
    <circle cx="26.9" cy="20.2" r="0.24" fill="#fff"/>
    <circle cx="26.48" cy="19.94" r="0.24" fill="#fff"/>
    <circle cx="17.61" cy="13.64" r="0.24" fill="#fff"/>
    <circle cx="15.81" cy="13.82" r="0.24" fill="#fff"/>
    <circle cx="5.34" cy="5.59" r="0.24" fill="#fff"/>
    <circle cx="6.79" cy="5.69" r="0.24" fill="#fff"/>
    <circle cx="6.91" cy="5.93" r="0.24" fill="#fff"/>
    <circle cx="6.05" cy="7.17" r="0.24" fill="#fff"/>
    <circle cx="19.11" cy="14.71" r="0.24" fill="#fff"/>
    <polygon points="0.66 0.13 2 0.75 3.26 0 3.09 1.45 4.19 2.42 2.75 2.71 2.17 4.05 1.45 2.77 0 2.63 1 1.56 0.66 0.13" fill="#f5d735"/>
  </g>
</svg>
