<?xml version="1.0" encoding="UTF-8"?>
<svg version="1.1" xmlns="http://www.w3.org/2000/svg" xmlns:xlink="http://www.w3.org/1999/xlink" viewBox="0 0 20 20">
<path d="M10,3.5 C10.5,3.5 11.5,4 11.5,5 L11.5,9 C11.5,10 10.5,10.5 10,10.5 C9.5,10.5 8.5,10 8.5,9 L8.5,5 C8.5,4 9.5,3.5 10,3.5 z" fill="currentColor"/>
<path d="M10,0 C13,0 16,2 16,6 L16,14 C16,18 13,20 10,20 C7,20 4,18 4,14 L4,6 C4,2 7,0 10,0 z M10,1 C7.5,1 5,2.5 5,6 L5,14 C5,17.5 7.5,19 10,19 C12.5,19 15,17.5 15,14 C15,8 15,6 15,6 C15,2.5 12.5,1 10,1 z" fill="inherit"/>
<path d="M10,3 C11,3 12,4 12,5 L12,9 C12,10 11,11 10,11 C9,11 8,10 8,9 L8,5 C8,4 9,3 10,3 z M10,4 C9.5,4 9,4.5 9,5 L9,9 C9,9.5 9.5,10 10,10 C10.5,10 11,9.5 11,9 L11,5 C11,4.5 10.552,4 10,4 z" fill="inherit"/>
</svg>
