<?xml version="1.0" encoding="utf-8"?>
<!-- Generator: Adobe Illustrator 16.0.0, SVG Export Plug-In . SVG Version: 6.00 Build 0)  -->
<!DOCTYPE svg PUBLIC "-//W3C//DTD SVG 1.1//EN" "http://www.w3.org/Graphics/SVG/1.1/DTD/svg11.dtd">
<svg version="1.1" id="Layer_1" xmlns="http://www.w3.org/2000/svg" xmlns:xlink="http://www.w3.org/1999/xlink" x="0px" y="0px"
	 width="120px" height="120px" viewBox="0 0 120 120" enable-background="new 0 0 120 120" xml:space="preserve">
<g>
	<path fill="#231F20" d="M105.112,46.66c-0.844-2.317-3.169-3.874-5.786-3.874c-0.738,0-1.458,0.125-2.14,0.374
		c-0.634,0.23-1.349,0.664-1.993,1.172c-1.134-2.457-3.619-4.07-6.356-4.07c-0.816,0-1.622,0.143-2.394,0.424
		c-1.537,0.56-2.804,1.613-3.626,3.003c-1.307-1.541-3.252-2.483-5.344-2.483c-0.816,0-1.621,0.143-2.394,0.424
		c-1.82,0.663-3.417,1.954-4.381,3.542c-0.306,0.504-0.545,1.032-0.716,1.575c-1.531-2.361-3.286-4.796-4.923-6.433
		c-2.988-2.988-7.371-6.55-11.282-6.55c-0.689,0-1.346,0.112-1.951,0.332c-0.218,0.079-0.428-0.016-0.633,0.084
		C46.481,30.429,40.502,28,34,28c-0.35,0-0.679,0-1,0v0.001v-3.5c0-0.606-0.365-1.153-0.926-1.386s-1.331-0.104-1.76,0.325l-5.938,6
		c-0.586,0.586-0.555,1.535,0.031,2.121l6.016,6c0.429,0.429,1.082,0.558,1.643,0.325S33,37.108,33,36.501V32c0.32,0,0.647,0,1,0
		c5.377,0,10.323,1.987,14.287,5c-0.167,0.318-0.317,0.74-0.432,1.088c-0.653,1.994-0.327,4.236,0.896,6.071
		c0.931,1.396,2.167,2.248,3.476,3.125c1.517,1.015,3.19,2.153,4.934,4.474c0.217,1.274,0.339,2.586,0.339,3.924
		c0,4.464-1.264,8.614-3.435,12.149c-2.602,0.451-4.883,2.149-6.024,4.599c-0.377,0.807-0.605,1.646-0.708,2.485
		c-1.102,0.76-2.262,1.442-3.489,2.011l1.871,3.473c0.77-0.364,1.51-0.774,2.237-1.205c0.759,1.762,2.12,3.258,3.962,4.115
		c0.068,0.036,6.957,3.719,16.498,8.168l1.56,0.73c6.112,2.87,11.885,5.582,18.577,5.582h0.001c3.187,0,6.379-0.598,9.756-1.827
		c11.867-4.319,13.67-11.721,14.5-18.931C113.604,70.096,105.46,47.614,105.112,46.66z M109.825,76.688
		c-0.781,6.788-2.265,12.712-12.545,16.454c-3.044,1.107-5.899,1.646-8.73,1.646h-0.001c-6.022,0-11.25-2.455-17.302-5.298
		l-1.567-0.733c-9.46-4.412-16.281-8.059-16.424-8.131c-2.594-1.21-3.713-4.318-2.496-6.928c0.861-1.848,2.652-2.995,4.675-2.995
		c0.759,0,1.499,0.165,2.17,0.478l10.846,5.355c0.546,0.271,1.199,0.184,1.655-0.219c0.457-0.402,0.625-1.04,0.427-1.615
		c-0.211-0.609-5.206-15.032-9.229-22.073c-2.645-4.627-5.396-6.47-7.405-7.815c-1.146-0.767-2.05-1.373-2.649-2.272
		c-0.709-1.064-0.907-2.312-0.542-3.426c0.336-1.025,1.119-1.828,2.146-2.202c2.078-0.76,5.932,1.365,10.087,5.52
		c3.792,3.792,8.592,12.833,8.64,12.924c0.368,0.696,1.211,0.99,1.935,0.67c0.721-0.32,1.071-1.143,0.801-1.884l-1.368-3.759
		c-0.473-1.3-0.366-2.532,0.318-3.66c0.615-1.015,1.651-1.846,2.841-2.279c0.443-0.161,0.903-0.243,1.368-0.243
		c1.676,0,3.187,1.059,3.76,2.633l1.881,5.168c0.283,0.778,1.145,1.18,1.922,0.896c0.778-0.283,1.18-1.144,0.896-1.922l-0.854-2.35
		c-0.365-1.004-0.317-2.09,0.134-3.059s1.253-1.703,2.258-2.068c0.441-0.161,0.902-0.243,1.367-0.243
		c1.675,0,3.186,1.059,3.759,2.634l2.224,6.108c0.284,0.779,1.147,1.179,1.922,0.896c0.779-0.284,1.181-1.145,0.896-1.923
		l-1.318-3.624c0.406-0.445,1.256-1.142,1.894-1.374c0.352-0.128,0.727-0.193,1.113-0.193c1.34,0,2.56,0.781,2.968,1.9
		C104.591,53.998,110.421,71.51,109.825,76.688z M58.394,68.272c1.452-2.762,2.432-5.805,2.852-9.036
		c2.004,4.44,3.979,9.624,5.204,12.967l-7.546-3.726C58.736,68.4,58.564,68.339,58.394,68.272z"/>
	<path fill="#231F20" d="M37.061,73.814c-0.429-0.43-1.324-0.559-1.885-0.326S34,74.268,34,74.875V79c-0.168,0-0.324,0-0.5,0
		C20.542,79,10,68.645,10,55.687c0-9.444,5.603-17.506,13.656-21.237l-1.871-3.495C12.465,35.362,6,44.688,6,55.664
		C6,70.827,18.337,83,33.5,83c0.176,0,0.331,0,0.5,0v3.875c0,0.605,0.615,1.152,1.176,1.385s1.456,0.104,1.885-0.324l6-6
		c0.586-0.586,0.586-1.535,0-2.121L37.061,73.814z"/>
</g>
</svg>
