<?xml version="1.0" encoding="UTF-8"?>
<svg version="1.1" xmlns="http://www.w3.org/2000/svg" xmlns:xlink="http://www.w3.org/1999/xlink" viewBox="0 0 20 20">
  <path d="M8,0 C10.5,0 12.5,1.5 12.5,3.5 C12.443,5.4 10.96,6.513 9.5,7.5 L9.5,4 C9.5,2.5 9,2 8,2 C7,2 6.5,2.5 6.5,4 C6.5,5 6.5,3.5 5,3.5 C3.5,3.5 3.5,5 3.5,5 L3.5,8 C2,7.5 0.5,6.5 0.5,4.5 C0.5,2.5 2.5,1 5,1 C6,0 7,0 8,0 z" fill="currentColor"/>
  <path d="M16,0 C18.2,-0 20,1.791 20,4 C20,6.2 18.2,8 16,8 C13.791,8 12,6.2 12,4 C12,1.791 13.791,0 16,0 z M16,0.75 C14.2,0.75 12.75,2.2 12.75,4 C12.75,5.8 14.2,7.25 16,7.25 C17.8,7.25 19.25,5.8 19.25,4 C19.25,2.2 17.8,0.75 16,0.75 z" fill="inherit"/>
  <path d="M18.5,4.5 C18,4.5 16,4.5 16,4.5 C15.7,4.5 15.5,4.327 15.5,4 C15.5,4 15.5,2 15.5,1.5 C15.5,1 16.5,1 16.5,1.5 C16.5,2 16.5,3.5 16.5,3.5 C16.5,3.5 18,3.5 18.5,3.5 C19,3.5 19,4.5 18.5,4.5 z" fill="inherit"/>
  <path d="M10,20 C9,20 7,20 6,20 C5,20 3.874,19.3 2.5,17.5 C1,15.5 -1,10 3,10 L3,5 C3,3.5 4,3 5,3 C6,3 6,3.25 6,3.25 C6,2.5 6.5,1.5 8,1.5 C9.5,1.5 10,2.5 10,3.5 C10,3.5 10,8.25 10,8.25 C10,8.25 10,8 11,8 C12.5,8 13,9.1 13,9.1 C13,9.1 13,9 14,9 C15.5,9 16.5,11.5 15.5,15 C14.5,18 12,20 10,20 z M3,11 C0.5,11 2.25,15.139 3.5,17 C4.3,18.2 5.5,19 6,19 C7,19 9,19 10,19 C11.5,19 14,16.5 14.5,14.5 C15,12.5 15,10 13.5,10 C13.5,10 13,10 13,10.5 C13,11 13,11.5 13,12 C13,13 12,13 12,12 L12,10 C12,9.5 11.5,9 11,9 C10.5,9 10,9.5 10,10 C10,11.5 10,11 10,11.5 C10,12.5 9,12.5 9,11.5 C9,11.5 9,3.6 9,3.5 C9,3 8.5,2.5 8,2.5 C7.5,2.5 7,3 7,3.5 L7,11 C7,12 6,12 6,11 C6,11 6,5 6,5 C6,4.5 5.5,4 5,4 C4.5,4 4,4.5 4,5 L4,13 C4,14 3,14 3,13 L3,11 z" fill="inherit"/>
</svg>
