<?xml version="1.0" encoding="UTF-8"?>
<svg version="1.1" xmlns="http://www.w3.org/2000/svg" xmlns:xlink="http://www.w3.org/1999/xlink" viewBox="0 0 20 20">
  <path d="M20,11 C20,11.5 20,14.5 20,15 C20,15.5 19.5,16 19,16 C18.5,16 15.5,16 15,16 C14.5,16 14,15.5 14,15 C14,14.5 14,11.5 14,11 C14,10.5 14.5,10 15,10 C15.5,10 18.5,10 19,10 C19.5,10 20,10.5 20,11 z M19,11 L15,11 L15,15 L19,15 L19,11 z" fill="inherit"/>
  <path d="M13,11 C13,11.5 13,14.5 13,15 C13,15.5 12.5,16 12,16 C11.5,16 8.5,16 8,16 C7.5,16 7,15.5 7,15 C7,14.5 7,11.5 7,11 C7,10.5 7.5,10 8,10 C8.5,10 11.5,10 12,10 C12.5,10 13,10.5 13,11 z M12,11 L8,11 L8,15 L12,15 L12,11 z" fill="inherit"/>
  <path d="M6,11 C6,11.5 6,14.5 6,15 C6,15.5 5.5,16 5,16 C4.5,16 1.5,16 1,16 C0.5,16 0,15.5 0,15 C0,14.5 0,11.5 0,11 C0,10.5 0.5,10 1,10 C1.5,10 4.5,10 5,10 C5.5,10 6,10.5 6,11 z M5,11 L1,11 L1,15 L5,15 L5,11 z" fill="inherit"/>
  <path d="M13,4 C13,4.5 13,7.5 13,8 C13,8.5 12.5,9 12,9 C11.5,9 8.5,9 8,9 C7.5,9 7,8.5 7,8 C7,7.5 7,4.5 7,4 C7,3.5 7.5,3 8,3 C8.5,3 11.5,3 12,3 C12.5,3 13,3.5 13,4 z M12,4 L8,4 L8,8 L12,8 L12,4 z" fill="inherit"/>
  <path d="M14.5,10.5 L19.5,10.5 L19.5,15.5 L14.5,15.5 L14.5,10.5 z" fill="currentColor"/>
  <path d="M0.5,10.5 L5.5,10.5 L5.5,15.5 L0.5,15.5 L0.5,10.5 z" fill="currentColor"/>
</svg>
