<?xml version="1.0" encoding="UTF-8"?>
<svg version="1.1" xmlns="http://www.w3.org/2000/svg" xmlns:xlink="http://www.w3.org/1999/xlink" viewBox="0 0 20 20">
  <path d="M9,0 C11.5,0 13.5,1.5 13.5,3.5 C13.443,5.4 11.96,6.513 10.5,7.5 L10.5,4 C10.5,2.5 10,2 9,2 C8,2 7.5,2.5 7.5,4 C7.5,5 7.5,3.5 6,3.5 C4.5,3.5 4.5,5 4.5,5 L4.5,8 C3,7.5 1.5,6.5 1.5,4.5 C1.5,2.5 3.5,1 6,1 C7,0 8,0 9,0 z" fill="currentColor"/>
  <path d="M11,20 C10,20 8,20 7,20 C6,20 4.874,19.3 3.5,17.5 C2,15.5 0,10 4,10 L4,5 C4,3.5 5,3 6,3 C7,3 7,3.25 7,3.25 C7,2.5 7.5,1.5 9,1.5 C10.5,1.5 11,2.5 11,3.5 C11,3.5 11,8.25 11,8.25 C11,8.25 11,8 12,8 C13.5,8 14,9.1 14,9.1 C14,9.1 14,9 15,9 C16.5,9 17.5,11.5 16.5,15 C15.5,18 13,20 11,20 z M4,11 C1.5,11 3.25,15.139 4.5,17 C5.3,18.2 6.5,19 7,19 C8,19 10,19 11,19 C12.5,19 15,16.5 15.5,14.5 C16,12.5 16,10 14.5,10 C14.5,10 14,10 14,10.5 C14,11 14,11.5 14,12 C14,13 13,13 13,12 L13,10 C13,9.5 12.5,9 12,9 C11.5,9 11,9.5 11,10 C11,11.5 11,11 11,11.5 C11,12.5 10,12.5 10,11.5 C10,11.5 10,3.6 10,3.5 C10,3 9.5,2.5 9,2.5 C8.5,2.5 8,3 8,3.5 L8,11 C8,12 7,12 7,11 C7,11 7,5 7,5 C7,4.5 6.5,4 6,4 C5.5,4 5,4.5 5,5 L5,13 C5,14 4,14 4,13 L4,11 z" fill="inherit"/>
</svg>
