<?xml version="1.0" encoding="UTF-8"?>
<svg version="1.1" xmlns="http://www.w3.org/2000/svg" xmlns:xlink="http://www.w3.org/1999/xlink" viewBox="0 0 20 20">
  <path d="M7,0 C9.5,0 11.5,2 11.5,4 C11.5,6 10,7.5 8.5,8 L8.5,5 C8.5,5 8.5,3.5 7,3.5 C5.5,3.5 5.5,5 5.5,5 L5.5,8 C4,7.5 2.5,6 2.5,4 C2.5,2 4.5,0 7,0 z" fill="currentColor"/>
  <path d="M16,0 C18.2,-0 20,1.791 20,4 C20,6.2 18.2,8 16,8 C13.791,8 12,6.2 12,4 C12,1.791 13.791,0 16,0 z M16,0.75 C14.2,0.75 12.75,2.2 12.75,4 C12.75,5.8 14.2,7.25 16,7.25 C17.8,7.25 19.25,5.8 19.25,4 C19.25,2.2 17.8,0.75 16,0.75 z" fill="inherit"/>
  <path d="M18.5,4.5 C18,4.5 16,4.5 16,4.5 C15.7,4.5 15.5,4.327 15.5,4 C15.5,4 15.5,2 15.5,1.5 C15.5,1 16.5,1 16.5,1.5 C16.5,2 16.5,3.5 16.5,3.5 C16.5,3.5 18,3.5 18.5,3.5 C19,3.5 19,4.5 18.5,4.5 z" fill="inherit"/>
  <path d="M12,20 C11,20 9,20 8,20 C7,20 5.874,19.332 4.5,17.5 C3,15.5 1,10 5,10 L5,5 C5,3.5 6,3 7,3 C8,3 9,3.5 9,5 C9,5 9,7.7 9,7.7 C9,7.7 9,7.5 10,7.5 C11,7.5 11.5,8.5 11.5,8.5 C11.5,8.5 12,8 13,8 C14.5,8 15,9.1 15,9.1 C15,9.1 15,9 16,9 C17.5,9 18.5,11.5 17.5,15 C16.5,18 14,20 12,20 z M5,11 C2.5,11 4.25,15.139 5.5,17 C6.3,18.2 7.5,19 8,19 C9,19 11,19 12,19 C13.5,19 16,16.5 16.5,14.5 C17,12.5 17,10 15.5,10 C15.5,10 15,10 15,10.5 C15,11 15,11.5 15,12 C15,13 14,13 14,12 L14,10 C14,9.5 13.5,9 13,9 C12.5,9 12,9.5 12,10 C12,11.5 12,11 12,11.5 C12,12.5 11,12.5 11,11.5 C11,11.5 11,9.6 11,9.5 C11,9 10.5,8.5 10,8.5 C9.5,8.5 9,9 9,9.5 L9,11 C9,12 8,12 8,11 C8,11 8,5 8,5 C8,4.5 7.5,4 7,4 C6.5,4 6,4.5 6,5 L6,13 C6,14 5,14 5,13 L5,11 z" fill="inherit"/>
</svg>
