<?xml version="1.0" encoding="utf-8"?>
<!-- Generator: Adobe Illustrator 16.0.0, SVG Export Plug-In . SVG Version: 6.00 Build 0)  -->
<!DOCTYPE svg PUBLIC "-//W3C//DTD SVG 1.1//EN" "http://www.w3.org/Graphics/SVG/1.1/DTD/svg11.dtd">
<svg version="1.1" id="Layer_1" xmlns="http://www.w3.org/2000/svg" xmlns:xlink="http://www.w3.org/1999/xlink" x="0px" y="0px"
	 width="120px" height="120px" viewBox="0 0 120 120" enable-background="new 0 0 120 120" xml:space="preserve">
<g>
	<path fill="#231F20" d="M25.061,55.814c-0.586-0.586-1.535-0.586-2.121,0l-6,6c-0.429,0.428-0.558,0.887-0.325,1.447
		S17.394,64,18,64h4v10.375c0,1,1,2,2,2s2-1,2-2V64h4c0.606,0,1.153-0.178,1.386-0.738s0.104-1.113-0.325-1.541L25.061,55.814z"/>
	<path fill="#231F20" d="M30,40h-4v-9.625c0-1-1-2-2-2s-2,1-2,2V40h-4c-0.606,0-1.153,0.553-1.386,1.113s-0.104,1.299,0.325,1.728
		l6,6.047c0.586,0.586,1.535,0.609,2.121,0.023l6-5.988c0.429-0.429,0.558-1.255,0.325-1.816S30.606,40,30,40z"/>
	<path fill="#231F20" d="M95.112,42.66c-0.844-2.317-3.169-3.874-5.786-3.874c-0.738,0-1.458,0.125-2.14,0.374
		c-0.634,0.23-1.349,0.664-1.993,1.172c-1.134-2.457-3.619-4.07-6.356-4.07c-0.816,0-1.622,0.143-2.394,0.424
		c-1.537,0.56-2.804,1.613-3.626,3.003c-1.307-1.541-3.252-2.483-5.344-2.483c-0.816,0-1.621,0.143-2.394,0.424
		c-1.82,0.663-3.417,1.954-4.381,3.542c-0.306,0.504-0.545,1.032-0.716,1.575c-1.531-2.361-3.286-4.796-4.923-6.433
		c-2.988-2.988-7.371-6.55-11.282-6.55c-0.689,0-1.346,0.112-1.951,0.332c-1.899,0.691-3.347,2.181-3.972,4.086
		c-0.653,1.994-0.327,4.189,0.896,6.024c0.931,1.396,2.167,2.224,3.476,3.101c1.958,1.311,4.176,2.796,6.47,6.811
		c2.712,4.745,5.998,13.301,7.752,18.085l-7.546-3.726c-1.101-0.514-2.268-0.774-3.469-0.774c-3.152,0-6.055,1.855-7.394,4.728
		c-1.916,4.109-0.146,9.005,3.873,10.877c0.068,0.036,6.957,3.719,16.498,8.168l1.56,0.73c6.112,2.87,11.885,5.582,18.577,5.582
		h0.001c3.187,0,6.379-0.598,9.756-1.827c11.867-4.319,13.67-11.721,14.5-18.931C103.604,66.096,95.46,43.614,95.112,42.66z
		 M99.825,72.688C99.044,79.477,97.561,85.4,87.28,89.143c-3.044,1.107-5.899,1.646-8.73,1.646h-0.001
		c-6.022,0-11.25-2.455-17.302-5.298l-1.567-0.733c-9.46-4.412-16.281-8.059-16.424-8.131c-2.594-1.21-3.713-4.318-2.496-6.928
		c0.861-1.848,2.652-2.995,4.675-2.995c0.759,0,1.499,0.165,2.17,0.478l10.846,5.355c0.546,0.271,1.199,0.184,1.655-0.219
		c0.457-0.402,0.625-1.04,0.427-1.615c-0.211-0.609-5.206-15.032-9.229-22.073c-2.645-4.627-5.396-6.47-7.405-7.815
		c-1.146-0.767-2.05-1.373-2.649-2.272c-0.709-1.064-0.907-2.312-0.542-3.426c0.336-1.025,1.119-1.828,2.146-2.202
		c2.076-0.76,5.932,1.365,10.087,5.52c3.792,3.792,8.592,12.833,8.64,12.924c0.368,0.696,1.212,0.99,1.935,0.67
		c0.721-0.32,1.071-1.143,0.801-1.884l-1.368-3.759c-0.473-1.3-0.366-2.532,0.318-3.66c0.615-1.015,1.651-1.846,2.841-2.279
		c0.443-0.161,0.903-0.243,1.368-0.243c1.676,0,3.187,1.059,3.76,2.633l1.881,5.168c0.283,0.778,1.145,1.18,1.922,0.896
		c0.778-0.283,1.18-1.144,0.896-1.922l-0.854-2.35c-0.365-1.004-0.317-2.09,0.134-3.059s1.253-1.703,2.258-2.068
		c0.441-0.161,0.902-0.243,1.367-0.243c1.675,0,3.186,1.059,3.759,2.634l2.224,6.108c0.284,0.779,1.147,1.179,1.922,0.896
		c0.779-0.284,1.181-1.145,0.896-1.923l-1.318-3.624c0.406-0.445,1.256-1.142,1.894-1.374c0.352-0.128,0.727-0.193,1.113-0.193
		c1.34,0,2.56,0.781,2.968,1.9C94.591,49.998,100.421,67.51,99.825,72.688z"/>
</g>
</svg>
