<?xml version="1.0" encoding="UTF-8"?>
<svg viewBox="0 0 20 20" version="1.1" xmlns="http://www.w3.org/2000/svg" xmlns:xlink="http://www.w3.org/1999/xlink">
  <path d="M10,1 L10,9 L5,9 L5,6 C5,3.25 7.25,1 10,1 Z" fill="currentColor"/>
  <path d="M9.45,1.13 C7,1.5 5.1,3.5 5.1,6 L5.1,8 L9.45,8 L9.45,1.13 L9.45,1.13 Z M10.5,1.13 L10.5,8 L14.9,8 L14.9,6 C14.9,3.5 13,1.5 10.5,1.13 L10.5,1.13 Z M5.1,9 L5.1,14 C5.1,16.7 7.3,18.9 10,18.9 C12.7,18.9 14.9,16.7 14.9,14 L14.9,9 L5.1,9 Z M10,0 C13.3,0 16,2.7 16,6 L16,14 C16,17.3 13.3,20 10,20 C6.7,20 4,17.3 4,14 L4,6 C4,2.7 6.7,0 10,0 Z" fill="inherit"/>
</svg>
