<?xml version="1.0" encoding="UTF-8"?>
<svg version="1.1" xmlns="http://www.w3.org/2000/svg" xmlns:xlink="http://www.w3.org/1999/xlink" viewBox="0 0 20 20">
  <path d="M2,9.5 C2,9.5 4,12 4,12 L2.5,12 L2.5,14 L1.5,14 L1.5,12 L0,12 C0,12 2,9.5 2,9.5 z" fill="inherit"/>
  <path d="M2.5,4 L2.5,6 L4,6 C4,6 2,8.5 2,8.5 C2,8.5 0,6 0,6 L1.5,6 L1.5,4 L2.5,4 z" fill="inherit"/>
  <path d="M18.75,6 C18.5,5 18,4 17,3.5 C16.5,3.25 15.75,3.5 15.25,4 C14.75,3.25 14,3.25 13.25,3.5 C12.5,3.75 12.25,4.25 12.25,4.25 C12.25,4.25 11.5,3.5 10.5,4 C9.5,4.5 9.5,4.857 9.5,4.75 C9,4 8.3,3.3 8,3 C6,1 4.5,0.5 3.5,1.5 C2.5,2.5 3.5,4 4.5,5 C5.5,6 6.5,6.75 7,7.5 C8,9 8.75,10 9.25,12 C9.25,12 7.5,11.7 6,12 C4.75,12.25 3.5,13.5 3.5,14.5 C3.5,15.5 4.9,16.2 6,16 C9,15.5 9.5,17 11,17.5 C13,18.152 15,17.5 16.5,17 C19,16 19.3,14.13 19.5,12.5 C19.7,11 19.25,7.5 18.75,6 z M18.5,12.5 C18.3,14 17.5,15.5 16,16 C13.5,16.7 13,17 11.5,16.5 C10,16 9,14.5 6,15 C5,15.2 4.5,15 4.5,14.5 C4.5,14 5,13.25 6,13 C7,12.75 8.5,13 9.5,13 C10.5,13 10.5,12.5 10.5,12.5 C10.5,12 9,8 7.5,6.5 C7,6 6,5 5,4 C4.5,3.5 4,2.75 4.5,2.25 C5,1.75 6.5,3 7.5,4 C8.35,4.85 10,7.479 10,7.5 C10.5,8.5 11.5,8 11,7 L10.5,6 C10.25,5.25 11,5 11,5 C11,5 11.5,4.75 12,5.5 L12.5,6.5 C13,7.5 14,7 13.5,6 L13.25,5.5 C12.75,4.75 13.75,4.5 13.75,4.5 C13.75,4.5 14.5,4.5 14.75,5.1 L15.25,6 C15.75,7 16.75,6.5 16.25,5.5 C15.75,4.5 16.6,4.35 17,4.75 C17.25,5 17.5,5.5 17.75,6.25 C18.25,7.6 18.6,11.25 18.5,12.5 z" fill="inherit"/>
</svg>
