<?xml version="1.0" encoding="UTF-8"?>
<svg version="1.1" xmlns="http://www.w3.org/2000/svg" xmlns:xlink="http://www.w3.org/1999/xlink" viewBox="0 0 16 16">
  <path d="M14.002,5.76 L12.381,5.76 C12.176,5.76 12.011,5.926 12.011,6.13 L12.011,6.144 C12.011,6.349 12.176,6.514 12.381,6.514 L14.002,6.514 C14.206,6.514 14.372,6.349 14.372,6.144 L14.372,6.13 C14.372,5.926 14.206,5.76 14.002,5.76 z" fill="currentColor"/>
  <path d="M11.029,5.76 L9.408,5.76 C9.204,5.76 9.038,5.926 9.038,6.13 L9.038,6.144 C9.038,6.349 9.204,6.514 9.408,6.514 L11.029,6.514 C11.234,6.514 11.399,6.349 11.399,6.144 L11.399,6.13 C11.399,5.926 11.234,5.76 11.029,5.76 z" fill="currentColor"/>
  <path d="M8.042,5.76 L6.421,5.76 C6.217,5.76 6.051,5.926 6.051,6.13 L6.051,6.144 C6.051,6.349 6.217,6.514 6.421,6.514 L8.042,6.514 C8.247,6.514 8.412,6.349 8.412,6.144 L8.412,6.13 C8.412,5.926 8.247,5.76 8.042,5.76 z" fill="currentColor"/>
  <path d="M2.794,2.987 C4.444,2.133 6.392,2.446 7.673,3.641 L14.983,3.641 C15.254,3.641 15.481,3.869 15.481,4.139 C15.481,4.409 15.254,4.637 14.983,4.637 L4.871,4.637 C4.572,4.623 4.273,4.665 3.974,4.779 C3.377,5.016 2.919,5.508 2.725,6.121 C2.532,6.734 2.625,7.4 2.979,7.937 C3.534,8.776 4.615,9.117 5.553,8.747 C6.078,8.534 6.501,8.127 6.734,7.61 L13.106,7.61 C13.376,7.61 13.604,7.837 13.604,8.107 C13.604,8.378 13.376,8.605 13.106,8.605 L8.028,8.605 C7.758,8.605 7.53,8.833 7.53,9.103 C7.53,9.373 7.758,9.601 8.028,9.601 L10.916,9.601 C11.186,9.601 11.413,9.828 11.413,10.099 C11.413,10.369 11.186,10.597 10.916,10.597 L8.768,10.597 C8.498,10.597 8.27,10.824 8.27,11.094 C8.27,11.365 8.483,11.578 8.739,11.592 L9.266,11.592 C9.536,11.592 9.763,11.82 9.763,12.09 C9.763,12.36 9.536,12.588 9.266,12.588 L8.554,12.588 C8.483,12.915 8.426,13.171 8.384,13.342 C8.355,13.456 8.227,13.527 8.114,13.484 C7.033,13.071 2.239,11.109 1.002,8.733 C0.478,7.728 0.376,6.556 0.717,5.475 C1.059,4.395 1.816,3.494 2.822,2.973 z" fill="currentColor"/>
</svg>
