<?xml version="1.0" encoding="UTF-8"?>
<svg version="1.1" xmlns="http://www.w3.org/2000/svg" xmlns:xlink="http://www.w3.org/1999/xlink" viewBox="0 0 481.19 125.92">
  <path d="M37.67,10.09 C57.33,10.09 70.56,19.6 70.56,38.49 C70.56,51.47 64.39,59.95 54.11,63.93 L75.05,99.01 L50.89,99.01 L32.64,66.76 L21.33,66.76 L21.33,99.01 L0,99.01 L0,10.09 L37.67,10.09 z M21.22,48.63 L38.05,48.63 C45.25,48.63 50.26,45.67 50.26,38.86 C50.26,32.18 45.25,29.35 38.05,29.35 L21.22,29.35 L21.22,48.63 z M158.02,28.85 L158.02,34.63 C162.26,30.26 168.17,27.18 175.62,27.18 C193.99,27.18 201.19,46.07 201.19,63.93 C201.19,81.79 193.99,100.68 175.49,100.68 C168.81,100.68 163.41,98.24 159.3,94.51 L159.3,119.05 L139.51,125.73 L139.51,28.85 L158.02,28.85 z M159.3,51.59 L159.3,76.39 C161.87,80.12 165.47,82.69 170.48,82.69 C179.35,82.69 182.43,74.34 182.43,63.93 C182.43,53.52 179.35,45.17 170.48,45.17 C165.47,45.16 161.87,47.86 159.3,51.59 z M273.91,76.39 C271.34,80.11 267.75,82.68 262.73,82.69 C253.86,82.69 250.78,74.34 250.78,63.93 C250.78,53.52 253.86,45.17 262.73,45.17 C267.74,45.17 271.34,47.86 273.91,51.59 L273.91,76.39 z M293.7,4.05 L273.92,10.73 L273.92,33.35 C269.68,29.62 264.28,27.18 257.73,27.18 C239.23,27.18 232.03,46.07 232.03,63.93 C232.03,81.79 239.23,100.68 257.73,100.68 C265.05,100.68 270.83,97.73 275.2,93.36 L275.2,99.01 L293.7,99.01 L293.7,4.05 z M226.5,28.85 L206.71,28.85 L206.71,99.11 L226.5,99.11 L226.5,28.85 z M227.14,10.86 C227.14,4.56 222.78,0.19 216.6,0.19 C210.43,0.19 206.06,4.56 206.06,10.86 C206.06,17.15 210.43,21.52 216.6,21.52 C222.77,21.52 227.14,17.16 227.14,10.86 z M101.66,45.16 C106.68,45.16 110.27,47.86 112.84,51.58 L112.84,76.38 C110.27,80.11 106.67,82.68 101.66,82.68 C92.79,82.68 89.71,74.33 89.71,63.92 C89.71,53.51 92.79,45.16 101.66,45.16 z M132.63,28.85 L114.12,28.85 L114.12,34.63 C109.88,30.26 103.97,27.18 96.52,27.18 C78.15,27.18 70.95,46.07 70.95,63.93 C70.95,81.79 78.15,100.68 96.65,100.68 C103.33,100.68 108.73,98.24 112.84,94.51 L112.84,99.11 L132.63,99.11 L132.63,28.85 z" fill="inherit"/>
  <path d="M448.45,34.449 L465.56,34.449 C467.756,34.454 469.535,36.233 469.54,38.429 C469.535,40.625 467.756,42.404 465.56,42.409 L448.45,42.409 C446.254,42.404 444.475,40.625 444.47,38.429 C444.475,36.233 446.254,34.454 448.45,34.449 z M416.87,34.449 L433.98,34.449 C436.176,34.454 437.955,36.233 437.96,38.429 C437.955,40.625 436.176,42.404 433.98,42.409 L416.87,42.409 C414.674,42.404 412.895,40.625 412.89,38.429 C412.895,36.233 414.674,34.454 416.87,34.449 z M385.29,34.449 L402.4,34.449 C404.596,34.454 406.375,36.233 406.38,38.429 C406.375,40.625 404.596,42.404 402.4,42.409 L385.29,42.409 C383.094,42.404 381.315,40.625 381.31,38.429 C381.315,36.233 383.094,34.454 385.29,34.449 z" fill="currentColor"/>
  <path d="M346.91,5.119 C364.35,-3.961 384.98,-0.551 398.6,12.099 L475.92,12.099 C478.82,12.099 481.19,14.469 481.19,17.369 C481.19,20.269 478.82,22.639 475.92,22.639 L369.27,22.639 C369.14,22.639 369.01,22.669 368.88,22.679 C365.73,22.519 362.52,23.009 359.46,24.239 C346.11,29.589 341.04,45.679 348.9,57.719 C354.72,66.629 366.27,70.279 376.15,66.319 C382.04,63.959 386.31,59.509 388.58,54.239 L456.13,54.239 C459.03,54.239 461.4,56.609 461.4,59.509 C461.4,62.409 459.03,64.769 456.14,64.779 L402.37,64.779 C399.47,64.779 397.1,67.149 397.1,70.049 C397.1,72.949 399.47,75.319 402.37,75.319 L432.91,75.319 C435.81,75.319 438.17,77.689 438.17,80.589 C438.17,83.489 435.8,85.859 432.9,85.859 L410.17,85.859 C407.27,85.859 404.9,88.229 404.9,91.129 C404.9,93.909 407.09,96.179 409.82,96.359 C409.82,96.369 409.82,96.379 409.81,96.389 L415.31,96.389 C418.21,96.389 420.58,98.759 420.58,101.659 C420.58,104.559 418.21,106.929 415.31,106.929 L407.71,106.929 C406.96,110.389 406.3,113.139 405.85,114.939 C405.7,115.546 405.296,116.06 404.741,116.348 C404.186,116.637 403.534,116.674 402.95,116.449 C391.52,112.049 340.72,91.359 327.64,66.209 C316.12,43.979 324.74,16.649 346.91,5.119 z" fill="currentColor"/>
</svg>
