<?xml version="1.0" encoding="UTF-8"?>
<svg version="1.1" xmlns="http://www.w3.org/2000/svg" xmlns:xlink="http://www.w3.org/1999/xlink" viewBox="0 0 16 16">
  <path d="M1.998,5.76 L3.619,5.76 C3.824,5.76 3.989,5.926 3.989,6.13 L3.989,6.144 C3.989,6.349 3.824,6.514 3.619,6.514 L1.998,6.514 C1.794,6.514 1.628,6.349 1.628,6.144 L1.628,6.13 C1.628,5.926 1.794,5.76 1.998,5.76 z" fill="currentColor"/>
  <path d="M4.971,5.76 L6.592,5.76 C6.796,5.76 6.962,5.926 6.962,6.13 L6.962,6.144 C6.962,6.349 6.796,6.514 6.592,6.514 L4.971,6.514 C4.766,6.514 4.601,6.349 4.601,6.144 L4.601,6.13 C4.601,5.926 4.766,5.76 4.971,5.76 z" fill="currentColor"/>
  <path d="M7.958,5.76 L9.579,5.76 C9.783,5.76 9.949,5.926 9.949,6.13 L9.949,6.144 C9.949,6.349 9.783,6.514 9.579,6.514 L7.958,6.514 C7.753,6.514 7.588,6.349 7.588,6.144 L7.588,6.13 C7.588,5.926 7.753,5.76 7.958,5.76 z" fill="currentColor"/>
  <path d="M13.206,2.987 C11.556,2.133 9.608,2.446 8.327,3.641 L1.017,3.641 C0.746,3.641 0.519,3.869 0.519,4.139 C0.519,4.409 0.746,4.637 1.017,4.637 L11.129,4.637 C11.428,4.623 11.727,4.665 12.026,4.779 C12.623,5.016 13.081,5.508 13.275,6.121 C13.468,6.734 13.375,7.4 13.021,7.937 C12.466,8.776 11.385,9.117 10.447,8.747 C9.922,8.534 9.499,8.127 9.266,7.61 L2.894,7.61 C2.624,7.61 2.396,7.837 2.396,8.107 C2.396,8.378 2.624,8.605 2.894,8.605 L7.972,8.605 C8.242,8.605 8.47,8.833 8.47,9.103 C8.47,9.373 8.242,9.601 7.972,9.601 L5.084,9.601 C4.814,9.601 4.587,9.828 4.587,10.099 C4.587,10.369 4.814,10.597 5.084,10.597 L7.232,10.597 C7.502,10.597 7.73,10.824 7.73,11.094 C7.73,11.365 7.517,11.578 7.261,11.592 L6.734,11.592 C6.464,11.592 6.237,11.82 6.237,12.09 C6.237,12.36 6.464,12.588 6.734,12.588 L7.446,12.588 C7.517,12.915 7.574,13.171 7.616,13.342 C7.645,13.456 7.773,13.527 7.886,13.484 C8.967,13.071 13.761,11.109 14.998,8.733 C15.522,7.728 15.624,6.556 15.283,5.475 C14.941,4.395 14.184,3.494 13.178,2.973 z" fill="currentColor"/>
</svg>
