<?xml version="1.0" encoding="UTF-8"?>
<svg version="1.1" xmlns="http://www.w3.org/2000/svg" xmlns:xlink="http://www.w3.org/1999/xlink" viewBox="0 0 45 22">
  <g fill="inherit">
    <path d="M2.413 12.687v3.53H0V5.4h3.81c2.52 0 3.84 1.333 3.84 3.427 0 1.454-.668 2.561-1.943 3.115l2.428 4.275H5.42l-1.9-3.634-1.108.104zm-.045-2.043l1.214-.034c1.032-.087 1.594-.572 1.594-1.61 0-.952-.577-1.42-1.791-1.42H2.368v3.064zm10.64 3.531v-1.54c-1.442.19-1.974.502-1.974 1.211 0 .52.365.866.88.866.471 0 .85-.225 1.094-.537zm.06 1.073h-.045c-.501.675-1.063 1.229-2.034 1.229-1.214 0-2.155-.987-2.155-2.233 0-1.523 1.001-2.752 4.174-2.856v-.155c0-.848-.38-1.23-1.245-1.23-.729 0-1.579.347-2.398.814l-.486-1.955c.744-.45 1.913-.952 3.248-.952 2.444 0 3.248 1.263 3.218 3.513l-.015 2.389c0 .553.09.605.577.657l-.228 1.904c-1.533.225-2.292-.242-2.61-1.125zM19.306 9c.44-.52 1.078-1.09 1.974-1.09 1.745 0 3.02 1.627 3.02 4.188 0 2.665-1.624 4.362-3.536 4.362a4.633 4.633 0 0 1-1.458-.26v3.6H16.97V8.308l2.337-.33V9zm0 1.592v3.548c.274.208.638.33 1.078.33 1.002 0 1.579-.9 1.579-2.233 0-1.385-.516-2.199-1.473-2.199-.516 0-.865.225-1.184.554z"/>
    <path d="M28.534 16.2H26.1V8.303l2.434-.328V16.2zM39.6 10.722c0 3.318-2.008 5.478-5.628 5.478h-3.54V5.4h3.714c3.478 0 5.454 2.108 5.454 5.322zm-2.53.104c0-2.23-1.027-3.231-3.082-3.231h-1.043v6.41h1.17c1.818 0 2.956-1.02 2.956-3.18zM27.45 6.3a3.15 3.15 0 1 1 0-6.3 3.15 3.15 0 0 1 0 6.3zm0-1.4a1.75 1.75 0 1 0 0-3.5 1.75 1.75 0 0 0 0 3.5z" fill="currentColor"/>
    <path d="M29.7 20.095l.973-1.805a7.807 7.807 0 0 0 4.191 1.22c4.536 0 8.205-3.904 8.205-8.71 0-4.806-3.67-8.71-8.205-8.71a7.8 7.8 0 0 0-4.054 1.136L29.87 1.4A9.616 9.616 0 0 1 34.863 0C40.458 0 45 4.831 45 10.8s-4.542 10.8-10.136 10.8a9.626 9.626 0 0 1-5.164-1.505z" fill="currentColor"/>
  </g>
</svg>
