<?xml version="1.0" encoding="UTF-8"?>
<svg version="1.1" xmlns="http://www.w3.org/2000/svg" xmlns:xlink="http://www.w3.org/1999/xlink" viewBox="0 0 481.19 125.92">
  <path d="M225.16,10.28 C244.82,10.28 258.05,19.79 258.05,38.68 C258.05,51.66 251.88,60.14 241.6,64.12 L262.54,99.2 L238.38,99.2 L220.13,66.95 L208.82,66.95 L208.82,99.2 L187.49,99.2 L187.49,10.28 L225.16,10.28 z M208.71,48.82 L225.54,48.82 C232.74,48.82 237.75,45.86 237.75,39.05 C237.75,32.37 232.74,29.54 225.54,29.54 L208.71,29.54 L208.71,48.82 z M345.51,29.04 L345.51,34.82 C349.75,30.45 355.66,27.37 363.11,27.37 C381.48,27.37 388.68,46.26 388.68,64.12 C388.68,81.98 381.48,100.87 362.98,100.87 C356.3,100.87 350.9,98.43 346.79,94.7 L346.79,119.24 L327,125.92 L327,29.04 L345.51,29.04 z M346.79,51.78 L346.79,76.58 C349.36,80.31 352.96,82.88 357.97,82.88 C366.84,82.88 369.92,74.53 369.92,64.12 C369.92,53.71 366.84,45.36 357.97,45.36 C352.96,45.35 349.36,48.05 346.79,51.78 z M461.4,76.58 C458.83,80.3 455.24,82.87 450.22,82.88 C441.35,82.88 438.27,74.53 438.27,64.12 C438.27,53.71 441.35,45.36 450.22,45.36 C455.23,45.36 458.83,48.05 461.4,51.78 L461.4,76.58 z M481.19,4.24 L461.41,10.92 L461.41,33.54 C457.17,29.81 451.77,27.37 445.22,27.37 C426.72,27.37 419.52,46.26 419.52,64.12 C419.52,81.98 426.72,100.87 445.22,100.87 C452.54,100.87 458.32,97.92 462.69,93.55 L462.69,99.2 L481.19,99.2 L481.19,4.24 z M413.99,29.04 L394.2,29.04 L394.2,99.3 L413.99,99.3 L413.99,29.04 z M414.63,11.05 C414.63,4.75 410.27,0.38 404.09,0.38 C397.92,0.38 393.55,4.75 393.55,11.05 C393.55,17.34 397.92,21.71 404.09,21.71 C410.26,21.71 414.63,17.35 414.63,11.05 z M289.15,45.35 C294.17,45.35 297.76,48.05 300.33,51.77 L300.33,76.57 C297.76,80.3 294.16,82.87 289.15,82.87 C280.28,82.87 277.2,74.52 277.2,64.11 C277.2,53.7 280.28,45.35 289.15,45.35 z M320.12,29.04 L301.61,29.04 L301.61,34.82 C297.37,30.45 291.46,27.37 284.01,27.37 C265.64,27.37 258.44,46.26 258.44,64.12 C258.44,81.98 265.64,100.87 284.14,100.87 C290.82,100.87 296.22,98.43 300.33,94.7 L300.33,99.3 L320.12,99.3 L320.12,29.04 z" fill="inherit"/>
  <path d="M32.74,34.45 L15.63,34.45 C13.434,34.455 11.655,36.234 11.65,38.43 C11.655,40.626 13.434,42.405 15.63,42.41 L32.74,42.41 C34.936,42.405 36.715,40.626 36.72,38.43 C36.715,36.234 34.936,34.455 32.74,34.45 z M64.32,34.45 L47.21,34.45 C45.014,34.455 43.235,36.234 43.23,38.43 C43.235,40.626 45.014,42.405 47.21,42.41 L64.32,42.41 C66.516,42.405 68.295,40.626 68.3,38.43 C68.295,36.234 66.516,34.455 64.32,34.45 z M95.9,34.45 L78.79,34.45 C76.594,34.455 74.815,36.234 74.81,38.43 C74.815,40.626 76.594,42.405 78.79,42.41 L95.9,42.41 C98.096,42.405 99.875,40.626 99.88,38.43 C99.875,36.234 98.096,34.455 95.9,34.45 z" fill="currentColor"/>
  <path d="M134.28,5.12 C116.84,-3.96 96.21,-0.55 82.59,12.1 L5.27,12.1 C2.37,12.1 -0,14.47 -0,17.37 C-0,20.27 2.37,22.64 5.27,22.64 L111.92,22.64 C112.05,22.64 112.18,22.67 112.31,22.68 C115.46,22.52 118.67,23.01 121.73,24.24 C135.08,29.59 140.15,45.68 132.29,57.72 C126.47,66.63 114.92,70.28 105.04,66.32 C99.15,63.96 94.88,59.51 92.61,54.24 L25.06,54.24 C22.16,54.24 19.79,56.61 19.79,59.51 C19.79,62.41 22.16,64.77 25.05,64.78 L78.82,64.78 C81.72,64.78 84.09,67.15 84.09,70.05 C84.09,72.95 81.72,75.32 78.82,75.32 L48.28,75.32 C45.38,75.32 43.02,77.69 43.02,80.59 C43.02,83.49 45.39,85.86 48.29,85.86 L71.02,85.86 C73.92,85.86 76.29,88.23 76.29,91.13 C76.29,93.91 74.1,96.18 71.37,96.36 C71.37,96.37 71.37,96.38 71.38,96.39 L65.88,96.39 C62.98,96.39 60.61,98.76 60.61,101.66 C60.61,104.56 62.98,106.93 65.88,106.93 L73.48,106.93 C74.23,110.39 74.89,113.14 75.34,114.94 C75.49,115.547 75.894,116.061 76.449,116.349 C77.004,116.638 77.656,116.675 78.24,116.45 C89.67,112.05 140.47,91.36 153.55,66.21 C165.07,43.98 156.45,16.65 134.28,5.12 z" fill="currentColor"/>
</svg>
